<svg width="600" height="150" viewbox = "0 0 600 150"  xmlns="http://www.w3.org/2000/svg">
<!--<json>{
  "glyph": "0331,0336,0330,0330,0332,0337,0332,0332,0332,0332,0226,01015,0331,0336,0330,0336,0333,0331,0337,0176,0365,0333,0333,041,0365,0333,0333,0100,0365,043,0333,0333,0365,044,0333,0333,0365,045,0333,0333,0365,0333,0333,0136,0365,0333,0333,046,0365,0333,01015,",
  "shapes": [
    "0220:01330,01331,01332,01333,01334,01335,01336,01337,01300,0332,0332,0332,0332,0332,0332,0332,0332,0332,",
    "0221:01304,01305,01306,01350,01351,01352,01353,0332,0332,0332,0332,0332,0332,0332,",
    "0222:01310,01311,01312,01313,01314,01316,0332,0332,0332,0332,0332,0332,",
    "0223:01340,01341,01342,01343,01200,01347,01204,01201,0332,0332,0332,0332,0332,0332,0332,0332,",
    "0224:01362,01203,01363,01354,01364,01360,01361,01345,01346,0332,0332,0332,0332,0332,0332,0332,0332,0332,",
    "0225:01366,01367,0332,0332,",
    "0226:01320,01321,01322,01323,01324,01325,01326,01327,0332,0332,0332,0332,0332,0332,0332,0332,",
    "0227:01030,01031,01032,01033,01036,01037,0332,0332,0332,0332,0332,0332,",
    "0230:01020,01021,01022,01023,01010,0332,0332,0332,0332,0332,",
    "0231:01370,01371,0332,0332,",
    "0232:0333,01015,0141,0142,0143,0365,0332,01365,0332,",
    "0233:01210,01211,0332,0332,",
    "0234:",
    "0235:",
    "0236:",
    "0237:",
    "0240:0334,0336,0336,0366,0337,0337,0333,0335,0335,0336,0336,0367,0334,0337,0337,",
    "0241:",
    "0242:",
    "0243:",
    "0244:",
    "0245:",
    "0246:",
    "0247:",
    "01220:0333,0200,0336,0330,0332,0336,0332,0336,0332,0332,0220,0337,0337,0331,0333,0333,0337,",
    "01221:0333,0200,0336,0330,0332,0336,0332,0332,0336,0221,0337,0337,0331,0333,0333,0337,",
    "01222:0333,0200,0336,0330,0332,0332,0336,0336,0222,0337,0337,0331,0333,0333,0337,",
    "01223:0333,0200,0336,0330,0332,0336,0332,0336,0332,0332,0223,0337,0337,0333,0333,0331,0337,",
    "01224:0333,0200,0336,0330,0332,0336,0332,0332,0336,0224,0337,0337,0333,0331,0333,0337,",
    "01225:0333,0200,0336,0330,0332,0336,0332,0225,0332,0337,0333,0331,0333,0337,",
    "01226:0333,0200,0336,0330,0332,0336,0332,0336,0332,0332,0226,0337,0337,0333,0331,0333,0337,",
    "01227:0333,0200,0336,0330,0332,0332,0336,0336,0227,0337,0337,0333,0331,0333,0337,",
    "01230:0333,0200,0336,0330,0332,0332,0336,0336,0230,0337,0337,0331,0333,0333,0337,",
    "01231:0333,0200,0336,0330,0332,0336,0332,0231,0333,0333,0331,0331,0333,0337,0337,",
    "01232:0333,0200,0336,0330,0332,0336,0332,0332,0232,0337,0333,0331,0333,0337,",
    "01233:0333,0200,0336,0330,0332,0336,0332,0233,0332,0337,0333,0331,0333,0337,",
    "01234:0333,0200,0336,0330,0332,0332,0332,0336,0333,0337,0234,0333,0333,0333,0331,0336,0333,0331,0337,0337,0337,0210,0210,0337,0336,",
    "01235:0333,0200,0235,",
    "01236:0333,0200,0236,",
    "01237:0333,0200,0336,0330,0332,0332,0237,0331,0336,0332,0337,0337,",
    "01240:0333,0200,0336,0332,0336,0330,0337,0240,0333,0336,0330,0337,0337,0331,",
    "01241:0333,0200,0336,0332,0241,0333,0337,",
    "01242:0333,0200,0336,0332,0332,0336,0330,0330,0242,0336,0331,0331,0331,0331,0332,0337,0337,0337,",
    "01243:0333,0200,0336,0332,0332,0243,0337,",
    "01244:0333,0200,0332,0336,0330,0336,0336,0243,0243,0243,0243,0331,0331,0331,0331,0337,0337,0337,",
    "01245:0333,0200,0336,0332,0336,0331,0337,0245,0333,0336,0330,0337,0337,",
    "01246:0333,0200,0330,0332,0336,0331,0336,0332,0337,0246,0333,0333,0336,0333,0331,0331,0337,0337,",
    "01247:0333,0200,0336,0330,0332,0337,0247,0336,0333,0331,0337,"
  ],
  "x0rel": 0.5,
  "y0rel": 0.5,
  "unitrel": 0.1,
  "theta0": -1.570796,
  "width": 600,
  "height": 150,
  "scale": 1,
  "backgroundimage": "",
  "style": {
    "color0": "black",
    "fill0": "black",
    "line0": 1,
    "color1": "black",
    "fill1": "black",
    "line1": 5,
    "color2": "red",
    "fill2": "red",
    "line2": 2,
    "color3": "#FF7900",
    "fill3": "#FF7900",
    "line3": 2,
    "color4": "yellow",
    "fill4": "yellow",
    "line4": 2,
    "color5": "green",
    "fill5": "green",
    "line5": 2,
    "color6": "blue",
    "fill6": "blue",
    "line6": 2,
    "color7": "purple",
    "fill7": "purple",
    "line7": 2
  },
  "controlbuttons": [
    196,
    198,
    200,
    203,
    128,
    216,
    217,
    218,
    219,
    220,
    221,
    222,
    223,
    27,
    8,
    134,
    225,
    192,
    16,
    17,
    145,
    151,
    146,
    232,
    233
  ]
}</json>-->	<path d = "M90 75 L90 15 L30 15 L30 75 L90 75 Z" stroke = "#000000" stroke-width = "1" fill = "none" />	<path d = "M75 60 L75 30 L45 30 L45 60 L75 60 Z" stroke = "#000000" stroke-width = "1" fill = "#000000" />	<path d = "M150 75 L150 15 L90 15 L90 75 L150 75 Z" stroke = "#000000" stroke-width = "1" fill = "none" />	<path d = "M135 60 L135 30 L105 30 L105 60 L135 60 Z" stroke = "#000000" stroke-width = "5" fill = "#000000" />	<path d = "M210 75 L210 15 L150 15 L150 75 L210 75 Z" stroke = "#000000" stroke-width = "1" fill = "none" />	<path d = "M195 60 L195 30 L165 30 L165 60 L195 60 Z" stroke = "#ff0000" stroke-width = "2" fill = "#ff0000" />	<path d = "M270 75 L270 15 L210 15 L210 75 L270 75 Z" stroke = "#000000" stroke-width = "1" fill = "none" />	<path d = "M255 60 L255 30 L225 30 L225 60 L255 60 Z" stroke = "#ff7900" stroke-width = "2" fill = "#ff7900" />	<path d = "M330 75 L330 15 L270 15 L270 75 L330 75 Z" stroke = "#000000" stroke-width = "1" fill = "none" />	<path d = "M315 60 L315 30 L285 30 L285 60 L315 60 Z" stroke = "#ffff00" stroke-width = "2" fill = "#ffff00" />	<path d = "M390 75 L390 15 L330 15 L330 75 L390 75 Z" stroke = "#000000" stroke-width = "1" fill = "none" />	<path d = "M375 60 L375 30 L345 30 L345 60 L375 60 Z" stroke = "#008000" stroke-width = "2" fill = "#008000" />	<path d = "M450 75 L450 15 L390 15 L390 75 L450 75 Z" stroke = "#000000" stroke-width = "1" fill = "none" />	<path d = "M435 60 L435 30 L405 30 L405 60 L435 60 Z" stroke = "#0000ff" stroke-width = "2" fill = "#0000ff" />	<path d = "M510 75 L510 15 L450 15 L450 75 L510 75 Z" stroke = "#000000" stroke-width = "1" fill = "none" />	<path d = "M495 60 L495 30 L465 30 L465 60 L495 60 Z" stroke = "#800080" stroke-width = "2" fill = "#800080" />    <text x="45" y = "120" fill = "#000000" font-size = "30px" font-family = "Arial">~</text>
    <text x="105" y = "120" fill = "#000000" font-size = "30px" font-family = "Arial">!</text>
    <text x="165" y = "120" fill = "#000000" font-size = "30px" font-family = "Arial">@</text>
    <text x="225" y = "120" fill = "#000000" font-size = "30px" font-family = "Arial">#</text>
    <text x="285" y = "120" fill = "#000000" font-size = "30px" font-family = "Arial">$</text>
    <text x="345" y = "120" fill = "#000000" font-size = "30px" font-family = "Arial">%</text>
    <text x="405" y = "120" fill = "#000000" font-size = "30px" font-family = "Arial">^</text>
    <text x="465" y = "120" fill = "#000000" font-size = "30px" font-family = "Arial">&amp;</text>
</svg>