<svg width="700" height="700" viewbox = "0 0 700 700"  xmlns="http://www.w3.org/2000/svg">
<!--<json>{
  "glyph": "0230,0322,0227,",
  "shapes": [
    "0220:0313,0304,0336,0332,0337,0342,0336,0333,0330,0334,0337,0342,0335,0336,0331,0332,0333,0336,0332,0337,0342,0336,0333,0334,0333,0337,0342,0335,0336,0331,0336,0332,0337,0342,0336,0333,0330,0334,0337,0342,0335,0336,0331,0336,0332,0337,0342,0336,0333,0330,0334,0337,0342,0335,0336,0331,0336,0332,0337,0342,0336,0333,0330,0334,0337,0342,0335,0336,0331,0337,0337,0337,0337,0337,0336,0336,0336,0336,0336,0336,0332,0337,0342,0336,0333,0334,0333,0337,0342,0335,0336,0331,0337,0337,0337,0337,0337,0337,0332,0336,0336,0336,0330,0336,0333,0330,0337,0336,0333,0337,01304,01313,0331,0331,0333,0333,0333,0333,0333,0336,0330,0337,0337,0337,0337,",
    "0221:0304,0334,0306,0336,0330,0335,0201,0335,0335,0201,0335,0335,0201,0335,0304,0335,0336,0330,0336,0331,0332,0330,0336,0333,0337,01306,0331,0331,0336,0332,0337,0337,0337,0333,0337,",
    "0222:0350,0335,0310,0336,0201,0334,0334,0334,0336,0201,0335,0335,0335,0336,0201,0334,0334,0334,0336,0201,0335,0335,0335,0336,0201,0334,0334,0334,0336,0201,0335,0335,0335,0336,0201,0334,0334,0334,0336,0201,0335,0335,0335,0336,0201,0334,0334,0330,0335,0337,0337,0337,0337,0337,0337,0337,0337,0337,0331,0304,0313,0336,0330,0333,0336,0331,0336,0331,0332,0336,0332,0337,01304,01350,01310,0331,0331,0332,0332,0332,0332,0330,0332,0336,0332,0337,0337,0337,0337,",
    "0223:0304,0335,0330,0334,0334,0306,0350,0335,0312,0336,0313,0337,0330,0334,0334,0334,0334,0313,0336,0330,0334,0334,0334,0334,0334,0334,0330,0335,0335,0335,0335,0312,0335,0312,0336,0313,0337,0201,0335,0335,0335,0335,0335,0312,0336,0201,0334,0334,0334,0334,0334,0336,0201,0335,0335,0335,0335,0335,0336,0201,0334,0334,0334,0334,0334,0334,0335,0336,0201,0331,0335,0334,0334,0337,0330,0335,0337,0331,0334,0337,0330,0335,0337,0331,0334,0337,0330,0334,0313,0336,0312,0337,0331,0334,0334,0334,0313,0304,0313,0336,0336,0330,0333,0333,0336,0331,0332,0336,0331,0337,01312,0331,0332,0332,0332,0332,0336,0330,0337,0337,0337,0337,",
    "0224:0304,0313,0335,0311,0305,0350,0330,0334,0334,0334,0334,0336,0330,0334,0334,0330,0335,0337,0335,0335,0335,0335,0336,0330,0335,0335,0335,0336,0201,0334,0334,0334,0336,0201,0335,0335,0335,0336,0201,0334,0334,0334,0336,0201,0335,0335,0335,0336,0201,0334,0334,0334,0336,0201,0335,0335,0335,0334,0330,0334,0337,0337,0337,0337,0337,0337,0336,0331,0334,0334,0334,0330,0335,0335,0337,0331,0335,0304,0337,0334,0313,0336,0336,0336,0333,0333,0333,0336,0330,0332,0337,0336,0336,0331,0332,0337,0337,01305,01311,0331,0332,0332,0332,0332,0336,0330,0336,0330,0332,0337,0337,0337,0337,0337,",
    "0225:0313,0304,0335,0305,0311,0334,0336,0330,0335,0337,0350,0335,0330,0335,0335,0335,0335,0330,0335,0335,0335,0336,0335,0201,0335,0335,0335,0335,0336,0201,0334,0334,0334,0334,0201,0335,0335,0335,0335,0336,0201,0334,0334,0334,0334,0201,0335,0335,0335,0335,0336,0201,0334,0334,0334,0334,0201,0335,0335,0335,0335,0336,0201,0334,0334,0334,0334,0201,0335,0335,0335,0335,0336,0201,0334,0334,0334,0334,0201,0335,0335,0335,0335,0336,0201,0334,0334,0334,0334,0201,0335,0335,0335,0335,0336,0201,0334,0334,0334,0337,0330,0337,0337,0337,0337,0337,0337,0337,0331,0304,0334,0313,",
    "0226:0313,0304,0335,0306,0350,0312,0330,0334,0334,0334,0334,0334,0336,0330,0334,0334,0330,0331,0334,0336,0342,0334,0334,0342,0330,0334,0336,0331,0342,0335,0335,0335,0335,0342,0334,0336,0342,0334,0334,0342,0330,0334,0336,0331,0342,0335,0335,0335,0335,0342,0334,0336,0342,0334,0334,0342,0334,0337,0330,0335,0337,0331,0334,0337,0330,0335,0337,0331,0313,0336,0312,0335,0337,0342,0330,0335,0335,0335,0337,0330,0335,0335,0335,0313,0337,0304,0313,",
    "0227:0331,0220,0333,0332,0222,0333,0330,0332,0335,0335,0332,0223,0335,0335,0221,0312,0336,0331,0306,0334,0313,0337,0330,0335,0304,0335,0335,0336,0312,0337,0313,0304,0330,0335,0330,0335,0330,0335,0330,0334,0331,0335,0330,0334,0334,0350,0310,0337,0335,0330,0336,0335,0304,0335,0306,0334,0330,0335,0335,0330,0335,0335,0330,0335,0335,0304,0334,0226,0335,0306,0350,0334,0312,0336,0330,0335,0335,0330,0331,0334,0334,0331,0337,0313,0304,0332,0225,0335,0305,0334,0311,0336,0330,0335,0350,0335,0337,0304,0334,0224,0335,0305,0350,0334,0311,0336,0330,0335,0335,0335,0335,0335,0304,0305,0330,0334,0334,0311,0337,0330,0335,0335,0304,0335,0313,",
    "0230:0331,0200,0335,0201,0334,0334,0350,0335,0310,0337,0201,0335,0304,0335,0336,0201,0335,0312,0336,0201,0335,0306,0350,0335,0313,0337,0201,0334,0313,0336,0312,0337,0304,0335,0335,0306,0334,0201,0335,0335,0342,0335,0350,0335,0312,0336,0201,0334,0334,0201,0335,0335,0335,0337,0313,0304,0335,0332,0335,0305,0334,0311,0336,0201,0335,0350,0335,0337,0342,0334,0336,0201,0335,0335,0201,0335,0335,0335,0337,0313,0304,0335,",
    "0231:0350,0310,0362,0203,0335,0335,0203,0335,0335,0335,0337,0203,0363,0324,0334,0334,0334,0336,0362,0203,0335,0334,0334,0337,0203,0334,0334,0334,0334,0335,0336,0203,0334,0337,0203,0363,0335,0320,0336,0331,0335,0335,0335,0337,0362,0203,0335,0335,0335,0336,0203,0335,0335,0203,0363,0331,0304,0335,0313,",
    "0232:0336,0336,0336,0336,0336,0362,0203,0337,0203,0306,0334,0337,0203,0335,0335,0203,0203,0334,0334,0203,0203,0335,0335,0203,0203,0334,0334,0203,0203,0335,0335,0203,0203,0334,0334,0203,0335,0203,0336,0336,0203,0304,0337,0337,0337,0337,0337,0364,",
    "0233:0336,0336,0362,0203,0336,0203,0334,0364,0337,0330,0335,0335,0337,0342,0336,0330,0332,0331,0337,0342,0336,0330,0334,0336,0362,0203,0337,0203,0335,0364,0335,0337,0337,0335,0335,",
    "0234:0336,0366,0330,0333,0333,0336,0331,0337,0367,0335,0335,0366,0331,0333,0333,0367,0335,0335,0337,",
    "0235:0313,0336,0314,0336,0313,0337,0234,0234,0234,0234,0314,0337,0313,",
    "0236:0336,0336,0336,0336,0347,0337,0337,0337,0337,",
    "0237:0246,0331,0332,0331,0246,0330,0333,0331,0331,0333,0246,0332,0330,",
    "0240:0304,0313,0200,0336,0332,0350,0335,0310,0337,0304,0313,",
    "0241:0350,0310,0336,0334,0304,0313,0333,0337,",
    "0242:0240,0240,0240,0240,0240,0240,0240,0240,0241,0241,0241,0241,0241,0241,0241,0241,",
    "0243:0306,0201,0335,0335,0201,0335,0335,0201,0336,0331,0335,",
    "0244:0305,0322,0311,0350,0362,0203,0335,0203,0335,0335,0335,0335,0203,0335,0203,0363,0320,0335,0335,0335,0335,0362,0203,0335,0203,0335,0335,0335,0335,0203,0335,0203,0354,0335,0335,0335,0335,",
    "0245:0326,0305,0350,0311,0362,0203,0335,0335,0203,0335,0335,0335,0203,0335,0335,0203,0363,0320,0335,0335,0335,0362,0203,0335,0335,0203,0335,0335,0335,0203,0335,0335,0203,0354,0335,0335,0335,",
    "0246:0306,0322,0362,0203,0334,0203,0334,0334,0203,0334,0203,0334,0363,0334,0325,0362,0203,0335,0203,0335,0335,0203,0335,0203,0363,0335,0335,0330,0326,0334,0362,0203,0335,0335,0203,0335,0203,0335,0335,0203,0363,0320,0335,0201,0335,0335,0201,0335,0201,0335,0335,0201,0334,0201,0335,0335,0201,0335,0201,0335,0333,0201,0335,0335,0201,0335,0201,0335,0335,0330,0331,0314,",
    "0247:0330,0336,0336,0336,0331,01300,01301,01302,01303,01304,01305,01306,01307,0337,0337,0337,0332,0336,0336,0336,0331,01310,01311,01312,01313,01314,01315,01316,01317,0337,0337,0337,0332,0336,0336,0336,0331,01320,01321,01322,01323,01324,01325,01326,01327,0337,0337,0337,0332,0336,0336,0336,0331,01330,01331,01332,01333,01334,01335,01336,01337,0337,0337,0337,0332,0336,0336,0336,0331,01340,01341,01342,01343,01344,01345,01346,01347,0337,0337,0337,0332,0336,0336,0336,0331,01350,01351,01352,01353,01354,01355,01356,01357,0337,0337,0337,0332,0336,0336,0336,0331,01360,01361,01362,01363,01364,01365,01366,01367,0337,0337,0337,0332,0336,0336,0336,0331,01370,01371,01372,01373,01374,01375,01376,01377,0337,0337,0337,0332,",
    "01220:0333,0200,0336,0330,0332,0336,0331,0333,0337,0220,0336,0331,0333,0337,0337,0320,",
    "01221:0333,0200,0336,0330,0332,0331,0336,0333,0330,0337,0221,0336,0331,0333,0337,0337,",
    "01222:0333,0200,0336,0330,0332,0336,0331,0333,0337,0332,0222,0333,0336,0333,0331,0337,0337,",
    "01223:0333,0200,0336,0336,0330,0332,0337,0223,0336,0331,0333,0337,0337,0320,",
    "01224:0333,0200,0336,0332,0330,0224,0333,0331,0337,",
    "01225:0333,0200,0336,0336,0332,0332,0330,0337,0225,0304,0333,0331,0336,0330,0337,0337,",
    "01226:0333,0200,0336,0330,0332,0332,0337,0226,0336,0331,0336,0333,0330,0333,0333,0331,0333,0337,0337,",
    "01227:0333,0200,0336,0330,0332,0210,0227,0211,0331,0333,0337,",
    "01230:0333,0200,0336,0330,0332,0336,0230,0337,0331,0333,0337,",
    "01231:0333,0200,0336,0330,0332,0336,0331,0332,0336,0330,0337,0231,0331,0333,0336,0331,0337,0337,0337,",
    "01232:0333,0200,0336,0330,0332,0331,0336,0330,0337,0232,0336,0330,0337,0333,0337,0331,",
    "01233:0333,0200,0336,0332,0336,0330,0337,0233,0336,0330,0333,0333,0337,0337,0331,",
    "01234:0333,0200,0336,0330,0332,0336,0331,0337,0234,0336,0330,0336,0330,0337,0337,0333,0337,0331,",
    "01235:0333,0200,0336,0332,0336,0330,0337,0235,0336,0330,0337,0333,0337,0331,",
    "01236:0333,0200,0336,0330,0332,0336,0342,0335,0342,0335,0342,0335,0342,0335,0337,0236,0331,0333,0337,",
    "01237:0333,0200,0336,0330,0332,0336,0237,0313,0337,0304,0313,0331,0333,0337,",
    "01240:0333,0200,0336,0330,0332,0336,0331,0333,0337,0240,0240,0241,0241,0336,0331,0333,0337,0337,",
    "01241:0333,0200,0336,0330,0332,0336,0331,0333,0337,0240,0240,0241,0241,0336,0330,0332,0336,0334,0330,0337,0201,0336,0336,0306,0350,0335,0335,0335,0336,0362,0203,0334,0334,0334,0334,0337,0203,0334,0334,0334,0334,0203,0334,0334,0334,0334,0336,0203,0363,0313,0304,0337,0337,0332,0337,0337,0331,0337,0333,",
    "01242:0333,0200,0242,",
    "01243:0333,0200,0336,0330,0332,0336,0331,0337,0306,0201,0335,0335,0201,0335,0335,0201,0335,0335,0313,0304,0336,0331,0333,0333,0337,0337,",
    "01244:0333,0200,0336,0330,0332,0336,0331,0337,0244,0313,0304,0336,0331,0337,0333,0337,",
    "01245:0333,0200,0336,0330,0332,0336,0331,0337,0245,0313,0304,0336,0331,0337,0333,0337,",
    "01246:0333,0200,0336,0330,0332,0336,0331,0246,0313,0331,0313,0304,0333,0333,0337,0337,",
    "01247:0247,0333,"
  ],
  "x0rel": 0.5,
  "y0rel": 0.5,
  "unitrel": 0.4,
  "theta0": -1.570796,
  "width": 700,
  "height": 700,
  "scale": 1,
  "backgroundimage": "",
  "style": {
    "color0": "#00ff00",
    "fill0": "black",
    "line0": 1,
    "color1": "black",
    "fill1": "black",
    "line1": 3,
    "color2": "red",
    "fill2": "red",
    "line2": 1,
    "color3": "#FF7900",
    "fill3": "#FF7900",
    "line3": 1,
    "color4": "yellow",
    "fill4": "yellow",
    "line4": 1,
    "color5": "#00ff00",
    "fill5": "#00ff00",
    "line5": 1,
    "color6": "blue",
    "fill6": "blue",
    "line6": 1,
    "color7": "#ff1493",
    "fill7": "#ff1493",
    "line7": 1
  },
  "controlbuttons": [
    196,
    197,
    198,
    232,
    233,
    200,
    201,
    202,
    203,
    204,
    208,
    209,
    210,
    211,
    212,
    213,
    214,
    215,
    216,
    217,
    218,
    219,
    220,
    221,
    222,
    223,
    225,
    227,
    129,
    128,
    146,
    149,
    147,
    145,
    150,
    154,
    155,
    157,
    159,
    164,
    165,
    16,
    8,
    17
  ]
}</json>-->	<path d = "M350 630 L350 350 L70 350 L70 630 L350 630 Z" stroke = "#00ff00" stroke-width = "1" fill = "none" />    <line x1="350" y1="630" x2="630" y2="630" style="stroke:#00ff00;stroke-width:1" />
    <line x1="630" y1="630" x2="350" y2="350" style="stroke:#00ff00;stroke-width:1" />
    <line x1="350" y1="350" x2="630" y2="350" style="stroke:#00ff00;stroke-width:1" />
    <line x1="630" y1="350" x2="630" y2="512" style="stroke:#00ff00;stroke-width:1" />
    <line x1="630" y1="512" x2="350" y2="350" style="stroke:#00ff00;stroke-width:1" />
    <line x1="350" y1="350" x2="490" y2="108" style="stroke:#00ff00;stroke-width:1" />
    <line x1="490" y1="108" x2="630" y2="350" style="stroke:#00ff00;stroke-width:1" />
    <line x1="490" y1="108" x2="350" y2="188" style="stroke:#00ff00;stroke-width:1" />
    <line x1="350" y1="188" x2="350" y2="350" style="stroke:#00ff00;stroke-width:1" />
    <line x1="70" y1="350" x2="123" y2="185" style="stroke:#00ff00;stroke-width:1" />
    <line x1="123" y1="185" x2="350" y2="350" style="stroke:#00ff00;stroke-width:1" />
    <line x1="123" y1="185" x2="297" y2="185" style="stroke:#00ff00;stroke-width:1" />
    <line x1="297" y1="185" x2="350" y2="350" style="stroke:#00ff00;stroke-width:1" />
    <line x1="210" y1="630" x2="210" y2="350" style="stroke:#ff0000;stroke-width:1" />
    <line x1="350" y1="490" x2="70" y2="490" style="stroke:#ff0000;stroke-width:1" />
    <line x1="280" y1="630" x2="280" y2="490" style="stroke:#ff0000;stroke-width:1" />
    <line x1="350" y1="560" x2="210" y2="560" style="stroke:#ff0000;stroke-width:1" />
    <line x1="315" y1="630" x2="315" y2="560" style="stroke:#ff0000;stroke-width:1" />
    <line x1="350" y1="595" x2="280" y2="595" style="stroke:#ff0000;stroke-width:1" />
    <line x1="332" y1="630" x2="332" y2="595" style="stroke:#ff0000;stroke-width:1" />
    <line x1="350" y1="612" x2="315" y2="612" style="stroke:#ff0000;stroke-width:1" />
    <line x1="341" y1="630" x2="341" y2="612" style="stroke:#ff0000;stroke-width:1" />
    <line x1="350" y1="621" x2="332" y2="621" style="stroke:#ff0000;stroke-width:1" />
    <line x1="346" y1="630" x2="346" y2="621" style="stroke:#ff0000;stroke-width:1" />
    <line x1="350" y1="626" x2="341" y2="626" style="stroke:#ff0000;stroke-width:1" />
	<path d = "M140 577 L140 542 L105 542 L105 577 L140 577 Z" stroke = "#ff0000" stroke-width = "1" fill = "none" /><circle cx="122" cy = "560" r = "17.5" stroke = "#ff0000" stroke-width = "1" fill = "none" />
    <line x1="122" y1="560" x2="122" y2="542" style="stroke:#ff0000;stroke-width:1" />
    <line x1="122" y1="560" x2="140" y2="560" style="stroke:#ff0000;stroke-width:1" />
    <line x1="122" y1="560" x2="122" y2="577" style="stroke:#ff0000;stroke-width:1" />
    <line x1="122" y1="560" x2="105" y2="560" style="stroke:#ff0000;stroke-width:1" />
<circle cx="116" cy = "554" r = "4.375" stroke = "#ff0000" stroke-width = "1" fill = "none" />
<circle cx="129" cy = "554" r = "4.375" stroke = "#ff0000" stroke-width = "1" fill = "none" />
<circle cx="129" cy = "566" r = "4.375" stroke = "#ff0000" stroke-width = "1" fill = "none" />
<circle cx="116" cy = "566" r = "4.375" stroke = "#ff0000" stroke-width = "1" fill = "none" />
	<path d = "M175 577 L175 542 L140 542 L140 577 L175 577 Z" stroke = "#ff0000" stroke-width = "1" fill = "none" />	<path d = "M166 569 L166 560 L157 560 L149 560 L149 569 L157 569 L166 569 Z" stroke = "#ff0000" stroke-width = "1" fill = "none" />    <line x1="157" y1="569" x2="157" y2="560" style="stroke:#ff0000;stroke-width:1" />
    <line x1="350" y1="630" x2="490" y2="490" style="stroke:#ff0000;stroke-width:1" />
    <line x1="490" y1="490" x2="350" y2="490" style="stroke:#ff0000;stroke-width:1" />
    <line x1="350" y1="490" x2="420" y2="420" style="stroke:#ff0000;stroke-width:1" />
    <line x1="420" y1="420" x2="350" y2="420" style="stroke:#ff0000;stroke-width:1" />
    <line x1="350" y1="420" x2="385" y2="385" style="stroke:#ff0000;stroke-width:1" />
    <line x1="385" y1="385" x2="350" y2="385" style="stroke:#ff0000;stroke-width:1" />
    <line x1="350" y1="385" x2="367" y2="368" style="stroke:#ff0000;stroke-width:1" />
    <line x1="367" y1="368" x2="350" y2="367" style="stroke:#ff0000;stroke-width:1" />
    <line x1="350" y1="367" x2="359" y2="359" style="stroke:#ff0000;stroke-width:1" />
	<path d = "M472 595 L472 560 L437 560 L437 595 L472 595 Z" stroke = "#ff0000" stroke-width = "1" fill = "none" /><circle cx="455" cy = "578" r = "17.499999999999993" stroke = "#ff0000" stroke-width = "1" fill = "none" />
    <line x1="455" y1="578" x2="455" y2="560" style="stroke:#ff0000;stroke-width:1" />
    <line x1="455" y1="578" x2="472" y2="578" style="stroke:#ff0000;stroke-width:1" />
    <line x1="455" y1="578" x2="455" y2="595" style="stroke:#ff0000;stroke-width:1" />
    <line x1="455" y1="578" x2="437" y2="578" style="stroke:#ff0000;stroke-width:1" />
<circle cx="449" cy = "571" r = "4.374999999999998" stroke = "#ff0000" stroke-width = "1" fill = "none" />
<circle cx="461" cy = "571" r = "4.374999999999998" stroke = "#ff0000" stroke-width = "1" fill = "none" />
<circle cx="461" cy = "584" r = "4.374999999999998" stroke = "#ff0000" stroke-width = "1" fill = "none" />
<circle cx="449" cy = "584" r = "4.374999999999998" stroke = "#ff0000" stroke-width = "1" fill = "none" />
	<path d = "M507 595 L507 560 L472 560 L472 595 L507 595 Z" stroke = "#ff0000" stroke-width = "1" fill = "none" />	<path d = "M502 565 L490 578 L502 590 " stroke = "#ff0000" stroke-width = "1" fill = "none" />    <line x1="490" y1="578" x2="494" y2="578" style="stroke:#ff0000;stroke-width:1" />
    <line x1="499" y1="578" x2="503" y2="578" style="stroke:#ff0000;stroke-width:1" />
	<path d = "M542 595 L542 560 L507 560 L507 595 L542 595 Z" stroke = "#ff0000" stroke-width = "1" fill = "none" />    <line x1="525" y1="595" x2="542" y2="578" style="stroke:#ff0000;stroke-width:1" />
    <line x1="542" y1="578" x2="525" y2="560" style="stroke:#ff0000;stroke-width:1" />
    <line x1="525" y1="560" x2="507" y2="578" style="stroke:#ff0000;stroke-width:1" />
    <line x1="507" y1="578" x2="525" y2="595" style="stroke:#ff0000;stroke-width:1" />
    <line x1="630" y1="512" x2="537" y2="350" style="stroke:#ff0000;stroke-width:1" />
    <line x1="537" y1="350" x2="630" y2="404" style="stroke:#ff0000;stroke-width:1" />
    <line x1="630" y1="404" x2="599" y2="350" style="stroke:#ff0000;stroke-width:1" />
    <line x1="599" y1="350" x2="630" y2="368" style="stroke:#ff0000;stroke-width:1" />
    <line x1="630" y1="368" x2="620" y2="350" style="stroke:#ff0000;stroke-width:1" />
	<path d = "M490 368 L490 403 L525 403 L525 368 L490 368 Z" stroke = "#ff0000" stroke-width = "1" fill = "none" />	<path d = "M490 368 L507 398 L525 368 " stroke = "#ff0000" stroke-width = "1" fill = "none" />    <line x1="507" y1="378" x2="507" y2="398" style="stroke:#ff0000;stroke-width:1" />
    <line x1="507" y1="378" x2="490" y2="368" style="stroke:#ff0000;stroke-width:1" />
    <line x1="507" y1="378" x2="525" y2="368" style="stroke:#ff0000;stroke-width:1" />
    <line x1="490" y1="350" x2="420" y2="229" style="stroke:#ff0000;stroke-width:1" />
    <line x1="420" y1="229" x2="560" y2="229" style="stroke:#ff0000;stroke-width:1" />
    <line x1="560" y1="229" x2="490" y2="350" style="stroke:#ff0000;stroke-width:1" />
	<path d = "M508 280 L508 245 L473 245 L473 280 L508 280 Z" stroke = "#ff0000" stroke-width = "1" fill = "none" />    <line x1="490" y1="263" x2="490" y2="245" style="stroke:#ff0000;stroke-width:1" />
    <line x1="490" y1="263" x2="505" y2="254" style="stroke:#ff0000;stroke-width:1" />
    <line x1="490" y1="263" x2="505" y2="271" style="stroke:#ff0000;stroke-width:1" />
    <line x1="490" y1="263" x2="490" y2="280" style="stroke:#ff0000;stroke-width:1" />
    <line x1="490" y1="263" x2="475" y2="271" style="stroke:#ff0000;stroke-width:1" />
<circle cx="490" cy = "263" r = "17.499999999999993" stroke = "#ff0000" stroke-width = "1" fill = "none" />
<circle cx="486" cy = "255" r = "2.187499999999999" stroke = "#ff0000" stroke-width = "1" fill = "none" />
<circle cx="494" cy = "255" r = "2.187499999999999" stroke = "#ff0000" stroke-width = "1" fill = "none" />
<circle cx="499" cy = "263" r = "2.187499999999999" stroke = "#ff0000" stroke-width = "1" fill = "none" />
<circle cx="494" cy = "270" r = "2.187499999999999" stroke = "#ff0000" stroke-width = "1" fill = "none" />
<circle cx="486" cy = "270" r = "2.187499999999999" stroke = "#ff0000" stroke-width = "1" fill = "none" />
    <line x1="490" y1="263" x2="475" y2="254" style="stroke:#ff0000;stroke-width:1" />
<circle cx="481" cy = "263" r = "2.187499999999999" stroke = "#ff0000" stroke-width = "1" fill = "none" />
    <line x1="350" y1="188" x2="397" y2="269" style="stroke:#ff0000;stroke-width:1" />
    <line x1="350" y1="188" x2="443" y2="188" style="stroke:#ff0000;stroke-width:1" />
    <line x1="397" y1="215" x2="443" y2="188" style="stroke:#ff0000;stroke-width:1" />
    <line x1="397" y1="215" x2="397" y2="269" style="stroke:#ff0000;stroke-width:1" />
    <line x1="397" y1="215" x2="412" y2="242" style="stroke:#ff0000;stroke-width:1" />
    <line x1="397" y1="215" x2="428" y2="215" style="stroke:#ff0000;stroke-width:1" />
    <line x1="412" y1="224" x2="428" y2="215" style="stroke:#ff0000;stroke-width:1" />
    <line x1="412" y1="224" x2="412" y2="242" style="stroke:#ff0000;stroke-width:1" />
    <line x1="412" y1="224" x2="417" y2="233" style="stroke:#ff0000;stroke-width:1" />
    <line x1="412" y1="224" x2="423" y2="224" style="stroke:#ff0000;stroke-width:1" />
    <line x1="350" y1="188" x2="420" y2="229" style="stroke:#ff0000;stroke-width:1" />
    <line x1="70" y1="350" x2="210" y2="248" style="stroke:#ff0000;stroke-width:1" />
    <line x1="210" y1="248" x2="177" y2="350" style="stroke:#ff0000;stroke-width:1" />
    <line x1="177" y1="350" x2="263" y2="287" style="stroke:#ff0000;stroke-width:1" />
    <line x1="263" y1="287" x2="243" y2="350" style="stroke:#ff0000;stroke-width:1" />
    <line x1="243" y1="350" x2="297" y2="311" style="stroke:#ff0000;stroke-width:1" />
    <line x1="297" y1="311" x2="284" y2="350" style="stroke:#ff0000;stroke-width:1" />
    <line x1="284" y1="350" x2="317" y2="326" style="stroke:#ff0000;stroke-width:1" />
    <line x1="317" y1="326" x2="309" y2="350" style="stroke:#ff0000;stroke-width:1" />
    <line x1="309" y1="350" x2="330" y2="335" style="stroke:#ff0000;stroke-width:1" />
    <line x1="330" y1="335" x2="325" y2="350" style="stroke:#ff0000;stroke-width:1" />
    <line x1="325" y1="350" x2="337" y2="341" style="stroke:#ff0000;stroke-width:1" />
    <line x1="337" y1="341" x2="334" y2="350" style="stroke:#ff0000;stroke-width:1" />
    <line x1="334" y1="350" x2="342" y2="344" style="stroke:#ff0000;stroke-width:1" />
    <line x1="342" y1="344" x2="340" y2="350" style="stroke:#ff0000;stroke-width:1" />
    <line x1="297" y1="185" x2="263" y2="287" style="stroke:#ff0000;stroke-width:1" />
    <line x1="263" y1="287" x2="330" y2="287" style="stroke:#ff0000;stroke-width:1" />
    <line x1="330" y1="287" x2="317" y2="326" style="stroke:#ff0000;stroke-width:1" />
    <line x1="317" y1="326" x2="342" y2="326" style="stroke:#ff0000;stroke-width:1" />
    <line x1="342" y1="326" x2="337" y2="341" style="stroke:#ff0000;stroke-width:1" />
    <line x1="337" y1="341" x2="347" y2="341" style="stroke:#ff0000;stroke-width:1" />
	<path d = "M221 245 L241 217 L213 196 L192 225 L221 245 Z" stroke = "#ff0000" stroke-width = "1" fill = "none" />    <line x1="217" y1="221" x2="227" y2="207" style="stroke:#ff0000;stroke-width:1" />
    <line x1="217" y1="221" x2="233" y2="226" style="stroke:#ff0000;stroke-width:1" />
    <line x1="217" y1="221" x2="217" y2="238" style="stroke:#ff0000;stroke-width:1" />
    <line x1="217" y1="221" x2="200" y2="226" style="stroke:#ff0000;stroke-width:1" />
    <line x1="217" y1="221" x2="206" y2="207" style="stroke:#ff0000;stroke-width:1" />
<circle cx="217" cy = "221" r = "17.499999999999993" stroke = "#ff0000" stroke-width = "1" fill = "none" />
<circle cx="225" cy = "218" r = "2.187499999999999" stroke = "#ff0000" stroke-width = "1" fill = "none" />
<circle cx="222" cy = "228" r = "2.187499999999999" stroke = "#ff0000" stroke-width = "1" fill = "none" />
<circle cx="212" cy = "228" r = "2.187499999999999" stroke = "#ff0000" stroke-width = "1" fill = "none" />
<circle cx="208" cy = "218" r = "2.187499999999999" stroke = "#ff0000" stroke-width = "1" fill = "none" />
<circle cx="217" cy = "212" r = "2.187499999999999" stroke = "#ff0000" stroke-width = "1" fill = "none" />
	<path d = "M249 266 L270 237 L241 217 L221 245 L249 266 Z" stroke = "#ff0000" stroke-width = "1" fill = "none" />	<path d = "M249 266 L266 212 L221 245 L249 266 Z" stroke = "#ff0000" stroke-width = "1" fill = "none" />    <line x1="249" y1="266" x2="238" y2="232" style="stroke:#ff0000;stroke-width:1" />
    <line x1="238" y1="232" x2="260" y2="232" style="stroke:#ff0000;stroke-width:1" />
    <line x1="260" y1="232" x2="256" y2="220" style="stroke:#ff0000;stroke-width:1" />
</svg>