<svg width="400" height="400" viewbox = "0 0 400 400"  xmlns="http://www.w3.org/2000/svg">
<!--<json>{
  "glyph": "0336,0336,0336,0331,0331,0337,0337,0337,0223,0330,0330,0332,0336,0331,0332,0332,0320,01101,01116,01101,01122,01103,01110,01111,01123,01124,0331,0331,0331,0331,0331,0331,0332,0332,0332,0331,0332,0332,0332,0332,01102,01117,01117,01113,01040,01104,01111,01123,01124,01122,01117,",
  "x0": 200,
  "y0": 154.54545454545456,
  "unit": 45.45454545454546,
  "width": 400,
  "height": 400,
  "style": {
    "color0": "black",
    "fill0": "black",
    "line0": 1,
    "color1": "black",
    "fill1": "black",
    "line1": 5,
    "color2": "red",
    "fill2": "red",
    "line2": 2,
    "color3": "#FF7900",
    "fill3": "#FF7900",
    "line3": 2,
    "color4": "yellow",
    "fill4": "yellow",
    "line4": 2,
    "color5": "green",
    "fill5": "green",
    "line5": 2,
    "color6": "blue",
    "fill6": "blue",
    "line6": 2,
    "color7": "purple",
    "fill7": "purple",
    "line7": 2
  },
  "shapes": [
    "0220:0330,0336,0336,0336,0334,0306,0362,0203,0335,0335,0203,0203,0335,0335,0203,0203,0335,0335,0203,0363,0304,0334,0362,0203,0336,0203,0364,0335,0335,0330,0337,0330,0337,0337,0337,0331,",
    "0221:0350,0335,0304,0220,",
    "0222:0221,0221,0221,0221,0221,0221,0221,0221,",
    "0223:0321,0332,0336,0336,0336,0335,0334,0362,0203,0335,0337,0203,0203,0203,0203,0203,0203,0203,0203,0335,0336,0203,0335,0337,0203,0203,0203,0203,0203,0203,0203,0203,0354,0335,0333,0333,0333,0333,0336,0330,0337,0332,0362,0203,0335,0203,0203,0335,0203,0354,0335,0335,0336,0331,0332,0332,0332,0332,0332,0332,0332,0332,0335,0335,0337,0337,0337,0362,0203,0203,0334,0203,0336,0203,0334,0335,0336,0334,0203,0203,0203,0203,0203,0203,0203,0203,0364,0331,0331,0331,0331,0331,0331,0331,0332,0332,0332,0362,0203,0203,0203,0203,0203,0203,0364,0333,0333,0335,0335,0336,0333,0337,0337,0362,0203,0203,0203,0364,0335,0335,0336,0336,0332,0332,0332,0332,0332,0332,0337,0362,0203,0203,0203,0203,0203,0203,0364,0333,0333,0331,0331,0331,0336,0332,0337,0330,0337,0337,0337,0222,",
    "01220:0333,0200,0336,0330,0332,0336,0220,0337,0331,0333,0337,",
    "01221:0333,0200,0336,0330,0332,0336,0221,0221,0334,0331,0333,0331,0333,0337,0337,",
    "01222:0333,0200,0336,0330,0332,0336,0222,0337,0331,0333,0337,",
    "01223:0333,0200,0336,0330,0332,0336,0336,0330,0223,0337,0331,0333,0337,0320,0336,0336,0336,0336,0336,0331,0337,0337,0337,0337,0337,",
    "0240:0220,0336,0331,0333,0336,0321,0335,0342,0335,0335,0342,0335,0330,0330,0332,0332,0337,0337,",
    "01240:0333,0200,0336,0330,0332,0210,0240,0211,0333,0331,0337,",
    "0241:0220,0336,0321,0343,0332,0350,0335,0336,0342,0334,0334,0342,0335,0304,0337,0333,0337,",
    "01241:0333,0200,0336,0332,0330,0210,0241,0211,0333,0331,0337,",
    "0242:0220,0321,0336,0343,0333,0336,0350,0335,0342,0334,0334,0342,0335,0337,0304,0332,0337,",
    "01242:0333,0200,0336,0330,0332,0210,0242,0211,0333,0331,0337,",
    "0243:0220,0336,0331,0332,0336,0321,0343,0332,0350,0334,0336,0342,0335,0335,0342,0337,0334,0334,0335,0304,0332,0330,0330,0337,0337,0333,",
    "01243:0333,0200,0336,0330,0332,0210,0243,0211,0333,0331,0337,",
    "0244:0220,0336,0331,0333,0336,0321,0343,0333,0350,0336,0335,0342,0334,0334,0342,0335,0337,0304,0333,0330,0330,0337,0337,0332,",
    "01244:0333,0200,0336,0330,0332,0210,0244,0211,0333,0331,0337,",
    "0245:0210,0332,0332,0362,0335,0203,0203,0203,0203,0334,0203,0363,0332,0332,0331,0211,",
    "01245:0333,0200,0336,0330,0332,0336,0245,0337,0333,0331,0337,",
    "0246:0210,0332,0332,0335,0306,0336,0330,0335,0335,0335,0321,0362,0203,0335,0335,0203,0364,0331,0350,0335,0337,0366,0333,0333,0333,0333,0334,0334,0334,0334,0367,0335,0336,0342,0334,0334,0342,0330,0330,0330,0330,0335,0335,0335,0304,0337,0211,",
    "01246:0333,0200,0336,0330,0332,0336,0246,",
    "0247:0330,0332,0336,0332,0336,0221,0333,0333,0333,0222,0333,0333,0333,0223,0333,0333,0333,0225,0333,0331,0331,0331,0332,0332,0332,0332,0332,0332,0332,0332,0332,0332,0332,0332,0333,0333,0226,0331,0331,0331,0333,0333,0333,0333,0333,0333,0333,0333,0333,0333,0333,0333,0333,0330,0333,0330,0330,0333,0330,0331,0332,0332,0332,0332,0332,0332,0332,0332,0332,0332,0332,0332,0227,0333,0333,0333,0230,0333,0331,0331,0331,0331,0332,0332,0332,0330,0332,0332,0332,0332,0332,0332,0333,0333,0231,0333,0333,0333,0232,0331,0333,0330,0333,0333,0233,0333,0333,0333,0234,0330,0330,0332,0330,0332,0332,0337,0337,",
    "01247:0333,0200,0336,0330,0332,0220,0336,0247,0337,0331,0333,0337,"
  ]
}</json>-->	<path d = "M155 166 L155 160 L166 160 L177 160 L189 160 L200 160 L211 160 L223 160 L234 160 L245 160 L245 166 L234 166 L223 166 L211 166 L200 166 L189 166 L177 166 L166 166 L155 166 Z" stroke = "#000000" stroke-width = "5" fill = "none" />	<path d = "M189 160 L189 149 L200 149 L211 149 L211 160 Z" stroke = "#000000" stroke-width = "5" fill = "none" />	<path d = "M166 166 L166 211 L166 257 L211 257 L234 257 L234 245 L234 234 L234 223 L234 211 L234 200 L234 189 L234 177 L234 166 " stroke = "#000000" stroke-width = "5" fill = "none" />	<path d = "M200 245 L200 234 L200 223 L200 211 L200 200 L200 189 L200 177 " stroke = "#000000" stroke-width = "5" fill = "none" />	<path d = "M217 177 L217 200 L217 223 L217 245 " stroke = "#000000" stroke-width = "5" fill = "none" />	<path d = "M183 245 L183 234 L183 223 L183 211 L183 200 L183 189 L183 177 " stroke = "#000000" stroke-width = "5" fill = "none" />	<path d = "M264 136 L256 128 L267 125 L278 122 L275 133 L272 144 L264 136 Z" stroke = "#000000" stroke-width = "5" fill = "#000000" />	<path d = "M264 136 L256 144 L252 148 " stroke = "#000000" stroke-width = "5" fill = "none" />	<path d = "M291 200 L291 189 L301 194 L311 200 L301 206 L291 211 L291 200 Z" stroke = "#000000" stroke-width = "5" fill = "#000000" />	<path d = "M291 200 L280 200 L274 200 " stroke = "#000000" stroke-width = "5" fill = "none" />	<path d = "M264 264 L272 256 L275 267 L278 278 L267 275 L256 272 L264 264 Z" stroke = "#000000" stroke-width = "5" fill = "#000000" />	<path d = "M264 264 L256 256 L252 252 " stroke = "#000000" stroke-width = "5" fill = "none" />	<path d = "M200 291 L211 291 L206 301 L200 311 L194 301 L189 291 L200 291 Z" stroke = "#000000" stroke-width = "5" fill = "#000000" />	<path d = "M200 291 L200 280 L200 274 " stroke = "#000000" stroke-width = "5" fill = "none" />	<path d = "M136 264 L144 272 L133 275 L122 278 L125 267 L128 256 L136 264 Z" stroke = "#000000" stroke-width = "5" fill = "#000000" />	<path d = "M136 264 L144 256 L148 252 " stroke = "#000000" stroke-width = "5" fill = "none" />	<path d = "M109 200 L109 211 L99 206 L89 200 L99 194 L109 189 L109 200 Z" stroke = "#000000" stroke-width = "5" fill = "#000000" />	<path d = "M109 200 L120 200 L126 200 " stroke = "#000000" stroke-width = "5" fill = "none" />	<path d = "M136 136 L128 144 L125 133 L122 122 L133 125 L144 128 L136 136 Z" stroke = "#000000" stroke-width = "5" fill = "#000000" />	<path d = "M136 136 L144 144 L148 148 " stroke = "#000000" stroke-width = "5" fill = "none" />	<path d = "M200 109 L189 109 L194 99 L200 89 L206 99 L211 109 L200 109 Z" stroke = "#000000" stroke-width = "5" fill = "#000000" />	<path d = "M200 109 L200 120 L200 126 " stroke = "#000000" stroke-width = "5" fill = "none" />    <circle cx="24" cy = "64" r = "2.8409090909090913" stroke = "#000000" stroke-width = "1" fill = "#000000" />
    <circle cx="24" cy = "58" r = "2.8409090909090913" stroke = "#000000" stroke-width = "1" fill = "#000000" />
    <circle cx="24" cy = "52" r = "2.8409090909090913" stroke = "#000000" stroke-width = "1" fill = "#000000" />
    <circle cx="24" cy = "47" r = "2.8409090909090913" stroke = "#000000" stroke-width = "1" fill = "#000000" />
    <circle cx="24" cy = "41" r = "2.8409090909090913" stroke = "#000000" stroke-width = "1" fill = "#000000" />
    <circle cx="24" cy = "35" r = "2.8409090909090913" stroke = "#000000" stroke-width = "1" fill = "#000000" />
    <circle cx="30" cy = "30" r = "2.8409090909090913" stroke = "#000000" stroke-width = "1" fill = "#000000" />
    <circle cx="35" cy = "30" r = "2.8409090909090913" stroke = "#000000" stroke-width = "1" fill = "#000000" />
    <circle cx="41" cy = "30" r = "2.8409090909090913" stroke = "#000000" stroke-width = "1" fill = "#000000" />
    <circle cx="47" cy = "35" r = "2.8409090909090913" stroke = "#000000" stroke-width = "1" fill = "#000000" />
    <circle cx="47" cy = "41" r = "2.8409090909090913" stroke = "#000000" stroke-width = "1" fill = "#000000" />
    <circle cx="47" cy = "47" r = "2.8409090909090913" stroke = "#000000" stroke-width = "1" fill = "#000000" />
    <circle cx="47" cy = "52" r = "2.8409090909090913" stroke = "#000000" stroke-width = "1" fill = "#000000" />
    <circle cx="47" cy = "58" r = "2.8409090909090913" stroke = "#000000" stroke-width = "1" fill = "#000000" />
    <circle cx="47" cy = "64" r = "2.8409090909090913" stroke = "#000000" stroke-width = "1" fill = "#000000" />
    <circle cx="41" cy = "47" r = "2.8409090909090913" stroke = "#000000" stroke-width = "1" fill = "#000000" />
    <circle cx="35" cy = "47" r = "2.8409090909090913" stroke = "#000000" stroke-width = "1" fill = "#000000" />
    <circle cx="30" cy = "47" r = "2.8409090909090913" stroke = "#000000" stroke-width = "1" fill = "#000000" />
    <circle cx="58" cy = "64" r = "2.8409090909090913" stroke = "#000000" stroke-width = "1" fill = "#000000" />
    <circle cx="58" cy = "58" r = "2.8409090909090913" stroke = "#000000" stroke-width = "1" fill = "#000000" />
    <circle cx="58" cy = "52" r = "2.8409090909090913" stroke = "#000000" stroke-width = "1" fill = "#000000" />
    <circle cx="58" cy = "47" r = "2.8409090909090913" stroke = "#000000" stroke-width = "1" fill = "#000000" />
    <circle cx="58" cy = "41" r = "2.8409090909090913" stroke = "#000000" stroke-width = "1" fill = "#000000" />
    <circle cx="58" cy = "35" r = "2.8409090909090913" stroke = "#000000" stroke-width = "1" fill = "#000000" />
    <circle cx="58" cy = "30" r = "2.8409090909090913" stroke = "#000000" stroke-width = "1" fill = "#000000" />
    <circle cx="64" cy = "41" r = "2.8409090909090913" stroke = "#000000" stroke-width = "1" fill = "#000000" />
    <circle cx="69" cy = "47" r = "2.8409090909090913" stroke = "#000000" stroke-width = "1" fill = "#000000" />
    <circle cx="75" cy = "52" r = "2.8409090909090913" stroke = "#000000" stroke-width = "1" fill = "#000000" />
    <circle cx="81" cy = "58" r = "2.8409090909090913" stroke = "#000000" stroke-width = "1" fill = "#000000" />
    <circle cx="81" cy = "64" r = "2.8409090909090913" stroke = "#000000" stroke-width = "1" fill = "#000000" />
    <circle cx="81" cy = "52" r = "2.8409090909090913" stroke = "#000000" stroke-width = "1" fill = "#000000" />
    <circle cx="81" cy = "47" r = "2.8409090909090913" stroke = "#000000" stroke-width = "1" fill = "#000000" />
    <circle cx="81" cy = "41" r = "2.8409090909090913" stroke = "#000000" stroke-width = "1" fill = "#000000" />
    <circle cx="81" cy = "35" r = "2.8409090909090913" stroke = "#000000" stroke-width = "1" fill = "#000000" />
    <circle cx="81" cy = "30" r = "2.8409090909090913" stroke = "#000000" stroke-width = "1" fill = "#000000" />
    <circle cx="92" cy = "64" r = "2.8409090909090913" stroke = "#000000" stroke-width = "1" fill = "#000000" />
    <circle cx="92" cy = "58" r = "2.8409090909090913" stroke = "#000000" stroke-width = "1" fill = "#000000" />
    <circle cx="92" cy = "52" r = "2.8409090909090913" stroke = "#000000" stroke-width = "1" fill = "#000000" />
    <circle cx="92" cy = "47" r = "2.8409090909090913" stroke = "#000000" stroke-width = "1" fill = "#000000" />
    <circle cx="92" cy = "41" r = "2.8409090909090913" stroke = "#000000" stroke-width = "1" fill = "#000000" />
    <circle cx="92" cy = "35" r = "2.8409090909090913" stroke = "#000000" stroke-width = "1" fill = "#000000" />
    <circle cx="98" cy = "30" r = "2.8409090909090913" stroke = "#000000" stroke-width = "1" fill = "#000000" />
    <circle cx="103" cy = "30" r = "2.8409090909090913" stroke = "#000000" stroke-width = "1" fill = "#000000" />
    <circle cx="109" cy = "30" r = "2.8409090909090913" stroke = "#000000" stroke-width = "1" fill = "#000000" />
    <circle cx="115" cy = "35" r = "2.8409090909090913" stroke = "#000000" stroke-width = "1" fill = "#000000" />
    <circle cx="115" cy = "41" r = "2.8409090909090913" stroke = "#000000" stroke-width = "1" fill = "#000000" />
    <circle cx="115" cy = "47" r = "2.8409090909090913" stroke = "#000000" stroke-width = "1" fill = "#000000" />
    <circle cx="115" cy = "52" r = "2.8409090909090913" stroke = "#000000" stroke-width = "1" fill = "#000000" />
    <circle cx="115" cy = "58" r = "2.8409090909090913" stroke = "#000000" stroke-width = "1" fill = "#000000" />
    <circle cx="115" cy = "64" r = "2.8409090909090913" stroke = "#000000" stroke-width = "1" fill = "#000000" />
    <circle cx="109" cy = "47" r = "2.8409090909090913" stroke = "#000000" stroke-width = "1" fill = "#000000" />
    <circle cx="103" cy = "47" r = "2.8409090909090913" stroke = "#000000" stroke-width = "1" fill = "#000000" />
    <circle cx="98" cy = "47" r = "2.8409090909090913" stroke = "#000000" stroke-width = "1" fill = "#000000" />
    <circle cx="126" cy = "64" r = "2.8409090909090913" stroke = "#000000" stroke-width = "1" fill = "#000000" />
    <circle cx="126" cy = "58" r = "2.8409090909090913" stroke = "#000000" stroke-width = "1" fill = "#000000" />
    <circle cx="126" cy = "52" r = "2.8409090909090913" stroke = "#000000" stroke-width = "1" fill = "#000000" />
    <circle cx="126" cy = "47" r = "2.8409090909090913" stroke = "#000000" stroke-width = "1" fill = "#000000" />
    <circle cx="126" cy = "41" r = "2.8409090909090913" stroke = "#000000" stroke-width = "1" fill = "#000000" />
    <circle cx="126" cy = "35" r = "2.8409090909090913" stroke = "#000000" stroke-width = "1" fill = "#000000" />
    <circle cx="126" cy = "30" r = "2.8409090909090913" stroke = "#000000" stroke-width = "1" fill = "#000000" />
    <circle cx="132" cy = "30" r = "2.8409090909090913" stroke = "#000000" stroke-width = "1" fill = "#000000" />
    <circle cx="137" cy = "30" r = "2.8409090909090913" stroke = "#000000" stroke-width = "1" fill = "#000000" />
    <circle cx="143" cy = "30" r = "2.8409090909090913" stroke = "#000000" stroke-width = "1" fill = "#000000" />
    <circle cx="149" cy = "35" r = "2.8409090909090913" stroke = "#000000" stroke-width = "1" fill = "#000000" />
    <circle cx="149" cy = "41" r = "2.8409090909090913" stroke = "#000000" stroke-width = "1" fill = "#000000" />
    <circle cx="143" cy = "47" r = "2.8409090909090913" stroke = "#000000" stroke-width = "1" fill = "#000000" />
    <circle cx="137" cy = "47" r = "2.8409090909090913" stroke = "#000000" stroke-width = "1" fill = "#000000" />
    <circle cx="132" cy = "47" r = "2.8409090909090913" stroke = "#000000" stroke-width = "1" fill = "#000000" />
    <circle cx="137" cy = "52" r = "2.8409090909090913" stroke = "#000000" stroke-width = "1" fill = "#000000" />
    <circle cx="143" cy = "58" r = "2.8409090909090913" stroke = "#000000" stroke-width = "1" fill = "#000000" />
    <circle cx="149" cy = "64" r = "2.8409090909090913" stroke = "#000000" stroke-width = "1" fill = "#000000" />
    <circle cx="160" cy = "58" r = "2.8409090909090913" stroke = "#000000" stroke-width = "1" fill = "#000000" />
    <circle cx="160" cy = "52" r = "2.8409090909090913" stroke = "#000000" stroke-width = "1" fill = "#000000" />
    <circle cx="160" cy = "47" r = "2.8409090909090913" stroke = "#000000" stroke-width = "1" fill = "#000000" />
    <circle cx="160" cy = "41" r = "2.8409090909090913" stroke = "#000000" stroke-width = "1" fill = "#000000" />
    <circle cx="160" cy = "35" r = "2.8409090909090913" stroke = "#000000" stroke-width = "1" fill = "#000000" />
    <circle cx="166" cy = "30" r = "2.8409090909090913" stroke = "#000000" stroke-width = "1" fill = "#000000" />
    <circle cx="172" cy = "30" r = "2.8409090909090913" stroke = "#000000" stroke-width = "1" fill = "#000000" />
    <circle cx="177" cy = "30" r = "2.8409090909090913" stroke = "#000000" stroke-width = "1" fill = "#000000" />
    <circle cx="183" cy = "35" r = "2.8409090909090913" stroke = "#000000" stroke-width = "1" fill = "#000000" />
    <circle cx="183" cy = "58" r = "2.8409090909090913" stroke = "#000000" stroke-width = "1" fill = "#000000" />
    <circle cx="177" cy = "64" r = "2.8409090909090913" stroke = "#000000" stroke-width = "1" fill = "#000000" />
    <circle cx="172" cy = "64" r = "2.8409090909090913" stroke = "#000000" stroke-width = "1" fill = "#000000" />
    <circle cx="166" cy = "64" r = "2.8409090909090913" stroke = "#000000" stroke-width = "1" fill = "#000000" />
    <circle cx="194" cy = "64" r = "2.8409090909090913" stroke = "#000000" stroke-width = "1" fill = "#000000" />
    <circle cx="194" cy = "58" r = "2.8409090909090913" stroke = "#000000" stroke-width = "1" fill = "#000000" />
    <circle cx="194" cy = "52" r = "2.8409090909090913" stroke = "#000000" stroke-width = "1" fill = "#000000" />
    <circle cx="194" cy = "47" r = "2.8409090909090913" stroke = "#000000" stroke-width = "1" fill = "#000000" />
    <circle cx="194" cy = "41" r = "2.8409090909090913" stroke = "#000000" stroke-width = "1" fill = "#000000" />
    <circle cx="194" cy = "35" r = "2.8409090909090913" stroke = "#000000" stroke-width = "1" fill = "#000000" />
    <circle cx="194" cy = "30" r = "2.8409090909090913" stroke = "#000000" stroke-width = "1" fill = "#000000" />
    <circle cx="200" cy = "47" r = "2.8409090909090913" stroke = "#000000" stroke-width = "1" fill = "#000000" />
    <circle cx="206" cy = "47" r = "2.8409090909090913" stroke = "#000000" stroke-width = "1" fill = "#000000" />
    <circle cx="211" cy = "47" r = "2.8409090909090913" stroke = "#000000" stroke-width = "1" fill = "#000000" />
    <circle cx="217" cy = "47" r = "2.8409090909090913" stroke = "#000000" stroke-width = "1" fill = "#000000" />
    <circle cx="217" cy = "41" r = "2.8409090909090913" stroke = "#000000" stroke-width = "1" fill = "#000000" />
    <circle cx="217" cy = "35" r = "2.8409090909090913" stroke = "#000000" stroke-width = "1" fill = "#000000" />
    <circle cx="217" cy = "30" r = "2.8409090909090913" stroke = "#000000" stroke-width = "1" fill = "#000000" />
    <circle cx="217" cy = "52" r = "2.8409090909090913" stroke = "#000000" stroke-width = "1" fill = "#000000" />
    <circle cx="217" cy = "58" r = "2.8409090909090913" stroke = "#000000" stroke-width = "1" fill = "#000000" />
    <circle cx="217" cy = "64" r = "2.8409090909090913" stroke = "#000000" stroke-width = "1" fill = "#000000" />
    <circle cx="234" cy = "64" r = "2.8409090909090913" stroke = "#000000" stroke-width = "1" fill = "#000000" />
    <circle cx="240" cy = "64" r = "2.8409090909090913" stroke = "#000000" stroke-width = "1" fill = "#000000" />
    <circle cx="245" cy = "64" r = "2.8409090909090913" stroke = "#000000" stroke-width = "1" fill = "#000000" />
    <circle cx="240" cy = "58" r = "2.8409090909090913" stroke = "#000000" stroke-width = "1" fill = "#000000" />
    <circle cx="240" cy = "52" r = "2.8409090909090913" stroke = "#000000" stroke-width = "1" fill = "#000000" />
    <circle cx="240" cy = "47" r = "2.8409090909090913" stroke = "#000000" stroke-width = "1" fill = "#000000" />
    <circle cx="240" cy = "41" r = "2.8409090909090913" stroke = "#000000" stroke-width = "1" fill = "#000000" />
    <circle cx="240" cy = "35" r = "2.8409090909090913" stroke = "#000000" stroke-width = "1" fill = "#000000" />
    <circle cx="240" cy = "30" r = "2.8409090909090913" stroke = "#000000" stroke-width = "1" fill = "#000000" />
    <circle cx="234" cy = "30" r = "2.8409090909090913" stroke = "#000000" stroke-width = "1" fill = "#000000" />
    <circle cx="245" cy = "30" r = "2.8409090909090913" stroke = "#000000" stroke-width = "1" fill = "#000000" />
    <circle cx="262" cy = "58" r = "2.8409090909090913" stroke = "#000000" stroke-width = "1" fill = "#000000" />
    <circle cx="268" cy = "64" r = "2.8409090909090913" stroke = "#000000" stroke-width = "1" fill = "#000000" />
    <circle cx="274" cy = "64" r = "2.8409090909090913" stroke = "#000000" stroke-width = "1" fill = "#000000" />
    <circle cx="280" cy = "64" r = "2.8409090909090913" stroke = "#000000" stroke-width = "1" fill = "#000000" />
    <circle cx="285" cy = "58" r = "2.8409090909090913" stroke = "#000000" stroke-width = "1" fill = "#000000" />
    <circle cx="285" cy = "52" r = "2.8409090909090913" stroke = "#000000" stroke-width = "1" fill = "#000000" />
    <circle cx="280" cy = "47" r = "2.8409090909090913" stroke = "#000000" stroke-width = "1" fill = "#000000" />
    <circle cx="274" cy = "47" r = "2.8409090909090913" stroke = "#000000" stroke-width = "1" fill = "#000000" />
    <circle cx="268" cy = "47" r = "2.8409090909090913" stroke = "#000000" stroke-width = "1" fill = "#000000" />
    <circle cx="262" cy = "41" r = "2.8409090909090913" stroke = "#000000" stroke-width = "1" fill = "#000000" />
    <circle cx="262" cy = "35" r = "2.8409090909090913" stroke = "#000000" stroke-width = "1" fill = "#000000" />
    <circle cx="268" cy = "30" r = "2.8409090909090913" stroke = "#000000" stroke-width = "1" fill = "#000000" />
    <circle cx="274" cy = "30" r = "2.8409090909090913" stroke = "#000000" stroke-width = "1" fill = "#000000" />
    <circle cx="280" cy = "30" r = "2.8409090909090913" stroke = "#000000" stroke-width = "1" fill = "#000000" />
    <circle cx="285" cy = "35" r = "2.8409090909090913" stroke = "#000000" stroke-width = "1" fill = "#000000" />
    <circle cx="297" cy = "30" r = "2.8409090909090913" stroke = "#000000" stroke-width = "1" fill = "#000000" />
    <circle cx="302" cy = "30" r = "2.8409090909090913" stroke = "#000000" stroke-width = "1" fill = "#000000" />
    <circle cx="308" cy = "30" r = "2.8409090909090913" stroke = "#000000" stroke-width = "1" fill = "#000000" />
    <circle cx="314" cy = "30" r = "2.8409090909090913" stroke = "#000000" stroke-width = "1" fill = "#000000" />
    <circle cx="319" cy = "30" r = "2.8409090909090913" stroke = "#000000" stroke-width = "1" fill = "#000000" />
    <circle cx="308" cy = "35" r = "2.8409090909090913" stroke = "#000000" stroke-width = "1" fill = "#000000" />
    <circle cx="308" cy = "41" r = "2.8409090909090913" stroke = "#000000" stroke-width = "1" fill = "#000000" />
    <circle cx="308" cy = "47" r = "2.8409090909090913" stroke = "#000000" stroke-width = "1" fill = "#000000" />
    <circle cx="308" cy = "52" r = "2.8409090909090913" stroke = "#000000" stroke-width = "1" fill = "#000000" />
    <circle cx="308" cy = "58" r = "2.8409090909090913" stroke = "#000000" stroke-width = "1" fill = "#000000" />
    <circle cx="308" cy = "64" r = "2.8409090909090913" stroke = "#000000" stroke-width = "1" fill = "#000000" />
    <circle cx="12" cy = "382" r = "2.8409090909090913" stroke = "#000000" stroke-width = "1" fill = "#000000" />
    <circle cx="12" cy = "376" r = "2.8409090909090913" stroke = "#000000" stroke-width = "1" fill = "#000000" />
    <circle cx="12" cy = "370" r = "2.8409090909090913" stroke = "#000000" stroke-width = "1" fill = "#000000" />
    <circle cx="12" cy = "365" r = "2.8409090909090913" stroke = "#000000" stroke-width = "1" fill = "#000000" />
    <circle cx="12" cy = "359" r = "2.8409090909090913" stroke = "#000000" stroke-width = "1" fill = "#000000" />
    <circle cx="12" cy = "353" r = "2.8409090909090913" stroke = "#000000" stroke-width = "1" fill = "#000000" />
    <circle cx="12" cy = "348" r = "2.8409090909090913" stroke = "#000000" stroke-width = "1" fill = "#000000" />
    <circle cx="18" cy = "348" r = "2.8409090909090913" stroke = "#000000" stroke-width = "1" fill = "#000000" />
    <circle cx="24" cy = "348" r = "2.8409090909090913" stroke = "#000000" stroke-width = "1" fill = "#000000" />
    <circle cx="30" cy = "348" r = "2.8409090909090913" stroke = "#000000" stroke-width = "1" fill = "#000000" />
    <circle cx="35" cy = "353" r = "2.8409090909090913" stroke = "#000000" stroke-width = "1" fill = "#000000" />
    <circle cx="35" cy = "359" r = "2.8409090909090913" stroke = "#000000" stroke-width = "1" fill = "#000000" />
    <circle cx="30" cy = "365" r = "2.8409090909090913" stroke = "#000000" stroke-width = "1" fill = "#000000" />
    <circle cx="24" cy = "365" r = "2.8409090909090913" stroke = "#000000" stroke-width = "1" fill = "#000000" />
    <circle cx="18" cy = "365" r = "2.8409090909090913" stroke = "#000000" stroke-width = "1" fill = "#000000" />
    <circle cx="35" cy = "370" r = "2.8409090909090913" stroke = "#000000" stroke-width = "1" fill = "#000000" />
    <circle cx="35" cy = "376" r = "2.8409090909090913" stroke = "#000000" stroke-width = "1" fill = "#000000" />
    <circle cx="30" cy = "382" r = "2.8409090909090913" stroke = "#000000" stroke-width = "1" fill = "#000000" />
    <circle cx="24" cy = "382" r = "2.8409090909090913" stroke = "#000000" stroke-width = "1" fill = "#000000" />
    <circle cx="18" cy = "382" r = "2.8409090909090913" stroke = "#000000" stroke-width = "1" fill = "#000000" />
    <circle cx="47" cy = "376" r = "2.8409090909090913" stroke = "#000000" stroke-width = "1" fill = "#000000" />
    <circle cx="47" cy = "370" r = "2.8409090909090913" stroke = "#000000" stroke-width = "1" fill = "#000000" />
    <circle cx="47" cy = "365" r = "2.8409090909090913" stroke = "#000000" stroke-width = "1" fill = "#000000" />
    <circle cx="47" cy = "359" r = "2.8409090909090913" stroke = "#000000" stroke-width = "1" fill = "#000000" />
    <circle cx="47" cy = "353" r = "2.8409090909090913" stroke = "#000000" stroke-width = "1" fill = "#000000" />
    <circle cx="52" cy = "348" r = "2.8409090909090913" stroke = "#000000" stroke-width = "1" fill = "#000000" />
    <circle cx="58" cy = "348" r = "2.8409090909090913" stroke = "#000000" stroke-width = "1" fill = "#000000" />
    <circle cx="64" cy = "348" r = "2.8409090909090913" stroke = "#000000" stroke-width = "1" fill = "#000000" />
    <circle cx="69" cy = "353" r = "2.8409090909090913" stroke = "#000000" stroke-width = "1" fill = "#000000" />
    <circle cx="69" cy = "359" r = "2.8409090909090913" stroke = "#000000" stroke-width = "1" fill = "#000000" />
    <circle cx="69" cy = "365" r = "2.8409090909090913" stroke = "#000000" stroke-width = "1" fill = "#000000" />
    <circle cx="69" cy = "370" r = "2.8409090909090913" stroke = "#000000" stroke-width = "1" fill = "#000000" />
    <circle cx="69" cy = "376" r = "2.8409090909090913" stroke = "#000000" stroke-width = "1" fill = "#000000" />
    <circle cx="64" cy = "382" r = "2.8409090909090913" stroke = "#000000" stroke-width = "1" fill = "#000000" />
    <circle cx="58" cy = "382" r = "2.8409090909090913" stroke = "#000000" stroke-width = "1" fill = "#000000" />
    <circle cx="52" cy = "382" r = "2.8409090909090913" stroke = "#000000" stroke-width = "1" fill = "#000000" />
    <circle cx="81" cy = "376" r = "2.8409090909090913" stroke = "#000000" stroke-width = "1" fill = "#000000" />
    <circle cx="81" cy = "370" r = "2.8409090909090913" stroke = "#000000" stroke-width = "1" fill = "#000000" />
    <circle cx="81" cy = "365" r = "2.8409090909090913" stroke = "#000000" stroke-width = "1" fill = "#000000" />
    <circle cx="81" cy = "359" r = "2.8409090909090913" stroke = "#000000" stroke-width = "1" fill = "#000000" />
    <circle cx="81" cy = "353" r = "2.8409090909090913" stroke = "#000000" stroke-width = "1" fill = "#000000" />
    <circle cx="86" cy = "348" r = "2.8409090909090913" stroke = "#000000" stroke-width = "1" fill = "#000000" />
    <circle cx="92" cy = "348" r = "2.8409090909090913" stroke = "#000000" stroke-width = "1" fill = "#000000" />
    <circle cx="98" cy = "348" r = "2.8409090909090913" stroke = "#000000" stroke-width = "1" fill = "#000000" />
    <circle cx="103" cy = "353" r = "2.8409090909090913" stroke = "#000000" stroke-width = "1" fill = "#000000" />
    <circle cx="103" cy = "359" r = "2.8409090909090913" stroke = "#000000" stroke-width = "1" fill = "#000000" />
    <circle cx="103" cy = "365" r = "2.8409090909090913" stroke = "#000000" stroke-width = "1" fill = "#000000" />
    <circle cx="103" cy = "370" r = "2.8409090909090913" stroke = "#000000" stroke-width = "1" fill = "#000000" />
    <circle cx="103" cy = "376" r = "2.8409090909090913" stroke = "#000000" stroke-width = "1" fill = "#000000" />
    <circle cx="98" cy = "382" r = "2.8409090909090913" stroke = "#000000" stroke-width = "1" fill = "#000000" />
    <circle cx="92" cy = "382" r = "2.8409090909090913" stroke = "#000000" stroke-width = "1" fill = "#000000" />
    <circle cx="86" cy = "382" r = "2.8409090909090913" stroke = "#000000" stroke-width = "1" fill = "#000000" />
    <circle cx="115" cy = "382" r = "2.8409090909090913" stroke = "#000000" stroke-width = "1" fill = "#000000" />
    <circle cx="115" cy = "376" r = "2.8409090909090913" stroke = "#000000" stroke-width = "1" fill = "#000000" />
    <circle cx="115" cy = "370" r = "2.8409090909090913" stroke = "#000000" stroke-width = "1" fill = "#000000" />
    <circle cx="115" cy = "365" r = "2.8409090909090913" stroke = "#000000" stroke-width = "1" fill = "#000000" />
    <circle cx="115" cy = "359" r = "2.8409090909090913" stroke = "#000000" stroke-width = "1" fill = "#000000" />
    <circle cx="115" cy = "353" r = "2.8409090909090913" stroke = "#000000" stroke-width = "1" fill = "#000000" />
    <circle cx="115" cy = "348" r = "2.8409090909090913" stroke = "#000000" stroke-width = "1" fill = "#000000" />
    <circle cx="120" cy = "365" r = "2.8409090909090913" stroke = "#000000" stroke-width = "1" fill = "#000000" />
    <circle cx="126" cy = "359" r = "2.8409090909090913" stroke = "#000000" stroke-width = "1" fill = "#000000" />
    <circle cx="132" cy = "353" r = "2.8409090909090913" stroke = "#000000" stroke-width = "1" fill = "#000000" />
    <circle cx="137" cy = "348" r = "2.8409090909090913" stroke = "#000000" stroke-width = "1" fill = "#000000" />
    <circle cx="126" cy = "370" r = "2.8409090909090913" stroke = "#000000" stroke-width = "1" fill = "#000000" />
    <circle cx="132" cy = "376" r = "2.8409090909090913" stroke = "#000000" stroke-width = "1" fill = "#000000" />
    <circle cx="137" cy = "382" r = "2.8409090909090913" stroke = "#000000" stroke-width = "1" fill = "#000000" />
    <circle cx="183" cy = "382" r = "2.8409090909090913" stroke = "#000000" stroke-width = "1" fill = "#000000" />
    <circle cx="183" cy = "376" r = "2.8409090909090913" stroke = "#000000" stroke-width = "1" fill = "#000000" />
    <circle cx="183" cy = "370" r = "2.8409090909090913" stroke = "#000000" stroke-width = "1" fill = "#000000" />
    <circle cx="183" cy = "365" r = "2.8409090909090913" stroke = "#000000" stroke-width = "1" fill = "#000000" />
    <circle cx="183" cy = "359" r = "2.8409090909090913" stroke = "#000000" stroke-width = "1" fill = "#000000" />
    <circle cx="183" cy = "353" r = "2.8409090909090913" stroke = "#000000" stroke-width = "1" fill = "#000000" />
    <circle cx="183" cy = "348" r = "2.8409090909090913" stroke = "#000000" stroke-width = "1" fill = "#000000" />
    <circle cx="189" cy = "348" r = "2.8409090909090913" stroke = "#000000" stroke-width = "1" fill = "#000000" />
    <circle cx="194" cy = "348" r = "2.8409090909090913" stroke = "#000000" stroke-width = "1" fill = "#000000" />
    <circle cx="200" cy = "353" r = "2.8409090909090913" stroke = "#000000" stroke-width = "1" fill = "#000000" />
    <circle cx="206" cy = "359" r = "2.8409090909090913" stroke = "#000000" stroke-width = "1" fill = "#000000" />
    <circle cx="206" cy = "365" r = "2.8409090909090913" stroke = "#000000" stroke-width = "1" fill = "#000000" />
    <circle cx="206" cy = "370" r = "2.8409090909090913" stroke = "#000000" stroke-width = "1" fill = "#000000" />
    <circle cx="200" cy = "376" r = "2.8409090909090913" stroke = "#000000" stroke-width = "1" fill = "#000000" />
    <circle cx="194" cy = "382" r = "2.8409090909090913" stroke = "#000000" stroke-width = "1" fill = "#000000" />
    <circle cx="189" cy = "382" r = "2.8409090909090913" stroke = "#000000" stroke-width = "1" fill = "#000000" />
    <circle cx="223" cy = "382" r = "2.8409090909090913" stroke = "#000000" stroke-width = "1" fill = "#000000" />
    <circle cx="228" cy = "382" r = "2.8409090909090913" stroke = "#000000" stroke-width = "1" fill = "#000000" />
    <circle cx="234" cy = "382" r = "2.8409090909090913" stroke = "#000000" stroke-width = "1" fill = "#000000" />
    <circle cx="228" cy = "376" r = "2.8409090909090913" stroke = "#000000" stroke-width = "1" fill = "#000000" />
    <circle cx="228" cy = "370" r = "2.8409090909090913" stroke = "#000000" stroke-width = "1" fill = "#000000" />
    <circle cx="228" cy = "365" r = "2.8409090909090913" stroke = "#000000" stroke-width = "1" fill = "#000000" />
    <circle cx="228" cy = "359" r = "2.8409090909090913" stroke = "#000000" stroke-width = "1" fill = "#000000" />
    <circle cx="228" cy = "353" r = "2.8409090909090913" stroke = "#000000" stroke-width = "1" fill = "#000000" />
    <circle cx="228" cy = "348" r = "2.8409090909090913" stroke = "#000000" stroke-width = "1" fill = "#000000" />
    <circle cx="223" cy = "348" r = "2.8409090909090913" stroke = "#000000" stroke-width = "1" fill = "#000000" />
    <circle cx="234" cy = "348" r = "2.8409090909090913" stroke = "#000000" stroke-width = "1" fill = "#000000" />
    <circle cx="251" cy = "376" r = "2.8409090909090913" stroke = "#000000" stroke-width = "1" fill = "#000000" />
    <circle cx="257" cy = "382" r = "2.8409090909090913" stroke = "#000000" stroke-width = "1" fill = "#000000" />
    <circle cx="262" cy = "382" r = "2.8409090909090913" stroke = "#000000" stroke-width = "1" fill = "#000000" />
    <circle cx="268" cy = "382" r = "2.8409090909090913" stroke = "#000000" stroke-width = "1" fill = "#000000" />
    <circle cx="274" cy = "376" r = "2.8409090909090913" stroke = "#000000" stroke-width = "1" fill = "#000000" />
    <circle cx="274" cy = "370" r = "2.8409090909090913" stroke = "#000000" stroke-width = "1" fill = "#000000" />
    <circle cx="268" cy = "365" r = "2.8409090909090913" stroke = "#000000" stroke-width = "1" fill = "#000000" />
    <circle cx="262" cy = "365" r = "2.8409090909090913" stroke = "#000000" stroke-width = "1" fill = "#000000" />
    <circle cx="257" cy = "365" r = "2.8409090909090913" stroke = "#000000" stroke-width = "1" fill = "#000000" />
    <circle cx="251" cy = "359" r = "2.8409090909090913" stroke = "#000000" stroke-width = "1" fill = "#000000" />
    <circle cx="251" cy = "353" r = "2.8409090909090913" stroke = "#000000" stroke-width = "1" fill = "#000000" />
    <circle cx="257" cy = "348" r = "2.8409090909090913" stroke = "#000000" stroke-width = "1" fill = "#000000" />
    <circle cx="262" cy = "348" r = "2.8409090909090913" stroke = "#000000" stroke-width = "1" fill = "#000000" />
    <circle cx="268" cy = "348" r = "2.8409090909090913" stroke = "#000000" stroke-width = "1" fill = "#000000" />
    <circle cx="274" cy = "353" r = "2.8409090909090913" stroke = "#000000" stroke-width = "1" fill = "#000000" />
    <circle cx="285" cy = "348" r = "2.8409090909090913" stroke = "#000000" stroke-width = "1" fill = "#000000" />
    <circle cx="291" cy = "348" r = "2.8409090909090913" stroke = "#000000" stroke-width = "1" fill = "#000000" />
    <circle cx="297" cy = "348" r = "2.8409090909090913" stroke = "#000000" stroke-width = "1" fill = "#000000" />
    <circle cx="302" cy = "348" r = "2.8409090909090913" stroke = "#000000" stroke-width = "1" fill = "#000000" />
    <circle cx="308" cy = "348" r = "2.8409090909090913" stroke = "#000000" stroke-width = "1" fill = "#000000" />
    <circle cx="297" cy = "353" r = "2.8409090909090913" stroke = "#000000" stroke-width = "1" fill = "#000000" />
    <circle cx="297" cy = "359" r = "2.8409090909090913" stroke = "#000000" stroke-width = "1" fill = "#000000" />
    <circle cx="297" cy = "365" r = "2.8409090909090913" stroke = "#000000" stroke-width = "1" fill = "#000000" />
    <circle cx="297" cy = "370" r = "2.8409090909090913" stroke = "#000000" stroke-width = "1" fill = "#000000" />
    <circle cx="297" cy = "376" r = "2.8409090909090913" stroke = "#000000" stroke-width = "1" fill = "#000000" />
    <circle cx="297" cy = "382" r = "2.8409090909090913" stroke = "#000000" stroke-width = "1" fill = "#000000" />
    <circle cx="319" cy = "382" r = "2.8409090909090913" stroke = "#000000" stroke-width = "1" fill = "#000000" />
    <circle cx="319" cy = "376" r = "2.8409090909090913" stroke = "#000000" stroke-width = "1" fill = "#000000" />
    <circle cx="319" cy = "370" r = "2.8409090909090913" stroke = "#000000" stroke-width = "1" fill = "#000000" />
    <circle cx="319" cy = "365" r = "2.8409090909090913" stroke = "#000000" stroke-width = "1" fill = "#000000" />
    <circle cx="319" cy = "359" r = "2.8409090909090913" stroke = "#000000" stroke-width = "1" fill = "#000000" />
    <circle cx="319" cy = "353" r = "2.8409090909090913" stroke = "#000000" stroke-width = "1" fill = "#000000" />
    <circle cx="319" cy = "348" r = "2.8409090909090913" stroke = "#000000" stroke-width = "1" fill = "#000000" />
    <circle cx="325" cy = "348" r = "2.8409090909090913" stroke = "#000000" stroke-width = "1" fill = "#000000" />
    <circle cx="331" cy = "348" r = "2.8409090909090913" stroke = "#000000" stroke-width = "1" fill = "#000000" />
    <circle cx="336" cy = "348" r = "2.8409090909090913" stroke = "#000000" stroke-width = "1" fill = "#000000" />
    <circle cx="342" cy = "353" r = "2.8409090909090913" stroke = "#000000" stroke-width = "1" fill = "#000000" />
    <circle cx="342" cy = "359" r = "2.8409090909090913" stroke = "#000000" stroke-width = "1" fill = "#000000" />
    <circle cx="336" cy = "365" r = "2.8409090909090913" stroke = "#000000" stroke-width = "1" fill = "#000000" />
    <circle cx="331" cy = "365" r = "2.8409090909090913" stroke = "#000000" stroke-width = "1" fill = "#000000" />
    <circle cx="325" cy = "365" r = "2.8409090909090913" stroke = "#000000" stroke-width = "1" fill = "#000000" />
    <circle cx="331" cy = "370" r = "2.8409090909090913" stroke = "#000000" stroke-width = "1" fill = "#000000" />
    <circle cx="336" cy = "376" r = "2.8409090909090913" stroke = "#000000" stroke-width = "1" fill = "#000000" />
    <circle cx="342" cy = "382" r = "2.8409090909090913" stroke = "#000000" stroke-width = "1" fill = "#000000" />
    <circle cx="353" cy = "376" r = "2.8409090909090913" stroke = "#000000" stroke-width = "1" fill = "#000000" />
    <circle cx="353" cy = "370" r = "2.8409090909090913" stroke = "#000000" stroke-width = "1" fill = "#000000" />
    <circle cx="353" cy = "365" r = "2.8409090909090913" stroke = "#000000" stroke-width = "1" fill = "#000000" />
    <circle cx="353" cy = "359" r = "2.8409090909090913" stroke = "#000000" stroke-width = "1" fill = "#000000" />
    <circle cx="353" cy = "353" r = "2.8409090909090913" stroke = "#000000" stroke-width = "1" fill = "#000000" />
    <circle cx="359" cy = "348" r = "2.8409090909090913" stroke = "#000000" stroke-width = "1" fill = "#000000" />
    <circle cx="365" cy = "348" r = "2.8409090909090913" stroke = "#000000" stroke-width = "1" fill = "#000000" />
    <circle cx="370" cy = "348" r = "2.8409090909090913" stroke = "#000000" stroke-width = "1" fill = "#000000" />
    <circle cx="376" cy = "353" r = "2.8409090909090913" stroke = "#000000" stroke-width = "1" fill = "#000000" />
    <circle cx="376" cy = "359" r = "2.8409090909090913" stroke = "#000000" stroke-width = "1" fill = "#000000" />
    <circle cx="376" cy = "365" r = "2.8409090909090913" stroke = "#000000" stroke-width = "1" fill = "#000000" />
    <circle cx="376" cy = "370" r = "2.8409090909090913" stroke = "#000000" stroke-width = "1" fill = "#000000" />
    <circle cx="376" cy = "376" r = "2.8409090909090913" stroke = "#000000" stroke-width = "1" fill = "#000000" />
    <circle cx="370" cy = "382" r = "2.8409090909090913" stroke = "#000000" stroke-width = "1" fill = "#000000" />
    <circle cx="365" cy = "382" r = "2.8409090909090913" stroke = "#000000" stroke-width = "1" fill = "#000000" />
    <circle cx="359" cy = "382" r = "2.8409090909090913" stroke = "#000000" stroke-width = "1" fill = "#000000" />
</svg>