<svg width="700" height="700" viewbox = "0 0 700 700"  xmlns="http://www.w3.org/2000/svg">
<!--<json>{
  "glyph": "0331,0332,0336,0336,0331,0332,0211,0211,0211,0211,0224,",
  "robotglyph": "0400,0401,0407,0500,0501,0400,0401,0407,0500,0501,0400,0401,0407,0500,0501,0400,0401,0407,0500,0501,0400,0401,0407,0500,0501,0400,0401,0407,0500,0501,",
  "shapes": [
    "0220:0342,0336,0333,0342,0336,0332,0342,0333,0333,0342,0336,0333,0342,0332,0332,0342,0332,0332,0342,0332,0332,0342,0333,0333,0333,0333,0333,0333,0333,0337,0337,0337,",
    "0221:0316,0336,0313,0342,0336,0333,0342,0333,0342,0333,0342,0333,0342,0333,0337,0342,0336,0333,0342,0333,0342,0333,0342,0333,0342,0333,0342,0337,0316,0337,0313,",
    "0222:0362,0203,0335,0203,0203,0203,0203,0203,0203,0335,0203,0335,0203,0203,0203,0203,0203,0203,0354,0335,",
    "0223:0222,0322,0221,0221,0221,0221,0221,0221,0334,0221,0334,0220,0220,0220,0220,0220,0220,0334,0220,0334,",
    "0224:0222,0330,0222,0330,0222,0330,0222,0330,0222,0330,0222,0331,0331,0331,0331,0331,",
    "0225:0223,0330,0223,0330,0223,0330,0223,0330,0223,0330,0223,0331,0331,0331,0331,0331,",
    "0226:0304,0334,0305,0311,0350,0324,0362,0203,0335,0335,0335,0337,0203,0335,0335,0335,0335,0203,0335,0363,0322,0335,0335,0335,0336,0362,0203,0335,0335,0335,0336,0335,0203,0335,0335,0203,0363,0331,0335,0335,0335,0335,0362,0203,0335,0335,0335,0335,0336,0203,0335,0335,0203,0363,0331,0335,0335,0335,0335,0362,0203,0335,0335,0335,0335,0336,0203,0335,0335,0203,0363,0331,0337,0331,0335,0337,0337,0337,0320,0362,0203,0334,0334,0334,0336,0203,0334,0334,0334,0337,0203,0354,0331,0336,0334,0201,0335,0335,0335,0335,0336,0201,0334,0334,0334,0334,0201,0335,0335,0335,0335,0336,0201,0334,0334,0334,0334,0201,0335,0335,0335,0335,0336,0201,0334,0334,0334,0337,0330,0337,0337,0337,0331,0334,0334,0304,0336,0335,0313,0304,",
    "0227:0305,0311,0350,0324,0362,0203,0335,0335,0335,0335,0337,0203,0335,0335,0335,0335,0336,0203,0363,0322,0335,0335,0335,0336,0335,0362,0203,0335,0335,0335,0335,0336,0203,0335,0335,0203,0363,0331,0335,0335,0335,0335,0362,0203,0335,0335,0335,0335,0336,0203,0335,0335,0203,0363,0331,0335,0335,0335,0335,0362,0203,0335,0335,0335,0335,0336,0203,0335,0335,0203,0363,0331,0337,0331,0337,0337,0337,0320,0362,0203,0335,0335,0203,0335,0335,0335,0335,0337,0203,0354,0336,0336,0336,0336,0331,0335,0335,0336,0342,0335,0337,0201,0335,0335,0335,0335,0201,0334,0334,0334,0334,0337,0201,0335,0335,0335,0335,0201,0334,0334,0334,0334,0337,0201,0335,0335,0335,0337,0313,0304,",
    "0230:",
    "0231:",
    "0232:",
    "0233:",
    "0234:",
    "0235:",
    "0236:",
    "0237:",
    "0240:",
    "0241:",
    "0242:",
    "0243:",
    "0244:",
    "0245:",
    "0246:",
    "0247:",
    "01220:0333,0200,0336,0332,0330,0336,0332,0337,0220,0331,0336,0333,0337,0337,",
    "01221:0333,0200,0336,0330,0332,0336,0332,0337,0221,0336,0333,0337,0331,0337,",
    "01222:0333,0200,0336,0330,0332,0336,0332,0336,0332,0222,0332,0337,0337,0331,0337,0333,",
    "01223:0333,0200,0336,0332,0330,0336,0332,0336,0332,0223,0332,0337,0337,0331,0337,0333,0320,",
    "01224:0333,0200,0336,0332,0336,0330,0336,0332,0332,0331,0332,0224,",
    "01225:0333,0200,0336,0330,0332,0336,0331,0332,0336,0331,0332,0225,0331,0332,0320,0337,0337,0337,0333,",
    "01226:0333,0200,0336,0336,0330,0332,0337,0226,0336,0333,0331,0337,0337,",
    "01227:0333,0200,0336,0330,0332,0336,0332,0337,0227,0333,0336,0333,0337,0331,0337,",
    "01230:0333,0200,",
    "01231:0333,0200,",
    "01232:0333,0200,",
    "01233:0333,0200,",
    "01234:0333,0200,",
    "01235:0333,0200,",
    "01236:0333,0200,",
    "01237:0333,0200,",
    "01240:0333,0200,",
    "01241:0333,0200,",
    "01242:0333,0200,",
    "01243:0333,0200,",
    "01244:0333,0200,",
    "01245:0333,0200,",
    "01246:0333,0200,",
    "01247:0333,0200,"
  ],
  "x0rel": 0.5,
  "y0rel": 0.5,
  "unitrel": 0.35,
  "theta0": -1.570796,
  "width": 700,
  "height": 700,
  "scale": 1,
  "backgroundimage": "",
  "style": {
    "color0": "black",
    "fill0": "black",
    "line0": 1,
    "color1": "black",
    "fill1": "black",
    "line1": 5,
    "color2": "red",
    "fill2": "red",
    "line2": 1,
    "color3": "#FF7900",
    "fill3": "#FF7900",
    "line3": 1,
    "color4": "yellow",
    "fill4": "yellow",
    "line4": 1,
    "color5": "green",
    "fill5": "green",
    "line5": 1,
    "color6": "blue",
    "fill6": "blue",
    "line6": 1,
    "color7": "purple",
    "fill7": "purple",
    "line7": 1
  },
  "controlbuttons": [
    196,
    198,
    200,
    203,
    128,
    216,
    217,
    218,
    219,
    220,
    221,
    222,
    223,
    27,
    8,
    225,
    192,
    16,
    17,
    144,
    145,
    146,
    147,
    148,
    149,
    150,
    151,
    152,
    153,
    154,
    155,
    156,
    157,
    158,
    159,
    160,
    161,
    162,
    136,
    137
  ],
  "robotactions": "0400,0401,0402,0403,0404,0405,0406,0407,0500,0501,0510,0511,0512,0513,0514,0515"
}</json>-->	<path d = "M44 656 L44 551 L149 551 L254 551 L359 551 L464 551 L569 551 L673 551 L673 656 L569 656 L464 656 L359 656 L254 656 L149 656 L44 656 Z" stroke = "#000000" stroke-width = "1" fill = "none" />	<path d = "M44 551 L44 446 L149 446 L254 446 L359 446 L464 446 L569 446 L673 446 L673 551 L569 551 L464 551 L359 551 L254 551 L149 551 L44 551 Z" stroke = "#000000" stroke-width = "1" fill = "none" />	<path d = "M44 446 L44 341 L149 341 L254 341 L359 341 L464 341 L569 341 L673 341 L673 446 L569 446 L464 446 L359 446 L254 446 L149 446 L44 446 Z" stroke = "#000000" stroke-width = "1" fill = "none" />	<path d = "M44 341 L44 236 L149 236 L254 236 L359 236 L464 236 L569 236 L673 236 L673 341 L569 341 L464 341 L359 341 L254 341 L149 341 L44 341 Z" stroke = "#000000" stroke-width = "1" fill = "none" />	<path d = "M44 236 L44 131 L149 131 L254 131 L359 131 L464 131 L569 131 L673 131 L673 236 L569 236 L464 236 L359 236 L254 236 L149 236 L44 236 Z" stroke = "#000000" stroke-width = "1" fill = "none" />	<path d = "M44 131 L44 27 L149 27 L254 27 L359 27 L464 27 L569 27 L673 27 L673 131 L569 131 L464 131 L359 131 L254 131 L149 131 L44 131 Z" stroke = "#000000" stroke-width = "1" fill = "none" /></svg>