<svg width="700" height="800" viewbox = "0 0 700 800"  xmlns="http://www.w3.org/2000/svg">
<!--<json>{
  "glyph": "0331,0333,0232,",
  "x0": 350,
  "y0": 350,
  "unit": 293,
  "width": 700,
  "height": 800,
  "style": {
    "color0": "black",
    "fill0": "black",
    "line0": 1,
    "color1": "black",
    "fill1": "black",
    "line1": 5,
    "color2": "red",
    "fill2": "red",
    "line2": 2,
    "color3": "#FF7900",
    "fill3": "#FF7900",
    "line3": 2,
    "color4": "yellow",
    "fill4": "yellow",
    "line4": 2,
    "color5": "green",
    "fill5": "green",
    "line5": 2,
    "color6": "blue",
    "fill6": "blue",
    "line6": 2,
    "color7": "purple",
    "fill7": "purple",
    "line7": 2
  },
  "shapes": [
    "0220:0304,0313,0320,0200,0322,0336,0332,0337,0342,0336,0330,0333,0334,0337,0342,0336,0335,0331,0336,0332,0337,0342,0336,0333,0330,0334,0337,0342,0335,0336,0331,0336,0332,0337,0342,0336,0333,0330,0334,0337,0342,0335,0336,0331,0336,0332,0337,0342,0336,0333,0330,0334,0337,0342,0335,0336,0331,0337,0337,0337,0337,",
    "0221:0304,0320,0362,0203,0334,0350,0334,0310,0337,0203,0334,0334,0334,0336,0203,0354,0334,0334,0334,0336,0322,0201,0335,0335,0335,0336,0201,0334,0334,0334,0336,0201,0335,0335,0335,0336,0201,0334,0334,0334,0336,0201,0335,0335,0335,0336,0201,0334,0334,0334,0336,0201,0335,0335,0335,0336,0201,0334,0334,0330,0337,0337,0337,0337,0337,0337,0337,0337,0331,0313,0304,0320,",
    "0222:0306,0320,0362,0203,0334,0334,0203,0334,0334,0203,0354,0334,0334,0313,0336,0322,0330,0334,0201,0334,0334,0201,0334,0334,0201,0334,0331,0337,0320,",
    "0223:0304,0335,0335,0331,0306,0350,0362,0203,0335,0335,0335,0335,0335,0312,0336,0203,0335,0335,0203,0354,0335,0335,0335,0335,0335,0337,0322,0335,0336,0330,0334,0334,0334,0334,0313,0336,0342,0337,0312,0335,0336,0342,0334,0334,0342,0330,0335,0335,0335,0335,0335,0336,0201,0334,0334,0342,0335,0335,0334,0334,0334,0336,0342,0334,0334,0342,0335,0335,0335,0335,0335,0337,0331,0335,0337,0330,0334,0337,0331,0334,0337,0320,0330,0304,0335,0335,0306,0350,",
    "0224:0305,0311,0362,0203,0334,0334,0203,0334,0350,0334,0336,0203,0354,0334,0334,0334,0337,0322,0336,0334,0201,0335,0335,0335,0335,0336,0201,0334,0334,0334,0334,0201,0335,0335,0335,0336,0335,0201,0334,0334,0334,0334,0201,0335,0335,0335,0335,0336,0201,0334,0334,0334,0334,0201,0335,0335,0335,0335,0336,0201,0334,0334,0334,0334,0201,0335,0335,0335,0335,0336,0201,0334,0334,0334,0337,0330,0337,0337,0337,0337,0337,0331,0320,",
    "0225:0304,0330,0335,0335,0305,0350,0311,0362,0203,0335,0335,0335,0335,0336,0203,0335,0335,0203,0354,0335,0335,0335,0322,0335,0335,0330,0334,0334,0334,0336,0334,0342,0335,0342,0330,0335,0335,0335,0336,0335,0201,0334,0334,0334,0334,0201,0335,0335,0335,0335,0336,0201,0334,0334,0334,0334,0201,0335,0335,0335,0336,0335,0201,0334,0334,0334,0334,0342,0335,0331,0337,0331,0337,0331,0335,0335,0337,0335,0331,0335,0336,0201,0335,0335,0335,0335,0201,0334,0334,0334,0334,0336,0201,0335,0335,0335,0335,0201,0334,0334,0334,0334,0336,0201,0335,0335,0335,0335,0201,0335,0335,0335,0331,0337,0337,0337,0337,0337,0320,0304,0335,0335,0331,0305,0350,",
    "0226:0313,0333,0342,0336,0332,0342,0336,0333,0342,0332,0332,0342,0336,0332,0342,0333,0333,0342,0333,0333,0342,0333,0333,0342,0333,0337,0337,0337,",
    "0227:0313,0336,0333,0337,0316,0336,0342,0313,0336,0332,0342,0332,0342,0332,0342,0332,0342,0333,0333,0333,0333,0333,0342,0333,0342,0333,0342,0333,0342,0333,0337,0316,0337,0313,",
    "0230:0322,0226,0226,0226,0226,0226,0226,0334,0226,0334,0227,0227,0227,0227,0227,0227,0334,0227,0334,0320,0362,0203,0335,0203,0203,0203,0203,0203,0203,0335,0203,0335,0203,0203,0203,0203,0203,0203,0335,0354,0313,",
    "0231:0222,0334,0223,0334,0336,0330,0335,0335,0362,0203,0334,0334,0334,0337,0203,0334,0334,0334,0334,0334,0336,0313,0337,0203,0354,0334,0334,0334,0334,0313,0336,0334,0334,0337,0312,0336,0322,0335,0201,0335,0335,0335,0335,0335,0336,0201,0334,0334,0334,0334,0334,0336,0201,0335,0335,0335,0335,0336,0335,0201,0334,0334,0334,0334,0334,0336,0201,0331,0334,0337,0330,0335,0337,0331,0334,0337,0330,0335,0337,0331,0334,0337,0335,0335,0313,0336,0335,0335,0335,0335,0330,0334,0334,0334,0312,0337,0306,",
    "0232:0231,0330,0220,0332,0221,0335,0331,0335,0335,0331,0224,0330,0335,0331,0225,0335,0335,0336,0330,0334,0334,0334,0337,0304,0335,0333,0331,0331,0332,0332,0330,0314,0336,0331,0313,0230,0333,0333,0333,0333,0333,0333,0330,0314,0337,0313,",
    "0233:0313,0304,0336,0332,0336,0336,0330,0334,0362,0203,0334,0203,0335,0203,0203,0203,0335,0203,0203,0203,0335,0203,0334,0203,0203,0334,0203,0335,0203,0203,0203,0335,0203,0203,0203,0335,0203,0334,0203,0203,0334,0203,0335,0203,0203,0203,0335,0203,0203,0203,0335,0203,0334,0203,0203,0334,0203,0335,0203,0203,0203,0335,0203,0203,0203,0335,0203,0334,0203,0354,0335,0331,0333,0333,0333,0333,0337,0337,0337,",
    "0234:0322,0336,0336,0330,0332,0362,0203,0203,0203,0334,0203,0203,0203,0334,0203,0203,0203,0334,0203,0203,0203,0354,0335,0335,0335,0331,0342,0332,0332,0332,0342,0335,0337,0337,0201,0334,0201,0334,0336,0336,0342,0335,0336,0332,0334,0335,0335,0335,0337,0337,0337,0342,0335,0335,0336,0336,0331,0331,0331,0336,0333,0334,0337,0342,0336,0332,0337,0337,0337,0342,0335,0336,0336,0336,0331,0337,0332,0332,0342,0333,0333,0337,0337,0321,0200,0336,0332,0333,0337,0320,",
    "0235:0312,0336,0330,0306,0335,0335,0350,0335,0337,0362,0203,0335,0335,0335,0335,0203,0335,0335,0335,0335,0203,0354,0334,0336,0331,0337,0304,0313,",
    "0236:0313,0336,0316,0336,0332,0336,0347,0337,0333,0333,0336,0347,0337,0332,0337,0313,0337,",
    "0237:0200,0336,0330,0332,0336,0330,0325,0235,0331,0331,0335,0335,0235,0331,0322,0335,0330,0235,0331,0335,0335,0330,0235,0334,0326,0330,0235,0331,0331,0335,0335,0235,0333,0333,0325,0336,0341,0335,0335,0330,0330,0330,0330,0322,0341,0320,0337,0350,0335,0304,0236,0350,0335,0304,0330,0236,0330,0350,0335,0304,0236,0350,0335,0304,0330,0236,0330,0350,0335,0304,0236,0350,0335,0304,0330,0236,0330,0350,0335,0304,0236,0350,0335,0330,0304,0236,0333,0331,0333,0336,0331,0333,0337,0314,0337,0200,0336,0313,0336,0331,0333,0337,0337,0337,0336,0336,0330,0332,0327,0336,0330,0332,0336,0336,0332,0332,0332,0332,0331,0331,0331,0332,0332,0332,0333,0333,070,040,0147,0162,0145,0145,0156,0365,0332,0332,0332,0332,0332,0332,0332,0332,061,061,040,0147,0162,0145,0171,0365,061,060,040,0160,0165,0162,0160,0154,0145,0330,0330,0330,0330,0330,0330,0332,0332,0365,061,062,040,0167,0150,0151,0164,0145,0330,0330,0330,0330,0330,0330,0330,0365,071,040,0142,0154,0165,0145,0333,0333,0333,0333,0333,0333,0333,0333,0333,0365,065,040,0162,0145,0144,0333,0333,0333,0333,0333,0333,0333,0333,0333,0365,067,040,0171,0145,0154,0154,0157,0167,0331,0331,0331,0331,0331,0332,0365,066,040,0157,0162,0141,0156,0147,0145,0331,0331,0331,0331,0331,0331,0331,0331,0365,0331,0331,0331,0331,0331,0331,0333,0333,0333,0333,0333,0331,0331,0333,0333,0331,0333,0333,0333,0337,0337,0337,0337,0337,0320,",
    "01220:0333,0220,",
    "01221:0333,0221,",
    "01222:0333,0222,0304,",
    "01223:0333,0223,0314,0304,0313,",
    "01224:0333,0224,0313,0304,",
    "01225:0333,0225,0313,0304,",
    "01226:0226,0200,",
    "01227:0227,0200,",
    "01230:0230,0333,0333,0333,0333,0333,0333,",
    "01231:0333,0231,",
    "01232:0333,0232,",
    "01233:0333,0233,",
    "01234:0333,0234,",
    "01235:0333,0200,0336,0330,0332,0235,0331,0333,0337,",
    "01236:0333,0200,0336,0330,0332,0236,0331,0333,0337,",
    "01237:0333,0237,",
    "0240:0220,0336,0331,0333,0336,0321,0335,0342,0335,0335,0342,0335,0330,0330,0332,0332,0337,0337,",
    "01240:0333,0200,0336,0330,0332,0210,0240,0211,0333,0331,0337,",
    "0241:0220,0336,0321,0343,0332,0350,0335,0336,0342,0334,0334,0342,0335,0304,0337,0333,0337,",
    "01241:0333,0200,0336,0332,0330,0210,0241,0211,0333,0331,0337,",
    "0242:0220,0321,0336,0343,0333,0336,0350,0335,0342,0334,0334,0342,0335,0337,0304,0332,0337,",
    "01242:0333,0200,0336,0330,0332,0210,0242,0211,0333,0331,0337,",
    "0243:0220,0336,0331,0332,0336,0321,0343,0332,0350,0334,0336,0342,0335,0335,0342,0337,0334,0334,0335,0304,0332,0330,0330,0337,0337,0333,",
    "01243:0333,0200,0336,0330,0332,0210,0243,0211,0333,0331,0337,",
    "0244:0220,0336,0331,0333,0336,0321,0343,0333,0350,0336,0335,0342,0334,0334,0342,0335,0337,0304,0333,0330,0330,0337,0337,0332,",
    "01244:0333,0200,0336,0330,0332,0210,0244,0211,0333,0331,0337,",
    "0245:0210,0332,0332,0362,0335,0203,0203,0203,0203,0334,0203,0363,0332,0332,0331,0211,",
    "01245:0333,0200,0336,0330,0332,0336,0245,0337,0333,0331,0337,",
    "0246:0210,0332,0332,0335,0306,0336,0330,0335,0335,0335,0321,0362,0203,0335,0335,0203,0364,0331,0350,0335,0337,0366,0333,0333,0333,0333,0334,0334,0334,0334,0367,0335,0336,0342,0334,0334,0342,0330,0330,0330,0330,0335,0335,0335,0304,0337,0211,",
    "01246:0333,0200,0336,0330,0332,0336,0246,",
    "0247:0330,0332,0336,0332,0336,0221,0333,0333,0333,0222,0333,0333,0333,0223,0333,0333,0333,0225,0333,0331,0331,0331,0332,0332,0332,0332,0332,0332,0332,0332,0332,0332,0332,0332,0333,0333,0226,0331,0331,0331,0333,0333,0333,0333,0333,0333,0333,0333,0333,0333,0333,0333,0333,0330,0333,0330,0330,0333,0330,0331,0332,0332,0332,0332,0332,0332,0332,0332,0332,0332,0332,0332,0227,0333,0333,0333,0230,0333,0331,0331,0331,0331,0332,0332,0332,0330,0332,0332,0332,0332,0332,0332,0333,0333,0231,0333,0333,0333,0232,0331,0333,0330,0333,0333,0233,0333,0333,0333,0234,0330,0330,0332,0330,0332,0332,0337,0337,",
    "01247:0333,0200,0336,0330,0332,0220,0336,0247,0337,0331,0333,0337,"
  ]
}</json>-->	<path d = "M643 643 L643 350 L389 496 L643 643 Z" stroke = "#000000" stroke-width = "1" fill = "none" />    <line x1="643" y1="497" x2="516" y2="423" style="stroke:#ff0000;stroke-width:2" />
    <line x1="516" y1="423" x2="516" y2="570" style="stroke:#ff0000;stroke-width:2" />
    <line x1="516" y1="570" x2="643" y2="496" style="stroke:#ff0000;stroke-width:2" />
	<path d = "M389 497 L643 643 L474 643 L389 497 Z" stroke = "#000000" stroke-width = "1" fill = "none" />    <line x1="474" y1="643" x2="516" y2="570" style="stroke:#ff0000;stroke-width:2" />
    <line x1="474" y1="643" x2="558" y2="594" style="stroke:#ff0000;stroke-width:2" />
    <line x1="474" y1="643" x2="474" y2="545" style="stroke:#ff0000;stroke-width:2" />
    <line x1="474" y1="545" x2="502" y2="594" style="stroke:#ff0000;stroke-width:2" />
    <line x1="502" y1="594" x2="558" y2="594" style="stroke:#ff0000;stroke-width:2" />
    <line x1="502" y1="594" x2="530" y2="578" style="stroke:#ff0000;stroke-width:2" />
    <line x1="502" y1="594" x2="502" y2="562" style="stroke:#ff0000;stroke-width:2" />
	<path d = "M474 643 L389 497 L136 643 L474 643 Z" stroke = "#000000" stroke-width = "1" fill = "none" />    <line x1="474" y1="643" x2="305" y2="545" style="stroke:#ff0000;stroke-width:2" />
    <line x1="305" y1="545" x2="417" y2="545" style="stroke:#ff0000;stroke-width:2" />
    <line x1="417" y1="545" x2="361" y2="513" style="stroke:#ff0000;stroke-width:2" />
    <line x1="361" y1="513" x2="399" y2="513" style="stroke:#ff0000;stroke-width:2" />
    <line x1="399" y1="513" x2="380" y2="502" style="stroke:#ff0000;stroke-width:2" />
	<path d = "M643 350 L643 57 L350 57 L350 350 L643 350 Z" stroke = "#000000" stroke-width = "1" fill = "none" />    <line x1="496" y1="350" x2="496" y2="57" style="stroke:#ff0000;stroke-width:2" />
    <line x1="643" y1="203" x2="350" y2="204" style="stroke:#ff0000;stroke-width:2" />
    <line x1="570" y1="350" x2="570" y2="203" style="stroke:#ff0000;stroke-width:2" />
    <line x1="643" y1="277" x2="496" y2="277" style="stroke:#ff0000;stroke-width:2" />
    <line x1="606" y1="350" x2="606" y2="277" style="stroke:#ff0000;stroke-width:2" />
    <line x1="643" y1="313" x2="570" y2="313" style="stroke:#ff0000;stroke-width:2" />
    <line x1="625" y1="350" x2="625" y2="313" style="stroke:#ff0000;stroke-width:2" />
    <line x1="643" y1="332" x2="606" y2="332" style="stroke:#ff0000;stroke-width:2" />
	<path d = "M350 350 L350 57 L57 350 L350 350 Z" stroke = "#000000" stroke-width = "1" fill = "none" />    <line x1="350" y1="350" x2="203" y2="204" style="stroke:#ff0000;stroke-width:2" />
    <line x1="203" y1="204" x2="350" y2="204" style="stroke:#ff0000;stroke-width:2" />
    <line x1="350" y1="204" x2="277" y2="130" style="stroke:#ff0000;stroke-width:2" />
    <line x1="277" y1="130" x2="350" y2="130" style="stroke:#ff0000;stroke-width:2" />
    <line x1="350" y1="130" x2="313" y2="94" style="stroke:#ff0000;stroke-width:2" />
    <line x1="313" y1="94" x2="350" y2="94" style="stroke:#ff0000;stroke-width:2" />
    <line x1="350" y1="94" x2="332" y2="75" style="stroke:#ff0000;stroke-width:2" />
    <line x1="332" y1="75" x2="350" y2="75" style="stroke:#ff0000;stroke-width:2" />
	<path d = "M350 350 L57 350 L294 522 L350 350 Z" stroke = "#000000" stroke-width = "1" fill = "none" />    <line x1="350" y1="350" x2="203" y2="456" style="stroke:#ff0000;stroke-width:2" />
    <line x1="203" y1="456" x2="238" y2="350" style="stroke:#ff0000;stroke-width:2" />
    <line x1="238" y1="350" x2="148" y2="416" style="stroke:#ff0000;stroke-width:2" />
    <line x1="148" y1="416" x2="169" y2="350" style="stroke:#ff0000;stroke-width:2" />
    <line x1="169" y1="350" x2="113" y2="391" style="stroke:#ff0000;stroke-width:2" />
    <line x1="113" y1="391" x2="126" y2="350" style="stroke:#ff0000;stroke-width:2" />
    <line x1="126" y1="350" x2="92" y2="375" style="stroke:#ff0000;stroke-width:2" />
    <line x1="92" y1="375" x2="100" y2="350" style="stroke:#ff0000;stroke-width:2" />
    <line x1="100" y1="350" x2="78" y2="366" style="stroke:#ff0000;stroke-width:2" />
    <line x1="78" y1="366" x2="83" y2="350" style="stroke:#ff0000;stroke-width:2" />
	<path d = "M57 350 L294 522 L113 522 L57 350 Z" stroke = "#000000" stroke-width = "1" fill = "none" />    <line x1="113" y1="522" x2="148" y2="416" style="stroke:#ff0000;stroke-width:2" />
    <line x1="113" y1="522" x2="203" y2="456" style="stroke:#ff0000;stroke-width:2" />
    <line x1="203" y1="456" x2="182" y2="522" style="stroke:#ff0000;stroke-width:2" />
    <line x1="182" y1="522" x2="238" y2="482" style="stroke:#ff0000;stroke-width:2" />
    <line x1="238" y1="482" x2="225" y2="522" style="stroke:#ff0000;stroke-width:2" />
    <line x1="225" y1="522" x2="259" y2="497" style="stroke:#ff0000;stroke-width:2" />
    <line x1="259" y1="497" x2="251" y2="522" style="stroke:#ff0000;stroke-width:2" />
    <line x1="251" y1="522" x2="273" y2="507" style="stroke:#ff0000;stroke-width:2" />
    <line x1="148" y1="416" x2="92" y2="456" style="stroke:#ff0000;stroke-width:2" />
    <line x1="92" y1="456" x2="113" y2="391" style="stroke:#ff0000;stroke-width:2" />
    <line x1="113" y1="391" x2="78" y2="416" style="stroke:#ff0000;stroke-width:2" />
    <line x1="78" y1="416" x2="92" y2="375" style="stroke:#ff0000;stroke-width:2" />
    <line x1="92" y1="375" x2="70" y2="391" style="stroke:#ff0000;stroke-width:2" />
    <line x1="70" y1="391" x2="78" y2="366" style="stroke:#ff0000;stroke-width:2" />
    <line x1="155" y1="741" x2="155" y2="643" style="stroke:#ff0000;stroke-width:2" />
    <line x1="106" y1="741" x2="106" y2="692" style="stroke:#ff0000;stroke-width:2" />
    <line x1="130" y1="741" x2="130" y2="716" style="stroke:#ff0000;stroke-width:2" />
    <line x1="81" y1="741" x2="81" y2="716" style="stroke:#ff0000;stroke-width:2" />
    <line x1="69" y1="741" x2="69" y2="728" style="stroke:#ff0000;stroke-width:2" />
    <line x1="94" y1="741" x2="94" y2="728" style="stroke:#ff0000;stroke-width:2" />
    <line x1="118" y1="741" x2="118" y2="728" style="stroke:#ff0000;stroke-width:2" />
    <line x1="142" y1="741" x2="142" y2="728" style="stroke:#ff0000;stroke-width:2" />
    <line x1="252" y1="741" x2="252" y2="643" style="stroke:#ff0000;stroke-width:2" />
    <line x1="204" y1="741" x2="204" y2="692" style="stroke:#ff0000;stroke-width:2" />
    <line x1="228" y1="741" x2="228" y2="716" style="stroke:#ff0000;stroke-width:2" />
    <line x1="179" y1="741" x2="179" y2="716" style="stroke:#ff0000;stroke-width:2" />
    <line x1="167" y1="741" x2="167" y2="728" style="stroke:#ff0000;stroke-width:2" />
    <line x1="191" y1="741" x2="191" y2="728" style="stroke:#ff0000;stroke-width:2" />
    <line x1="216" y1="741" x2="216" y2="728" style="stroke:#ff0000;stroke-width:2" />
    <line x1="240" y1="741" x2="240" y2="728" style="stroke:#ff0000;stroke-width:2" />
    <line x1="350" y1="741" x2="350" y2="643" style="stroke:#ff0000;stroke-width:2" />
    <line x1="301" y1="741" x2="301" y2="692" style="stroke:#ff0000;stroke-width:2" />
    <line x1="326" y1="741" x2="326" y2="716" style="stroke:#ff0000;stroke-width:2" />
    <line x1="277" y1="741" x2="277" y2="716" style="stroke:#ff0000;stroke-width:2" />
    <line x1="265" y1="741" x2="265" y2="728" style="stroke:#ff0000;stroke-width:2" />
    <line x1="289" y1="741" x2="289" y2="728" style="stroke:#ff0000;stroke-width:2" />
    <line x1="313" y1="741" x2="313" y2="728" style="stroke:#ff0000;stroke-width:2" />
    <line x1="338" y1="741" x2="338" y2="728" style="stroke:#ff0000;stroke-width:2" />
    <line x1="448" y1="741" x2="448" y2="643" style="stroke:#ff0000;stroke-width:2" />
    <line x1="399" y1="741" x2="399" y2="692" style="stroke:#ff0000;stroke-width:2" />
    <line x1="423" y1="741" x2="423" y2="716" style="stroke:#ff0000;stroke-width:2" />
    <line x1="374" y1="741" x2="374" y2="716" style="stroke:#ff0000;stroke-width:2" />
    <line x1="362" y1="741" x2="362" y2="728" style="stroke:#ff0000;stroke-width:2" />
    <line x1="387" y1="741" x2="387" y2="728" style="stroke:#ff0000;stroke-width:2" />
    <line x1="411" y1="741" x2="411" y2="728" style="stroke:#ff0000;stroke-width:2" />
    <line x1="435" y1="741" x2="435" y2="728" style="stroke:#ff0000;stroke-width:2" />
    <line x1="545" y1="741" x2="545" y2="643" style="stroke:#ff0000;stroke-width:2" />
    <line x1="497" y1="741" x2="497" y2="692" style="stroke:#ff0000;stroke-width:2" />
    <line x1="521" y1="741" x2="521" y2="716" style="stroke:#ff0000;stroke-width:2" />
    <line x1="472" y1="741" x2="472" y2="716" style="stroke:#ff0000;stroke-width:2" />
    <line x1="460" y1="741" x2="460" y2="728" style="stroke:#ff0000;stroke-width:2" />
    <line x1="484" y1="741" x2="484" y2="728" style="stroke:#ff0000;stroke-width:2" />
    <line x1="509" y1="741" x2="509" y2="728" style="stroke:#ff0000;stroke-width:2" />
    <line x1="533" y1="741" x2="533" y2="728" style="stroke:#ff0000;stroke-width:2" />
    <line x1="643" y1="741" x2="643" y2="643" style="stroke:#ff0000;stroke-width:2" />
    <line x1="594" y1="741" x2="594" y2="692" style="stroke:#ff0000;stroke-width:2" />
    <line x1="619" y1="741" x2="619" y2="716" style="stroke:#ff0000;stroke-width:2" />
    <line x1="570" y1="741" x2="570" y2="716" style="stroke:#ff0000;stroke-width:2" />
    <line x1="558" y1="741" x2="558" y2="728" style="stroke:#ff0000;stroke-width:2" />
    <line x1="582" y1="741" x2="582" y2="728" style="stroke:#ff0000;stroke-width:2" />
    <line x1="606" y1="741" x2="606" y2="728" style="stroke:#ff0000;stroke-width:2" />
    <line x1="631" y1="741" x2="631" y2="728" style="stroke:#ff0000;stroke-width:2" />
    <line x1="643" y1="643" x2="545" y2="643" style="stroke:#ff0000;stroke-width:2" />
    <line x1="643" y1="692" x2="594" y2="692" style="stroke:#ff0000;stroke-width:2" />
    <line x1="643" y1="667" x2="619" y2="667" style="stroke:#ff0000;stroke-width:2" />
    <line x1="643" y1="716" x2="619" y2="716" style="stroke:#ff0000;stroke-width:2" />
    <line x1="643" y1="728" x2="631" y2="728" style="stroke:#ff0000;stroke-width:2" />
    <line x1="643" y1="704" x2="631" y2="704" style="stroke:#ff0000;stroke-width:2" />
    <line x1="643" y1="680" x2="631" y2="680" style="stroke:#ff0000;stroke-width:2" />
    <line x1="643" y1="655" x2="631" y2="655" style="stroke:#ff0000;stroke-width:2" />
    <line x1="594" y1="643" x2="594" y2="663" style="stroke:#ff0000;stroke-width:2" />
    <line x1="604" y1="643" x2="604" y2="653" style="stroke:#ff0000;stroke-width:2" />
    <line x1="614" y1="643" x2="614" y2="653" style="stroke:#ff0000;stroke-width:2" />
    <line x1="623" y1="643" x2="623" y2="653" style="stroke:#ff0000;stroke-width:2" />
    <line x1="633" y1="643" x2="633" y2="653" style="stroke:#ff0000;stroke-width:2" />
    <line x1="584" y1="643" x2="584" y2="653" style="stroke:#ff0000;stroke-width:2" />
    <line x1="575" y1="643" x2="575" y2="653" style="stroke:#ff0000;stroke-width:2" />
    <line x1="565" y1="643" x2="565" y2="653" style="stroke:#ff0000;stroke-width:2" />
    <line x1="555" y1="643" x2="555" y2="653" style="stroke:#ff0000;stroke-width:2" />
    <line x1="497" y1="643" x2="497" y2="663" style="stroke:#ff0000;stroke-width:2" />
    <line x1="506" y1="643" x2="506" y2="653" style="stroke:#ff0000;stroke-width:2" />
    <line x1="516" y1="643" x2="516" y2="653" style="stroke:#ff0000;stroke-width:2" />
    <line x1="526" y1="643" x2="526" y2="653" style="stroke:#ff0000;stroke-width:2" />
    <line x1="536" y1="643" x2="536" y2="653" style="stroke:#ff0000;stroke-width:2" />
    <line x1="487" y1="643" x2="487" y2="653" style="stroke:#ff0000;stroke-width:2" />
    <line x1="477" y1="643" x2="477" y2="653" style="stroke:#ff0000;stroke-width:2" />
    <line x1="467" y1="643" x2="467" y2="653" style="stroke:#ff0000;stroke-width:2" />
    <line x1="457" y1="643" x2="457" y2="653" style="stroke:#ff0000;stroke-width:2" />
    <line x1="399" y1="643" x2="399" y2="663" style="stroke:#ff0000;stroke-width:2" />
    <line x1="409" y1="643" x2="409" y2="653" style="stroke:#ff0000;stroke-width:2" />
    <line x1="418" y1="643" x2="418" y2="653" style="stroke:#ff0000;stroke-width:2" />
    <line x1="428" y1="643" x2="428" y2="653" style="stroke:#ff0000;stroke-width:2" />
    <line x1="438" y1="643" x2="438" y2="653" style="stroke:#ff0000;stroke-width:2" />
    <line x1="389" y1="643" x2="389" y2="653" style="stroke:#ff0000;stroke-width:2" />
    <line x1="379" y1="643" x2="379" y2="653" style="stroke:#ff0000;stroke-width:2" />
    <line x1="370" y1="643" x2="370" y2="653" style="stroke:#ff0000;stroke-width:2" />
    <line x1="360" y1="643" x2="360" y2="653" style="stroke:#ff0000;stroke-width:2" />
    <line x1="301" y1="643" x2="301" y2="663" style="stroke:#ff0000;stroke-width:2" />
    <line x1="311" y1="643" x2="311" y2="653" style="stroke:#ff0000;stroke-width:2" />
    <line x1="321" y1="643" x2="321" y2="653" style="stroke:#ff0000;stroke-width:2" />
    <line x1="330" y1="643" x2="330" y2="653" style="stroke:#ff0000;stroke-width:2" />
    <line x1="340" y1="643" x2="340" y2="653" style="stroke:#ff0000;stroke-width:2" />
    <line x1="291" y1="643" x2="291" y2="653" style="stroke:#ff0000;stroke-width:2" />
    <line x1="282" y1="643" x2="282" y2="653" style="stroke:#ff0000;stroke-width:2" />
    <line x1="272" y1="643" x2="272" y2="653" style="stroke:#ff0000;stroke-width:2" />
    <line x1="262" y1="643" x2="262" y2="653" style="stroke:#ff0000;stroke-width:2" />
    <line x1="204" y1="643" x2="204" y2="663" style="stroke:#ff0000;stroke-width:2" />
    <line x1="213" y1="643" x2="213" y2="653" style="stroke:#ff0000;stroke-width:2" />
    <line x1="223" y1="643" x2="223" y2="653" style="stroke:#ff0000;stroke-width:2" />
    <line x1="233" y1="643" x2="233" y2="653" style="stroke:#ff0000;stroke-width:2" />
    <line x1="243" y1="643" x2="243" y2="653" style="stroke:#ff0000;stroke-width:2" />
    <line x1="194" y1="643" x2="194" y2="653" style="stroke:#ff0000;stroke-width:2" />
    <line x1="184" y1="643" x2="184" y2="653" style="stroke:#ff0000;stroke-width:2" />
    <line x1="174" y1="643" x2="174" y2="653" style="stroke:#ff0000;stroke-width:2" />
    <line x1="164" y1="643" x2="164" y2="653" style="stroke:#ff0000;stroke-width:2" />
    <line x1="106" y1="643" x2="106" y2="663" style="stroke:#ff0000;stroke-width:2" />
    <line x1="116" y1="643" x2="116" y2="653" style="stroke:#ff0000;stroke-width:2" />
    <line x1="125" y1="643" x2="125" y2="653" style="stroke:#ff0000;stroke-width:2" />
    <line x1="135" y1="643" x2="135" y2="653" style="stroke:#ff0000;stroke-width:2" />
    <line x1="145" y1="643" x2="145" y2="653" style="stroke:#ff0000;stroke-width:2" />
    <line x1="96" y1="643" x2="96" y2="653" style="stroke:#ff0000;stroke-width:2" />
    <line x1="86" y1="643" x2="86" y2="653" style="stroke:#ff0000;stroke-width:2" />
    <line x1="77" y1="643" x2="77" y2="653" style="stroke:#ff0000;stroke-width:2" />
    <line x1="67" y1="643" x2="67" y2="653" style="stroke:#ff0000;stroke-width:2" />
    <line x1="57" y1="692" x2="77" y2="692" style="stroke:#ff0000;stroke-width:2" />
    <line x1="57" y1="682" x2="67" y2="682" style="stroke:#ff0000;stroke-width:2" />
    <line x1="57" y1="672" x2="67" y2="672" style="stroke:#ff0000;stroke-width:2" />
    <line x1="57" y1="663" x2="67" y2="663" style="stroke:#ff0000;stroke-width:2" />
    <line x1="57" y1="653" x2="67" y2="653" style="stroke:#ff0000;stroke-width:2" />
    <line x1="57" y1="702" x2="67" y2="702" style="stroke:#ff0000;stroke-width:2" />
    <line x1="57" y1="711" x2="67" y2="711" style="stroke:#ff0000;stroke-width:2" />
    <line x1="57" y1="721" x2="67" y2="721" style="stroke:#ff0000;stroke-width:2" />
    <line x1="57" y1="731" x2="67" y2="731" style="stroke:#ff0000;stroke-width:2" />
	<path d = "M57 741 L57 643 L155 643 L252 643 L350 643 L448 643 L545 643 L643 643 L643 741 L545 741 L448 741 L350 741 L252 741 L155 741 L57 741 Z" stroke = "#000000" stroke-width = "1" fill = "none" /></svg>