<svg width="500" height="400" viewbox = "0 0 500 400"  xmlns="http://www.w3.org/2000/svg">
<!--<json>{
  "glyph": "0336,0333,0333,0331,0336,0336,0331,0331,0331,0333,0331,0332,0337,0337,0330,0337,0211,0211,0337,01015,0247,",
  "shapes": [
    "0220:0314,0336,0313,0333,0331,0331,0337,0337,0321,0332,0362,0203,0336,0336,0333,0350,0334,0345,0335,0330,0335,0335,0337,0337,0203,0336,0336,0335,0333,0334,0334,0345,0335,0330,0335,0335,0337,0337,0203,0335,0336,0336,0333,0334,0334,0345,0335,0330,0335,0335,0337,0337,0203,0335,0336,0336,0333,0334,0334,0345,0333,0364,0335,0335,0335,0304,0337,0330,0333,0336,0333,0314,0337,0313,0320,",
    "0221:0220,0350,0335,0313,0304,0336,0331,0336,0336,0332,0337,0337,0337,0362,0203,0335,0336,0336,0203,0335,0337,0337,0203,0335,0336,0336,0203,0363,0335,0336,0333,0337,0337,0337,0330,0336,0336,0336,0336,0330,0337,0362,0346,0363,0336,0331,0337,0337,0337,0337,0331,0336,0336,0336,0335,0335,0336,0330,0335,0337,0330,0334,0334,0337,0306,0362,0203,0335,0335,0203,0335,0335,0203,0363,0334,0304,0335,0336,0333,0336,0330,0337,0337,0337,0337,0336,0330,0337,0350,0334,0304,0331,0331,0336,0330,0336,0332,0332,0337,01015,0145,0144,0151,0164,0365,0330,0330,0330,0333,0337,",
    "0222:0220,0336,0336,0336,0347,0337,0337,0321,0201,0336,0336,0347,0337,0337,0335,0350,0335,0310,0337,0201,0336,0313,0336,0336,0347,0335,0335,0335,0337,0337,0330,0330,0336,0336,0347,0335,0335,0335,0337,0337,0310,0337,0201,0334,0336,0331,0313,0304,0337,0320,0331,0331,0336,0330,0332,01015,0146,0157,0162,0153,0365,0330,0330,0330,0333,0337,",
    "0223:0220,0336,0332,0336,0336,0332,0337,0337,0331,0337,0321,0342,0336,0336,0333,0337,0337,0342,0333,0342,0336,0336,0332,0337,0337,0342,0336,0330,0336,0331,0334,0337,0362,0203,0336,0203,0364,0333,0333,0335,0335,0337,0362,0203,0336,0203,0364,0334,0330,0335,0331,0337,0362,0203,0336,0203,0364,0334,0336,0332,0332,0332,0337,0342,0335,0335,0330,0330,0330,0330,0332,0335,0336,0331,0337,0337,0362,0203,0336,0203,0364,0331,0336,0331,0334,0337,0342,0333,0333,0333,0335,0336,0331,0337,0337,0362,0203,0336,0203,0364,0335,0335,0330,0336,0330,0335,0337,0342,0331,0331,0331,0331,0335,0331,0336,0331,0337,0337,0362,0203,0336,0203,0364,0335,0333,0336,0333,0337,0342,0333,0333,0331,0331,0337,0337,0320,0331,0336,0331,0332,01015,0163,0143,0162,0157,0154,0154,0365,0330,0330,0330,0333,0337,",
    "0224:0336,0336,0350,0334,0310,0337,0362,0203,0335,0335,0335,0336,0313,0337,0305,0311,0334,0337,0203,0363,0335,0335,0362,0203,0335,0335,0350,0334,0336,0313,0336,0304,0350,0310,0337,0334,0203,0364,0335,0335,0335,0335,0336,0334,0313,0304,0337,0337,0335,",
    "0225:0220,0210,0224,0224,0224,0224,0211,0331,0336,0331,0332,01015,0155,0141,0160,0365,0330,0330,0330,0333,0337,",
    "0226:0220,0336,0331,0334,0336,0330,0337,0321,0336,0362,0203,0335,0203,0203,0203,0203,0203,0335,0203,0203,0203,0203,0335,0203,0203,0203,0203,0203,0335,0203,0364,0330,0334,0331,0337,0201,0335,0336,0350,0334,0331,0362,0203,0335,0335,0203,0364,0331,0335,0313,0304,0337,0330,0336,0330,0337,0337,0320,0331,0336,0331,0332,01015,0163,0141,0166,0145,0365,0330,0330,0330,0333,0337,",
    "0227:0304,0350,0335,0313,0304,0322,0336,0336,0336,0330,0332,0337,0337,0362,0203,0335,0336,0203,0335,0337,0203,0334,0203,0335,0336,0203,0335,0337,0203,0334,0203,0335,0336,0203,0335,0337,0203,0334,0203,0335,0336,0203,0335,0337,0203,0363,0320,0336,0334,0336,0333,0331,0337,0337,0337,0350,0334,0304,0220,0331,0336,0331,0332,0336,0332,0337,01015,0144,0145,0154,0145,0164,0145,0365,0336,0333,0337,0330,0330,0330,0333,0337,",
    "0230:0220,0321,0210,0210,0210,0350,0332,0362,0334,0331,0335,0335,0334,0345,0335,0335,0345,0335,0335,0345,0335,0335,0350,0334,0345,0364,0335,0335,0335,0335,0335,0335,0335,0334,0334,0304,0336,0342,0335,0342,0335,0342,0335,0342,0335,0337,0211,0211,0211,0331,0336,0331,0332,01015,0141,0144,0144,0365,01015,0330,0330,0330,0333,0337,",
    "0231:0220,0336,0331,0334,0331,0337,0321,0342,0333,0342,0336,0332,0330,0335,0336,0331,0337,0201,0350,0335,0336,0331,0362,0203,0335,0335,0203,0364,0331,0334,0334,0334,0331,0337,0337,0304,0320,0331,0336,0336,0331,0331,0332,0330,0332,0332,01015,0165,0160,040,0145,0154,0145,0155,0145,0156,0164,0365,0330,0333,0333,0333,0330,0330,0330,0330,0337,0337,",
    "0232:0335,0335,0220,0336,0331,0334,0331,0337,0321,0342,0333,0342,0336,0332,0330,0335,0336,0331,0337,0201,0350,0335,0336,0331,0362,0203,0335,0335,0203,0364,0331,0334,0334,0334,0331,0337,0337,0304,0320,0335,0335,0331,0336,0331,0336,0330,0332,0332,0332,0332,01015,0144,0157,0167,0156,040,0145,0154,0145,0155,0145,0156,0164,0365,0330,0330,0330,0330,0330,0333,0333,0333,0333,0337,0337,",
    "0233:0220,0336,0331,0335,0331,0337,0321,0342,0332,0342,0336,0333,0337,0342,0330,0336,0336,0336,0330,0337,0366,0332,0332,0332,0367,0350,0335,0306,0350,0320,0335,0362,0203,0334,0334,0334,0334,0203,0334,0334,0334,0334,0203,0363,0335,0304,0350,0335,0304,0331,0331,0331,0336,0332,0337,0337,0332,0337,0336,0331,0331,0331,0332,0332,0336,0330,0333,01015,0145,0154,0145,0155,0145,0156,0164,040,0165,0160,0365,0330,0330,0330,0330,0330,0333,0333,0333,0337,0337,",
    "0234:0220,0336,0335,0335,0331,0335,0331,0337,0321,0342,0332,0342,0336,0333,0337,0342,0330,0336,0336,0336,0330,0337,0366,0332,0332,0332,0367,0350,0335,0306,0350,0320,0335,0362,0203,0334,0334,0334,0334,0203,0334,0334,0334,0334,0203,0363,0335,0304,0350,0335,0304,0335,0335,0331,0331,0332,01015,0145,0154,0145,0155,0145,0156,0164,040,0144,0157,0167,0156,0365,0330,0330,0330,0330,0330,0333,0333,0333,0336,0332,0337,0333,0337,0337,",
    "0235:0220,0321,0336,0342,0335,0342,0335,0342,0335,0342,0335,0337,",
    "0236:0321,0220,0335,0336,0321,0342,0335,0335,0342,0335,0337,",
    "0237:0220,0336,0331,0332,0336,0321,0342,0335,0342,0335,0342,0335,0342,0335,0330,0330,0333,0333,0337,0337,",
    "0240:0220,0336,0331,0333,0336,0321,0335,0342,0335,0335,0342,0335,0330,0330,0332,0332,0337,0337,",
    "0241:0220,0336,0321,0343,0332,0350,0335,0336,0342,0334,0334,0342,0335,0304,0337,0333,0337,",
    "0242:0220,0321,0336,0343,0333,0336,0350,0335,0342,0334,0334,0342,0335,0337,0304,0332,0337,",
    "0243:0220,0336,0331,0332,0336,0321,0343,0332,0350,0334,0336,0342,0335,0335,0342,0337,0334,0334,0335,0304,0332,0330,0330,0337,0337,0333,",
    "0244:0220,0336,0331,0333,0336,0321,0343,0333,0350,0336,0335,0342,0334,0334,0342,0335,0337,0304,0333,0330,0330,0337,0337,0332,",
    "0245:0210,0332,0332,0362,0335,0203,0203,0203,0203,0334,0203,0363,0332,0332,0331,0211,",
    "0246:0210,0332,0332,0335,0306,0336,0330,0335,0335,0335,0321,0362,0203,0335,0335,0203,0364,0331,0350,0335,0337,0366,0333,0333,0333,0333,0334,0334,0334,0334,0367,0335,0336,0342,0334,0334,0342,0330,0330,0330,0330,0335,0335,0335,0304,0337,0211,",
    "0247:0330,0332,0336,0332,0336,0221,0333,0333,0333,0222,0333,0333,0333,0223,0333,0333,0333,0225,0333,0331,0331,0331,0332,0332,0332,0332,0332,0332,0332,0332,0332,0332,0332,0332,0333,0333,0226,0331,0331,0331,0333,0333,0333,0333,0333,0333,0333,0333,0333,0333,0333,0333,0333,0330,0333,0330,0330,0333,0330,0331,0332,0332,0332,0332,0332,0332,0332,0332,0332,0332,0332,0332,0227,0333,0333,0333,0230,0333,0331,0331,0331,0331,0332,0332,0332,0330,0332,0332,0332,0332,0332,0332,0333,0333,0231,0333,0333,0333,0232,0331,0333,0330,0333,0333,0233,0333,0333,0333,0234,0330,0330,0332,0330,0332,0332,0337,0337,",
    "01220:0333,0200,0336,0330,0332,0210,0220,0211,0333,0331,0337,",
    "01221:0333,0200,0336,0330,0332,0210,0221,0211,0333,0331,0337,",
    "01222:0333,0200,0336,0330,0332,0210,0222,0211,0333,0331,0337,",
    "01223:0333,0200,0336,0330,0332,0210,0223,0211,0333,0331,0337,",
    "01224:0333,0200,0336,0330,0332,0224,0334,0333,0331,0337,",
    "01225:0333,0200,0336,0330,0332,0210,0225,0211,0333,0331,0337,",
    "01226:0333,0200,0336,0330,0332,0210,0226,0211,0333,0331,0337,",
    "01227:0333,0200,0336,0330,0332,0210,0227,0211,0331,0333,0337,",
    "01230:0333,0200,0336,0330,0332,0210,0230,0211,0333,0331,0320,0337,",
    "01231:0333,0200,0336,0330,0332,0210,0231,0211,",
    "01232:0333,0200,0336,0330,0332,0210,0232,0211,0333,0331,",
    "01233:0333,0200,0336,0330,0332,0210,0233,0211,0333,0331,0337,",
    "01234:0333,0200,0336,0330,0332,0210,0234,0211,0333,0331,0337,",
    "01235:0333,0200,0336,0330,0332,0210,0235,0211,0333,0331,0337,",
    "01236:0333,0200,0336,0330,0332,0210,0236,0211,0333,0331,0337,",
    "01237:0333,0200,0336,0330,0332,0210,0237,0211,0333,0331,0337,",
    "01240:0333,0200,0336,0330,0332,0210,0240,0211,0333,0331,0337,",
    "01241:0333,0200,0336,0332,0330,0210,0241,0211,0333,0331,0337,",
    "01242:0333,0200,0336,0330,0332,0210,0242,0211,0333,0331,0337,",
    "01243:0333,0200,0336,0330,0332,0210,0243,0211,0333,0331,0337,",
    "01244:0333,0200,0336,0330,0332,0210,0244,0211,0333,0331,0337,",
    "01245:0333,0200,0336,0330,0332,0336,0245,0337,0333,0331,0337,",
    "01246:0333,0200,0336,0330,0332,0336,0246,",
    "01247:0333,0200,0336,0330,0332,0220,0336,0247,0337,0331,0333,0337,"
  ],
  "x0rel": 0.5,
  "y0rel": 0.5,
  "unitrel": 0.125,
  "theta0": -1.570796,
  "width": 500,
  "height": 400,
  "scale": 1,
  "backgroundimage": "",
  "style": {
    "color0": "black",
    "fill0": "black",
    "line0": 1,
    "color1": "black",
    "fill1": "black",
    "line1": 3,
    "color2": "red",
    "fill2": "red",
    "line2": 2,
    "color3": "#FF7900",
    "fill3": "#FF7900",
    "line3": 2,
    "color4": "yellow",
    "fill4": "yellow",
    "line4": 2,
    "color5": "green",
    "fill5": "green",
    "line5": 2,
    "color6": "blue",
    "fill6": "blue",
    "line6": 2,
    "color7": "purple",
    "fill7": "purple",
    "line7": 2
  },
  "controlbuttons": [
    196,
    198,
    200,
    203,
    128,
    216,
    217,
    218,
    219,
    220,
    221,
    222,
    223,
    27,
    8,
    134,
    225,
    192,
    16,
    17,
    145,
    151,
    146,
    232,
    233
  ]
}</json>-->	<path d = "M26 95 L26 40 M26.152584652745606 40.351615168118634           A13.635593691405703 13.635593691405703 0 0 1 39.78818280019301 26.716025932756093L94 27 M94.33055756581291 26.716043756925803           A13.635593691405703 13.635593691405703 0 0 1 107.96614680117546 40.3516419043732L108 95 M107.96612897700574 94.8940166699931           A13.635593691405703 13.635593691405703 0 0 1 94.33053082955833 108.52960590535565L40 109 M39.78815606393844 108.52958808118595           A13.635593691405703 13.635593691405703 0 0 1 26.15256682857589 94.89398993373854" stroke = "#000000" stroke-width = "3" fill = "none" />	<path d = "M49 78 L78 50 L85 57 L56 86 L49 78 Z" stroke = "#000000" stroke-width = "1" fill = "#000000" />	<path d = "M83 51 M79.7142530672672 47.73656472742178           A5.1133476342771385 5.1133476342771385 0 0 1 86.94561627761657 54.96793266411785Z" stroke = "#000000" stroke-width = "1" fill = "#000000" />	<path d = "M47 80 L54 88 L45 90 L47 80 Z" stroke = "#000000" stroke-width = "1" fill = "#000000" />    <text x="47" y = "129" fill = "#000000" font-size = "20.453390537108554px" font-family = "Arial">edit</text>
	<path d = "M149 95 L149 40 M148.87292787539047 40.35165527250035           A13.635593691405703 13.635593691405703 0 0 1 162.5085260228379 26.716066037137804L217 27 M217.05090078845777 26.7160838613077           A13.635593691405703 13.635593691405703 0 0 1 230.68649002382028 40.35168200875515L231 95 M230.6864721996503 94.894056774375           A13.635593691405703 13.635593691405703 0 0 1 217.05087405220283 108.5296460097375L163 109 M162.508499286583 108.52962818556742           A13.635593691405703 13.635593691405703 0 0 1 148.87291005122052 94.89403003811992" stroke = "#000000" stroke-width = "3" fill = "none" />    <circle cx="190" cy = "68" r = "5.1133476342771385" stroke = "#000000" stroke-width = "1" fill = "#000000" />
    <line x1="190" y1="68" x2="190" y2="47" style="stroke:#000000;stroke-width:3" />
    <circle cx="190" cy = "47" r = "5.1133476342771385" stroke = "#000000" stroke-width = "3" fill = "#000000" />
    <line x1="190" y1="47" x2="210" y2="68" style="stroke:#000000;stroke-width:3" />
    <circle cx="210" cy = "68" r = "5.1133476342771385" stroke = "#000000" stroke-width = "3" fill = "#000000" />
    <circle cx="169" cy = "68" r = "5.1133476342771385" stroke = "#000000" stroke-width = "3" fill = "#000000" />
    <line x1="169" y1="68" x2="190" y2="47" style="stroke:#000000;stroke-width:3" />
    <text x="169" y = "129" fill = "#000000" font-size = "20.453390537108554px" font-family = "Arial">fork</text>
	<path d = "M272 95 L272 40 M271.59327109803564 40.3516953768836           A13.635593691405703 13.635593691405703 0 0 1 285.22886924548317 26.71610614152119L340 27 M339.7712440111031 26.71612396569164           A13.635593691405703 13.635593691405703 0 0 1 353.4068332464655 40.351722113139175L353 95 M353.4068154222954 94.89409687875917           A13.635593691405703 13.635593691405703 0 0 1 339.7712172748479 108.52968611412159L285 109 M285.2288425092279 108.52966828995173           A13.635593691405703 13.635593691405703 0 0 1 271.59325327386546 94.89407014250429" stroke = "#000000" stroke-width = "3" fill = "none" />    <line x1="287" y1="88" x2="287" y2="47" style="stroke:#000000;stroke-width:3" />
    <line x1="297" y1="88" x2="297" y2="47" style="stroke:#000000;stroke-width:3" />
    <line x1="338" y1="88" x2="338" y2="47" style="stroke:#000000;stroke-width:3" />
    <line x1="328" y1="88" x2="328" y2="47" style="stroke:#000000;stroke-width:3" />
	<path d = "M328 78 L307 78 L297 78 " stroke = "#000000" stroke-width = "3" fill = "none" />	<path d = "M297 57 L318 57 L328 57 " stroke = "#000000" stroke-width = "3" fill = "none" />	<path d = "M318 47 L338 47 L348 47 " stroke = "#000000" stroke-width = "3" fill = "none" />    <line x1="333" y1="47" x2="333" y2="37" style="stroke:#000000;stroke-width:3" />
	<path d = "M348 88 L328 88 L318 88 " stroke = "#000000" stroke-width = "3" fill = "none" />    <line x1="333" y1="88" x2="333" y2="98" style="stroke:#000000;stroke-width:3" />
	<path d = "M307 88 L287 88 L277 88 " stroke = "#000000" stroke-width = "3" fill = "none" />    <line x1="292" y1="88" x2="292" y2="98" style="stroke:#000000;stroke-width:3" />
	<path d = "M307 47 L287 47 L277 47 " stroke = "#000000" stroke-width = "3" fill = "none" />    <line x1="292" y1="47" x2="292" y2="37" style="stroke:#000000;stroke-width:3" />
    <text x="292" y = "129" fill = "#000000" font-size = "20.453390537108554px" font-family = "Arial">scroll</text>
	<path d = "M394 95 L394 40 M394.31361432067996 40.351735481267944           A13.635593691405703 13.635593691405703 0 0 1 407.9492124681275 26.716146245905623L462 27 M462.49158723374757 26.71616407007564           A13.635593691405703 13.635593691405703 0 0 1 476.12717646910994 40.35176221752312L476 95 M476.1271586449402 94.89413698314316           A13.635593691405703 13.635593691405703 0 0 1 462.49156049749286 108.52972621850563L408 109 M407.94918573187283 108.5297083943362           A13.635593691405703 13.635593691405703 0 0 1 394.3135964965103 94.89411024688886" stroke = "#000000" stroke-width = "3" fill = "none" />	<path d = "M435 68 L426 59 L435 31 Z" stroke = "#000000" stroke-width = "1" fill = "#000000" />	<path d = "M435 31 L444 59 L435 68 " stroke = "#000000" stroke-width = "1" fill = "none" />	<path d = "M435 68 L444 59 L472 68 Z" stroke = "#000000" stroke-width = "1" fill = "#000000" />	<path d = "M472 68 L444 77 L435 68 " stroke = "#000000" stroke-width = "1" fill = "none" />	<path d = "M435 68 L444 77 L435 104 Z" stroke = "#000000" stroke-width = "1" fill = "#000000" />	<path d = "M435 104 L426 77 L435 68 " stroke = "#000000" stroke-width = "1" fill = "none" />	<path d = "M435 68 L426 77 L399 68 Z" stroke = "#000000" stroke-width = "1" fill = "#000000" />	<path d = "M399 68 L426 59 L435 68 " stroke = "#000000" stroke-width = "1" fill = "none" />    <text x="415" y = "129" fill = "#000000" font-size = "20.453390537108554px" font-family = "Arial">map</text>
	<path d = "M26 218 L26 163 M26.1525445483657 163.07195839077232           A13.635593691405703 13.635593691405703 0 0 1 39.788142695812844 149.43636915540958L94 149 M94.3305174614329 149.43638697957797           A13.635593691405703 13.635593691405703 0 0 1 107.9661066967957 163.07198512702504L108 218 M107.96608887262761 217.61435989264507           A13.635593691405703 13.635593691405703 0 0 1 94.33049072518061 231.24994912800796L40 231 M39.78811595956057 231.24993130384016           A13.635593691405703 13.635593691405703 0 0 1 26.152526724197617 217.61433315639323" stroke = "#000000" stroke-width = "3" fill = "none" />	<path d = "M57 211 L47 211 L47 201 L47 190 L47 180 L47 170 L47 160 L57 160 L67 160 L77 160 L88 160 L88 170 L88 180 L88 190 L88 201 L88 211 L77 211 " stroke = "#000000" stroke-width = "3" fill = "none" />    <line x1="67" y1="201" x2="67" y2="221" style="stroke:#000000;stroke-width:3" />
	<path d = "M74 214 L67 221 L60 214 " stroke = "#000000" stroke-width = "3" fill = "none" />    <text x="47" y = "252" fill = "#000000" font-size = "20.453390537108554px" font-family = "Arial">save</text>
	<path d = "M190 183 L204 169 L211 176 L197 190 L211 205 L204 212 L190 198 L175 212 L168 205 L183 190 L168 176 L175 169 L190 183 Z" stroke = "#ff0000" stroke-width = "2" fill = "#ff0000" />	<path d = "M149 218 L149 163 M148.87288777100892 163.07199849514265           A13.635593691405703 13.635593691405703 0 0 1 162.5084859184552 149.43640925977903L217 149 M217.05086068407522 149.4364270839439           A13.635593691405703 13.635593691405703 0 0 1 230.6864499194389 163.07202523139009L231 218 M230.68643209527434 217.6143999970101           A13.635593691405703 13.635593691405703 0 0 1 217.0508339478282 231.24998923237388L163 231 M162.50845918220813 231.2499714082096           A13.635593691405703 13.635593691405703 0 0 1 148.8728699468443 217.61437326076356" stroke = "#000000" stroke-width = "3" fill = "none" />    <text x="159" y = "252" fill = "#000000" font-size = "20.453390537108554px" font-family = "Arial">delete</text>
	<path d = "M272 218 L272 163 M271.5932309936531 163.07203859951093           A13.635593691405703 13.635593691405703 0 0 1 285.228829141099 149.43644936414702L340 149 M339.77120390671905 149.4364671883107           A13.635593691405703 13.635593691405703 0 0 1 353.406793142083 163.0720653357566L353 218 M353.40677531791965 217.61444010137663           A13.635593691405703 13.635593691405703 0 0 1 339.77117717047383 231.25002933674068L285 231 M285.22880240485375 231.25001151257757           A13.635593691405703 13.635593691405703 0 0 1 271.5932131694897 217.6144133651318" stroke = "#000000" stroke-width = "3" fill = "none" />	<path d = "M293 171 M293.1864473189239 171.02967089043938           A27.313501528051322 27.313501528051322 0 0 1 331.8135716157902 171.02968351358155M331.8135716157902 171.02968351358155           A27.313501528051322 27.313501528051322 0 0 1 331.8135589926482 209.65680781044782M331.8135589926482 209.65680781044782           A27.313501528051322 27.313501528051322 0 0 1 293.18643469578194 209.65679518730605M293.18643469578194 209.65679518730605           A27.313501528051322 27.313501528051322 0 0 1 285.1865016277361 190.34323042453468" stroke = "#000000" stroke-width = "3" fill = "none" />    <line x1="313" y1="190" x2="313" y2="177" style="stroke:#000000;stroke-width:3" />
    <line x1="313" y1="190" x2="326" y2="190" style="stroke:#000000;stroke-width:3" />
    <line x1="313" y1="190" x2="312" y2="204" style="stroke:#000000;stroke-width:3" />
    <line x1="313" y1="190" x2="299" y2="190" style="stroke:#000000;stroke-width:3" />
    <text x="292" y = "252" fill = "#000000" font-size = "20.453390537108554px" font-family = "Arial">add</text>
	<path d = "M26 340 L26 286 M26.1525044440007 285.7923016134326           A13.635593691405703 13.635593691405703 0 0 1 39.78810259144579 272.1567123780678L94 272 M94.33047735706585 272.156730202228           A13.635593691405703 13.635593691405703 0 0 1 107.9660665924307 285.79232834967297L108 340 M107.96604876827084 340.334703115293           A13.635593691405703 13.635593691405703 0 0 1 94.3304506208259 353.9702923506579L40 354 M39.788075855205854 353.9702745264984           A13.635593691405703 13.635593691405703 0 0 1 26.152486619840847 340.3346763790535" stroke = "#000000" stroke-width = "3" fill = "none" />    <line x1="88" y1="334" x2="47" y2="334" style="stroke:#000000;stroke-width:3" />
    <line x1="88" y1="293" x2="47" y2="293" style="stroke:#000000;stroke-width:3" />
    <line x1="67" y1="323" x2="67" y2="303" style="stroke:#000000;stroke-width:3" />
	<path d = "M60 310 L67 303 L74 310 " stroke = "#000000" stroke-width = "3" fill = "none" />    <text x="36" y = "364" fill = "#000000" font-size = "10.226695268554277px" font-family = "Arial">up element</text>
	<path d = "M231 286 L231 340 M230.68639199091555 340.3347432196497           A13.635593691405703 13.635593691405703 0 0 1 217.0507938434709 353.9703324550149L163 354 M162.50841907785085 353.9703146308565           A13.635593691405703 13.635593691405703 0 0 1 148.87282984248554 340.3347164834119L149 286 M148.87284766664365 285.7923417177918           A13.635593691405703 13.635593691405703 0 0 1 162.50844581408816 272.1567524824265L217 272 M217.0508205797082 272.1567703065843           A13.635593691405703 13.635593691405703 0 0 1 230.68640981507363 285.7923684540287" stroke = "#000000" stroke-width = "3" fill = "none" />    <line x1="169" y1="293" x2="210" y2="293" style="stroke:#000000;stroke-width:3" />
    <line x1="169" y1="334" x2="210" y2="334" style="stroke:#000000;stroke-width:3" />
    <line x1="190" y1="303" x2="190" y2="323" style="stroke:#000000;stroke-width:3" />
	<path d = "M197 316 L190 323 L183 316 " stroke = "#000000" stroke-width = "3" fill = "none" />    <text x="149" y = "364" fill = "#000000" font-size = "10.226695268554277px" font-family = "Arial">down element</text>
	<path d = "M272 340 L272 286 M271.5931908892885 285.7923818221446           A13.635593691405703 13.635593691405703 0 0 1 285.2287890367327 272.1567925867789L340 272 M339.7711638023527 272.1568104109356           A13.635593691405703 13.635593691405703 0 0 1 353.40675303771843 285.7924085583797L353 340 M353.4067352135621 340.3347833239998           A13.635593691405703 13.635593691405703 0 0 1 339.77113706611806 353.97037255936556L285 354 M285.228762300498 353.9703547352095           A13.635593691405703 13.635593691405703 0 0 1 271.59317306513213 340.3347565877656" stroke = "#000000" stroke-width = "3" fill = "none" />    <line x1="292" y1="334" x2="333" y2="334" style="stroke:#000000;stroke-width:3" />
    <line x1="292" y1="293" x2="333" y2="293" style="stroke:#000000;stroke-width:3" />
    <line x1="292" y1="313" x2="333" y2="313" style="stroke:#000000;stroke-width:3" />
<path    d = "M338,313 C348,313 348,282 338,282" fill = "none" stroke-width = "3" stroke = "#000000" />	<path d = "M338 282 L341 292 L348 285 L338 282 Z" stroke = "#000000" stroke-width = "1" fill = "#000000" />    <text x="282" y = "364" fill = "#000000" font-size = "10.226695268554277px" font-family = "Arial">element up</text>
	<path d = "M394 340 L394 286 M394.3135341119331 285.79242192649656           A13.635593691405703 13.635593691405703 0 0 1 407.9491322593778 272.1568326911314L462 272 M462.4915070249979 272.15685051528993           A13.635593691405703 13.635593691405703 0 0 1 476.1270962603631 285.7924486627345L476 340 M476.12707843620484 340.3348234283545           A13.635593691405703 13.635593691405703 0 0 1 462.49148028876033 353.97041266371986L408 354 M407.94910552314025 353.9703948395619           A13.635593691405703 13.635593691405703 0 0 1 394.31351628777486 340.33479669211744" stroke = "#000000" stroke-width = "3" fill = "none" />    <line x1="456" y1="293" x2="415" y2="293" style="stroke:#000000;stroke-width:3" />
    <line x1="456" y1="334" x2="415" y2="334" style="stroke:#000000;stroke-width:3" />
    <line x1="456" y1="313" x2="415" y2="313" style="stroke:#000000;stroke-width:3" />
<path    d = "M410,313 C399,313 399,344 410,344" fill = "none" stroke-width = "3" stroke = "#000000" />	<path d = "M410 344 L407 334 L400 341 L410 344 Z" stroke = "#000000" stroke-width = "1" fill = "#000000" />    <text x="399" y = "364" fill = "#000000" font-size = "10.226695268554277px" font-family = "Arial">element down</text>
</svg>