<svg width="600" height="600" viewbox = "0 0 600 600"  xmlns="http://www.w3.org/2000/svg">
<!--<json>{
  "shapes": [],
  "glyph": "0326,0504,0504,0504,0504,0504,0504,0504,0504,0504,0504,0504,0504,0504,0500,0500,0500,0500,0500,0500,0500,0500,0500,0500,0500,0500,0505,0502,0505,0502,0502,0505,0502,0502,0505,0502,0502,0505,0502,0502,0505,0502,0502,0505,0502,0502,0505,0502,0502,0505,0502,0505,0502,0505,0502,0502,0505,0502,0505,0502,0502,0501,0501,0501,0501,0501,0501,0501,0501,0501,0501,0501,0501,0501,0501,0501,0501,0501,0501,0501,0501,0501,0501,0501,0501,0501,0501,0501,0503,0505,0503,0503,0505,0503,0505,0503,0503,0505,0503,0503,0505,0503,0505,0503,0503,0505,0503,0503,0505,0503,0505,0503,0503,0505,0503,0503,0505,0503,0505,0503,0503,0505,0503,0504,0503,0503,0504,0503,0503,0504,0503,0503,0504,0503,0503,0504,0503,0503,0504,0503,0504,0503,0503,0504,0503,0503,0504,0503,0504,0503,0503,0504,0503,0503,0504,0503,0504,0503,0503,0500,0500,0500,0500,0500,0500,0500,0500,0500,0500,0500,0500,0500,0500,0500,0500,0500,0500,0500,0500,0500,0500,0500,0500,0500,0500,0500,0502,0504,0502,0502,0504,0502,0502,0504,0502,0502,0504,0502,0502,0504,0502,0504,0502,0502,0504,0502,0502,0504,0502,0504,0502,0502,0504,0502,0502,0504,0502,0504,0502,0502,0505,0505,0505,0505,0505,0505,0505,0505,0505,0501,0503,0503,0503,0503,0505,0503,0503,0503,0503,0503,0503,0503,0503,0505,0503,0503,0503,0503,0503,0503,0505,0503,0503,0503,0501,0501,0501,0501,0506,0501,0501,0506,0501,0501,0506,0501,0501,0506,0501,0501,0501,0506,0501,0506,0501,0501,0501,0506,0501,0501,0506,0501,0505,0503,0505,0503,0503,0505,0503,0503,0505,0503,0505,0503,0503,0506,0506,0506,0504,0504,0506,0504,0506,0504,0506,0504,0506,0506,0501,0506,0501,0506,0501,0501,0506,0501,0506,0501,0501,0506,0501,0506,0501,0506,0501,0506,0501,0501,0506,0501,0506,0501,0501,0506,0501,0506,0501,0506,0506,0502,0504,0502,0504,0502,0500,0506,0500,0506,0500,0500,0506,0500,0506,0500,0506,0500,0500,0506,0500,0506,0500,0506,0500,0500,0506,0500,0506,0500,0502,0502,0505,0502,0502,0505,0502,0505,0502,0502,0505,0502,0507,0507,0504,0507,0504,0507,0507,0507,0504,0504,0507,0500,0500,0500,0506,0500,0500,0506,0500,0500,0506,0500,0500,0506,0500,0500,0506,0500,0500,0506,0500,0500,0500,0506,0500,0500,0500,0504,0504,0507,0500,0503,0503,0503,0503,0504,0503,0503,0503,0503,0503,0503,0503,0503,0503,0503,0503,0504,0503,0503,0503,0503,0501,0501,0506,0501,0501,0506,0501,0501,0506,0501,0501,0506,0501,0506,0501,0501,0506,0501,0501,0506,0501,0506,0501,0501,0506,0501,0501,0506,0501,0506,0501,0501,0506,0501,0505,0507,0501,0503,0503,0503,0503,0503,0503,0503,0503,0503,0503,0503,0503,0503,0503,0503,0503,0503,0503,0503,0503,0503,0503,0503,0503,0503,0504,0500,0500,0506,0500,0500,0506,0500,0506,0500,0500,0506,0500,0500,0506,0500,0506,0500,0500,0506,0500,0500,0506,0500,0506,0500,0500,0506,0500,0500,0506,0500,0500,0506,0500,0505,0505,0505,0505,0505,0506,0505,0505,0505,0505,0505,0505,0505,0505,",
  "x0": 300,
  "y0": 300,
  "unit": 72,
  "width": 600,
  "height": 600,
  "style": {
    "color0": "black",
    "fill0": "black",
    "line0": 1,
    "color1": "black",
    "fill1": "black",
    "line1": 5,
    "color2": "red",
    "fill2": "red",
    "line2": 1,
    "color3": "#FF7900",
    "fill3": "#FF7900",
    "line3": 1,
    "color4": "yellow",
    "fill4": "yellow",
    "line4": 1,
    "color5": "green",
    "fill5": "green",
    "line5": 1,
    "color6": "blue",
    "fill6": "blue",
    "line6": 1,
    "color7": "purple",
    "fill7": "purple",
    "line7": 1
  }
}</json>-->	<path d = "M302 176 L302 172 L298 172 L298 176 L302 176 Z" stroke = "#0000ff" stroke-width = "1" fill = "#0000ff" />	<path d = "M302 167 L302 163 L298 163 L298 167 L302 167 Z" stroke = "#0000ff" stroke-width = "1" fill = "#0000ff" />	<path d = "M302 158 L302 154 L298 154 L298 158 L302 158 Z" stroke = "#0000ff" stroke-width = "1" fill = "#0000ff" />	<path d = "M302 149 L302 145 L298 145 L298 149 L302 149 Z" stroke = "#0000ff" stroke-width = "1" fill = "#0000ff" />	<path d = "M302 140 L302 136 L298 136 L298 140 L302 140 Z" stroke = "#0000ff" stroke-width = "1" fill = "#0000ff" />	<path d = "M302 131 L302 127 L298 127 L298 131 L302 131 Z" stroke = "#0000ff" stroke-width = "1" fill = "#0000ff" />	<path d = "M302 122 L302 118 L298 118 L298 122 L302 122 Z" stroke = "#0000ff" stroke-width = "1" fill = "#0000ff" />	<path d = "M302 113 L302 109 L298 109 L298 113 L302 113 Z" stroke = "#0000ff" stroke-width = "1" fill = "#0000ff" />	<path d = "M302 104 L302 100 L298 100 L298 104 L302 104 Z" stroke = "#0000ff" stroke-width = "1" fill = "#0000ff" />	<path d = "M302 95 L302 91 L298 91 L298 95 L302 95 Z" stroke = "#0000ff" stroke-width = "1" fill = "#0000ff" />	<path d = "M302 86 L302 82 L298 82 L298 86 L302 86 Z" stroke = "#0000ff" stroke-width = "1" fill = "#0000ff" />	<path d = "M302 77 L302 73 L298 73 L298 77 L302 77 Z" stroke = "#0000ff" stroke-width = "1" fill = "#0000ff" />	<path d = "M293 86 L293 82 L289 82 L289 86 L293 86 Z" stroke = "#0000ff" stroke-width = "1" fill = "#0000ff" />	<path d = "M284 95 L284 91 L280 91 L280 95 L284 95 Z" stroke = "#0000ff" stroke-width = "1" fill = "#0000ff" />	<path d = "M275 95 L275 91 L271 91 L271 95 L275 95 Z" stroke = "#0000ff" stroke-width = "1" fill = "#0000ff" />	<path d = "M266 104 L266 100 L262 100 L262 104 L266 104 Z" stroke = "#0000ff" stroke-width = "1" fill = "#0000ff" />	<path d = "M257 104 L257 100 L253 100 L253 104 L257 104 Z" stroke = "#0000ff" stroke-width = "1" fill = "#0000ff" />	<path d = "M248 113 L248 109 L244 109 L244 113 L248 113 Z" stroke = "#0000ff" stroke-width = "1" fill = "#0000ff" />	<path d = "M239 113 L239 109 L235 109 L235 113 L239 113 Z" stroke = "#0000ff" stroke-width = "1" fill = "#0000ff" />	<path d = "M230 122 L230 118 L226 118 L226 122 L230 122 Z" stroke = "#0000ff" stroke-width = "1" fill = "#0000ff" />	<path d = "M221 122 L221 118 L217 118 L217 122 L221 122 Z" stroke = "#0000ff" stroke-width = "1" fill = "#0000ff" />	<path d = "M212 131 L212 127 L208 127 L208 131 L212 131 Z" stroke = "#0000ff" stroke-width = "1" fill = "#0000ff" />	<path d = "M203 131 L203 127 L199 127 L199 131 L203 131 Z" stroke = "#0000ff" stroke-width = "1" fill = "#0000ff" />	<path d = "M194 140 L194 136 L190 136 L190 140 L194 140 Z" stroke = "#0000ff" stroke-width = "1" fill = "#0000ff" />	<path d = "M185 140 L185 136 L181 136 L181 140 L185 140 Z" stroke = "#0000ff" stroke-width = "1" fill = "#0000ff" />	<path d = "M176 149 L176 145 L172 145 L172 149 L176 149 Z" stroke = "#0000ff" stroke-width = "1" fill = "#0000ff" />	<path d = "M167 149 L167 145 L163 145 L163 149 L167 149 Z" stroke = "#0000ff" stroke-width = "1" fill = "#0000ff" />	<path d = "M158 158 L158 154 L154 154 L154 158 L158 158 Z" stroke = "#0000ff" stroke-width = "1" fill = "#0000ff" />	<path d = "M149 167 L149 163 L145 163 L145 167 L149 167 Z" stroke = "#0000ff" stroke-width = "1" fill = "#0000ff" />	<path d = "M140 176 L140 172 L136 172 L136 176 L140 176 Z" stroke = "#0000ff" stroke-width = "1" fill = "#0000ff" />	<path d = "M131 176 L131 172 L127 172 L127 176 L131 176 Z" stroke = "#0000ff" stroke-width = "1" fill = "#0000ff" />	<path d = "M122 185 L122 181 L118 181 L118 185 L122 185 Z" stroke = "#0000ff" stroke-width = "1" fill = "#0000ff" />	<path d = "M113 194 L113 190 L109 190 L109 194 L113 194 Z" stroke = "#0000ff" stroke-width = "1" fill = "#0000ff" />	<path d = "M104 194 L104 190 L100 190 L100 194 L104 194 Z" stroke = "#0000ff" stroke-width = "1" fill = "#0000ff" />	<path d = "M104 203 L104 199 L100 199 L100 203 L104 203 Z" stroke = "#0000ff" stroke-width = "1" fill = "#0000ff" />	<path d = "M104 212 L104 208 L100 208 L100 212 L104 212 Z" stroke = "#0000ff" stroke-width = "1" fill = "#0000ff" />	<path d = "M104 221 L104 217 L100 217 L100 221 L104 221 Z" stroke = "#0000ff" stroke-width = "1" fill = "#0000ff" />	<path d = "M104 230 L104 226 L100 226 L100 230 L104 230 Z" stroke = "#0000ff" stroke-width = "1" fill = "#0000ff" />	<path d = "M104 239 L104 235 L100 235 L100 239 L104 239 Z" stroke = "#0000ff" stroke-width = "1" fill = "#0000ff" />	<path d = "M104 248 L104 244 L100 244 L100 248 L104 248 Z" stroke = "#0000ff" stroke-width = "1" fill = "#0000ff" />	<path d = "M104 257 L104 253 L100 253 L100 257 L104 257 Z" stroke = "#0000ff" stroke-width = "1" fill = "#0000ff" />	<path d = "M104 266 L104 262 L100 262 L100 266 L104 266 Z" stroke = "#0000ff" stroke-width = "1" fill = "#0000ff" />	<path d = "M104 275 L104 271 L100 271 L100 275 L104 275 Z" stroke = "#0000ff" stroke-width = "1" fill = "#0000ff" />	<path d = "M104 284 L104 280 L100 280 L100 284 L104 284 Z" stroke = "#0000ff" stroke-width = "1" fill = "#0000ff" />	<path d = "M104 293 L104 289 L100 289 L100 293 L104 293 Z" stroke = "#0000ff" stroke-width = "1" fill = "#0000ff" />	<path d = "M104 302 L104 298 L100 298 L100 302 L104 302 Z" stroke = "#0000ff" stroke-width = "1" fill = "#0000ff" />	<path d = "M104 311 L104 307 L100 307 L100 311 L104 311 Z" stroke = "#0000ff" stroke-width = "1" fill = "#0000ff" />	<path d = "M104 320 L104 316 L100 316 L100 320 L104 320 Z" stroke = "#0000ff" stroke-width = "1" fill = "#0000ff" />	<path d = "M104 329 L104 325 L100 325 L100 329 L104 329 Z" stroke = "#0000ff" stroke-width = "1" fill = "#0000ff" />	<path d = "M104 338 L104 334 L100 334 L100 338 L104 338 Z" stroke = "#0000ff" stroke-width = "1" fill = "#0000ff" />	<path d = "M104 347 L104 343 L100 343 L100 347 L104 347 Z" stroke = "#0000ff" stroke-width = "1" fill = "#0000ff" />	<path d = "M104 356 L104 352 L100 352 L100 356 L104 356 Z" stroke = "#0000ff" stroke-width = "1" fill = "#0000ff" />	<path d = "M104 365 L104 361 L100 361 L100 365 L104 365 Z" stroke = "#0000ff" stroke-width = "1" fill = "#0000ff" />	<path d = "M104 374 L104 370 L100 370 L100 374 L104 374 Z" stroke = "#0000ff" stroke-width = "1" fill = "#0000ff" />	<path d = "M104 383 L104 379 L100 379 L100 383 L104 383 Z" stroke = "#0000ff" stroke-width = "1" fill = "#0000ff" />	<path d = "M104 392 L104 388 L100 388 L100 392 L104 392 Z" stroke = "#0000ff" stroke-width = "1" fill = "#0000ff" />	<path d = "M104 401 L104 397 L100 397 L100 401 L104 401 Z" stroke = "#0000ff" stroke-width = "1" fill = "#0000ff" />	<path d = "M104 410 L104 406 L100 406 L100 410 L104 410 Z" stroke = "#0000ff" stroke-width = "1" fill = "#0000ff" />	<path d = "M104 419 L104 415 L100 415 L100 419 L104 419 Z" stroke = "#0000ff" stroke-width = "1" fill = "#0000ff" />	<path d = "M104 428 L104 424 L100 424 L100 428 L104 428 Z" stroke = "#0000ff" stroke-width = "1" fill = "#0000ff" />	<path d = "M104 437 L104 433 L100 433 L100 437 L104 437 Z" stroke = "#0000ff" stroke-width = "1" fill = "#0000ff" />	<path d = "M113 437 L113 433 L109 433 L109 437 L113 437 Z" stroke = "#0000ff" stroke-width = "1" fill = "#0000ff" />	<path d = "M122 446 L122 442 L118 442 L118 446 L122 446 Z" stroke = "#0000ff" stroke-width = "1" fill = "#0000ff" />	<path d = "M131 446 L131 442 L127 442 L127 446 L131 446 Z" stroke = "#0000ff" stroke-width = "1" fill = "#0000ff" />	<path d = "M140 455 L140 451 L136 451 L136 455 L140 455 Z" stroke = "#0000ff" stroke-width = "1" fill = "#0000ff" />	<path d = "M149 464 L149 460 L145 460 L145 464 L149 464 Z" stroke = "#0000ff" stroke-width = "1" fill = "#0000ff" />	<path d = "M158 464 L158 460 L154 460 L154 464 L158 464 Z" stroke = "#0000ff" stroke-width = "1" fill = "#0000ff" />	<path d = "M167 473 L167 469 L163 469 L163 473 L167 473 Z" stroke = "#0000ff" stroke-width = "1" fill = "#0000ff" />	<path d = "M176 473 L176 469 L172 469 L172 473 L176 473 Z" stroke = "#0000ff" stroke-width = "1" fill = "#0000ff" />	<path d = "M185 482 L185 478 L181 478 L181 482 L185 482 Z" stroke = "#0000ff" stroke-width = "1" fill = "#0000ff" />	<path d = "M194 491 L194 487 L190 487 L190 491 L194 491 Z" stroke = "#0000ff" stroke-width = "1" fill = "#0000ff" />	<path d = "M203 491 L203 487 L199 487 L199 491 L203 491 Z" stroke = "#0000ff" stroke-width = "1" fill = "#0000ff" />	<path d = "M212 500 L212 496 L208 496 L208 500 L212 500 Z" stroke = "#0000ff" stroke-width = "1" fill = "#0000ff" />	<path d = "M221 500 L221 496 L217 496 L217 500 L221 500 Z" stroke = "#0000ff" stroke-width = "1" fill = "#0000ff" />	<path d = "M230 509 L230 505 L226 505 L226 509 L230 509 Z" stroke = "#0000ff" stroke-width = "1" fill = "#0000ff" />	<path d = "M239 518 L239 514 L235 514 L235 518 L239 518 Z" stroke = "#0000ff" stroke-width = "1" fill = "#0000ff" />	<path d = "M248 518 L248 514 L244 514 L244 518 L248 518 Z" stroke = "#0000ff" stroke-width = "1" fill = "#0000ff" />	<path d = "M257 527 L257 523 L253 523 L253 527 L257 527 Z" stroke = "#0000ff" stroke-width = "1" fill = "#0000ff" />	<path d = "M266 527 L266 523 L262 523 L262 527 L266 527 Z" stroke = "#0000ff" stroke-width = "1" fill = "#0000ff" />	<path d = "M275 536 L275 532 L271 532 L271 536 L275 536 Z" stroke = "#0000ff" stroke-width = "1" fill = "#0000ff" />	<path d = "M284 545 L284 541 L280 541 L280 545 L284 545 Z" stroke = "#0000ff" stroke-width = "1" fill = "#0000ff" />	<path d = "M293 545 L293 541 L289 541 L289 545 L293 545 Z" stroke = "#0000ff" stroke-width = "1" fill = "#0000ff" />	<path d = "M302 554 L302 550 L298 550 L298 554 L302 554 Z" stroke = "#0000ff" stroke-width = "1" fill = "#0000ff" />	<path d = "M311 545 L311 541 L307 541 L307 545 L311 545 Z" stroke = "#0000ff" stroke-width = "1" fill = "#0000ff" />	<path d = "M320 545 L320 541 L316 541 L316 545 L320 545 Z" stroke = "#0000ff" stroke-width = "1" fill = "#0000ff" />	<path d = "M329 536 L329 532 L325 532 L325 536 L329 536 Z" stroke = "#0000ff" stroke-width = "1" fill = "#0000ff" />	<path d = "M338 536 L338 532 L334 532 L334 536 L338 536 Z" stroke = "#0000ff" stroke-width = "1" fill = "#0000ff" />	<path d = "M347 527 L347 523 L343 523 L343 527 L347 527 Z" stroke = "#0000ff" stroke-width = "1" fill = "#0000ff" />	<path d = "M356 527 L356 523 L352 523 L352 527 L356 527 Z" stroke = "#0000ff" stroke-width = "1" fill = "#0000ff" />	<path d = "M365 518 L365 514 L361 514 L361 518 L365 518 Z" stroke = "#0000ff" stroke-width = "1" fill = "#0000ff" />	<path d = "M374 518 L374 514 L370 514 L370 518 L374 518 Z" stroke = "#0000ff" stroke-width = "1" fill = "#0000ff" />	<path d = "M383 509 L383 505 L379 505 L379 509 L383 509 Z" stroke = "#0000ff" stroke-width = "1" fill = "#0000ff" />	<path d = "M392 509 L392 505 L388 505 L388 509 L392 509 Z" stroke = "#0000ff" stroke-width = "1" fill = "#0000ff" />	<path d = "M401 500 L401 496 L397 496 L397 500 L401 500 Z" stroke = "#0000ff" stroke-width = "1" fill = "#0000ff" />	<path d = "M410 491 L410 487 L406 487 L406 491 L410 491 Z" stroke = "#0000ff" stroke-width = "1" fill = "#0000ff" />	<path d = "M419 491 L419 487 L415 487 L415 491 L419 491 Z" stroke = "#0000ff" stroke-width = "1" fill = "#0000ff" />	<path d = "M428 482 L428 478 L424 478 L424 482 L428 482 Z" stroke = "#0000ff" stroke-width = "1" fill = "#0000ff" />	<path d = "M437 482 L437 478 L433 478 L433 482 L437 482 Z" stroke = "#0000ff" stroke-width = "1" fill = "#0000ff" />	<path d = "M446 473 L446 469 L442 469 L442 473 L446 473 Z" stroke = "#0000ff" stroke-width = "1" fill = "#0000ff" />	<path d = "M455 464 L455 460 L451 460 L451 464 L455 464 Z" stroke = "#0000ff" stroke-width = "1" fill = "#0000ff" />	<path d = "M464 464 L464 460 L460 460 L460 464 L464 464 Z" stroke = "#0000ff" stroke-width = "1" fill = "#0000ff" />	<path d = "M473 455 L473 451 L469 451 L469 455 L473 455 Z" stroke = "#0000ff" stroke-width = "1" fill = "#0000ff" />	<path d = "M482 455 L482 451 L478 451 L478 455 L482 455 Z" stroke = "#0000ff" stroke-width = "1" fill = "#0000ff" />	<path d = "M491 446 L491 442 L487 442 L487 446 L491 446 Z" stroke = "#0000ff" stroke-width = "1" fill = "#0000ff" />	<path d = "M500 437 L500 433 L496 433 L496 437 L500 437 Z" stroke = "#0000ff" stroke-width = "1" fill = "#0000ff" />	<path d = "M509 437 L509 433 L505 433 L505 437 L509 437 Z" stroke = "#0000ff" stroke-width = "1" fill = "#0000ff" />	<path d = "M509 428 L509 424 L505 424 L505 428 L509 428 Z" stroke = "#0000ff" stroke-width = "1" fill = "#0000ff" />	<path d = "M509 419 L509 415 L505 415 L505 419 L509 419 Z" stroke = "#0000ff" stroke-width = "1" fill = "#0000ff" />	<path d = "M509 410 L509 406 L505 406 L505 410 L509 410 Z" stroke = "#0000ff" stroke-width = "1" fill = "#0000ff" />	<path d = "M509 401 L509 397 L505 397 L505 401 L509 401 Z" stroke = "#0000ff" stroke-width = "1" fill = "#0000ff" />	<path d = "M509 392 L509 388 L505 388 L505 392 L509 392 Z" stroke = "#0000ff" stroke-width = "1" fill = "#0000ff" />	<path d = "M509 383 L509 379 L505 379 L505 383 L509 383 Z" stroke = "#0000ff" stroke-width = "1" fill = "#0000ff" />	<path d = "M509 374 L509 370 L505 370 L505 374 L509 374 Z" stroke = "#0000ff" stroke-width = "1" fill = "#0000ff" />	<path d = "M509 365 L509 361 L505 361 L505 365 L509 365 Z" stroke = "#0000ff" stroke-width = "1" fill = "#0000ff" />	<path d = "M509 356 L509 352 L505 352 L505 356 L509 356 Z" stroke = "#0000ff" stroke-width = "1" fill = "#0000ff" />	<path d = "M509 347 L509 343 L505 343 L505 347 L509 347 Z" stroke = "#0000ff" stroke-width = "1" fill = "#0000ff" />	<path d = "M509 338 L509 334 L505 334 L505 338 L509 338 Z" stroke = "#0000ff" stroke-width = "1" fill = "#0000ff" />	<path d = "M509 329 L509 325 L505 325 L505 329 L509 329 Z" stroke = "#0000ff" stroke-width = "1" fill = "#0000ff" />	<path d = "M509 320 L509 316 L505 316 L505 320 L509 320 Z" stroke = "#0000ff" stroke-width = "1" fill = "#0000ff" />	<path d = "M509 311 L509 307 L505 307 L505 311 L509 311 Z" stroke = "#0000ff" stroke-width = "1" fill = "#0000ff" />	<path d = "M509 302 L509 298 L505 298 L505 302 L509 302 Z" stroke = "#0000ff" stroke-width = "1" fill = "#0000ff" />	<path d = "M509 293 L509 289 L505 289 L505 293 L509 293 Z" stroke = "#0000ff" stroke-width = "1" fill = "#0000ff" />	<path d = "M509 284 L509 280 L505 280 L505 284 L509 284 Z" stroke = "#0000ff" stroke-width = "1" fill = "#0000ff" />	<path d = "M509 275 L509 271 L505 271 L505 275 L509 275 Z" stroke = "#0000ff" stroke-width = "1" fill = "#0000ff" />	<path d = "M509 266 L509 262 L505 262 L505 266 L509 266 Z" stroke = "#0000ff" stroke-width = "1" fill = "#0000ff" />	<path d = "M509 257 L509 253 L505 253 L505 257 L509 257 Z" stroke = "#0000ff" stroke-width = "1" fill = "#0000ff" />	<path d = "M509 248 L509 244 L505 244 L505 248 L509 248 Z" stroke = "#0000ff" stroke-width = "1" fill = "#0000ff" />	<path d = "M509 239 L509 235 L505 235 L505 239 L509 239 Z" stroke = "#0000ff" stroke-width = "1" fill = "#0000ff" />	<path d = "M509 230 L509 226 L505 226 L505 230 L509 230 Z" stroke = "#0000ff" stroke-width = "1" fill = "#0000ff" />	<path d = "M509 221 L509 217 L505 217 L505 221 L509 221 Z" stroke = "#0000ff" stroke-width = "1" fill = "#0000ff" />	<path d = "M509 212 L509 208 L505 208 L505 212 L509 212 Z" stroke = "#0000ff" stroke-width = "1" fill = "#0000ff" />	<path d = "M509 203 L509 199 L505 199 L505 203 L509 203 Z" stroke = "#0000ff" stroke-width = "1" fill = "#0000ff" />	<path d = "M509 194 L509 190 L505 190 L505 194 L509 194 Z" stroke = "#0000ff" stroke-width = "1" fill = "#0000ff" />	<path d = "M500 194 L500 190 L496 190 L496 194 L500 194 Z" stroke = "#0000ff" stroke-width = "1" fill = "#0000ff" />	<path d = "M491 185 L491 181 L487 181 L487 185 L491 185 Z" stroke = "#0000ff" stroke-width = "1" fill = "#0000ff" />	<path d = "M482 185 L482 181 L478 181 L478 185 L482 185 Z" stroke = "#0000ff" stroke-width = "1" fill = "#0000ff" />	<path d = "M473 176 L473 172 L469 172 L469 176 L473 176 Z" stroke = "#0000ff" stroke-width = "1" fill = "#0000ff" />	<path d = "M464 176 L464 172 L460 172 L460 176 L464 176 Z" stroke = "#0000ff" stroke-width = "1" fill = "#0000ff" />	<path d = "M455 167 L455 163 L451 163 L451 167 L455 167 Z" stroke = "#0000ff" stroke-width = "1" fill = "#0000ff" />	<path d = "M446 167 L446 163 L442 163 L442 167 L446 167 Z" stroke = "#0000ff" stroke-width = "1" fill = "#0000ff" />	<path d = "M437 158 L437 154 L433 154 L433 158 L437 158 Z" stroke = "#0000ff" stroke-width = "1" fill = "#0000ff" />	<path d = "M428 158 L428 154 L424 154 L424 158 L428 158 Z" stroke = "#0000ff" stroke-width = "1" fill = "#0000ff" />	<path d = "M419 149 L419 145 L415 145 L415 149 L419 149 Z" stroke = "#0000ff" stroke-width = "1" fill = "#0000ff" />	<path d = "M410 140 L410 136 L406 136 L406 140 L410 140 Z" stroke = "#0000ff" stroke-width = "1" fill = "#0000ff" />	<path d = "M401 140 L401 136 L397 136 L397 140 L401 140 Z" stroke = "#0000ff" stroke-width = "1" fill = "#0000ff" />	<path d = "M392 131 L392 127 L388 127 L388 131 L392 131 Z" stroke = "#0000ff" stroke-width = "1" fill = "#0000ff" />	<path d = "M383 131 L383 127 L379 127 L379 131 L383 131 Z" stroke = "#0000ff" stroke-width = "1" fill = "#0000ff" />	<path d = "M374 122 L374 118 L370 118 L370 122 L374 122 Z" stroke = "#0000ff" stroke-width = "1" fill = "#0000ff" />	<path d = "M365 113 L365 109 L361 109 L361 113 L365 113 Z" stroke = "#0000ff" stroke-width = "1" fill = "#0000ff" />	<path d = "M356 113 L356 109 L352 109 L352 113 L356 113 Z" stroke = "#0000ff" stroke-width = "1" fill = "#0000ff" />	<path d = "M347 104 L347 100 L343 100 L343 104 L347 104 Z" stroke = "#0000ff" stroke-width = "1" fill = "#0000ff" />	<path d = "M338 104 L338 100 L334 100 L334 104 L338 104 Z" stroke = "#0000ff" stroke-width = "1" fill = "#0000ff" />	<path d = "M329 95 L329 91 L325 91 L325 95 L329 95 Z" stroke = "#0000ff" stroke-width = "1" fill = "#0000ff" />	<path d = "M320 86 L320 82 L316 82 L316 86 L320 86 Z" stroke = "#0000ff" stroke-width = "1" fill = "#0000ff" />	<path d = "M311 86 L311 82 L307 82 L307 86 L311 86 Z" stroke = "#0000ff" stroke-width = "1" fill = "#0000ff" />	<path d = "M311 176 L311 172 L307 172 L307 176 L311 176 Z" stroke = "#0000ff" stroke-width = "1" fill = "#0000ff" />	<path d = "M320 176 L320 172 L316 172 L316 176 L320 176 Z" stroke = "#0000ff" stroke-width = "1" fill = "#0000ff" />	<path d = "M329 176 L329 172 L325 172 L325 176 L329 176 Z" stroke = "#0000ff" stroke-width = "1" fill = "#0000ff" />	<path d = "M338 176 L338 172 L334 172 L334 176 L338 176 Z" stroke = "#0000ff" stroke-width = "1" fill = "#0000ff" />	<path d = "M347 176 L347 172 L343 172 L343 176 L347 176 Z" stroke = "#0000ff" stroke-width = "1" fill = "#0000ff" />	<path d = "M356 185 L356 181 L352 181 L352 185 L356 185 Z" stroke = "#0000ff" stroke-width = "1" fill = "#0000ff" />	<path d = "M365 185 L365 181 L361 181 L361 185 L365 185 Z" stroke = "#0000ff" stroke-width = "1" fill = "#0000ff" />	<path d = "M374 185 L374 181 L370 181 L370 185 L374 185 Z" stroke = "#0000ff" stroke-width = "1" fill = "#0000ff" />	<path d = "M383 185 L383 181 L379 181 L379 185 L383 185 Z" stroke = "#0000ff" stroke-width = "1" fill = "#0000ff" />	<path d = "M392 185 L392 181 L388 181 L388 185 L392 185 Z" stroke = "#0000ff" stroke-width = "1" fill = "#0000ff" />	<path d = "M401 185 L401 181 L397 181 L397 185 L401 185 Z" stroke = "#0000ff" stroke-width = "1" fill = "#0000ff" />	<path d = "M410 185 L410 181 L406 181 L406 185 L410 185 Z" stroke = "#0000ff" stroke-width = "1" fill = "#0000ff" />	<path d = "M419 185 L419 181 L415 181 L415 185 L419 185 Z" stroke = "#0000ff" stroke-width = "1" fill = "#0000ff" />	<path d = "M428 194 L428 190 L424 190 L424 194 L428 194 Z" stroke = "#0000ff" stroke-width = "1" fill = "#0000ff" />	<path d = "M437 194 L437 190 L433 190 L433 194 L437 194 Z" stroke = "#0000ff" stroke-width = "1" fill = "#0000ff" />	<path d = "M446 194 L446 190 L442 190 L442 194 L446 194 Z" stroke = "#0000ff" stroke-width = "1" fill = "#0000ff" />	<path d = "M455 194 L455 190 L451 190 L451 194 L455 194 Z" stroke = "#0000ff" stroke-width = "1" fill = "#0000ff" />	<path d = "M464 194 L464 190 L460 190 L460 194 L464 194 Z" stroke = "#0000ff" stroke-width = "1" fill = "#0000ff" />	<path d = "M473 194 L473 190 L469 190 L469 194 L473 194 Z" stroke = "#0000ff" stroke-width = "1" fill = "#0000ff" />	<path d = "M482 203 L482 199 L478 199 L478 203 L482 203 Z" stroke = "#0000ff" stroke-width = "1" fill = "#0000ff" />	<path d = "M491 203 L491 199 L487 199 L487 203 L491 203 Z" stroke = "#0000ff" stroke-width = "1" fill = "#0000ff" />	<path d = "M500 203 L500 199 L496 199 L496 203 L500 203 Z" stroke = "#0000ff" stroke-width = "1" fill = "#0000ff" />	<path d = "M500 212 L500 208 L496 208 L496 212 L500 212 Z" stroke = "#0000ff" stroke-width = "1" fill = "#0000ff" />	<path d = "M500 221 L500 217 L496 217 L496 221 L500 221 Z" stroke = "#0000ff" stroke-width = "1" fill = "#0000ff" />	<path d = "M500 230 L500 226 L496 226 L496 230 L500 230 Z" stroke = "#0000ff" stroke-width = "1" fill = "#0000ff" />	<path d = "M500 239 L500 235 L496 235 L496 239 L500 239 Z" stroke = "#0000ff" stroke-width = "1" fill = "#0000ff" />	<path d = "M491 248 L491 244 L487 244 L487 248 L491 248 Z" stroke = "#0000ff" stroke-width = "1" fill = "#0000ff" />	<path d = "M491 257 L491 253 L487 253 L487 257 L491 257 Z" stroke = "#0000ff" stroke-width = "1" fill = "#0000ff" />	<path d = "M482 266 L482 262 L478 262 L478 266 L482 266 Z" stroke = "#0000ff" stroke-width = "1" fill = "#0000ff" />	<path d = "M482 275 L482 271 L478 271 L478 275 L482 275 Z" stroke = "#0000ff" stroke-width = "1" fill = "#0000ff" />	<path d = "M473 284 L473 280 L469 280 L469 284 L473 284 Z" stroke = "#0000ff" stroke-width = "1" fill = "#0000ff" />	<path d = "M473 293 L473 289 L469 289 L469 293 L473 293 Z" stroke = "#0000ff" stroke-width = "1" fill = "#0000ff" />	<path d = "M464 302 L464 298 L460 298 L460 302 L464 302 Z" stroke = "#0000ff" stroke-width = "1" fill = "#0000ff" />	<path d = "M464 311 L464 307 L460 307 L460 311 L464 311 Z" stroke = "#0000ff" stroke-width = "1" fill = "#0000ff" />	<path d = "M464 320 L464 316 L460 316 L460 320 L464 320 Z" stroke = "#0000ff" stroke-width = "1" fill = "#0000ff" />	<path d = "M455 329 L455 325 L451 325 L451 329 L455 329 Z" stroke = "#0000ff" stroke-width = "1" fill = "#0000ff" />	<path d = "M446 338 L446 334 L442 334 L442 338 L446 338 Z" stroke = "#0000ff" stroke-width = "1" fill = "#0000ff" />	<path d = "M446 347 L446 343 L442 343 L442 347 L446 347 Z" stroke = "#0000ff" stroke-width = "1" fill = "#0000ff" />	<path d = "M446 356 L446 352 L442 352 L442 356 L446 356 Z" stroke = "#0000ff" stroke-width = "1" fill = "#0000ff" />	<path d = "M437 365 L437 361 L433 361 L433 365 L437 365 Z" stroke = "#0000ff" stroke-width = "1" fill = "#0000ff" />	<path d = "M437 374 L437 370 L433 370 L433 374 L437 374 Z" stroke = "#0000ff" stroke-width = "1" fill = "#0000ff" />	<path d = "M428 383 L428 379 L424 379 L424 383 L428 383 Z" stroke = "#0000ff" stroke-width = "1" fill = "#0000ff" />	<path d = "M437 392 L437 388 L433 388 L433 392 L437 392 Z" stroke = "#0000ff" stroke-width = "1" fill = "#0000ff" />	<path d = "M446 401 L446 397 L442 397 L442 401 L446 401 Z" stroke = "#0000ff" stroke-width = "1" fill = "#0000ff" />	<path d = "M455 401 L455 397 L451 397 L451 401 L455 401 Z" stroke = "#0000ff" stroke-width = "1" fill = "#0000ff" />	<path d = "M464 410 L464 406 L460 406 L460 410 L464 410 Z" stroke = "#0000ff" stroke-width = "1" fill = "#0000ff" />	<path d = "M473 410 L473 406 L469 406 L469 410 L473 410 Z" stroke = "#0000ff" stroke-width = "1" fill = "#0000ff" />	<path d = "M482 419 L482 415 L478 415 L478 419 L482 419 Z" stroke = "#0000ff" stroke-width = "1" fill = "#0000ff" />	<path d = "M491 428 L491 424 L487 424 L487 428 L491 428 Z" stroke = "#0000ff" stroke-width = "1" fill = "#0000ff" />	<path d = "M500 428 L500 424 L496 424 L496 428 L500 428 Z" stroke = "#0000ff" stroke-width = "1" fill = "#0000ff" />	<path d = "M428 392 L428 388 L424 388 L424 392 L428 392 Z" stroke = "#0000ff" stroke-width = "1" fill = "#0000ff" />	<path d = "M419 401 L419 397 L415 397 L415 401 L419 401 Z" stroke = "#0000ff" stroke-width = "1" fill = "#0000ff" />	<path d = "M410 410 L410 406 L406 406 L406 410 L410 410 Z" stroke = "#0000ff" stroke-width = "1" fill = "#0000ff" />	<path d = "M410 419 L410 415 L406 415 L406 419 L410 419 Z" stroke = "#0000ff" stroke-width = "1" fill = "#0000ff" />	<path d = "M401 428 L401 424 L397 424 L397 428 L401 428 Z" stroke = "#0000ff" stroke-width = "1" fill = "#0000ff" />	<path d = "M392 437 L392 433 L388 433 L388 437 L392 437 Z" stroke = "#0000ff" stroke-width = "1" fill = "#0000ff" />	<path d = "M392 446 L392 442 L388 442 L388 446 L392 446 Z" stroke = "#0000ff" stroke-width = "1" fill = "#0000ff" />	<path d = "M383 455 L383 451 L379 451 L379 455 L383 455 Z" stroke = "#0000ff" stroke-width = "1" fill = "#0000ff" />	<path d = "M374 464 L374 460 L370 460 L370 464 L374 464 Z" stroke = "#0000ff" stroke-width = "1" fill = "#0000ff" />	<path d = "M365 473 L365 469 L361 469 L361 473 L365 473 Z" stroke = "#0000ff" stroke-width = "1" fill = "#0000ff" />	<path d = "M356 482 L356 478 L352 478 L352 482 L356 482 Z" stroke = "#0000ff" stroke-width = "1" fill = "#0000ff" />	<path d = "M356 491 L356 487 L352 487 L352 491 L356 491 Z" stroke = "#0000ff" stroke-width = "1" fill = "#0000ff" />	<path d = "M347 500 L347 496 L343 496 L343 500 L347 500 Z" stroke = "#0000ff" stroke-width = "1" fill = "#0000ff" />	<path d = "M338 509 L338 505 L334 505 L334 509 L338 509 Z" stroke = "#0000ff" stroke-width = "1" fill = "#0000ff" />	<path d = "M338 518 L338 514 L334 514 L334 518 L338 518 Z" stroke = "#0000ff" stroke-width = "1" fill = "#0000ff" />	<path d = "M329 527 L329 523 L325 523 L325 527 L329 527 Z" stroke = "#0000ff" stroke-width = "1" fill = "#0000ff" />	<path d = "M320 536 L320 532 L316 532 L316 536 L320 536 Z" stroke = "#0000ff" stroke-width = "1" fill = "#0000ff" />	<path d = "M293 536 L293 532 L289 532 L289 536 L293 536 Z" stroke = "#0000ff" stroke-width = "1" fill = "#0000ff" />	<path d = "M284 527 L284 523 L280 523 L280 527 L284 527 Z" stroke = "#0000ff" stroke-width = "1" fill = "#0000ff" />	<path d = "M275 518 L275 514 L271 514 L271 518 L275 518 Z" stroke = "#0000ff" stroke-width = "1" fill = "#0000ff" />	<path d = "M275 509 L275 505 L271 505 L271 509 L275 509 Z" stroke = "#0000ff" stroke-width = "1" fill = "#0000ff" />	<path d = "M266 500 L266 496 L262 496 L262 500 L266 500 Z" stroke = "#0000ff" stroke-width = "1" fill = "#0000ff" />	<path d = "M257 491 L257 487 L253 487 L253 491 L257 491 Z" stroke = "#0000ff" stroke-width = "1" fill = "#0000ff" />	<path d = "M257 482 L257 478 L253 478 L253 482 L257 482 Z" stroke = "#0000ff" stroke-width = "1" fill = "#0000ff" />	<path d = "M248 473 L248 469 L244 469 L244 473 L248 473 Z" stroke = "#0000ff" stroke-width = "1" fill = "#0000ff" />	<path d = "M239 464 L239 460 L235 460 L235 464 L239 464 Z" stroke = "#0000ff" stroke-width = "1" fill = "#0000ff" />	<path d = "M230 455 L230 451 L226 451 L226 455 L230 455 Z" stroke = "#0000ff" stroke-width = "1" fill = "#0000ff" />	<path d = "M230 446 L230 442 L226 442 L226 446 L230 446 Z" stroke = "#0000ff" stroke-width = "1" fill = "#0000ff" />	<path d = "M221 437 L221 433 L217 433 L217 437 L221 437 Z" stroke = "#0000ff" stroke-width = "1" fill = "#0000ff" />	<path d = "M212 428 L212 424 L208 424 L208 428 L212 428 Z" stroke = "#0000ff" stroke-width = "1" fill = "#0000ff" />	<path d = "M203 419 L203 415 L199 415 L199 419 L203 419 Z" stroke = "#0000ff" stroke-width = "1" fill = "#0000ff" />	<path d = "M203 410 L203 406 L199 406 L199 410 L203 410 Z" stroke = "#0000ff" stroke-width = "1" fill = "#0000ff" />	<path d = "M194 401 L194 397 L190 397 L190 401 L194 401 Z" stroke = "#0000ff" stroke-width = "1" fill = "#0000ff" />	<path d = "M185 392 L185 388 L181 388 L181 392 L185 392 Z" stroke = "#0000ff" stroke-width = "1" fill = "#0000ff" />	<path d = "M176 392 L176 388 L172 388 L172 392 L176 392 Z" stroke = "#0000ff" stroke-width = "1" fill = "#0000ff" />	<path d = "M167 392 L167 388 L163 388 L163 392 L167 392 Z" stroke = "#0000ff" stroke-width = "1" fill = "#0000ff" />	<path d = "M158 401 L158 397 L154 397 L154 401 L158 401 Z" stroke = "#0000ff" stroke-width = "1" fill = "#0000ff" />	<path d = "M149 401 L149 397 L145 397 L145 401 L149 401 Z" stroke = "#0000ff" stroke-width = "1" fill = "#0000ff" />	<path d = "M140 410 L140 406 L136 406 L136 410 L140 410 Z" stroke = "#0000ff" stroke-width = "1" fill = "#0000ff" />	<path d = "M131 419 L131 415 L127 415 L127 419 L131 419 Z" stroke = "#0000ff" stroke-width = "1" fill = "#0000ff" />	<path d = "M122 419 L122 415 L118 415 L118 419 L122 419 Z" stroke = "#0000ff" stroke-width = "1" fill = "#0000ff" />	<path d = "M113 428 L113 424 L109 424 L109 428 L113 428 Z" stroke = "#0000ff" stroke-width = "1" fill = "#0000ff" />	<path d = "M176 383 L176 379 L172 379 L172 383 L176 383 Z" stroke = "#0000ff" stroke-width = "1" fill = "#0000ff" />	<path d = "M176 374 L176 370 L172 370 L172 374 L176 374 Z" stroke = "#0000ff" stroke-width = "1" fill = "#0000ff" />	<path d = "M176 365 L176 361 L172 361 L172 365 L176 365 Z" stroke = "#0000ff" stroke-width = "1" fill = "#0000ff" />	<path d = "M167 356 L167 352 L163 352 L163 356 L167 356 Z" stroke = "#0000ff" stroke-width = "1" fill = "#0000ff" />	<path d = "M167 347 L167 343 L163 343 L163 347 L167 347 Z" stroke = "#0000ff" stroke-width = "1" fill = "#0000ff" />	<path d = "M158 338 L158 334 L154 334 L154 338 L158 338 Z" stroke = "#0000ff" stroke-width = "1" fill = "#0000ff" />	<path d = "M158 329 L158 325 L154 325 L154 329 L158 329 Z" stroke = "#0000ff" stroke-width = "1" fill = "#0000ff" />	<path d = "M149 320 L149 316 L145 316 L145 320 L149 320 Z" stroke = "#0000ff" stroke-width = "1" fill = "#0000ff" />	<path d = "M149 311 L149 307 L145 307 L145 311 L149 311 Z" stroke = "#0000ff" stroke-width = "1" fill = "#0000ff" />	<path d = "M140 302 L140 298 L136 298 L136 302 L140 302 Z" stroke = "#0000ff" stroke-width = "1" fill = "#0000ff" />	<path d = "M140 293 L140 289 L136 289 L136 293 L140 293 Z" stroke = "#0000ff" stroke-width = "1" fill = "#0000ff" />	<path d = "M131 284 L131 280 L127 280 L127 284 L131 284 Z" stroke = "#0000ff" stroke-width = "1" fill = "#0000ff" />	<path d = "M131 275 L131 271 L127 271 L127 275 L131 275 Z" stroke = "#0000ff" stroke-width = "1" fill = "#0000ff" />	<path d = "M122 266 L122 262 L118 262 L118 266 L122 266 Z" stroke = "#0000ff" stroke-width = "1" fill = "#0000ff" />	<path d = "M122 257 L122 253 L118 253 L118 257 L122 257 Z" stroke = "#0000ff" stroke-width = "1" fill = "#0000ff" />	<path d = "M122 248 L122 244 L118 244 L118 248 L122 248 Z" stroke = "#0000ff" stroke-width = "1" fill = "#0000ff" />	<path d = "M113 239 L113 235 L109 235 L109 239 L113 239 Z" stroke = "#0000ff" stroke-width = "1" fill = "#0000ff" />	<path d = "M113 230 L113 226 L109 226 L109 230 L113 230 Z" stroke = "#0000ff" stroke-width = "1" fill = "#0000ff" />	<path d = "M113 221 L113 217 L109 217 L109 221 L113 221 Z" stroke = "#0000ff" stroke-width = "1" fill = "#0000ff" />	<path d = "M122 194 L122 190 L118 190 L118 194 L122 194 Z" stroke = "#0000ff" stroke-width = "1" fill = "#0000ff" />	<path d = "M131 194 L131 190 L127 190 L127 194 L131 194 Z" stroke = "#0000ff" stroke-width = "1" fill = "#0000ff" />	<path d = "M140 194 L140 190 L136 190 L136 194 L140 194 Z" stroke = "#0000ff" stroke-width = "1" fill = "#0000ff" />	<path d = "M149 194 L149 190 L145 190 L145 194 L149 194 Z" stroke = "#0000ff" stroke-width = "1" fill = "#0000ff" />	<path d = "M158 194 L158 190 L154 190 L154 194 L158 194 Z" stroke = "#0000ff" stroke-width = "1" fill = "#0000ff" />	<path d = "M167 185 L167 181 L163 181 L163 185 L167 185 Z" stroke = "#0000ff" stroke-width = "1" fill = "#0000ff" />	<path d = "M176 185 L176 181 L172 181 L172 185 L176 185 Z" stroke = "#0000ff" stroke-width = "1" fill = "#0000ff" />	<path d = "M185 185 L185 181 L181 181 L181 185 L185 185 Z" stroke = "#0000ff" stroke-width = "1" fill = "#0000ff" />	<path d = "M194 185 L194 181 L190 181 L190 185 L194 185 Z" stroke = "#0000ff" stroke-width = "1" fill = "#0000ff" />	<path d = "M203 185 L203 181 L199 181 L199 185 L203 185 Z" stroke = "#0000ff" stroke-width = "1" fill = "#0000ff" />	<path d = "M212 185 L212 181 L208 181 L208 185 L212 185 Z" stroke = "#0000ff" stroke-width = "1" fill = "#0000ff" />	<path d = "M221 185 L221 181 L217 181 L217 185 L221 185 Z" stroke = "#0000ff" stroke-width = "1" fill = "#0000ff" />	<path d = "M230 185 L230 181 L226 181 L226 185 L230 185 Z" stroke = "#0000ff" stroke-width = "1" fill = "#0000ff" />	<path d = "M239 185 L239 181 L235 181 L235 185 L239 185 Z" stroke = "#0000ff" stroke-width = "1" fill = "#0000ff" />	<path d = "M248 185 L248 181 L244 181 L244 185 L248 185 Z" stroke = "#0000ff" stroke-width = "1" fill = "#0000ff" />	<path d = "M257 185 L257 181 L253 181 L253 185 L257 185 Z" stroke = "#0000ff" stroke-width = "1" fill = "#0000ff" />	<path d = "M266 176 L266 172 L262 172 L262 176 L266 176 Z" stroke = "#0000ff" stroke-width = "1" fill = "#0000ff" />	<path d = "M275 176 L275 172 L271 172 L271 176 L275 176 Z" stroke = "#0000ff" stroke-width = "1" fill = "#0000ff" />	<path d = "M284 176 L284 172 L280 172 L280 176 L284 176 Z" stroke = "#0000ff" stroke-width = "1" fill = "#0000ff" />	<path d = "M293 176 L293 172 L289 172 L289 176 L293 176 Z" stroke = "#0000ff" stroke-width = "1" fill = "#0000ff" />	<path d = "M293 185 L293 181 L289 181 L289 185 L293 185 Z" stroke = "#0000ff" stroke-width = "1" fill = "#0000ff" />	<path d = "M293 194 L293 190 L289 190 L289 194 L293 194 Z" stroke = "#0000ff" stroke-width = "1" fill = "#0000ff" />	<path d = "M284 203 L284 199 L280 199 L280 203 L284 203 Z" stroke = "#0000ff" stroke-width = "1" fill = "#0000ff" />	<path d = "M284 212 L284 208 L280 208 L280 212 L284 212 Z" stroke = "#0000ff" stroke-width = "1" fill = "#0000ff" />	<path d = "M275 221 L275 217 L271 217 L271 221 L275 221 Z" stroke = "#0000ff" stroke-width = "1" fill = "#0000ff" />	<path d = "M275 230 L275 226 L271 226 L271 230 L275 230 Z" stroke = "#0000ff" stroke-width = "1" fill = "#0000ff" />	<path d = "M266 239 L266 235 L262 235 L262 239 L266 239 Z" stroke = "#0000ff" stroke-width = "1" fill = "#0000ff" />	<path d = "M266 248 L266 244 L262 244 L262 248 L266 248 Z" stroke = "#0000ff" stroke-width = "1" fill = "#0000ff" />	<path d = "M257 257 L257 253 L253 253 L253 257 L257 257 Z" stroke = "#0000ff" stroke-width = "1" fill = "#0000ff" />	<path d = "M248 266 L248 262 L244 262 L244 266 L248 266 Z" stroke = "#0000ff" stroke-width = "1" fill = "#0000ff" />	<path d = "M248 275 L248 271 L244 271 L244 275 L248 275 Z" stroke = "#0000ff" stroke-width = "1" fill = "#0000ff" />	<path d = "M239 284 L239 280 L235 280 L235 284 L239 284 Z" stroke = "#0000ff" stroke-width = "1" fill = "#0000ff" />	<path d = "M239 293 L239 289 L235 289 L235 293 L239 293 Z" stroke = "#0000ff" stroke-width = "1" fill = "#0000ff" />	<path d = "M230 302 L230 298 L226 298 L226 302 L230 302 Z" stroke = "#0000ff" stroke-width = "1" fill = "#0000ff" />	<path d = "M221 311 L221 307 L217 307 L217 311 L221 311 Z" stroke = "#0000ff" stroke-width = "1" fill = "#0000ff" />	<path d = "M221 320 L221 316 L217 316 L217 320 L221 320 Z" stroke = "#0000ff" stroke-width = "1" fill = "#0000ff" />	<path d = "M212 329 L212 325 L208 325 L208 329 L212 329 Z" stroke = "#0000ff" stroke-width = "1" fill = "#0000ff" />	<path d = "M212 338 L212 334 L208 334 L208 338 L212 338 Z" stroke = "#0000ff" stroke-width = "1" fill = "#0000ff" />	<path d = "M203 347 L203 343 L199 343 L199 347 L203 347 Z" stroke = "#0000ff" stroke-width = "1" fill = "#0000ff" />	<path d = "M194 356 L194 352 L190 352 L190 356 L194 356 Z" stroke = "#0000ff" stroke-width = "1" fill = "#0000ff" />	<path d = "M194 365 L194 361 L190 361 L190 365 L194 365 Z" stroke = "#0000ff" stroke-width = "1" fill = "#0000ff" />	<path d = "M185 374 L185 370 L181 370 L181 374 L185 374 Z" stroke = "#0000ff" stroke-width = "1" fill = "#0000ff" />	<path d = "M194 392 L194 388 L190 388 L190 392 L194 392 Z" stroke = "#0000ff" stroke-width = "1" fill = "#0000ff" />	<path d = "M203 392 L203 388 L199 388 L199 392 L203 392 Z" stroke = "#0000ff" stroke-width = "1" fill = "#0000ff" />	<path d = "M212 392 L212 388 L208 388 L208 392 L212 392 Z" stroke = "#0000ff" stroke-width = "1" fill = "#0000ff" />	<path d = "M221 392 L221 388 L217 388 L217 392 L221 392 Z" stroke = "#0000ff" stroke-width = "1" fill = "#0000ff" />	<path d = "M230 392 L230 388 L226 388 L226 392 L230 392 Z" stroke = "#0000ff" stroke-width = "1" fill = "#0000ff" />	<path d = "M239 392 L239 388 L235 388 L235 392 L239 392 Z" stroke = "#0000ff" stroke-width = "1" fill = "#0000ff" />	<path d = "M248 392 L248 388 L244 388 L244 392 L248 392 Z" stroke = "#0000ff" stroke-width = "1" fill = "#0000ff" />	<path d = "M257 392 L257 388 L253 388 L253 392 L257 392 Z" stroke = "#0000ff" stroke-width = "1" fill = "#0000ff" />	<path d = "M266 392 L266 388 L262 388 L262 392 L266 392 Z" stroke = "#0000ff" stroke-width = "1" fill = "#0000ff" />	<path d = "M275 392 L275 388 L271 388 L271 392 L275 392 Z" stroke = "#0000ff" stroke-width = "1" fill = "#0000ff" />	<path d = "M284 392 L284 388 L280 388 L280 392 L284 392 Z" stroke = "#0000ff" stroke-width = "1" fill = "#0000ff" />	<path d = "M293 392 L293 388 L289 388 L289 392 L293 392 Z" stroke = "#0000ff" stroke-width = "1" fill = "#0000ff" />	<path d = "M302 392 L302 388 L298 388 L298 392 L302 392 Z" stroke = "#0000ff" stroke-width = "1" fill = "#0000ff" />	<path d = "M311 392 L311 388 L307 388 L307 392 L311 392 Z" stroke = "#0000ff" stroke-width = "1" fill = "#0000ff" />	<path d = "M320 392 L320 388 L316 388 L316 392 L320 392 Z" stroke = "#0000ff" stroke-width = "1" fill = "#0000ff" />	<path d = "M329 392 L329 388 L325 388 L325 392 L329 392 Z" stroke = "#0000ff" stroke-width = "1" fill = "#0000ff" />	<path d = "M338 392 L338 388 L334 388 L334 392 L338 392 Z" stroke = "#0000ff" stroke-width = "1" fill = "#0000ff" />	<path d = "M347 392 L347 388 L343 388 L343 392 L347 392 Z" stroke = "#0000ff" stroke-width = "1" fill = "#0000ff" />	<path d = "M356 392 L356 388 L352 388 L352 392 L356 392 Z" stroke = "#0000ff" stroke-width = "1" fill = "#0000ff" />	<path d = "M365 392 L365 388 L361 388 L361 392 L365 392 Z" stroke = "#0000ff" stroke-width = "1" fill = "#0000ff" />	<path d = "M374 392 L374 388 L370 388 L370 392 L374 392 Z" stroke = "#0000ff" stroke-width = "1" fill = "#0000ff" />	<path d = "M383 392 L383 388 L379 388 L379 392 L383 392 Z" stroke = "#0000ff" stroke-width = "1" fill = "#0000ff" />	<path d = "M392 392 L392 388 L388 388 L388 392 L392 392 Z" stroke = "#0000ff" stroke-width = "1" fill = "#0000ff" />	<path d = "M401 392 L401 388 L397 388 L397 392 L401 392 Z" stroke = "#0000ff" stroke-width = "1" fill = "#0000ff" />	<path d = "M410 392 L410 388 L406 388 L406 392 L410 392 Z" stroke = "#0000ff" stroke-width = "1" fill = "#0000ff" />	<path d = "M419 392 L419 388 L415 388 L415 392 L419 392 Z" stroke = "#0000ff" stroke-width = "1" fill = "#0000ff" />	<path d = "M419 374 L419 370 L415 370 L415 374 L419 374 Z" stroke = "#0000ff" stroke-width = "1" fill = "#0000ff" />	<path d = "M419 365 L419 361 L415 361 L415 365 L419 365 Z" stroke = "#0000ff" stroke-width = "1" fill = "#0000ff" />	<path d = "M410 356 L410 352 L406 352 L406 356 L410 356 Z" stroke = "#0000ff" stroke-width = "1" fill = "#0000ff" />	<path d = "M410 347 L410 343 L406 343 L406 347 L410 347 Z" stroke = "#0000ff" stroke-width = "1" fill = "#0000ff" />	<path d = "M401 338 L401 334 L397 334 L397 338 L401 338 Z" stroke = "#0000ff" stroke-width = "1" fill = "#0000ff" />	<path d = "M392 329 L392 325 L388 325 L388 329 L392 329 Z" stroke = "#0000ff" stroke-width = "1" fill = "#0000ff" />	<path d = "M392 320 L392 316 L388 316 L388 320 L392 320 Z" stroke = "#0000ff" stroke-width = "1" fill = "#0000ff" />	<path d = "M383 311 L383 307 L379 307 L379 311 L383 311 Z" stroke = "#0000ff" stroke-width = "1" fill = "#0000ff" />	<path d = "M383 302 L383 298 L379 298 L379 302 L383 302 Z" stroke = "#0000ff" stroke-width = "1" fill = "#0000ff" />	<path d = "M374 293 L374 289 L370 289 L370 293 L374 293 Z" stroke = "#0000ff" stroke-width = "1" fill = "#0000ff" />	<path d = "M365 284 L365 280 L361 280 L361 284 L365 284 Z" stroke = "#0000ff" stroke-width = "1" fill = "#0000ff" />	<path d = "M365 275 L365 271 L361 271 L361 275 L365 275 Z" stroke = "#0000ff" stroke-width = "1" fill = "#0000ff" />	<path d = "M356 266 L356 262 L352 262 L352 266 L356 266 Z" stroke = "#0000ff" stroke-width = "1" fill = "#0000ff" />	<path d = "M356 257 L356 253 L352 253 L352 257 L356 257 Z" stroke = "#0000ff" stroke-width = "1" fill = "#0000ff" />	<path d = "M347 248 L347 244 L343 244 L343 248 L347 248 Z" stroke = "#0000ff" stroke-width = "1" fill = "#0000ff" />	<path d = "M338 239 L338 235 L334 235 L334 239 L338 239 Z" stroke = "#0000ff" stroke-width = "1" fill = "#0000ff" />	<path d = "M338 230 L338 226 L334 226 L334 230 L338 230 Z" stroke = "#0000ff" stroke-width = "1" fill = "#0000ff" />	<path d = "M329 221 L329 217 L325 217 L325 221 L329 221 Z" stroke = "#0000ff" stroke-width = "1" fill = "#0000ff" />	<path d = "M329 212 L329 208 L325 208 L325 212 L329 212 Z" stroke = "#0000ff" stroke-width = "1" fill = "#0000ff" />	<path d = "M320 203 L320 199 L316 199 L316 203 L320 203 Z" stroke = "#0000ff" stroke-width = "1" fill = "#0000ff" />	<path d = "M320 194 L320 190 L316 190 L316 194 L320 194 Z" stroke = "#0000ff" stroke-width = "1" fill = "#0000ff" />	<path d = "M311 185 L311 181 L307 181 L307 185 L311 185 Z" stroke = "#0000ff" stroke-width = "1" fill = "#0000ff" /></svg>