<svg width="600" height="600" viewbox = "0 0 600 600"  xmlns="http://www.w3.org/2000/svg">
<!--<json>{
  "shapes": [],
  "glyph": "0506,0506,0506,0506,0506,0500,0500,0506,0500,0500,0500,0500,0500,0506,0500,0500,0500,0506,0500,0500,0500,0500,0507,0500,0500,0507,0500,0507,0500,0503,0503,0504,0503,0503,0503,0503,0503,0503,0505,0503,0503,0505,0503,0503,0505,0503,0501,0501,0501,0507,0501,0501,0501,0501,0506,0501,0501,0506,0501,0501,0506,0501,0501,0506,0501,0501,0506,0501,0501,0501,0506,0501,0501,0501,0506,0501,0501,0501,0506,0501,0501,0506,0501,0501,0501,0501,0501,0507,0501,0501,0507,0501,0501,0507,0501,0507,0501,0503,0503,0503,0503,0503,0503,0503,0503,0504,0503,0503,0504,0503,0504,0503,0504,0503,0504,0502,0504,0502,0504,0502,0504,0505,0502,0505,0502,0502,0505,0502,0505,0502,0502,0504,0502,0502,0504,0502,0500,0500,0500,0500,0507,0500,0500,0507,0500,0500,0500,0500,0507,0500,0500,0500,0507,0500,0500,0507,0500,0500,0500,0507,0500,0500,0507,0500,0507,0500,0500,0507,0500,0500,0500,0500,0506,0500,0500,0500,0500,0506,0500,0500,0506,0500,0506,0500,0506,0500,0506,0500,0504,0502,0502,0504,0502,0502,0504,0502,0502,0502,0502,0502,0502,0505,0502,0502,0502,0505,0502,0505,0502,0502,0505,0502,0505,0502,0501,0506,0501,0501,0506,0501,0501,0506,0501,0501,0501,0501,0501,0507,0501,0501,0507,0501,0501,0501,0501,0504,0502,0502,0502,0502,0502,0505,0502,0502,0505,0502,0505,0502,0505,0502,0501,0506,0501,0501,0506,0501,0501,0501,0501,0507,0501,0501,0507,0501,0507,0501,0507,0501,0505,0503,0503,0505,0503,0503,0503,0503,0503,0503,0504,0503,0503,0504,0503,0503,0504,0503,0504,0503,0500,0507,0500,0500,0500,0500,0500,0506,0500,0500,0500,0506,0506,0506,0506,0506,0506,0502,0502,0502,0502,0505,0502,0505,0502,0505,0502,0501,0501,0501,0507,0501,0507,0501,0507,0501,0503,0503,0503,0503,0504,0503,0504,0503,0504,0503,0500,0500,0500,0506,0500,0506,0500,0506,0500,0507,0507,0507,0507,0507,0507,0507,0507,0507,0507,0507,",
  "x0": 300,
  "y0": 300,
  "unit": 72,
  "width": 600,
  "height": 600,
  "style": {
    "color0": "black",
    "fill0": "black",
    "line0": 1,
    "color1": "black",
    "fill1": "black",
    "line1": 5,
    "color2": "red",
    "fill2": "red",
    "line2": 1,
    "color3": "#FF7900",
    "fill3": "#FF7900",
    "line3": 1,
    "color4": "yellow",
    "fill4": "yellow",
    "line4": 1,
    "color5": "green",
    "fill5": "green",
    "line5": 1,
    "color6": "blue",
    "fill6": "blue",
    "line6": 1,
    "color7": "purple",
    "fill7": "purple",
    "line7": 1
  }
}</json>-->	<path d = "M257 293 L257 289 L253 289 L253 293 L257 293 Z" stroke = "#000000" stroke-width = "1" fill = "#000000" />	<path d = "M257 284 L257 280 L253 280 L253 284 L257 284 Z" stroke = "#000000" stroke-width = "1" fill = "#000000" />	<path d = "M248 275 L248 271 L244 271 L244 275 L248 275 Z" stroke = "#000000" stroke-width = "1" fill = "#000000" />	<path d = "M248 266 L248 262 L244 262 L244 266 L248 266 Z" stroke = "#000000" stroke-width = "1" fill = "#000000" />	<path d = "M248 257 L248 253 L244 253 L244 257 L248 257 Z" stroke = "#000000" stroke-width = "1" fill = "#000000" />	<path d = "M248 248 L248 244 L244 244 L244 248 L248 248 Z" stroke = "#000000" stroke-width = "1" fill = "#000000" />	<path d = "M248 239 L248 235 L244 235 L244 239 L248 239 Z" stroke = "#000000" stroke-width = "1" fill = "#000000" />	<path d = "M239 230 L239 226 L235 226 L235 230 L239 230 Z" stroke = "#000000" stroke-width = "1" fill = "#000000" />	<path d = "M239 221 L239 217 L235 217 L235 221 L239 221 Z" stroke = "#000000" stroke-width = "1" fill = "#000000" />	<path d = "M239 212 L239 208 L235 208 L235 212 L239 212 Z" stroke = "#000000" stroke-width = "1" fill = "#000000" />	<path d = "M230 203 L230 199 L226 199 L226 203 L230 203 Z" stroke = "#000000" stroke-width = "1" fill = "#000000" />	<path d = "M230 194 L230 190 L226 190 L226 194 L230 194 Z" stroke = "#000000" stroke-width = "1" fill = "#000000" />	<path d = "M230 185 L230 181 L226 181 L226 185 L230 185 Z" stroke = "#000000" stroke-width = "1" fill = "#000000" />	<path d = "M230 176 L230 172 L226 172 L226 176 L230 176 Z" stroke = "#000000" stroke-width = "1" fill = "#000000" />	<path d = "M239 167 L239 163 L235 163 L235 167 L239 167 Z" stroke = "#000000" stroke-width = "1" fill = "#000000" />	<path d = "M239 158 L239 154 L235 154 L235 158 L239 158 Z" stroke = "#000000" stroke-width = "1" fill = "#000000" />	<path d = "M248 149 L248 145 L244 145 L244 149 L248 149 Z" stroke = "#000000" stroke-width = "1" fill = "#000000" />	<path d = "M257 140 L257 136 L253 136 L253 140 L257 140 Z" stroke = "#000000" stroke-width = "1" fill = "#000000" />	<path d = "M266 140 L266 136 L262 136 L262 140 L266 140 Z" stroke = "#000000" stroke-width = "1" fill = "#000000" />	<path d = "M275 140 L275 136 L271 136 L271 140 L275 140 Z" stroke = "#000000" stroke-width = "1" fill = "#000000" />	<path d = "M284 131 L284 127 L280 127 L280 131 L284 131 Z" stroke = "#000000" stroke-width = "1" fill = "#000000" />	<path d = "M293 131 L293 127 L289 127 L289 131 L293 131 Z" stroke = "#000000" stroke-width = "1" fill = "#000000" />	<path d = "M302 131 L302 127 L298 127 L298 131 L302 131 Z" stroke = "#000000" stroke-width = "1" fill = "#000000" />	<path d = "M311 131 L311 127 L307 127 L307 131 L311 131 Z" stroke = "#000000" stroke-width = "1" fill = "#000000" />	<path d = "M320 131 L320 127 L316 127 L316 131 L320 131 Z" stroke = "#000000" stroke-width = "1" fill = "#000000" />	<path d = "M329 131 L329 127 L325 127 L325 131 L329 131 Z" stroke = "#000000" stroke-width = "1" fill = "#000000" />	<path d = "M338 140 L338 136 L334 136 L334 140 L338 140 Z" stroke = "#000000" stroke-width = "1" fill = "#000000" />	<path d = "M347 140 L347 136 L343 136 L343 140 L347 140 Z" stroke = "#000000" stroke-width = "1" fill = "#000000" />	<path d = "M356 149 L356 145 L352 145 L352 149 L356 149 Z" stroke = "#000000" stroke-width = "1" fill = "#000000" />	<path d = "M365 149 L365 145 L361 145 L361 149 L365 149 Z" stroke = "#000000" stroke-width = "1" fill = "#000000" />	<path d = "M374 158 L374 154 L370 154 L370 158 L374 158 Z" stroke = "#000000" stroke-width = "1" fill = "#000000" />	<path d = "M374 167 L374 163 L370 163 L370 167 L374 167 Z" stroke = "#000000" stroke-width = "1" fill = "#000000" />	<path d = "M374 176 L374 172 L370 172 L370 176 L374 176 Z" stroke = "#000000" stroke-width = "1" fill = "#000000" />	<path d = "M374 185 L374 181 L370 181 L370 185 L374 185 Z" stroke = "#000000" stroke-width = "1" fill = "#000000" />	<path d = "M383 194 L383 190 L379 190 L379 194 L383 194 Z" stroke = "#000000" stroke-width = "1" fill = "#000000" />	<path d = "M383 203 L383 199 L379 199 L379 203 L383 203 Z" stroke = "#000000" stroke-width = "1" fill = "#000000" />	<path d = "M383 212 L383 208 L379 208 L379 212 L383 212 Z" stroke = "#000000" stroke-width = "1" fill = "#000000" />	<path d = "M383 221 L383 217 L379 217 L379 221 L383 221 Z" stroke = "#000000" stroke-width = "1" fill = "#000000" />	<path d = "M374 230 L374 226 L370 226 L370 230 L374 230 Z" stroke = "#000000" stroke-width = "1" fill = "#000000" />	<path d = "M374 239 L374 235 L370 235 L370 239 L374 239 Z" stroke = "#000000" stroke-width = "1" fill = "#000000" />	<path d = "M365 248 L365 244 L361 244 L361 248 L365 248 Z" stroke = "#000000" stroke-width = "1" fill = "#000000" />	<path d = "M365 257 L365 253 L361 253 L361 257 L365 257 Z" stroke = "#000000" stroke-width = "1" fill = "#000000" />	<path d = "M356 266 L356 262 L352 262 L352 266 L356 266 Z" stroke = "#000000" stroke-width = "1" fill = "#000000" />	<path d = "M356 275 L356 271 L352 271 L352 275 L356 275 Z" stroke = "#000000" stroke-width = "1" fill = "#000000" />	<path d = "M347 284 L347 280 L343 280 L343 284 L347 284 Z" stroke = "#000000" stroke-width = "1" fill = "#000000" />	<path d = "M347 293 L347 289 L343 289 L343 293 L347 293 Z" stroke = "#000000" stroke-width = "1" fill = "#000000" />	<path d = "M338 302 L338 298 L334 298 L334 302 L338 302 Z" stroke = "#000000" stroke-width = "1" fill = "#000000" />	<path d = "M338 311 L338 307 L334 307 L334 311 L338 311 Z" stroke = "#000000" stroke-width = "1" fill = "#000000" />	<path d = "M338 320 L338 316 L334 316 L334 320 L338 320 Z" stroke = "#000000" stroke-width = "1" fill = "#000000" />	<path d = "M329 329 L329 325 L325 325 L325 329 L329 329 Z" stroke = "#000000" stroke-width = "1" fill = "#000000" />	<path d = "M329 338 L329 334 L325 334 L325 338 L329 338 Z" stroke = "#000000" stroke-width = "1" fill = "#000000" />	<path d = "M329 347 L329 343 L325 343 L325 347 L329 347 Z" stroke = "#000000" stroke-width = "1" fill = "#000000" />	<path d = "M320 356 L320 352 L316 352 L316 356 L320 356 Z" stroke = "#000000" stroke-width = "1" fill = "#000000" />	<path d = "M320 365 L320 361 L316 361 L316 365 L320 365 Z" stroke = "#000000" stroke-width = "1" fill = "#000000" />	<path d = "M320 374 L320 370 L316 370 L316 374 L320 374 Z" stroke = "#000000" stroke-width = "1" fill = "#000000" />	<path d = "M311 383 L311 379 L307 379 L307 383 L311 383 Z" stroke = "#000000" stroke-width = "1" fill = "#000000" />	<path d = "M311 392 L311 388 L307 388 L307 392 L311 392 Z" stroke = "#000000" stroke-width = "1" fill = "#000000" />	<path d = "M302 401 L302 397 L298 397 L298 401 L302 401 Z" stroke = "#000000" stroke-width = "1" fill = "#000000" />	<path d = "M302 410 L302 406 L298 406 L298 410 L302 410 Z" stroke = "#000000" stroke-width = "1" fill = "#000000" />	<path d = "M302 419 L302 415 L298 415 L298 419 L302 419 Z" stroke = "#000000" stroke-width = "1" fill = "#000000" />	<path d = "M302 428 L302 424 L298 424 L298 428 L302 428 Z" stroke = "#000000" stroke-width = "1" fill = "#000000" />	<path d = "M302 437 L302 433 L298 433 L298 437 L302 437 Z" stroke = "#000000" stroke-width = "1" fill = "#000000" />	<path d = "M311 446 L311 442 L307 442 L307 446 L311 446 Z" stroke = "#000000" stroke-width = "1" fill = "#000000" />	<path d = "M311 455 L311 451 L307 451 L307 455 L311 455 Z" stroke = "#000000" stroke-width = "1" fill = "#000000" />	<path d = "M320 464 L320 460 L316 460 L316 464 L320 464 Z" stroke = "#000000" stroke-width = "1" fill = "#000000" />	<path d = "M320 473 L320 469 L316 469 L316 473 L320 473 Z" stroke = "#000000" stroke-width = "1" fill = "#000000" />	<path d = "M329 482 L329 478 L325 478 L325 482 L329 482 Z" stroke = "#000000" stroke-width = "1" fill = "#000000" />	<path d = "M338 491 L338 487 L334 487 L334 491 L338 491 Z" stroke = "#000000" stroke-width = "1" fill = "#000000" />	<path d = "M347 491 L347 487 L343 487 L343 491 L347 491 Z" stroke = "#000000" stroke-width = "1" fill = "#000000" />	<path d = "M356 491 L356 487 L352 487 L352 491 L356 491 Z" stroke = "#000000" stroke-width = "1" fill = "#000000" />	<path d = "M365 491 L365 487 L361 487 L361 491 L365 491 Z" stroke = "#000000" stroke-width = "1" fill = "#000000" />	<path d = "M374 491 L374 487 L370 487 L370 491 L374 491 Z" stroke = "#000000" stroke-width = "1" fill = "#000000" />	<path d = "M383 491 L383 487 L379 487 L379 491 L383 491 Z" stroke = "#000000" stroke-width = "1" fill = "#000000" />	<path d = "M392 491 L392 487 L388 487 L388 491 L392 491 Z" stroke = "#000000" stroke-width = "1" fill = "#000000" />	<path d = "M401 491 L401 487 L397 487 L397 491 L401 491 Z" stroke = "#000000" stroke-width = "1" fill = "#000000" />	<path d = "M410 491 L410 487 L406 487 L406 491 L410 491 Z" stroke = "#000000" stroke-width = "1" fill = "#000000" />	<path d = "M419 482 L419 478 L415 478 L415 482 L419 482 Z" stroke = "#000000" stroke-width = "1" fill = "#000000" />	<path d = "M428 482 L428 478 L424 478 L424 482 L428 482 Z" stroke = "#000000" stroke-width = "1" fill = "#000000" />	<path d = "M437 473 L437 469 L433 469 L433 473 L437 473 Z" stroke = "#000000" stroke-width = "1" fill = "#000000" />	<path d = "M446 464 L446 460 L442 460 L442 464 L446 464 Z" stroke = "#000000" stroke-width = "1" fill = "#000000" />	<path d = "M455 455 L455 451 L451 451 L451 455 L455 455 Z" stroke = "#000000" stroke-width = "1" fill = "#000000" />	<path d = "M446 446 L446 442 L442 442 L442 446 L446 446 Z" stroke = "#000000" stroke-width = "1" fill = "#000000" />	<path d = "M437 437 L437 433 L433 433 L433 437 L437 437 Z" stroke = "#000000" stroke-width = "1" fill = "#000000" />	<path d = "M428 428 L428 424 L424 424 L424 428 L428 428 Z" stroke = "#000000" stroke-width = "1" fill = "#000000" />	<path d = "M419 428 L419 424 L415 424 L415 428 L419 428 Z" stroke = "#000000" stroke-width = "1" fill = "#000000" />	<path d = "M410 437 L410 433 L406 433 L406 437 L410 437 Z" stroke = "#000000" stroke-width = "1" fill = "#000000" />	<path d = "M401 437 L401 433 L397 433 L397 437 L401 437 Z" stroke = "#000000" stroke-width = "1" fill = "#000000" />	<path d = "M392 446 L392 442 L388 442 L388 446 L392 446 Z" stroke = "#000000" stroke-width = "1" fill = "#000000" />	<path d = "M383 455 L383 451 L379 451 L379 455 L383 455 Z" stroke = "#000000" stroke-width = "1" fill = "#000000" />	<path d = "M374 455 L374 451 L370 451 L370 455 L374 455 Z" stroke = "#000000" stroke-width = "1" fill = "#000000" />	<path d = "M365 446 L365 442 L361 442 L361 446 L365 446 Z" stroke = "#000000" stroke-width = "1" fill = "#000000" />	<path d = "M356 446 L356 442 L352 442 L352 446 L356 446 Z" stroke = "#000000" stroke-width = "1" fill = "#000000" />	<path d = "M347 437 L347 433 L343 433 L343 437 L347 437 Z" stroke = "#000000" stroke-width = "1" fill = "#000000" />	<path d = "M347 428 L347 424 L343 424 L343 428 L347 428 Z" stroke = "#000000" stroke-width = "1" fill = "#000000" />	<path d = "M347 419 L347 415 L343 415 L343 419 L347 419 Z" stroke = "#000000" stroke-width = "1" fill = "#000000" />	<path d = "M347 410 L347 406 L343 406 L343 410 L347 410 Z" stroke = "#000000" stroke-width = "1" fill = "#000000" />	<path d = "M347 401 L347 397 L343 397 L343 401 L347 401 Z" stroke = "#000000" stroke-width = "1" fill = "#000000" />	<path d = "M356 392 L356 388 L352 388 L352 392 L356 392 Z" stroke = "#000000" stroke-width = "1" fill = "#000000" />	<path d = "M356 383 L356 379 L352 379 L352 383 L356 383 Z" stroke = "#000000" stroke-width = "1" fill = "#000000" />	<path d = "M365 374 L365 370 L361 370 L361 374 L365 374 Z" stroke = "#000000" stroke-width = "1" fill = "#000000" />	<path d = "M365 365 L365 361 L361 361 L361 365 L365 365 Z" stroke = "#000000" stroke-width = "1" fill = "#000000" />	<path d = "M365 356 L365 352 L361 352 L361 356 L365 356 Z" stroke = "#000000" stroke-width = "1" fill = "#000000" />	<path d = "M365 347 L365 343 L361 343 L361 347 L365 347 Z" stroke = "#000000" stroke-width = "1" fill = "#000000" />	<path d = "M374 338 L374 334 L370 334 L370 338 L374 338 Z" stroke = "#000000" stroke-width = "1" fill = "#000000" />	<path d = "M374 329 L374 325 L370 325 L370 329 L374 329 Z" stroke = "#000000" stroke-width = "1" fill = "#000000" />	<path d = "M374 320 L374 316 L370 316 L370 320 L374 320 Z" stroke = "#000000" stroke-width = "1" fill = "#000000" />	<path d = "M383 311 L383 307 L379 307 L379 311 L383 311 Z" stroke = "#000000" stroke-width = "1" fill = "#000000" />	<path d = "M383 302 L383 298 L379 298 L379 302 L383 302 Z" stroke = "#000000" stroke-width = "1" fill = "#000000" />	<path d = "M392 293 L392 289 L388 289 L388 293 L392 293 Z" stroke = "#000000" stroke-width = "1" fill = "#000000" />	<path d = "M392 284 L392 280 L388 280 L388 284 L392 284 Z" stroke = "#000000" stroke-width = "1" fill = "#000000" />	<path d = "M392 275 L392 271 L388 271 L388 275 L392 275 Z" stroke = "#000000" stroke-width = "1" fill = "#000000" />	<path d = "M401 266 L401 262 L397 262 L397 266 L401 266 Z" stroke = "#000000" stroke-width = "1" fill = "#000000" />	<path d = "M401 257 L401 253 L397 253 L397 257 L401 257 Z" stroke = "#000000" stroke-width = "1" fill = "#000000" />	<path d = "M410 248 L410 244 L406 244 L406 248 L410 248 Z" stroke = "#000000" stroke-width = "1" fill = "#000000" />	<path d = "M419 239 L419 235 L415 235 L415 239 L419 239 Z" stroke = "#000000" stroke-width = "1" fill = "#000000" />	<path d = "M419 230 L419 226 L415 226 L415 230 L419 230 Z" stroke = "#000000" stroke-width = "1" fill = "#000000" />	<path d = "M428 221 L428 217 L424 217 L424 221 L428 221 Z" stroke = "#000000" stroke-width = "1" fill = "#000000" />	<path d = "M428 212 L428 208 L424 208 L424 212 L428 212 Z" stroke = "#000000" stroke-width = "1" fill = "#000000" />	<path d = "M428 203 L428 199 L424 199 L424 203 L428 203 Z" stroke = "#000000" stroke-width = "1" fill = "#000000" />	<path d = "M428 194 L428 190 L424 190 L424 194 L428 194 Z" stroke = "#000000" stroke-width = "1" fill = "#000000" />	<path d = "M419 185 L419 181 L415 181 L415 185 L419 185 Z" stroke = "#000000" stroke-width = "1" fill = "#000000" />	<path d = "M419 176 L419 172 L415 172 L415 176 L419 176 Z" stroke = "#000000" stroke-width = "1" fill = "#000000" />	<path d = "M419 167 L419 163 L415 163 L415 167 L419 167 Z" stroke = "#000000" stroke-width = "1" fill = "#000000" />	<path d = "M419 158 L419 154 L415 154 L415 158 L419 158 Z" stroke = "#000000" stroke-width = "1" fill = "#000000" />	<path d = "M410 149 L410 145 L406 145 L406 149 L410 149 Z" stroke = "#000000" stroke-width = "1" fill = "#000000" />	<path d = "M410 140 L410 136 L406 136 L406 140 L410 140 Z" stroke = "#000000" stroke-width = "1" fill = "#000000" />	<path d = "M401 131 L401 127 L397 127 L397 131 L401 131 Z" stroke = "#000000" stroke-width = "1" fill = "#000000" />	<path d = "M392 122 L392 118 L388 118 L388 122 L392 122 Z" stroke = "#000000" stroke-width = "1" fill = "#000000" />	<path d = "M383 113 L383 109 L379 109 L379 113 L383 113 Z" stroke = "#000000" stroke-width = "1" fill = "#000000" />	<path d = "M374 104 L374 100 L370 100 L370 104 L374 104 Z" stroke = "#000000" stroke-width = "1" fill = "#000000" />	<path d = "M365 95 L365 91 L361 91 L361 95 L365 95 Z" stroke = "#000000" stroke-width = "1" fill = "#000000" />	<path d = "M356 95 L356 91 L352 91 L352 95 L356 95 Z" stroke = "#000000" stroke-width = "1" fill = "#000000" />	<path d = "M347 86 L347 82 L343 82 L343 86 L347 86 Z" stroke = "#000000" stroke-width = "1" fill = "#000000" />	<path d = "M338 86 L338 82 L334 82 L334 86 L338 86 Z" stroke = "#000000" stroke-width = "1" fill = "#000000" />	<path d = "M329 77 L329 73 L325 73 L325 77 L329 77 Z" stroke = "#000000" stroke-width = "1" fill = "#000000" />	<path d = "M320 77 L320 73 L316 73 L316 77 L320 77 Z" stroke = "#000000" stroke-width = "1" fill = "#000000" />	<path d = "M311 77 L311 73 L307 73 L307 77 L311 77 Z" stroke = "#000000" stroke-width = "1" fill = "#000000" />	<path d = "M302 77 L302 73 L298 73 L298 77 L302 77 Z" stroke = "#000000" stroke-width = "1" fill = "#000000" />	<path d = "M293 77 L293 73 L289 73 L289 77 L293 77 Z" stroke = "#000000" stroke-width = "1" fill = "#000000" />	<path d = "M284 77 L284 73 L280 73 L280 77 L284 77 Z" stroke = "#000000" stroke-width = "1" fill = "#000000" />	<path d = "M275 86 L275 82 L271 82 L271 86 L275 86 Z" stroke = "#000000" stroke-width = "1" fill = "#000000" />	<path d = "M266 86 L266 82 L262 82 L262 86 L266 86 Z" stroke = "#000000" stroke-width = "1" fill = "#000000" />	<path d = "M257 86 L257 82 L253 82 L253 86 L257 86 Z" stroke = "#000000" stroke-width = "1" fill = "#000000" />	<path d = "M248 95 L248 91 L244 91 L244 95 L248 95 Z" stroke = "#000000" stroke-width = "1" fill = "#000000" />	<path d = "M239 104 L239 100 L235 100 L235 104 L239 104 Z" stroke = "#000000" stroke-width = "1" fill = "#000000" />	<path d = "M230 104 L230 100 L226 100 L226 104 L230 104 Z" stroke = "#000000" stroke-width = "1" fill = "#000000" />	<path d = "M221 113 L221 109 L217 109 L217 113 L221 113 Z" stroke = "#000000" stroke-width = "1" fill = "#000000" />	<path d = "M212 122 L212 118 L208 118 L208 122 L212 122 Z" stroke = "#000000" stroke-width = "1" fill = "#000000" />	<path d = "M212 131 L212 127 L208 127 L208 131 L212 131 Z" stroke = "#000000" stroke-width = "1" fill = "#000000" />	<path d = "M203 140 L203 136 L199 136 L199 140 L203 140 Z" stroke = "#000000" stroke-width = "1" fill = "#000000" />	<path d = "M203 149 L203 145 L199 145 L199 149 L203 149 Z" stroke = "#000000" stroke-width = "1" fill = "#000000" />	<path d = "M194 158 L194 154 L190 154 L190 158 L194 158 Z" stroke = "#000000" stroke-width = "1" fill = "#000000" />	<path d = "M194 167 L194 163 L190 163 L190 167 L194 167 Z" stroke = "#000000" stroke-width = "1" fill = "#000000" />	<path d = "M185 176 L185 172 L181 172 L181 176 L185 176 Z" stroke = "#000000" stroke-width = "1" fill = "#000000" />	<path d = "M185 185 L185 181 L181 181 L181 185 L185 185 Z" stroke = "#000000" stroke-width = "1" fill = "#000000" />	<path d = "M185 194 L185 190 L181 190 L181 194 L185 194 Z" stroke = "#000000" stroke-width = "1" fill = "#000000" />	<path d = "M185 203 L185 199 L181 199 L181 203 L185 203 Z" stroke = "#000000" stroke-width = "1" fill = "#000000" />	<path d = "M185 212 L185 208 L181 208 L181 212 L185 212 Z" stroke = "#000000" stroke-width = "1" fill = "#000000" />	<path d = "M194 221 L194 217 L190 217 L190 221 L194 221 Z" stroke = "#000000" stroke-width = "1" fill = "#000000" />	<path d = "M194 230 L194 226 L190 226 L190 230 L194 230 Z" stroke = "#000000" stroke-width = "1" fill = "#000000" />	<path d = "M203 239 L203 235 L199 235 L199 239 L203 239 Z" stroke = "#000000" stroke-width = "1" fill = "#000000" />	<path d = "M203 248 L203 244 L199 244 L199 248 L203 248 Z" stroke = "#000000" stroke-width = "1" fill = "#000000" />	<path d = "M203 257 L203 253 L199 253 L199 257 L203 257 Z" stroke = "#000000" stroke-width = "1" fill = "#000000" />	<path d = "M203 266 L203 262 L199 262 L199 266 L203 266 Z" stroke = "#000000" stroke-width = "1" fill = "#000000" />	<path d = "M194 257 L194 253 L190 253 L190 257 L194 257 Z" stroke = "#000000" stroke-width = "1" fill = "#000000" />	<path d = "M185 257 L185 253 L181 253 L181 257 L185 257 Z" stroke = "#000000" stroke-width = "1" fill = "#000000" />	<path d = "M176 257 L176 253 L172 253 L172 257 L176 257 Z" stroke = "#000000" stroke-width = "1" fill = "#000000" />	<path d = "M167 257 L167 253 L163 253 L163 257 L167 257 Z" stroke = "#000000" stroke-width = "1" fill = "#000000" />	<path d = "M158 257 L158 253 L154 253 L154 257 L158 257 Z" stroke = "#000000" stroke-width = "1" fill = "#000000" />	<path d = "M149 266 L149 262 L145 262 L145 266 L149 266 Z" stroke = "#000000" stroke-width = "1" fill = "#000000" />	<path d = "M140 266 L140 262 L136 262 L136 266 L140 266 Z" stroke = "#000000" stroke-width = "1" fill = "#000000" />	<path d = "M131 275 L131 271 L127 271 L127 275 L131 275 Z" stroke = "#000000" stroke-width = "1" fill = "#000000" />	<path d = "M122 284 L122 280 L118 280 L118 284 L122 284 Z" stroke = "#000000" stroke-width = "1" fill = "#000000" />	<path d = "M113 293 L113 289 L109 289 L109 293 L113 293 Z" stroke = "#000000" stroke-width = "1" fill = "#000000" />	<path d = "M113 302 L113 298 L109 298 L109 302 L113 302 Z" stroke = "#000000" stroke-width = "1" fill = "#000000" />	<path d = "M104 311 L104 307 L100 307 L100 311 L104 311 Z" stroke = "#000000" stroke-width = "1" fill = "#000000" />	<path d = "M104 320 L104 316 L100 316 L100 320 L104 320 Z" stroke = "#000000" stroke-width = "1" fill = "#000000" />	<path d = "M95 329 L95 325 L91 325 L91 329 L95 329 Z" stroke = "#000000" stroke-width = "1" fill = "#000000" />	<path d = "M95 338 L95 334 L91 334 L91 338 L95 338 Z" stroke = "#000000" stroke-width = "1" fill = "#000000" />	<path d = "M95 347 L95 343 L91 343 L91 347 L95 347 Z" stroke = "#000000" stroke-width = "1" fill = "#000000" />	<path d = "M95 356 L95 352 L91 352 L91 356 L95 356 Z" stroke = "#000000" stroke-width = "1" fill = "#000000" />	<path d = "M104 365 L104 361 L100 361 L100 365 L104 365 Z" stroke = "#000000" stroke-width = "1" fill = "#000000" />	<path d = "M104 374 L104 370 L100 370 L100 374 L104 374 Z" stroke = "#000000" stroke-width = "1" fill = "#000000" />	<path d = "M113 383 L113 379 L109 379 L109 383 L113 383 Z" stroke = "#000000" stroke-width = "1" fill = "#000000" />	<path d = "M122 392 L122 388 L118 388 L118 392 L122 392 Z" stroke = "#000000" stroke-width = "1" fill = "#000000" />	<path d = "M131 401 L131 397 L127 397 L127 401 L131 401 Z" stroke = "#000000" stroke-width = "1" fill = "#000000" />	<path d = "M140 410 L140 406 L136 406 L136 410 L140 410 Z" stroke = "#000000" stroke-width = "1" fill = "#000000" />	<path d = "M149 410 L149 406 L145 406 L145 410 L149 410 Z" stroke = "#000000" stroke-width = "1" fill = "#000000" />	<path d = "M158 419 L158 415 L154 415 L154 419 L158 419 Z" stroke = "#000000" stroke-width = "1" fill = "#000000" />	<path d = "M167 419 L167 415 L163 415 L163 419 L167 419 Z" stroke = "#000000" stroke-width = "1" fill = "#000000" />	<path d = "M176 419 L176 415 L172 415 L172 419 L176 419 Z" stroke = "#000000" stroke-width = "1" fill = "#000000" />	<path d = "M185 419 L185 415 L181 415 L181 419 L185 419 Z" stroke = "#000000" stroke-width = "1" fill = "#000000" />	<path d = "M194 419 L194 415 L190 415 L190 419 L194 419 Z" stroke = "#000000" stroke-width = "1" fill = "#000000" />	<path d = "M203 419 L203 415 L199 415 L199 419 L203 419 Z" stroke = "#000000" stroke-width = "1" fill = "#000000" />	<path d = "M212 410 L212 406 L208 406 L208 410 L212 410 Z" stroke = "#000000" stroke-width = "1" fill = "#000000" />	<path d = "M221 410 L221 406 L217 406 L217 410 L221 410 Z" stroke = "#000000" stroke-width = "1" fill = "#000000" />	<path d = "M230 401 L230 397 L226 397 L226 401 L230 401 Z" stroke = "#000000" stroke-width = "1" fill = "#000000" />	<path d = "M239 401 L239 397 L235 397 L235 401 L239 401 Z" stroke = "#000000" stroke-width = "1" fill = "#000000" />	<path d = "M248 392 L248 388 L244 388 L244 392 L248 392 Z" stroke = "#000000" stroke-width = "1" fill = "#000000" />	<path d = "M257 383 L257 379 L253 379 L253 383 L257 383 Z" stroke = "#000000" stroke-width = "1" fill = "#000000" />	<path d = "M257 374 L257 370 L253 370 L253 374 L257 374 Z" stroke = "#000000" stroke-width = "1" fill = "#000000" />	<path d = "M266 365 L266 361 L262 361 L262 365 L266 365 Z" stroke = "#000000" stroke-width = "1" fill = "#000000" />	<path d = "M266 356 L266 352 L262 352 L262 356 L266 356 Z" stroke = "#000000" stroke-width = "1" fill = "#000000" />	<path d = "M266 347 L266 343 L262 343 L262 347 L266 347 Z" stroke = "#000000" stroke-width = "1" fill = "#000000" />	<path d = "M266 338 L266 334 L262 334 L262 338 L266 338 Z" stroke = "#000000" stroke-width = "1" fill = "#000000" />	<path d = "M266 329 L266 325 L262 325 L262 329 L266 329 Z" stroke = "#000000" stroke-width = "1" fill = "#000000" />	<path d = "M257 320 L257 316 L253 316 L253 320 L257 320 Z" stroke = "#000000" stroke-width = "1" fill = "#000000" />	<path d = "M257 311 L257 307 L253 307 L253 311 L257 311 Z" stroke = "#000000" stroke-width = "1" fill = "#000000" />	<path d = "M257 302 L257 298 L253 298 L253 302 L257 302 Z" stroke = "#000000" stroke-width = "1" fill = "#000000" />	<path d = "M194 302 L194 298 L190 298 L190 302 L194 302 Z" stroke = "#000000" stroke-width = "1" fill = "#000000" />	<path d = "M185 302 L185 298 L181 298 L181 302 L185 302 Z" stroke = "#000000" stroke-width = "1" fill = "#000000" />	<path d = "M176 302 L176 298 L172 298 L172 302 L176 302 Z" stroke = "#000000" stroke-width = "1" fill = "#000000" />	<path d = "M167 302 L167 298 L163 298 L163 302 L167 302 Z" stroke = "#000000" stroke-width = "1" fill = "#000000" />	<path d = "M158 311 L158 307 L154 307 L154 311 L158 311 Z" stroke = "#000000" stroke-width = "1" fill = "#000000" />	<path d = "M149 320 L149 316 L145 316 L145 320 L149 320 Z" stroke = "#000000" stroke-width = "1" fill = "#000000" />	<path d = "M140 329 L140 325 L136 325 L136 329 L140 329 Z" stroke = "#000000" stroke-width = "1" fill = "#000000" />	<path d = "M140 338 L140 334 L136 334 L136 338 L140 338 Z" stroke = "#000000" stroke-width = "1" fill = "#000000" />	<path d = "M140 347 L140 343 L136 343 L136 347 L140 347 Z" stroke = "#000000" stroke-width = "1" fill = "#000000" />	<path d = "M140 356 L140 352 L136 352 L136 356 L140 356 Z" stroke = "#000000" stroke-width = "1" fill = "#000000" />	<path d = "M149 365 L149 361 L145 361 L145 365 L149 365 Z" stroke = "#000000" stroke-width = "1" fill = "#000000" />	<path d = "M158 374 L158 370 L154 370 L154 374 L158 374 Z" stroke = "#000000" stroke-width = "1" fill = "#000000" />	<path d = "M167 383 L167 379 L163 379 L163 383 L167 383 Z" stroke = "#000000" stroke-width = "1" fill = "#000000" />	<path d = "M176 383 L176 379 L172 379 L172 383 L176 383 Z" stroke = "#000000" stroke-width = "1" fill = "#000000" />	<path d = "M185 383 L185 379 L181 379 L181 383 L185 383 Z" stroke = "#000000" stroke-width = "1" fill = "#000000" />	<path d = "M194 383 L194 379 L190 379 L190 383 L194 383 Z" stroke = "#000000" stroke-width = "1" fill = "#000000" />	<path d = "M203 383 L203 379 L199 379 L199 383 L203 383 Z" stroke = "#000000" stroke-width = "1" fill = "#000000" />	<path d = "M212 374 L212 370 L208 370 L208 374 L212 374 Z" stroke = "#000000" stroke-width = "1" fill = "#000000" />	<path d = "M221 365 L221 361 L217 361 L217 365 L221 365 Z" stroke = "#000000" stroke-width = "1" fill = "#000000" />	<path d = "M230 356 L230 352 L226 352 L226 356 L230 356 Z" stroke = "#000000" stroke-width = "1" fill = "#000000" />	<path d = "M230 347 L230 343 L226 343 L226 347 L230 347 Z" stroke = "#000000" stroke-width = "1" fill = "#000000" />	<path d = "M230 338 L230 334 L226 334 L226 338 L230 338 Z" stroke = "#000000" stroke-width = "1" fill = "#000000" />	<path d = "M230 329 L230 325 L226 325 L226 329 L230 329 Z" stroke = "#000000" stroke-width = "1" fill = "#000000" />	<path d = "M221 320 L221 316 L217 316 L217 320 L221 320 Z" stroke = "#000000" stroke-width = "1" fill = "#000000" />	<path d = "M212 311 L212 307 L208 307 L208 311 L212 311 Z" stroke = "#000000" stroke-width = "1" fill = "#000000" />	<path d = "M203 302 L203 298 L199 298 L199 302 L203 302 Z" stroke = "#000000" stroke-width = "1" fill = "#000000" /></svg>