<svg width="600" height="600" viewbox = "0 0 600 600"  xmlns="http://www.w3.org/2000/svg">
<!--<json>{
  "shapes": [],
  "glyph": "0503,0504,0503,0504,0503,0504,0503,0504,0503,0504,0503,0504,0503,0504,0503,0504,0503,0503,0504,0503,0503,0503,0504,0503,0503,0503,0505,0503,0505,0503,0505,0503,0501,0501,0501,0501,0501,0501,0501,0506,0501,0501,0501,0506,0501,0501,0501,0501,0506,0501,0501,0501,0506,0501,0501,0501,0501,0506,0501,0501,0501,0506,0501,0501,0501,0506,0501,0501,0501,0505,0503,0503,0504,0503,0504,0503,0504,0503,0504,0503,0504,0503,0505,0503,0505,0502,0505,0502,0501,0506,0501,0506,0501,0506,0501,0506,0501,0502,0505,0502,0502,0505,0502,0502,0502,0504,0502,0504,0502,0500,0500,0500,0500,0500,0507,0500,0500,0500,0500,0507,0500,0500,0500,0507,0500,0500,0500,0507,0500,0500,0500,0507,0500,0500,0500,0500,0500,0507,0500,0500,0500,0507,0500,0500,0500,0500,0500,0506,0500,0502,0502,0505,0502,0502,0505,0502,0505,0502,0505,0502,0505,0502,0505,0502,0505,0502,0505,0502,0505,0502,0501,0506,0501,0506,0501,0501,0506,0501,0501,0506,0501,0506,0501,0501,0506,0501,0501,0506,0501,0501,0501,0506,0501,0501,0501,0506,0501,0501,0501,0506,0501,0501,0501,0502,0502,0502,0502,0502,0502,0500,0507,0500,0500,0500,0500,0500,0507,0500,0500,0500,0500,0507,0500,0500,0500,0507,0500,0500,0500,0507,0500,0500,0500,0500,0507,0500,0500,0500,0507,0500,0500,0500,0500,0507,0500,0500,0500,0507,0500,0500,0500,0507,0500,0500,0500,0507,0500,0500,0500,0502,0502,0505,0502,0502,0502,0505,0502,0502,0504,0502,0503,0504,0503,0503,0504,0503,0503,0504,0503,0503,0503,0504,0503,0500,0500,0507,0500,0500,0500,0500,0507,0500,0500,0500,0507,0500,0500,0506,0500,0502,0504,0502,0502,0502,0502,0507,0507,0500,0503,0504,0503,0503,0503,0503,0504,0503,0503,0503,0503,0503,0503,0501,0501,0501,0506,0501,0501,0501,0506,0501,0501,0501,0506,0501,0501,0501,0501,0503,0504,0503,0503,0503,0504,0503,0503,0503,0504,0503,0503,0503,0503,0505,0502,0505,0502,0502,0505,0502,0502,0502,0505,0502,0502,0502,0505,0502,0502,0505,0502,0501,0506,0501,0501,0501,0506,0501,0501,0501,0506,0501,0501,0506,0501,0501,0501,0506,0501,0501,0501,0501,0506,0501,0501,0501,0506,0501,0501,0501,0501,0501,0507,0500,0500,0507,0500,0507,0500,0507,0500,0500,0507,0500,0507,0500,0504,0506,",
  "x0": 300,
  "y0": 300,
  "unit": 72,
  "width": 600,
  "height": 600,
  "style": {
    "color0": "black",
    "fill0": "black",
    "line0": 1,
    "color1": "black",
    "fill1": "black",
    "line1": 5,
    "color2": "red",
    "fill2": "red",
    "line2": 1,
    "color3": "#FF7900",
    "fill3": "#FF7900",
    "line3": 1,
    "color4": "yellow",
    "fill4": "yellow",
    "line4": 1,
    "color5": "green",
    "fill5": "green",
    "line5": 1,
    "color6": "blue",
    "fill6": "blue",
    "line6": 1,
    "color7": "purple",
    "fill7": "purple",
    "line7": 1
  }
}</json>-->	<path d = "M311 302 L311 298 L307 298 L307 302 L311 302 Z" stroke = "#000000" stroke-width = "1" fill = "#000000" />	<path d = "M320 293 L320 289 L316 289 L316 293 L320 293 Z" stroke = "#000000" stroke-width = "1" fill = "#000000" />	<path d = "M329 284 L329 280 L325 280 L325 284 L329 284 Z" stroke = "#000000" stroke-width = "1" fill = "#000000" />	<path d = "M338 275 L338 271 L334 271 L334 275 L338 275 Z" stroke = "#000000" stroke-width = "1" fill = "#000000" />	<path d = "M347 266 L347 262 L343 262 L343 266 L347 266 Z" stroke = "#000000" stroke-width = "1" fill = "#000000" />	<path d = "M356 257 L356 253 L352 253 L352 257 L356 257 Z" stroke = "#000000" stroke-width = "1" fill = "#000000" />	<path d = "M365 248 L365 244 L361 244 L361 248 L365 248 Z" stroke = "#000000" stroke-width = "1" fill = "#000000" />	<path d = "M374 239 L374 235 L370 235 L370 239 L374 239 Z" stroke = "#000000" stroke-width = "1" fill = "#000000" />	<path d = "M383 230 L383 226 L379 226 L379 230 L383 230 Z" stroke = "#000000" stroke-width = "1" fill = "#000000" />	<path d = "M392 230 L392 226 L388 226 L388 230 L392 230 Z" stroke = "#000000" stroke-width = "1" fill = "#000000" />	<path d = "M401 221 L401 217 L397 217 L397 221 L401 221 Z" stroke = "#000000" stroke-width = "1" fill = "#000000" />	<path d = "M410 221 L410 217 L406 217 L406 221 L410 221 Z" stroke = "#000000" stroke-width = "1" fill = "#000000" />	<path d = "M419 221 L419 217 L415 217 L415 221 L419 221 Z" stroke = "#000000" stroke-width = "1" fill = "#000000" />	<path d = "M428 212 L428 208 L424 208 L424 212 L428 212 Z" stroke = "#000000" stroke-width = "1" fill = "#000000" />	<path d = "M437 212 L437 208 L433 208 L433 212 L437 212 Z" stroke = "#000000" stroke-width = "1" fill = "#000000" />	<path d = "M446 212 L446 208 L442 208 L442 212 L446 212 Z" stroke = "#000000" stroke-width = "1" fill = "#000000" />	<path d = "M455 221 L455 217 L451 217 L451 221 L455 221 Z" stroke = "#000000" stroke-width = "1" fill = "#000000" />	<path d = "M464 230 L464 226 L460 226 L460 230 L464 230 Z" stroke = "#000000" stroke-width = "1" fill = "#000000" />	<path d = "M473 239 L473 235 L469 235 L469 239 L473 239 Z" stroke = "#000000" stroke-width = "1" fill = "#000000" />	<path d = "M473 248 L473 244 L469 244 L469 248 L473 248 Z" stroke = "#000000" stroke-width = "1" fill = "#000000" />	<path d = "M473 257 L473 253 L469 253 L469 257 L473 257 Z" stroke = "#000000" stroke-width = "1" fill = "#000000" />	<path d = "M473 266 L473 262 L469 262 L469 266 L473 266 Z" stroke = "#000000" stroke-width = "1" fill = "#000000" />	<path d = "M473 275 L473 271 L469 271 L469 275 L473 275 Z" stroke = "#000000" stroke-width = "1" fill = "#000000" />	<path d = "M473 284 L473 280 L469 280 L469 284 L473 284 Z" stroke = "#000000" stroke-width = "1" fill = "#000000" />	<path d = "M473 293 L473 289 L469 289 L469 293 L473 293 Z" stroke = "#000000" stroke-width = "1" fill = "#000000" />	<path d = "M473 302 L473 298 L469 298 L469 302 L473 302 Z" stroke = "#000000" stroke-width = "1" fill = "#000000" />	<path d = "M464 311 L464 307 L460 307 L460 311 L464 311 Z" stroke = "#000000" stroke-width = "1" fill = "#000000" />	<path d = "M464 320 L464 316 L460 316 L460 320 L464 320 Z" stroke = "#000000" stroke-width = "1" fill = "#000000" />	<path d = "M464 329 L464 325 L460 325 L460 329 L464 329 Z" stroke = "#000000" stroke-width = "1" fill = "#000000" />	<path d = "M455 338 L455 334 L451 334 L451 338 L455 338 Z" stroke = "#000000" stroke-width = "1" fill = "#000000" />	<path d = "M455 347 L455 343 L451 343 L451 347 L455 347 Z" stroke = "#000000" stroke-width = "1" fill = "#000000" />	<path d = "M455 356 L455 352 L451 352 L451 356 L455 356 Z" stroke = "#000000" stroke-width = "1" fill = "#000000" />	<path d = "M455 365 L455 361 L451 361 L451 365 L455 365 Z" stroke = "#000000" stroke-width = "1" fill = "#000000" />	<path d = "M446 374 L446 370 L442 370 L442 374 L446 374 Z" stroke = "#000000" stroke-width = "1" fill = "#000000" />	<path d = "M446 383 L446 379 L442 379 L442 383 L446 383 Z" stroke = "#000000" stroke-width = "1" fill = "#000000" />	<path d = "M446 392 L446 388 L442 388 L442 392 L446 392 Z" stroke = "#000000" stroke-width = "1" fill = "#000000" />	<path d = "M437 401 L437 397 L433 397 L433 401 L437 401 Z" stroke = "#000000" stroke-width = "1" fill = "#000000" />	<path d = "M437 410 L437 406 L433 406 L433 410 L437 410 Z" stroke = "#000000" stroke-width = "1" fill = "#000000" />	<path d = "M437 419 L437 415 L433 415 L433 419 L437 419 Z" stroke = "#000000" stroke-width = "1" fill = "#000000" />	<path d = "M437 428 L437 424 L433 424 L433 428 L437 428 Z" stroke = "#000000" stroke-width = "1" fill = "#000000" />	<path d = "M428 437 L428 433 L424 433 L424 437 L428 437 Z" stroke = "#000000" stroke-width = "1" fill = "#000000" />	<path d = "M428 446 L428 442 L424 442 L424 446 L428 446 Z" stroke = "#000000" stroke-width = "1" fill = "#000000" />	<path d = "M428 455 L428 451 L424 451 L424 455 L428 455 Z" stroke = "#000000" stroke-width = "1" fill = "#000000" />	<path d = "M419 464 L419 460 L415 460 L415 464 L419 464 Z" stroke = "#000000" stroke-width = "1" fill = "#000000" />	<path d = "M419 473 L419 469 L415 469 L415 473 L419 473 Z" stroke = "#000000" stroke-width = "1" fill = "#000000" />	<path d = "M419 482 L419 478 L415 478 L415 482 L419 482 Z" stroke = "#000000" stroke-width = "1" fill = "#000000" />	<path d = "M410 491 L410 487 L406 487 L406 491 L410 491 Z" stroke = "#000000" stroke-width = "1" fill = "#000000" />	<path d = "M410 500 L410 496 L406 496 L406 500 L410 500 Z" stroke = "#000000" stroke-width = "1" fill = "#000000" />	<path d = "M410 509 L410 505 L406 505 L406 509 L410 509 Z" stroke = "#000000" stroke-width = "1" fill = "#000000" />	<path d = "M419 518 L419 514 L415 514 L415 518 L419 518 Z" stroke = "#000000" stroke-width = "1" fill = "#000000" />	<path d = "M428 518 L428 514 L424 514 L424 518 L428 518 Z" stroke = "#000000" stroke-width = "1" fill = "#000000" />	<path d = "M437 509 L437 505 L433 505 L433 509 L437 509 Z" stroke = "#000000" stroke-width = "1" fill = "#000000" />	<path d = "M446 500 L446 496 L442 496 L442 500 L446 500 Z" stroke = "#000000" stroke-width = "1" fill = "#000000" />	<path d = "M455 491 L455 487 L451 487 L451 491 L455 491 Z" stroke = "#000000" stroke-width = "1" fill = "#000000" />	<path d = "M464 482 L464 478 L460 478 L460 482 L464 482 Z" stroke = "#000000" stroke-width = "1" fill = "#000000" />	<path d = "M473 473 L473 469 L469 469 L469 473 L473 473 Z" stroke = "#000000" stroke-width = "1" fill = "#000000" />	<path d = "M482 482 L482 478 L478 478 L478 482 L482 482 Z" stroke = "#000000" stroke-width = "1" fill = "#000000" />	<path d = "M473 491 L473 487 L469 487 L469 491 L473 491 Z" stroke = "#000000" stroke-width = "1" fill = "#000000" />	<path d = "M464 500 L464 496 L460 496 L460 500 L464 500 Z" stroke = "#000000" stroke-width = "1" fill = "#000000" />	<path d = "M464 509 L464 505 L460 505 L460 509 L464 509 Z" stroke = "#000000" stroke-width = "1" fill = "#000000" />	<path d = "M455 518 L455 514 L451 514 L451 518 L455 518 Z" stroke = "#000000" stroke-width = "1" fill = "#000000" />	<path d = "M446 527 L446 523 L442 523 L442 527 L446 527 Z" stroke = "#000000" stroke-width = "1" fill = "#000000" />	<path d = "M437 536 L437 532 L433 532 L433 536 L437 536 Z" stroke = "#000000" stroke-width = "1" fill = "#000000" />	<path d = "M428 545 L428 541 L424 541 L424 545 L428 545 Z" stroke = "#000000" stroke-width = "1" fill = "#000000" />	<path d = "M419 545 L419 541 L415 541 L415 545 L419 545 Z" stroke = "#000000" stroke-width = "1" fill = "#000000" />	<path d = "M410 554 L410 550 L406 550 L406 554 L410 554 Z" stroke = "#000000" stroke-width = "1" fill = "#000000" />	<path d = "M401 554 L401 550 L397 550 L397 554 L401 554 Z" stroke = "#000000" stroke-width = "1" fill = "#000000" />	<path d = "M392 563 L392 559 L388 559 L388 563 L392 563 Z" stroke = "#000000" stroke-width = "1" fill = "#000000" />	<path d = "M383 563 L383 559 L379 559 L379 563 L383 563 Z" stroke = "#000000" stroke-width = "1" fill = "#000000" />	<path d = "M374 563 L374 559 L370 559 L370 563 L374 563 Z" stroke = "#000000" stroke-width = "1" fill = "#000000" />	<path d = "M365 554 L365 550 L361 550 L361 554 L365 554 Z" stroke = "#000000" stroke-width = "1" fill = "#000000" />	<path d = "M356 545 L356 541 L352 541 L352 545 L356 545 Z" stroke = "#000000" stroke-width = "1" fill = "#000000" />	<path d = "M356 536 L356 532 L352 532 L352 536 L356 536 Z" stroke = "#000000" stroke-width = "1" fill = "#000000" />	<path d = "M356 527 L356 523 L352 523 L352 527 L356 527 Z" stroke = "#000000" stroke-width = "1" fill = "#000000" />	<path d = "M356 518 L356 514 L352 514 L352 518 L356 518 Z" stroke = "#000000" stroke-width = "1" fill = "#000000" />	<path d = "M356 509 L356 505 L352 505 L352 509 L356 509 Z" stroke = "#000000" stroke-width = "1" fill = "#000000" />	<path d = "M356 500 L356 496 L352 496 L352 500 L356 500 Z" stroke = "#000000" stroke-width = "1" fill = "#000000" />	<path d = "M365 491 L365 487 L361 487 L361 491 L365 491 Z" stroke = "#000000" stroke-width = "1" fill = "#000000" />	<path d = "M365 482 L365 478 L361 478 L361 482 L365 482 Z" stroke = "#000000" stroke-width = "1" fill = "#000000" />	<path d = "M365 473 L365 469 L361 469 L361 473 L365 473 Z" stroke = "#000000" stroke-width = "1" fill = "#000000" />	<path d = "M365 464 L365 460 L361 460 L361 464 L365 464 Z" stroke = "#000000" stroke-width = "1" fill = "#000000" />	<path d = "M374 455 L374 451 L370 451 L370 455 L374 455 Z" stroke = "#000000" stroke-width = "1" fill = "#000000" />	<path d = "M374 446 L374 442 L370 442 L370 446 L374 446 Z" stroke = "#000000" stroke-width = "1" fill = "#000000" />	<path d = "M374 437 L374 433 L370 433 L370 437 L374 437 Z" stroke = "#000000" stroke-width = "1" fill = "#000000" />	<path d = "M383 428 L383 424 L379 424 L379 428 L383 428 Z" stroke = "#000000" stroke-width = "1" fill = "#000000" />	<path d = "M383 419 L383 415 L379 415 L379 419 L383 419 Z" stroke = "#000000" stroke-width = "1" fill = "#000000" />	<path d = "M383 410 L383 406 L379 406 L379 410 L383 410 Z" stroke = "#000000" stroke-width = "1" fill = "#000000" />	<path d = "M392 401 L392 397 L388 397 L388 401 L392 401 Z" stroke = "#000000" stroke-width = "1" fill = "#000000" />	<path d = "M392 392 L392 388 L388 388 L388 392 L392 392 Z" stroke = "#000000" stroke-width = "1" fill = "#000000" />	<path d = "M392 383 L392 379 L388 379 L388 383 L392 383 Z" stroke = "#000000" stroke-width = "1" fill = "#000000" />	<path d = "M401 374 L401 370 L397 370 L397 374 L401 374 Z" stroke = "#000000" stroke-width = "1" fill = "#000000" />	<path d = "M401 365 L401 361 L397 361 L397 365 L401 365 Z" stroke = "#000000" stroke-width = "1" fill = "#000000" />	<path d = "M401 356 L401 352 L397 352 L397 356 L401 356 Z" stroke = "#000000" stroke-width = "1" fill = "#000000" />	<path d = "M401 347 L401 343 L397 343 L397 347 L401 347 Z" stroke = "#000000" stroke-width = "1" fill = "#000000" />	<path d = "M401 338 L401 334 L397 334 L397 338 L401 338 Z" stroke = "#000000" stroke-width = "1" fill = "#000000" />	<path d = "M410 329 L410 325 L406 325 L406 329 L410 329 Z" stroke = "#000000" stroke-width = "1" fill = "#000000" />	<path d = "M410 320 L410 316 L406 316 L406 320 L410 320 Z" stroke = "#000000" stroke-width = "1" fill = "#000000" />	<path d = "M410 311 L410 307 L406 307 L406 311 L410 311 Z" stroke = "#000000" stroke-width = "1" fill = "#000000" />	<path d = "M419 302 L419 298 L415 298 L415 302 L419 302 Z" stroke = "#000000" stroke-width = "1" fill = "#000000" />	<path d = "M419 293 L419 289 L415 289 L415 293 L419 293 Z" stroke = "#000000" stroke-width = "1" fill = "#000000" />	<path d = "M419 284 L419 280 L415 280 L415 284 L419 284 Z" stroke = "#000000" stroke-width = "1" fill = "#000000" />	<path d = "M419 275 L419 271 L415 271 L415 275 L419 275 Z" stroke = "#000000" stroke-width = "1" fill = "#000000" />	<path d = "M419 266 L419 262 L415 262 L415 266 L419 266 Z" stroke = "#000000" stroke-width = "1" fill = "#000000" />	<path d = "M410 257 L410 253 L406 253 L406 257 L410 257 Z" stroke = "#000000" stroke-width = "1" fill = "#000000" />	<path d = "M401 257 L401 253 L397 253 L397 257 L401 257 Z" stroke = "#000000" stroke-width = "1" fill = "#000000" />	<path d = "M392 257 L392 253 L388 253 L388 257 L392 257 Z" stroke = "#000000" stroke-width = "1" fill = "#000000" />	<path d = "M383 266 L383 262 L379 262 L379 266 L383 266 Z" stroke = "#000000" stroke-width = "1" fill = "#000000" />	<path d = "M374 266 L374 262 L370 262 L370 266 L374 266 Z" stroke = "#000000" stroke-width = "1" fill = "#000000" />	<path d = "M365 275 L365 271 L361 271 L361 275 L365 275 Z" stroke = "#000000" stroke-width = "1" fill = "#000000" />	<path d = "M356 284 L356 280 L352 280 L352 284 L356 284 Z" stroke = "#000000" stroke-width = "1" fill = "#000000" />	<path d = "M347 293 L347 289 L343 289 L343 293 L347 293 Z" stroke = "#000000" stroke-width = "1" fill = "#000000" />	<path d = "M338 302 L338 298 L334 298 L334 302 L338 302 Z" stroke = "#000000" stroke-width = "1" fill = "#000000" />	<path d = "M329 311 L329 307 L325 307 L325 311 L329 311 Z" stroke = "#000000" stroke-width = "1" fill = "#000000" />	<path d = "M320 320 L320 316 L316 316 L316 320 L320 320 Z" stroke = "#000000" stroke-width = "1" fill = "#000000" />	<path d = "M311 329 L311 325 L307 325 L307 329 L311 329 Z" stroke = "#000000" stroke-width = "1" fill = "#000000" />	<path d = "M302 338 L302 334 L298 334 L298 338 L302 338 Z" stroke = "#000000" stroke-width = "1" fill = "#000000" />	<path d = "M302 347 L302 343 L298 343 L298 347 L302 347 Z" stroke = "#000000" stroke-width = "1" fill = "#000000" />	<path d = "M293 356 L293 352 L289 352 L289 356 L293 356 Z" stroke = "#000000" stroke-width = "1" fill = "#000000" />	<path d = "M284 365 L284 361 L280 361 L280 365 L284 365 Z" stroke = "#000000" stroke-width = "1" fill = "#000000" />	<path d = "M284 374 L284 370 L280 370 L280 374 L284 374 Z" stroke = "#000000" stroke-width = "1" fill = "#000000" />	<path d = "M275 383 L275 379 L271 379 L271 383 L275 383 Z" stroke = "#000000" stroke-width = "1" fill = "#000000" />	<path d = "M275 392 L275 388 L271 388 L271 392 L275 392 Z" stroke = "#000000" stroke-width = "1" fill = "#000000" />	<path d = "M266 401 L266 397 L262 397 L262 401 L266 401 Z" stroke = "#000000" stroke-width = "1" fill = "#000000" />	<path d = "M257 410 L257 406 L253 406 L253 410 L257 410 Z" stroke = "#000000" stroke-width = "1" fill = "#000000" />	<path d = "M257 419 L257 415 L253 415 L253 419 L257 419 Z" stroke = "#000000" stroke-width = "1" fill = "#000000" />	<path d = "M248 428 L248 424 L244 424 L244 428 L248 428 Z" stroke = "#000000" stroke-width = "1" fill = "#000000" />	<path d = "M248 437 L248 433 L244 433 L244 437 L248 437 Z" stroke = "#000000" stroke-width = "1" fill = "#000000" />	<path d = "M239 446 L239 442 L235 442 L235 446 L239 446 Z" stroke = "#000000" stroke-width = "1" fill = "#000000" />	<path d = "M239 455 L239 451 L235 451 L235 455 L239 455 Z" stroke = "#000000" stroke-width = "1" fill = "#000000" />	<path d = "M239 464 L239 460 L235 460 L235 464 L239 464 Z" stroke = "#000000" stroke-width = "1" fill = "#000000" />	<path d = "M230 473 L230 469 L226 469 L226 473 L230 473 Z" stroke = "#000000" stroke-width = "1" fill = "#000000" />	<path d = "M230 482 L230 478 L226 478 L226 482 L230 482 Z" stroke = "#000000" stroke-width = "1" fill = "#000000" />	<path d = "M230 491 L230 487 L226 487 L226 491 L230 491 Z" stroke = "#000000" stroke-width = "1" fill = "#000000" />	<path d = "M221 500 L221 496 L217 496 L217 500 L221 500 Z" stroke = "#000000" stroke-width = "1" fill = "#000000" />	<path d = "M221 509 L221 505 L217 505 L217 509 L221 509 Z" stroke = "#000000" stroke-width = "1" fill = "#000000" />	<path d = "M221 518 L221 514 L217 514 L217 518 L221 518 Z" stroke = "#000000" stroke-width = "1" fill = "#000000" />	<path d = "M212 527 L212 523 L208 523 L208 527 L212 527 Z" stroke = "#000000" stroke-width = "1" fill = "#000000" />	<path d = "M212 536 L212 532 L208 532 L208 536 L212 536 Z" stroke = "#000000" stroke-width = "1" fill = "#000000" />	<path d = "M212 545 L212 541 L208 541 L208 545 L212 545 Z" stroke = "#000000" stroke-width = "1" fill = "#000000" />	<path d = "M203 545 L203 541 L199 541 L199 545 L203 545 Z" stroke = "#000000" stroke-width = "1" fill = "#000000" />	<path d = "M194 545 L194 541 L190 541 L190 545 L194 545 Z" stroke = "#000000" stroke-width = "1" fill = "#000000" />	<path d = "M185 545 L185 541 L181 541 L181 545 L185 545 Z" stroke = "#000000" stroke-width = "1" fill = "#000000" />	<path d = "M176 545 L176 541 L172 541 L172 545 L176 545 Z" stroke = "#000000" stroke-width = "1" fill = "#000000" />	<path d = "M167 545 L167 541 L163 541 L163 545 L167 545 Z" stroke = "#000000" stroke-width = "1" fill = "#000000" />	<path d = "M158 545 L158 541 L154 541 L154 545 L158 545 Z" stroke = "#000000" stroke-width = "1" fill = "#000000" />	<path d = "M158 536 L158 532 L154 532 L154 536 L158 536 Z" stroke = "#000000" stroke-width = "1" fill = "#000000" />	<path d = "M167 527 L167 523 L163 523 L163 527 L167 527 Z" stroke = "#000000" stroke-width = "1" fill = "#000000" />	<path d = "M167 518 L167 514 L163 514 L163 518 L167 518 Z" stroke = "#000000" stroke-width = "1" fill = "#000000" />	<path d = "M167 509 L167 505 L163 505 L163 509 L167 509 Z" stroke = "#000000" stroke-width = "1" fill = "#000000" />	<path d = "M167 500 L167 496 L163 496 L163 500 L167 500 Z" stroke = "#000000" stroke-width = "1" fill = "#000000" />	<path d = "M167 491 L167 487 L163 487 L163 491 L167 491 Z" stroke = "#000000" stroke-width = "1" fill = "#000000" />	<path d = "M176 482 L176 478 L172 478 L172 482 L176 482 Z" stroke = "#000000" stroke-width = "1" fill = "#000000" />	<path d = "M176 473 L176 469 L172 469 L172 473 L176 473 Z" stroke = "#000000" stroke-width = "1" fill = "#000000" />	<path d = "M176 464 L176 460 L172 460 L172 464 L176 464 Z" stroke = "#000000" stroke-width = "1" fill = "#000000" />	<path d = "M176 455 L176 451 L172 451 L172 455 L176 455 Z" stroke = "#000000" stroke-width = "1" fill = "#000000" />	<path d = "M185 446 L185 442 L181 442 L181 446 L185 446 Z" stroke = "#000000" stroke-width = "1" fill = "#000000" />	<path d = "M185 437 L185 433 L181 433 L181 437 L185 437 Z" stroke = "#000000" stroke-width = "1" fill = "#000000" />	<path d = "M185 428 L185 424 L181 424 L181 428 L185 428 Z" stroke = "#000000" stroke-width = "1" fill = "#000000" />	<path d = "M194 419 L194 415 L190 415 L190 419 L194 419 Z" stroke = "#000000" stroke-width = "1" fill = "#000000" />	<path d = "M194 410 L194 406 L190 406 L190 410 L194 410 Z" stroke = "#000000" stroke-width = "1" fill = "#000000" />	<path d = "M194 401 L194 397 L190 397 L190 401 L194 401 Z" stroke = "#000000" stroke-width = "1" fill = "#000000" />	<path d = "M203 392 L203 388 L199 388 L199 392 L203 392 Z" stroke = "#000000" stroke-width = "1" fill = "#000000" />	<path d = "M203 383 L203 379 L199 379 L199 383 L203 383 Z" stroke = "#000000" stroke-width = "1" fill = "#000000" />	<path d = "M203 374 L203 370 L199 370 L199 374 L203 374 Z" stroke = "#000000" stroke-width = "1" fill = "#000000" />	<path d = "M203 365 L203 361 L199 361 L199 365 L203 365 Z" stroke = "#000000" stroke-width = "1" fill = "#000000" />	<path d = "M212 356 L212 352 L208 352 L208 356 L212 356 Z" stroke = "#000000" stroke-width = "1" fill = "#000000" />	<path d = "M212 347 L212 343 L208 343 L208 347 L212 347 Z" stroke = "#000000" stroke-width = "1" fill = "#000000" />	<path d = "M212 338 L212 334 L208 334 L208 338 L212 338 Z" stroke = "#000000" stroke-width = "1" fill = "#000000" />	<path d = "M221 329 L221 325 L217 325 L217 329 L221 329 Z" stroke = "#000000" stroke-width = "1" fill = "#000000" />	<path d = "M221 320 L221 316 L217 316 L217 320 L221 320 Z" stroke = "#000000" stroke-width = "1" fill = "#000000" />	<path d = "M221 311 L221 307 L217 307 L217 311 L221 311 Z" stroke = "#000000" stroke-width = "1" fill = "#000000" />	<path d = "M221 302 L221 298 L217 298 L217 302 L221 302 Z" stroke = "#000000" stroke-width = "1" fill = "#000000" />	<path d = "M230 293 L230 289 L226 289 L226 293 L230 293 Z" stroke = "#000000" stroke-width = "1" fill = "#000000" />	<path d = "M230 284 L230 280 L226 280 L226 284 L230 284 Z" stroke = "#000000" stroke-width = "1" fill = "#000000" />	<path d = "M230 275 L230 271 L226 271 L226 275 L230 275 Z" stroke = "#000000" stroke-width = "1" fill = "#000000" />	<path d = "M239 266 L239 262 L235 262 L235 266 L239 266 Z" stroke = "#000000" stroke-width = "1" fill = "#000000" />	<path d = "M239 257 L239 253 L235 253 L235 257 L239 257 Z" stroke = "#000000" stroke-width = "1" fill = "#000000" />	<path d = "M239 248 L239 244 L235 244 L235 248 L239 248 Z" stroke = "#000000" stroke-width = "1" fill = "#000000" />	<path d = "M248 239 L248 235 L244 235 L244 239 L248 239 Z" stroke = "#000000" stroke-width = "1" fill = "#000000" />	<path d = "M248 230 L248 226 L244 226 L244 230 L248 230 Z" stroke = "#000000" stroke-width = "1" fill = "#000000" />	<path d = "M248 221 L248 217 L244 217 L244 221 L248 221 Z" stroke = "#000000" stroke-width = "1" fill = "#000000" />	<path d = "M257 212 L257 208 L253 208 L253 212 L257 212 Z" stroke = "#000000" stroke-width = "1" fill = "#000000" />	<path d = "M257 203 L257 199 L253 199 L253 203 L257 203 Z" stroke = "#000000" stroke-width = "1" fill = "#000000" />	<path d = "M257 194 L257 190 L253 190 L253 194 L257 194 Z" stroke = "#000000" stroke-width = "1" fill = "#000000" />	<path d = "M248 194 L248 190 L244 190 L244 194 L248 194 Z" stroke = "#000000" stroke-width = "1" fill = "#000000" />	<path d = "M239 194 L239 190 L235 190 L235 194 L239 194 Z" stroke = "#000000" stroke-width = "1" fill = "#000000" />	<path d = "M230 203 L230 199 L226 199 L226 203 L230 203 Z" stroke = "#000000" stroke-width = "1" fill = "#000000" />	<path d = "M221 203 L221 199 L217 199 L217 203 L221 203 Z" stroke = "#000000" stroke-width = "1" fill = "#000000" />	<path d = "M212 203 L212 199 L208 199 L208 203 L212 203 Z" stroke = "#000000" stroke-width = "1" fill = "#000000" />	<path d = "M203 212 L203 208 L199 208 L199 212 L203 212 Z" stroke = "#000000" stroke-width = "1" fill = "#000000" />	<path d = "M194 212 L194 208 L190 208 L190 212 L194 212 Z" stroke = "#000000" stroke-width = "1" fill = "#000000" />	<path d = "M185 203 L185 199 L181 199 L181 203 L185 203 Z" stroke = "#000000" stroke-width = "1" fill = "#000000" />	<path d = "M194 203 L194 199 L190 199 L190 203 L194 203 Z" stroke = "#000000" stroke-width = "1" fill = "#000000" />	<path d = "M203 194 L203 190 L199 190 L199 194 L203 194 Z" stroke = "#000000" stroke-width = "1" fill = "#000000" />	<path d = "M212 194 L212 190 L208 190 L208 194 L212 194 Z" stroke = "#000000" stroke-width = "1" fill = "#000000" />	<path d = "M221 185 L221 181 L217 181 L217 185 L221 185 Z" stroke = "#000000" stroke-width = "1" fill = "#000000" />	<path d = "M230 185 L230 181 L226 181 L226 185 L230 185 Z" stroke = "#000000" stroke-width = "1" fill = "#000000" />	<path d = "M239 176 L239 172 L235 172 L235 176 L239 176 Z" stroke = "#000000" stroke-width = "1" fill = "#000000" />	<path d = "M248 176 L248 172 L244 172 L244 176 L248 176 Z" stroke = "#000000" stroke-width = "1" fill = "#000000" />	<path d = "M257 176 L257 172 L253 172 L253 176 L257 176 Z" stroke = "#000000" stroke-width = "1" fill = "#000000" />	<path d = "M266 167 L266 163 L262 163 L262 167 L266 167 Z" stroke = "#000000" stroke-width = "1" fill = "#000000" />	<path d = "M266 158 L266 154 L262 154 L262 158 L266 158 Z" stroke = "#000000" stroke-width = "1" fill = "#000000" />	<path d = "M266 149 L266 145 L262 145 L262 149 L266 149 Z" stroke = "#000000" stroke-width = "1" fill = "#000000" />	<path d = "M275 140 L275 136 L271 136 L271 140 L275 140 Z" stroke = "#000000" stroke-width = "1" fill = "#000000" />	<path d = "M275 131 L275 127 L271 127 L271 131 L275 131 Z" stroke = "#000000" stroke-width = "1" fill = "#000000" />	<path d = "M275 122 L275 118 L271 118 L271 122 L275 122 Z" stroke = "#000000" stroke-width = "1" fill = "#000000" />	<path d = "M275 113 L275 109 L271 109 L271 113 L275 113 Z" stroke = "#000000" stroke-width = "1" fill = "#000000" />	<path d = "M284 104 L284 100 L280 100 L280 104 L284 104 Z" stroke = "#000000" stroke-width = "1" fill = "#000000" />	<path d = "M284 95 L284 91 L280 91 L280 95 L284 95 Z" stroke = "#000000" stroke-width = "1" fill = "#000000" />	<path d = "M284 86 L284 82 L280 82 L280 86 L284 86 Z" stroke = "#000000" stroke-width = "1" fill = "#000000" />	<path d = "M293 77 L293 73 L289 73 L289 77 L293 77 Z" stroke = "#000000" stroke-width = "1" fill = "#000000" />	<path d = "M293 68 L293 64 L289 64 L289 68 L293 68 Z" stroke = "#000000" stroke-width = "1" fill = "#000000" />	<path d = "M284 59 L284 55 L280 55 L280 59 L284 59 Z" stroke = "#000000" stroke-width = "1" fill = "#000000" />	<path d = "M275 59 L275 55 L271 55 L271 59 L275 59 Z" stroke = "#000000" stroke-width = "1" fill = "#000000" />	<path d = "M266 50 L266 46 L262 46 L262 50 L266 50 Z" stroke = "#000000" stroke-width = "1" fill = "#000000" />	<path d = "M257 50 L257 46 L253 46 L253 50 L257 50 Z" stroke = "#000000" stroke-width = "1" fill = "#000000" />	<path d = "M248 50 L248 46 L244 46 L244 50 L248 50 Z" stroke = "#000000" stroke-width = "1" fill = "#000000" />	<path d = "M239 50 L239 46 L235 46 L235 50 L239 50 Z" stroke = "#000000" stroke-width = "1" fill = "#000000" />	<path d = "M257 41 L257 37 L253 37 L253 41 L257 41 Z" stroke = "#000000" stroke-width = "1" fill = "#000000" />	<path d = "M266 41 L266 37 L262 37 L262 41 L266 41 Z" stroke = "#000000" stroke-width = "1" fill = "#000000" />	<path d = "M275 32 L275 28 L271 28 L271 32 L275 32 Z" stroke = "#000000" stroke-width = "1" fill = "#000000" />	<path d = "M284 32 L284 28 L280 28 L280 32 L284 32 Z" stroke = "#000000" stroke-width = "1" fill = "#000000" />	<path d = "M293 32 L293 28 L289 28 L289 32 L293 32 Z" stroke = "#000000" stroke-width = "1" fill = "#000000" />	<path d = "M302 32 L302 28 L298 28 L298 32 L302 32 Z" stroke = "#000000" stroke-width = "1" fill = "#000000" />	<path d = "M311 23 L311 19 L307 19 L307 23 L311 23 Z" stroke = "#000000" stroke-width = "1" fill = "#000000" />	<path d = "M320 23 L320 19 L316 19 L316 23 L320 23 Z" stroke = "#000000" stroke-width = "1" fill = "#000000" />	<path d = "M329 23 L329 19 L325 19 L325 23 L329 23 Z" stroke = "#000000" stroke-width = "1" fill = "#000000" />	<path d = "M338 23 L338 19 L334 19 L334 23 L338 23 Z" stroke = "#000000" stroke-width = "1" fill = "#000000" />	<path d = "M347 23 L347 19 L343 19 L343 23 L347 23 Z" stroke = "#000000" stroke-width = "1" fill = "#000000" />	<path d = "M356 23 L356 19 L352 19 L352 23 L356 23 Z" stroke = "#000000" stroke-width = "1" fill = "#000000" />	<path d = "M356 32 L356 28 L352 28 L352 32 L356 32 Z" stroke = "#000000" stroke-width = "1" fill = "#000000" />	<path d = "M356 41 L356 37 L352 37 L352 41 L356 41 Z" stroke = "#000000" stroke-width = "1" fill = "#000000" />	<path d = "M356 50 L356 46 L352 46 L352 50 L356 50 Z" stroke = "#000000" stroke-width = "1" fill = "#000000" />	<path d = "M347 59 L347 55 L343 55 L343 59 L347 59 Z" stroke = "#000000" stroke-width = "1" fill = "#000000" />	<path d = "M347 68 L347 64 L343 64 L343 68 L347 68 Z" stroke = "#000000" stroke-width = "1" fill = "#000000" />	<path d = "M347 77 L347 73 L343 73 L343 77 L347 77 Z" stroke = "#000000" stroke-width = "1" fill = "#000000" />	<path d = "M338 86 L338 82 L334 82 L334 86 L338 86 Z" stroke = "#000000" stroke-width = "1" fill = "#000000" />	<path d = "M338 95 L338 91 L334 91 L334 95 L338 95 Z" stroke = "#000000" stroke-width = "1" fill = "#000000" />	<path d = "M338 104 L338 100 L334 100 L334 104 L338 104 Z" stroke = "#000000" stroke-width = "1" fill = "#000000" />	<path d = "M329 113 L329 109 L325 109 L325 113 L329 113 Z" stroke = "#000000" stroke-width = "1" fill = "#000000" />	<path d = "M329 122 L329 118 L325 118 L325 122 L329 122 Z" stroke = "#000000" stroke-width = "1" fill = "#000000" />	<path d = "M329 131 L329 127 L325 127 L325 131 L329 131 Z" stroke = "#000000" stroke-width = "1" fill = "#000000" />	<path d = "M329 140 L329 136 L325 136 L325 140 L329 140 Z" stroke = "#000000" stroke-width = "1" fill = "#000000" />	<path d = "M338 140 L338 136 L334 136 L334 140 L338 140 Z" stroke = "#000000" stroke-width = "1" fill = "#000000" />	<path d = "M347 131 L347 127 L343 127 L343 131 L347 131 Z" stroke = "#000000" stroke-width = "1" fill = "#000000" />	<path d = "M356 131 L356 127 L352 127 L352 131 L356 131 Z" stroke = "#000000" stroke-width = "1" fill = "#000000" />	<path d = "M365 131 L365 127 L361 127 L361 131 L365 131 Z" stroke = "#000000" stroke-width = "1" fill = "#000000" />	<path d = "M374 122 L374 118 L370 118 L370 122 L374 122 Z" stroke = "#000000" stroke-width = "1" fill = "#000000" />	<path d = "M383 122 L383 118 L379 118 L379 122 L383 122 Z" stroke = "#000000" stroke-width = "1" fill = "#000000" />	<path d = "M392 122 L392 118 L388 118 L388 122 L392 122 Z" stroke = "#000000" stroke-width = "1" fill = "#000000" />	<path d = "M401 113 L401 109 L397 109 L397 113 L401 113 Z" stroke = "#000000" stroke-width = "1" fill = "#000000" />	<path d = "M410 113 L410 109 L406 109 L406 113 L410 113 Z" stroke = "#000000" stroke-width = "1" fill = "#000000" />	<path d = "M419 113 L419 109 L415 109 L415 113 L419 113 Z" stroke = "#000000" stroke-width = "1" fill = "#000000" />	<path d = "M428 113 L428 109 L424 109 L424 113 L428 113 Z" stroke = "#000000" stroke-width = "1" fill = "#000000" />	<path d = "M419 122 L419 118 L415 118 L415 122 L419 122 Z" stroke = "#000000" stroke-width = "1" fill = "#000000" />	<path d = "M410 131 L410 127 L406 127 L406 131 L410 131 Z" stroke = "#000000" stroke-width = "1" fill = "#000000" />	<path d = "M401 131 L401 127 L397 127 L397 131 L401 131 Z" stroke = "#000000" stroke-width = "1" fill = "#000000" />	<path d = "M392 140 L392 136 L388 136 L388 140 L392 140 Z" stroke = "#000000" stroke-width = "1" fill = "#000000" />	<path d = "M383 140 L383 136 L379 136 L379 140 L383 140 Z" stroke = "#000000" stroke-width = "1" fill = "#000000" />	<path d = "M374 140 L374 136 L370 136 L370 140 L374 140 Z" stroke = "#000000" stroke-width = "1" fill = "#000000" />	<path d = "M365 149 L365 145 L361 145 L361 149 L365 149 Z" stroke = "#000000" stroke-width = "1" fill = "#000000" />	<path d = "M356 149 L356 145 L352 145 L352 149 L356 149 Z" stroke = "#000000" stroke-width = "1" fill = "#000000" />	<path d = "M347 149 L347 145 L343 145 L343 149 L347 149 Z" stroke = "#000000" stroke-width = "1" fill = "#000000" />	<path d = "M338 158 L338 154 L334 154 L334 158 L338 158 Z" stroke = "#000000" stroke-width = "1" fill = "#000000" />	<path d = "M329 158 L329 154 L325 154 L325 158 L329 158 Z" stroke = "#000000" stroke-width = "1" fill = "#000000" />	<path d = "M320 167 L320 163 L316 163 L316 167 L320 167 Z" stroke = "#000000" stroke-width = "1" fill = "#000000" />	<path d = "M320 176 L320 172 L316 172 L316 176 L320 176 Z" stroke = "#000000" stroke-width = "1" fill = "#000000" />	<path d = "M311 185 L311 181 L307 181 L307 185 L311 185 Z" stroke = "#000000" stroke-width = "1" fill = "#000000" />	<path d = "M311 194 L311 190 L307 190 L307 194 L311 194 Z" stroke = "#000000" stroke-width = "1" fill = "#000000" />	<path d = "M311 203 L311 199 L307 199 L307 203 L311 203 Z" stroke = "#000000" stroke-width = "1" fill = "#000000" />	<path d = "M302 212 L302 208 L298 208 L298 212 L302 212 Z" stroke = "#000000" stroke-width = "1" fill = "#000000" />	<path d = "M302 221 L302 217 L298 217 L298 221 L302 221 Z" stroke = "#000000" stroke-width = "1" fill = "#000000" />	<path d = "M302 230 L302 226 L298 226 L298 230 L302 230 Z" stroke = "#000000" stroke-width = "1" fill = "#000000" />	<path d = "M293 239 L293 235 L289 235 L289 239 L293 239 Z" stroke = "#000000" stroke-width = "1" fill = "#000000" />	<path d = "M293 248 L293 244 L289 244 L289 248 L293 248 Z" stroke = "#000000" stroke-width = "1" fill = "#000000" />	<path d = "M284 257 L284 253 L280 253 L280 257 L284 257 Z" stroke = "#000000" stroke-width = "1" fill = "#000000" />	<path d = "M284 266 L284 262 L280 262 L280 266 L284 266 Z" stroke = "#000000" stroke-width = "1" fill = "#000000" />	<path d = "M284 275 L284 271 L280 271 L280 275 L284 275 Z" stroke = "#000000" stroke-width = "1" fill = "#000000" />	<path d = "M275 284 L275 280 L271 280 L271 284 L275 284 Z" stroke = "#000000" stroke-width = "1" fill = "#000000" />	<path d = "M275 293 L275 289 L271 289 L271 293 L275 293 Z" stroke = "#000000" stroke-width = "1" fill = "#000000" />	<path d = "M275 302 L275 298 L271 298 L271 302 L275 302 Z" stroke = "#000000" stroke-width = "1" fill = "#000000" />	<path d = "M275 311 L275 307 L271 307 L271 311 L275 311 Z" stroke = "#000000" stroke-width = "1" fill = "#000000" />	<path d = "M266 320 L266 316 L262 316 L262 320 L266 320 Z" stroke = "#000000" stroke-width = "1" fill = "#000000" />	<path d = "M266 329 L266 325 L262 325 L262 329 L266 329 Z" stroke = "#000000" stroke-width = "1" fill = "#000000" />	<path d = "M266 338 L266 334 L262 334 L262 338 L266 338 Z" stroke = "#000000" stroke-width = "1" fill = "#000000" />	<path d = "M257 347 L257 343 L253 343 L253 347 L257 347 Z" stroke = "#000000" stroke-width = "1" fill = "#000000" />	<path d = "M257 356 L257 352 L253 352 L253 356 L257 356 Z" stroke = "#000000" stroke-width = "1" fill = "#000000" />	<path d = "M257 365 L257 361 L253 361 L253 365 L257 365 Z" stroke = "#000000" stroke-width = "1" fill = "#000000" />	<path d = "M257 374 L257 370 L253 370 L253 374 L257 374 Z" stroke = "#000000" stroke-width = "1" fill = "#000000" />	<path d = "M257 383 L257 379 L253 379 L253 383 L257 383 Z" stroke = "#000000" stroke-width = "1" fill = "#000000" />	<path d = "M266 374 L266 370 L262 370 L262 374 L266 374 Z" stroke = "#000000" stroke-width = "1" fill = "#000000" />	<path d = "M266 365 L266 361 L262 361 L262 365 L266 365 Z" stroke = "#000000" stroke-width = "1" fill = "#000000" />	<path d = "M275 356 L275 352 L271 352 L271 356 L275 356 Z" stroke = "#000000" stroke-width = "1" fill = "#000000" />	<path d = "M284 347 L284 343 L280 343 L280 347 L284 347 Z" stroke = "#000000" stroke-width = "1" fill = "#000000" />	<path d = "M293 338 L293 334 L289 334 L289 338 L293 338 Z" stroke = "#000000" stroke-width = "1" fill = "#000000" />	<path d = "M293 329 L293 325 L289 325 L289 329 L293 329 Z" stroke = "#000000" stroke-width = "1" fill = "#000000" />	<path d = "M302 320 L302 316 L298 316 L298 320 L302 320 Z" stroke = "#000000" stroke-width = "1" fill = "#000000" />	<path d = "M311 311 L311 307 L307 307 L307 311 L311 311 Z" stroke = "#000000" stroke-width = "1" fill = "#000000" /></svg>