<svg width="600" height="600" viewbox = "0 0 600 600"  xmlns="http://www.w3.org/2000/svg">
<!--<json>{
  "shapes": [],
  "glyph": "0502,0502,0500,0507,0500,0507,0500,0507,0500,0507,0500,0500,0507,0500,0500,0500,0500,0500,0506,0500,0502,0504,0502,0502,0502,0505,0502,0501,0507,0501,0501,0506,0501,0506,0500,0500,0507,0507,0507,0507,0507,0507,0507,0507,0501,0501,0501,0505,0505,0506,0506,0505,0506,0505,0506,0505,0506,0505,0506,0506,0501,0501,0503,0503,0503,0503,0503,0503,0503,0500,0500,0500,0505,0505,0502,0502,0502,0502,0506,0506,0506,0506,0506,0506,0506,0506,0506,0506,0506,0500,0507,0500,0500,0507,0500,0502,0502,0502,0502,0502,0502,0502,0502,0502,0502,0502,0502,0502,0502,0502,0502,0502,0501,0501,0507,0501,0501,0507,0501,0501,0507,0501,0501,0507,0501,0501,0507,0501,0501,0507,0501,0501,0507,0501,0501,0507,0501,0500,0507,0500,0500,0507,0500,0500,0507,0500,0500,0507,0500,0500,0507,0500,0500,0507,0500,0500,0507,0501,0506,0501,0506,0505,0501,0506,0505,0501,0506,0505,0501,0506,0505,0501,0506,0505,0501,0501,0506,0501,0501,0506,0501,0502,0500,0500,0506,0500,0500,0506,0500,0500,0506,0500,0500,0506,0500,0500,0506,0500,0500,0506,0500,0500,0506,0500,0500,0506,0500,0500,0506,0500,0500,0506,0500,0500,0503,0503,0503,0503,0503,0503,0503,0503,0503,0503,0503,0503,0503,0503,0503,0503,0503,0503,0503,0503,0503,0503,0505,0502,0507,0507,0507,0507,0505,0505,0505,0505,0505,0507,0507,0507,0507,0507,0507,0507,0507,0507,0504,0507,0507,0507,0507,0507,0507,0504,0503,0503,0503,0505,0503,0501,0507,0501,0501,0501,0501,0501,0507,0501,0501,0507,0501,0507,0501,0507,0501,0507,0500,0500,0500,0500,0500,0500,0500,0500,0500,0500,0500,0500,0500,0500,0500,0500,0502,0502,0502,0502,0507,0507,0507,0507,0503,0503,0503,0503,0503,0503,0506,0506,0506,0506,0501,0501,0501,0501,0501,0501,0501,0501,0501,0501,0501,0501,0501,0501,0501,0507,0501,0507,0500,0507,0500,0507,0500,0500,0500,0507,0500,0500,0500,0500,0500,0507,0500,0503,0503,0503,0505,0502,0506,0501,0501,0501,0501,0501,0506,0501,0501,0506,0501,0506,0501,0506,0501,0502,0506,0506,0501,0501,0501,0501,0507,0501,0503,0503,0503,0506,0506,0506,0502,0502,0502,0502,0502,0502,0502,0507,0507,0507,0507,0500,0500,0500,0500,0504,0506,0502,0502,0504,0502,0502,0504,0502,0504,0502,0500,0500,0500,0506,0500,0500,0500,0500,0506,0500,0506,0506,0506,0506,0506,0506,0506,0506,0506,0506,0506,0505,",
  "x0": 300,
  "y0": 300,
  "unit": 72,
  "width": 600,
  "height": 600,
  "style": {
    "color0": "black",
    "fill0": "black",
    "line0": 1,
    "color1": "black",
    "fill1": "black",
    "line1": 5,
    "color2": "red",
    "fill2": "red",
    "line2": 1,
    "color3": "#FF7900",
    "fill3": "#FF7900",
    "line3": 1,
    "color4": "yellow",
    "fill4": "yellow",
    "line4": 1,
    "color5": "green",
    "fill5": "green",
    "line5": 1,
    "color6": "blue",
    "fill6": "blue",
    "line6": 1,
    "color7": "purple",
    "fill7": "purple",
    "line7": 1
  }
}</json>-->	<path d = "M293 302 L293 298 L289 298 L289 302 L293 302 Z" stroke = "#000000" stroke-width = "1" fill = "#000000" />	<path d = "M284 302 L284 298 L280 298 L280 302 L284 302 Z" stroke = "#000000" stroke-width = "1" fill = "#000000" />	<path d = "M284 293 L284 289 L280 289 L280 293 L284 293 Z" stroke = "#000000" stroke-width = "1" fill = "#000000" />	<path d = "M293 284 L293 280 L289 280 L289 284 L293 284 Z" stroke = "#000000" stroke-width = "1" fill = "#000000" />	<path d = "M302 275 L302 271 L298 271 L298 275 L302 275 Z" stroke = "#000000" stroke-width = "1" fill = "#000000" />	<path d = "M311 266 L311 262 L307 262 L307 266 L311 266 Z" stroke = "#000000" stroke-width = "1" fill = "#000000" />	<path d = "M320 257 L320 253 L316 253 L316 257 L320 257 Z" stroke = "#000000" stroke-width = "1" fill = "#000000" />	<path d = "M320 248 L320 244 L316 244 L316 248 L320 248 Z" stroke = "#000000" stroke-width = "1" fill = "#000000" />	<path d = "M329 239 L329 235 L325 235 L325 239 L329 239 Z" stroke = "#000000" stroke-width = "1" fill = "#000000" />	<path d = "M329 230 L329 226 L325 226 L325 230 L329 230 Z" stroke = "#000000" stroke-width = "1" fill = "#000000" />	<path d = "M329 221 L329 217 L325 217 L325 221 L329 221 Z" stroke = "#000000" stroke-width = "1" fill = "#000000" />	<path d = "M329 212 L329 208 L325 208 L325 212 L329 212 Z" stroke = "#000000" stroke-width = "1" fill = "#000000" />	<path d = "M329 203 L329 199 L325 199 L325 203 L329 203 Z" stroke = "#000000" stroke-width = "1" fill = "#000000" />	<path d = "M320 194 L320 190 L316 190 L316 194 L320 194 Z" stroke = "#000000" stroke-width = "1" fill = "#000000" />	<path d = "M311 194 L311 190 L307 190 L307 194 L311 194 Z" stroke = "#000000" stroke-width = "1" fill = "#000000" />	<path d = "M302 185 L302 181 L298 181 L298 185 L302 185 Z" stroke = "#000000" stroke-width = "1" fill = "#000000" />	<path d = "M293 185 L293 181 L289 181 L289 185 L293 185 Z" stroke = "#000000" stroke-width = "1" fill = "#000000" />	<path d = "M284 185 L284 181 L280 181 L280 185 L284 185 Z" stroke = "#000000" stroke-width = "1" fill = "#000000" />	<path d = "M275 194 L275 190 L271 190 L271 194 L275 194 Z" stroke = "#000000" stroke-width = "1" fill = "#000000" />	<path d = "M275 203 L275 199 L271 199 L271 203 L275 203 Z" stroke = "#000000" stroke-width = "1" fill = "#000000" />	<path d = "M284 212 L284 208 L280 208 L280 212 L284 212 Z" stroke = "#000000" stroke-width = "1" fill = "#000000" />	<path d = "M284 221 L284 217 L280 217 L280 221 L284 221 Z" stroke = "#000000" stroke-width = "1" fill = "#000000" />	<path d = "M275 230 L275 226 L271 226 L271 230 L275 230 Z" stroke = "#000000" stroke-width = "1" fill = "#000000" />	<path d = "M266 221 L266 217 L262 217 L262 221 L266 221 Z" stroke = "#000000" stroke-width = "1" fill = "#000000" />	<path d = "M266 212 L266 208 L262 208 L262 212 L266 212 Z" stroke = "#000000" stroke-width = "1" fill = "#000000" />	<path d = "M338 221 L338 217 L334 217 L334 221 L338 221 Z" stroke = "#000000" stroke-width = "1" fill = "#000000" />	<path d = "M338 230 L338 226 L334 226 L334 230 L338 230 Z" stroke = "#000000" stroke-width = "1" fill = "#000000" />	<path d = "M338 239 L338 235 L334 235 L334 239 L338 239 Z" stroke = "#000000" stroke-width = "1" fill = "#000000" />	<path d = "M275 302 L275 298 L271 298 L271 302 L275 302 Z" stroke = "#000000" stroke-width = "1" fill = "#000000" />	<path d = "M275 311 L275 307 L271 307 L271 311 L275 311 Z" stroke = "#000000" stroke-width = "1" fill = "#000000" />	<path d = "M284 311 L284 307 L280 307 L280 311 L284 311 Z" stroke = "#000000" stroke-width = "1" fill = "#000000" />	<path d = "M293 311 L293 307 L289 307 L289 311 L293 311 Z" stroke = "#000000" stroke-width = "1" fill = "#000000" />	<path d = "M302 311 L302 307 L298 307 L298 311 L302 311 Z" stroke = "#000000" stroke-width = "1" fill = "#000000" />	<path d = "M311 311 L311 307 L307 307 L307 311 L311 311 Z" stroke = "#000000" stroke-width = "1" fill = "#000000" />	<path d = "M320 311 L320 307 L316 307 L316 311 L320 311 Z" stroke = "#000000" stroke-width = "1" fill = "#000000" />	<path d = "M329 311 L329 307 L325 307 L325 311 L329 311 Z" stroke = "#000000" stroke-width = "1" fill = "#000000" />	<path d = "M338 311 L338 307 L334 307 L334 311 L338 311 Z" stroke = "#000000" stroke-width = "1" fill = "#000000" />	<path d = "M338 302 L338 298 L334 298 L334 302 L338 302 Z" stroke = "#000000" stroke-width = "1" fill = "#000000" />	<path d = "M338 293 L338 289 L334 289 L334 293 L338 293 Z" stroke = "#000000" stroke-width = "1" fill = "#000000" />	<path d = "M338 284 L338 280 L334 280 L334 284 L338 284 Z" stroke = "#000000" stroke-width = "1" fill = "#000000" />	<path d = "M329 302 L329 298 L325 298 L325 302 L329 302 Z" stroke = "#000000" stroke-width = "1" fill = "#000000" />	<path d = "M320 302 L320 298 L316 298 L316 302 L320 302 Z" stroke = "#000000" stroke-width = "1" fill = "#000000" />	<path d = "M311 302 L311 298 L307 298 L307 302 L311 302 Z" stroke = "#000000" stroke-width = "1" fill = "#000000" />	<path d = "M302 302 L302 298 L298 298 L298 302 L302 302 Z" stroke = "#000000" stroke-width = "1" fill = "#000000" />	<path d = "M203 293 L203 289 L199 289 L199 293 L203 293 Z" stroke = "#000000" stroke-width = "1" fill = "#000000" />	<path d = "M212 284 L212 280 L208 280 L208 284 L212 284 Z" stroke = "#000000" stroke-width = "1" fill = "#000000" />	<path d = "M212 275 L212 271 L208 271 L208 275 L212 275 Z" stroke = "#000000" stroke-width = "1" fill = "#000000" />	<path d = "M221 266 L221 262 L217 262 L217 266 L221 266 Z" stroke = "#000000" stroke-width = "1" fill = "#000000" />	<path d = "M212 266 L212 262 L208 262 L208 266 L212 266 Z" stroke = "#000000" stroke-width = "1" fill = "#000000" />	<path d = "M203 266 L203 262 L199 262 L199 266 L203 266 Z" stroke = "#000000" stroke-width = "1" fill = "#000000" />	<path d = "M194 266 L194 262 L190 262 L190 266 L194 266 Z" stroke = "#000000" stroke-width = "1" fill = "#000000" />	<path d = "M185 266 L185 262 L181 262 L181 266 L185 266 Z" stroke = "#000000" stroke-width = "1" fill = "#000000" />	<path d = "M176 266 L176 262 L172 262 L172 266 L176 266 Z" stroke = "#000000" stroke-width = "1" fill = "#000000" />	<path d = "M167 266 L167 262 L163 262 L163 266 L167 266 Z" stroke = "#000000" stroke-width = "1" fill = "#000000" />	<path d = "M158 266 L158 262 L154 262 L154 266 L158 266 Z" stroke = "#000000" stroke-width = "1" fill = "#000000" />	<path d = "M149 266 L149 262 L145 262 L145 266 L149 266 Z" stroke = "#000000" stroke-width = "1" fill = "#000000" />	<path d = "M140 266 L140 262 L136 262 L136 266 L140 266 Z" stroke = "#000000" stroke-width = "1" fill = "#000000" />	<path d = "M131 266 L131 262 L127 262 L127 266 L131 266 Z" stroke = "#000000" stroke-width = "1" fill = "#000000" />	<path d = "M122 266 L122 262 L118 262 L118 266 L122 266 Z" stroke = "#000000" stroke-width = "1" fill = "#000000" />	<path d = "M113 266 L113 262 L109 262 L109 266 L113 266 Z" stroke = "#000000" stroke-width = "1" fill = "#000000" />	<path d = "M104 266 L104 262 L100 262 L100 266 L104 266 Z" stroke = "#000000" stroke-width = "1" fill = "#000000" />	<path d = "M95 266 L95 262 L91 262 L91 266 L95 266 Z" stroke = "#000000" stroke-width = "1" fill = "#000000" />	<path d = "M86 266 L86 262 L82 262 L82 266 L86 266 Z" stroke = "#000000" stroke-width = "1" fill = "#000000" />	<path d = "M77 266 L77 262 L73 262 L73 266 L77 266 Z" stroke = "#000000" stroke-width = "1" fill = "#000000" />	<path d = "M68 266 L68 262 L64 262 L64 266 L68 266 Z" stroke = "#000000" stroke-width = "1" fill = "#000000" />	<path d = "M68 275 L68 271 L64 271 L64 275 L68 275 Z" stroke = "#000000" stroke-width = "1" fill = "#000000" />	<path d = "M68 284 L68 280 L64 280 L64 284 L68 284 Z" stroke = "#000000" stroke-width = "1" fill = "#000000" />	<path d = "M77 293 L77 289 L73 289 L73 293 L77 293 Z" stroke = "#000000" stroke-width = "1" fill = "#000000" />	<path d = "M77 302 L77 298 L73 298 L73 302 L77 302 Z" stroke = "#000000" stroke-width = "1" fill = "#000000" />	<path d = "M86 311 L86 307 L82 307 L82 311 L86 311 Z" stroke = "#000000" stroke-width = "1" fill = "#000000" />	<path d = "M86 320 L86 316 L82 316 L82 320 L86 320 Z" stroke = "#000000" stroke-width = "1" fill = "#000000" />	<path d = "M95 329 L95 325 L91 325 L91 329 L95 329 Z" stroke = "#000000" stroke-width = "1" fill = "#000000" />	<path d = "M95 338 L95 334 L91 334 L91 338 L95 338 Z" stroke = "#000000" stroke-width = "1" fill = "#000000" />	<path d = "M104 347 L104 343 L100 343 L100 347 L104 347 Z" stroke = "#000000" stroke-width = "1" fill = "#000000" />	<path d = "M104 356 L104 352 L100 352 L100 356 L104 356 Z" stroke = "#000000" stroke-width = "1" fill = "#000000" />	<path d = "M113 365 L113 361 L109 361 L109 365 L113 365 Z" stroke = "#000000" stroke-width = "1" fill = "#000000" />	<path d = "M113 374 L113 370 L109 370 L109 374 L113 374 Z" stroke = "#000000" stroke-width = "1" fill = "#000000" />	<path d = "M122 383 L122 379 L118 379 L118 383 L122 383 Z" stroke = "#000000" stroke-width = "1" fill = "#000000" />	<path d = "M122 392 L122 388 L118 388 L118 392 L122 392 Z" stroke = "#000000" stroke-width = "1" fill = "#000000" />	<path d = "M131 401 L131 397 L127 397 L127 401 L131 401 Z" stroke = "#000000" stroke-width = "1" fill = "#000000" />	<path d = "M131 410 L131 406 L127 406 L127 410 L131 410 Z" stroke = "#000000" stroke-width = "1" fill = "#000000" />	<path d = "M140 419 L140 415 L136 415 L136 419 L140 419 Z" stroke = "#000000" stroke-width = "1" fill = "#000000" />	<path d = "M140 410 L140 406 L136 406 L136 410 L140 410 Z" stroke = "#000000" stroke-width = "1" fill = "#000000" />	<path d = "M149 401 L149 397 L145 397 L145 401 L149 401 Z" stroke = "#000000" stroke-width = "1" fill = "#000000" />	<path d = "M149 392 L149 388 L145 388 L145 392 L149 392 Z" stroke = "#000000" stroke-width = "1" fill = "#000000" />	<path d = "M158 383 L158 379 L154 379 L154 383 L158 383 Z" stroke = "#000000" stroke-width = "1" fill = "#000000" />	<path d = "M158 374 L158 370 L154 370 L154 374 L158 374 Z" stroke = "#000000" stroke-width = "1" fill = "#000000" />	<path d = "M167 365 L167 361 L163 361 L163 365 L167 365 Z" stroke = "#000000" stroke-width = "1" fill = "#000000" />	<path d = "M167 356 L167 352 L163 352 L163 356 L167 356 Z" stroke = "#000000" stroke-width = "1" fill = "#000000" />	<path d = "M176 347 L176 343 L172 343 L172 347 L176 347 Z" stroke = "#000000" stroke-width = "1" fill = "#000000" />	<path d = "M176 338 L176 334 L172 334 L172 338 L176 338 Z" stroke = "#000000" stroke-width = "1" fill = "#000000" />	<path d = "M185 329 L185 325 L181 325 L181 329 L185 329 Z" stroke = "#000000" stroke-width = "1" fill = "#000000" />	<path d = "M185 320 L185 316 L181 316 L181 320 L185 320 Z" stroke = "#000000" stroke-width = "1" fill = "#000000" />	<path d = "M194 311 L194 307 L190 307 L190 311 L194 311 Z" stroke = "#000000" stroke-width = "1" fill = "#000000" />	<path d = "M194 302 L194 298 L190 298 L190 302 L194 302 Z" stroke = "#000000" stroke-width = "1" fill = "#000000" />	<path d = "M203 311 L203 307 L199 307 L199 311 L203 311 Z" stroke = "#000000" stroke-width = "1" fill = "#000000" />	<path d = "M194 320 L194 316 L190 316 L190 320 L194 320 Z" stroke = "#000000" stroke-width = "1" fill = "#000000" />	<path d = "M185 338 L185 334 L181 334 L181 338 L185 338 Z" stroke = "#000000" stroke-width = "1" fill = "#000000" />	<path d = "M176 356 L176 352 L172 352 L172 356 L176 356 Z" stroke = "#000000" stroke-width = "1" fill = "#000000" />	<path d = "M167 374 L167 370 L163 370 L163 374 L167 374 Z" stroke = "#000000" stroke-width = "1" fill = "#000000" />	<path d = "M158 392 L158 388 L154 388 L154 392 L158 392 Z" stroke = "#000000" stroke-width = "1" fill = "#000000" />	<path d = "M149 410 L149 406 L145 406 L145 410 L149 410 Z" stroke = "#000000" stroke-width = "1" fill = "#000000" />	<path d = "M149 419 L149 415 L145 415 L145 419 L149 419 Z" stroke = "#000000" stroke-width = "1" fill = "#000000" />	<path d = "M140 428 L140 424 L136 424 L136 428 L140 428 Z" stroke = "#000000" stroke-width = "1" fill = "#000000" />	<path d = "M140 437 L140 433 L136 433 L136 437 L140 437 Z" stroke = "#000000" stroke-width = "1" fill = "#000000" />	<path d = "M131 446 L131 442 L127 442 L127 446 L131 446 Z" stroke = "#000000" stroke-width = "1" fill = "#000000" />	<path d = "M122 446 L122 442 L118 442 L118 446 L122 446 Z" stroke = "#000000" stroke-width = "1" fill = "#000000" />	<path d = "M122 437 L122 433 L118 433 L118 437 L122 437 Z" stroke = "#000000" stroke-width = "1" fill = "#000000" />	<path d = "M122 428 L122 424 L118 424 L118 428 L122 428 Z" stroke = "#000000" stroke-width = "1" fill = "#000000" />	<path d = "M113 419 L113 415 L109 415 L109 419 L113 419 Z" stroke = "#000000" stroke-width = "1" fill = "#000000" />	<path d = "M113 410 L113 406 L109 406 L109 410 L113 410 Z" stroke = "#000000" stroke-width = "1" fill = "#000000" />	<path d = "M104 401 L104 397 L100 397 L100 401 L104 401 Z" stroke = "#000000" stroke-width = "1" fill = "#000000" />	<path d = "M104 392 L104 388 L100 388 L100 392 L104 392 Z" stroke = "#000000" stroke-width = "1" fill = "#000000" />	<path d = "M95 383 L95 379 L91 379 L91 383 L95 383 Z" stroke = "#000000" stroke-width = "1" fill = "#000000" />	<path d = "M95 374 L95 370 L91 370 L91 374 L95 374 Z" stroke = "#000000" stroke-width = "1" fill = "#000000" />	<path d = "M86 365 L86 361 L82 361 L82 365 L86 365 Z" stroke = "#000000" stroke-width = "1" fill = "#000000" />	<path d = "M86 356 L86 352 L82 352 L82 356 L86 356 Z" stroke = "#000000" stroke-width = "1" fill = "#000000" />	<path d = "M77 347 L77 343 L73 343 L73 347 L77 347 Z" stroke = "#000000" stroke-width = "1" fill = "#000000" />	<path d = "M77 338 L77 334 L73 334 L73 338 L77 338 Z" stroke = "#000000" stroke-width = "1" fill = "#000000" />	<path d = "M68 329 L68 325 L64 325 L64 329 L68 329 Z" stroke = "#000000" stroke-width = "1" fill = "#000000" />	<path d = "M68 320 L68 316 L64 316 L64 320 L68 320 Z" stroke = "#000000" stroke-width = "1" fill = "#000000" />	<path d = "M59 311 L59 307 L55 307 L55 311 L59 311 Z" stroke = "#000000" stroke-width = "1" fill = "#000000" />	<path d = "M59 302 L59 298 L55 298 L55 302 L59 302 Z" stroke = "#000000" stroke-width = "1" fill = "#000000" />	<path d = "M50 293 L50 289 L46 289 L46 293 L50 293 Z" stroke = "#000000" stroke-width = "1" fill = "#000000" />	<path d = "M50 284 L50 280 L46 280 L46 284 L50 284 Z" stroke = "#000000" stroke-width = "1" fill = "#000000" />	<path d = "M41 275 L41 271 L37 271 L37 275 L41 275 Z" stroke = "#000000" stroke-width = "1" fill = "#000000" />	<path d = "M41 266 L41 262 L37 262 L37 266 L41 266 Z" stroke = "#000000" stroke-width = "1" fill = "#000000" />	<path d = "M32 257 L32 253 L28 253 L28 257 L32 257 Z" stroke = "#000000" stroke-width = "1" fill = "#000000" />	<path d = "M32 248 L32 244 L28 244 L28 248 L32 248 Z" stroke = "#000000" stroke-width = "1" fill = "#000000" />	<path d = "M41 248 L41 244 L37 244 L37 248 L41 248 Z" stroke = "#000000" stroke-width = "1" fill = "#000000" />	<path d = "M50 248 L50 244 L46 244 L46 248 L50 248 Z" stroke = "#000000" stroke-width = "1" fill = "#000000" />	<path d = "M59 248 L59 244 L55 244 L55 248 L59 248 Z" stroke = "#000000" stroke-width = "1" fill = "#000000" />	<path d = "M68 248 L68 244 L64 244 L64 248 L68 248 Z" stroke = "#000000" stroke-width = "1" fill = "#000000" />	<path d = "M77 248 L77 244 L73 244 L73 248 L77 248 Z" stroke = "#000000" stroke-width = "1" fill = "#000000" />	<path d = "M86 248 L86 244 L82 244 L82 248 L86 248 Z" stroke = "#000000" stroke-width = "1" fill = "#000000" />	<path d = "M95 248 L95 244 L91 244 L91 248 L95 248 Z" stroke = "#000000" stroke-width = "1" fill = "#000000" />	<path d = "M104 248 L104 244 L100 244 L100 248 L104 248 Z" stroke = "#000000" stroke-width = "1" fill = "#000000" />	<path d = "M113 248 L113 244 L109 244 L109 248 L113 248 Z" stroke = "#000000" stroke-width = "1" fill = "#000000" />	<path d = "M122 248 L122 244 L118 244 L118 248 L122 248 Z" stroke = "#000000" stroke-width = "1" fill = "#000000" />	<path d = "M131 248 L131 244 L127 244 L127 248 L131 248 Z" stroke = "#000000" stroke-width = "1" fill = "#000000" />	<path d = "M140 248 L140 244 L136 244 L136 248 L140 248 Z" stroke = "#000000" stroke-width = "1" fill = "#000000" />	<path d = "M149 248 L149 244 L145 244 L145 248 L149 248 Z" stroke = "#000000" stroke-width = "1" fill = "#000000" />	<path d = "M158 248 L158 244 L154 244 L154 248 L158 248 Z" stroke = "#000000" stroke-width = "1" fill = "#000000" />	<path d = "M167 248 L167 244 L163 244 L163 248 L167 248 Z" stroke = "#000000" stroke-width = "1" fill = "#000000" />	<path d = "M176 248 L176 244 L172 244 L172 248 L176 248 Z" stroke = "#000000" stroke-width = "1" fill = "#000000" />	<path d = "M185 248 L185 244 L181 244 L181 248 L185 248 Z" stroke = "#000000" stroke-width = "1" fill = "#000000" />	<path d = "M194 248 L194 244 L190 244 L190 248 L194 248 Z" stroke = "#000000" stroke-width = "1" fill = "#000000" />	<path d = "M203 248 L203 244 L199 244 L199 248 L203 248 Z" stroke = "#000000" stroke-width = "1" fill = "#000000" />	<path d = "M212 248 L212 244 L208 244 L208 248 L212 248 Z" stroke = "#000000" stroke-width = "1" fill = "#000000" />	<path d = "M221 248 L221 244 L217 244 L217 248 L221 248 Z" stroke = "#000000" stroke-width = "1" fill = "#000000" />	<path d = "M230 248 L230 244 L226 244 L226 248 L230 248 Z" stroke = "#000000" stroke-width = "1" fill = "#000000" />	<path d = "M221 257 L221 253 L217 253 L217 257 L221 257 Z" stroke = "#000000" stroke-width = "1" fill = "#000000" />	<path d = "M401 284 L401 280 L397 280 L397 284 L401 284 Z" stroke = "#000000" stroke-width = "1" fill = "#000000" />	<path d = "M410 284 L410 280 L406 280 L406 284 L410 284 Z" stroke = "#000000" stroke-width = "1" fill = "#000000" />	<path d = "M419 284 L419 280 L415 280 L415 284 L419 284 Z" stroke = "#000000" stroke-width = "1" fill = "#000000" />	<path d = "M428 293 L428 289 L424 289 L424 293 L428 293 Z" stroke = "#000000" stroke-width = "1" fill = "#000000" />	<path d = "M428 302 L428 298 L424 298 L424 302 L428 302 Z" stroke = "#000000" stroke-width = "1" fill = "#000000" />	<path d = "M437 311 L437 307 L433 307 L433 311 L437 311 Z" stroke = "#000000" stroke-width = "1" fill = "#000000" />	<path d = "M437 320 L437 316 L433 316 L433 320 L437 320 Z" stroke = "#000000" stroke-width = "1" fill = "#000000" />	<path d = "M437 329 L437 325 L433 325 L433 329 L437 329 Z" stroke = "#000000" stroke-width = "1" fill = "#000000" />	<path d = "M437 338 L437 334 L433 334 L433 338 L437 338 Z" stroke = "#000000" stroke-width = "1" fill = "#000000" />	<path d = "M437 347 L437 343 L433 343 L433 347 L437 347 Z" stroke = "#000000" stroke-width = "1" fill = "#000000" />	<path d = "M446 356 L446 352 L442 352 L442 356 L446 356 Z" stroke = "#000000" stroke-width = "1" fill = "#000000" />	<path d = "M446 365 L446 361 L442 361 L442 365 L446 365 Z" stroke = "#000000" stroke-width = "1" fill = "#000000" />	<path d = "M455 374 L455 370 L451 370 L451 374 L455 374 Z" stroke = "#000000" stroke-width = "1" fill = "#000000" />	<path d = "M464 383 L464 379 L460 379 L460 383 L464 383 Z" stroke = "#000000" stroke-width = "1" fill = "#000000" />	<path d = "M473 392 L473 388 L469 388 L469 392 L473 392 Z" stroke = "#000000" stroke-width = "1" fill = "#000000" />	<path d = "M482 383 L482 379 L478 379 L478 383 L482 383 Z" stroke = "#000000" stroke-width = "1" fill = "#000000" />	<path d = "M482 374 L482 370 L478 370 L478 374 L482 374 Z" stroke = "#000000" stroke-width = "1" fill = "#000000" />	<path d = "M482 365 L482 361 L478 361 L478 365 L482 365 Z" stroke = "#000000" stroke-width = "1" fill = "#000000" />	<path d = "M482 356 L482 352 L478 352 L478 356 L482 356 Z" stroke = "#000000" stroke-width = "1" fill = "#000000" />	<path d = "M482 347 L482 343 L478 343 L478 347 L482 347 Z" stroke = "#000000" stroke-width = "1" fill = "#000000" />	<path d = "M482 338 L482 334 L478 334 L478 338 L482 338 Z" stroke = "#000000" stroke-width = "1" fill = "#000000" />	<path d = "M482 329 L482 325 L478 325 L478 329 L482 329 Z" stroke = "#000000" stroke-width = "1" fill = "#000000" />	<path d = "M482 320 L482 316 L478 316 L478 320 L482 320 Z" stroke = "#000000" stroke-width = "1" fill = "#000000" />	<path d = "M482 311 L482 307 L478 307 L478 311 L482 311 Z" stroke = "#000000" stroke-width = "1" fill = "#000000" />	<path d = "M482 302 L482 298 L478 298 L478 302 L482 302 Z" stroke = "#000000" stroke-width = "1" fill = "#000000" />	<path d = "M482 293 L482 289 L478 289 L478 293 L482 293 Z" stroke = "#000000" stroke-width = "1" fill = "#000000" />	<path d = "M482 284 L482 280 L478 280 L478 284 L482 284 Z" stroke = "#000000" stroke-width = "1" fill = "#000000" />	<path d = "M482 275 L482 271 L478 271 L478 275 L482 275 Z" stroke = "#000000" stroke-width = "1" fill = "#000000" />	<path d = "M482 266 L482 262 L478 262 L478 266 L482 266 Z" stroke = "#000000" stroke-width = "1" fill = "#000000" />	<path d = "M482 257 L482 253 L478 253 L478 257 L482 257 Z" stroke = "#000000" stroke-width = "1" fill = "#000000" />	<path d = "M482 248 L482 244 L478 244 L478 248 L482 248 Z" stroke = "#000000" stroke-width = "1" fill = "#000000" />	<path d = "M473 248 L473 244 L469 244 L469 248 L473 248 Z" stroke = "#000000" stroke-width = "1" fill = "#000000" />	<path d = "M464 248 L464 244 L460 244 L460 248 L464 248 Z" stroke = "#000000" stroke-width = "1" fill = "#000000" />	<path d = "M455 248 L455 244 L451 244 L451 248 L455 248 Z" stroke = "#000000" stroke-width = "1" fill = "#000000" />	<path d = "M446 248 L446 244 L442 244 L442 248 L446 248 Z" stroke = "#000000" stroke-width = "1" fill = "#000000" />	<path d = "M491 248 L491 244 L487 244 L487 248 L491 248 Z" stroke = "#000000" stroke-width = "1" fill = "#000000" />	<path d = "M500 248 L500 244 L496 244 L496 248 L500 248 Z" stroke = "#000000" stroke-width = "1" fill = "#000000" />	<path d = "M509 248 L509 244 L505 244 L505 248 L509 248 Z" stroke = "#000000" stroke-width = "1" fill = "#000000" />	<path d = "M518 248 L518 244 L514 244 L514 248 L518 248 Z" stroke = "#000000" stroke-width = "1" fill = "#000000" />	<path d = "M527 248 L527 244 L523 244 L523 248 L527 248 Z" stroke = "#000000" stroke-width = "1" fill = "#000000" />	<path d = "M536 248 L536 244 L532 244 L532 248 L536 248 Z" stroke = "#000000" stroke-width = "1" fill = "#000000" />	<path d = "M500 257 L500 253 L496 253 L496 257 L500 257 Z" stroke = "#000000" stroke-width = "1" fill = "#000000" />	<path d = "M500 266 L500 262 L496 262 L496 266 L500 266 Z" stroke = "#000000" stroke-width = "1" fill = "#000000" />	<path d = "M500 275 L500 271 L496 271 L496 275 L500 275 Z" stroke = "#000000" stroke-width = "1" fill = "#000000" />	<path d = "M500 284 L500 280 L496 280 L496 284 L500 284 Z" stroke = "#000000" stroke-width = "1" fill = "#000000" />	<path d = "M500 293 L500 289 L496 289 L496 293 L500 293 Z" stroke = "#000000" stroke-width = "1" fill = "#000000" />	<path d = "M500 302 L500 298 L496 298 L496 302 L500 302 Z" stroke = "#000000" stroke-width = "1" fill = "#000000" />	<path d = "M500 311 L500 307 L496 307 L496 311 L500 311 Z" stroke = "#000000" stroke-width = "1" fill = "#000000" />	<path d = "M500 320 L500 316 L496 316 L496 320 L500 320 Z" stroke = "#000000" stroke-width = "1" fill = "#000000" />	<path d = "M500 329 L500 325 L496 325 L496 329 L500 329 Z" stroke = "#000000" stroke-width = "1" fill = "#000000" />	<path d = "M500 338 L500 334 L496 334 L496 338 L500 338 Z" stroke = "#000000" stroke-width = "1" fill = "#000000" />	<path d = "M500 347 L500 343 L496 343 L496 347 L500 347 Z" stroke = "#000000" stroke-width = "1" fill = "#000000" />	<path d = "M500 356 L500 352 L496 352 L496 356 L500 356 Z" stroke = "#000000" stroke-width = "1" fill = "#000000" />	<path d = "M500 365 L500 361 L496 361 L496 365 L500 365 Z" stroke = "#000000" stroke-width = "1" fill = "#000000" />	<path d = "M500 374 L500 370 L496 370 L496 374 L500 374 Z" stroke = "#000000" stroke-width = "1" fill = "#000000" />	<path d = "M500 383 L500 379 L496 379 L496 383 L500 383 Z" stroke = "#000000" stroke-width = "1" fill = "#000000" />	<path d = "M509 392 L509 388 L505 388 L505 392 L509 392 Z" stroke = "#000000" stroke-width = "1" fill = "#000000" />	<path d = "M518 383 L518 379 L514 379 L514 383 L518 383 Z" stroke = "#000000" stroke-width = "1" fill = "#000000" />	<path d = "M527 374 L527 370 L523 370 L523 374 L527 374 Z" stroke = "#000000" stroke-width = "1" fill = "#000000" />	<path d = "M536 365 L536 361 L532 361 L532 365 L536 365 Z" stroke = "#000000" stroke-width = "1" fill = "#000000" />	<path d = "M536 356 L536 352 L532 352 L532 356 L536 356 Z" stroke = "#000000" stroke-width = "1" fill = "#000000" />	<path d = "M536 347 L536 343 L532 343 L532 347 L536 347 Z" stroke = "#000000" stroke-width = "1" fill = "#000000" />	<path d = "M545 338 L545 334 L541 334 L541 338 L545 338 Z" stroke = "#000000" stroke-width = "1" fill = "#000000" />	<path d = "M545 329 L545 325 L541 325 L541 329 L545 329 Z" stroke = "#000000" stroke-width = "1" fill = "#000000" />	<path d = "M545 320 L545 316 L541 316 L541 320 L545 320 Z" stroke = "#000000" stroke-width = "1" fill = "#000000" />	<path d = "M545 311 L545 307 L541 307 L541 311 L545 311 Z" stroke = "#000000" stroke-width = "1" fill = "#000000" />	<path d = "M545 302 L545 298 L541 298 L541 302 L545 302 Z" stroke = "#000000" stroke-width = "1" fill = "#000000" />	<path d = "M554 293 L554 289 L550 289 L550 293 L554 293 Z" stroke = "#000000" stroke-width = "1" fill = "#000000" />	<path d = "M563 293 L563 289 L559 289 L559 293 L563 293 Z" stroke = "#000000" stroke-width = "1" fill = "#000000" />	<path d = "M572 293 L572 289 L568 289 L568 293 L572 293 Z" stroke = "#000000" stroke-width = "1" fill = "#000000" />	<path d = "M581 293 L581 289 L577 289 L577 293 L581 293 Z" stroke = "#000000" stroke-width = "1" fill = "#000000" />	<path d = "M572 302 L572 298 L568 298 L568 302 L572 302 Z" stroke = "#000000" stroke-width = "1" fill = "#000000" />	<path d = "M563 311 L563 307 L559 307 L559 311 L563 311 Z" stroke = "#000000" stroke-width = "1" fill = "#000000" />	<path d = "M563 320 L563 316 L559 316 L559 320 L563 320 Z" stroke = "#000000" stroke-width = "1" fill = "#000000" />	<path d = "M563 329 L563 325 L559 325 L559 329 L563 329 Z" stroke = "#000000" stroke-width = "1" fill = "#000000" />	<path d = "M563 338 L563 334 L559 334 L559 338 L563 338 Z" stroke = "#000000" stroke-width = "1" fill = "#000000" />	<path d = "M563 347 L563 343 L559 343 L559 347 L563 347 Z" stroke = "#000000" stroke-width = "1" fill = "#000000" />	<path d = "M554 356 L554 352 L550 352 L550 356 L554 356 Z" stroke = "#000000" stroke-width = "1" fill = "#000000" />	<path d = "M554 365 L554 361 L550 361 L550 365 L554 365 Z" stroke = "#000000" stroke-width = "1" fill = "#000000" />	<path d = "M545 374 L545 370 L541 370 L541 374 L545 374 Z" stroke = "#000000" stroke-width = "1" fill = "#000000" />	<path d = "M536 383 L536 379 L532 379 L532 383 L536 383 Z" stroke = "#000000" stroke-width = "1" fill = "#000000" />	<path d = "M527 392 L527 388 L523 388 L523 392 L527 392 Z" stroke = "#000000" stroke-width = "1" fill = "#000000" />	<path d = "M518 392 L518 388 L514 388 L514 392 L518 392 Z" stroke = "#000000" stroke-width = "1" fill = "#000000" />	<path d = "M500 401 L500 397 L496 397 L496 401 L500 401 Z" stroke = "#000000" stroke-width = "1" fill = "#000000" />	<path d = "M500 410 L500 406 L496 406 L496 410 L500 410 Z" stroke = "#000000" stroke-width = "1" fill = "#000000" />	<path d = "M500 419 L500 415 L496 415 L496 419 L500 419 Z" stroke = "#000000" stroke-width = "1" fill = "#000000" />	<path d = "M500 428 L500 424 L496 424 L496 428 L500 428 Z" stroke = "#000000" stroke-width = "1" fill = "#000000" />	<path d = "M509 437 L509 433 L505 433 L505 437 L509 437 Z" stroke = "#000000" stroke-width = "1" fill = "#000000" />	<path d = "M518 437 L518 433 L514 433 L514 437 L518 437 Z" stroke = "#000000" stroke-width = "1" fill = "#000000" />	<path d = "M527 437 L527 433 L523 433 L523 437 L527 437 Z" stroke = "#000000" stroke-width = "1" fill = "#000000" />	<path d = "M536 437 L536 433 L532 433 L532 437 L536 437 Z" stroke = "#000000" stroke-width = "1" fill = "#000000" />	<path d = "M500 437 L500 433 L496 433 L496 437 L500 437 Z" stroke = "#000000" stroke-width = "1" fill = "#000000" />	<path d = "M491 437 L491 433 L487 433 L487 437 L491 437 Z" stroke = "#000000" stroke-width = "1" fill = "#000000" />	<path d = "M482 437 L482 433 L478 433 L478 437 L482 437 Z" stroke = "#000000" stroke-width = "1" fill = "#000000" />	<path d = "M473 437 L473 433 L469 433 L469 437 L473 437 Z" stroke = "#000000" stroke-width = "1" fill = "#000000" />	<path d = "M464 437 L464 433 L460 433 L460 437 L464 437 Z" stroke = "#000000" stroke-width = "1" fill = "#000000" />	<path d = "M455 437 L455 433 L451 433 L451 437 L455 437 Z" stroke = "#000000" stroke-width = "1" fill = "#000000" />	<path d = "M446 437 L446 433 L442 433 L442 437 L446 437 Z" stroke = "#000000" stroke-width = "1" fill = "#000000" />	<path d = "M482 428 L482 424 L478 424 L478 428 L482 428 Z" stroke = "#000000" stroke-width = "1" fill = "#000000" />	<path d = "M482 419 L482 415 L478 415 L478 419 L482 419 Z" stroke = "#000000" stroke-width = "1" fill = "#000000" />	<path d = "M482 410 L482 406 L478 406 L478 410 L482 410 Z" stroke = "#000000" stroke-width = "1" fill = "#000000" />	<path d = "M482 401 L482 397 L478 397 L478 401 L482 401 Z" stroke = "#000000" stroke-width = "1" fill = "#000000" />	<path d = "M464 392 L464 388 L460 388 L460 392 L464 392 Z" stroke = "#000000" stroke-width = "1" fill = "#000000" />	<path d = "M455 392 L455 388 L451 388 L451 392 L455 392 Z" stroke = "#000000" stroke-width = "1" fill = "#000000" />	<path d = "M446 383 L446 379 L442 379 L442 383 L446 383 Z" stroke = "#000000" stroke-width = "1" fill = "#000000" />	<path d = "M437 383 L437 379 L433 379 L433 383 L437 383 Z" stroke = "#000000" stroke-width = "1" fill = "#000000" />	<path d = "M428 374 L428 370 L424 370 L424 374 L428 374 Z" stroke = "#000000" stroke-width = "1" fill = "#000000" />	<path d = "M419 365 L419 361 L415 361 L415 365 L419 365 Z" stroke = "#000000" stroke-width = "1" fill = "#000000" />	<path d = "M419 356 L419 352 L415 352 L415 356 L419 356 Z" stroke = "#000000" stroke-width = "1" fill = "#000000" />	<path d = "M419 347 L419 343 L415 343 L415 347 L419 347 Z" stroke = "#000000" stroke-width = "1" fill = "#000000" />	<path d = "M419 338 L419 334 L415 334 L415 338 L419 338 Z" stroke = "#000000" stroke-width = "1" fill = "#000000" />	<path d = "M410 329 L410 325 L406 325 L406 329 L410 329 Z" stroke = "#000000" stroke-width = "1" fill = "#000000" />	<path d = "M410 320 L410 316 L406 316 L406 320 L410 320 Z" stroke = "#000000" stroke-width = "1" fill = "#000000" />	<path d = "M410 311 L410 307 L406 307 L406 311 L410 311 Z" stroke = "#000000" stroke-width = "1" fill = "#000000" />	<path d = "M410 302 L410 298 L406 298 L406 302 L410 302 Z" stroke = "#000000" stroke-width = "1" fill = "#000000" />	<path d = "M401 293 L401 289 L397 289 L397 293 L401 293 Z" stroke = "#000000" stroke-width = "1" fill = "#000000" /></svg>