<svg width="600" height="600" viewbox = "0 0 600 600"  xmlns="http://www.w3.org/2000/svg">
<!--<json>{
  "shapes": [],
  "glyph": "0506,0506,0506,0506,0506,0506,0506,0506,0500,0500,0500,0507,0500,0500,0500,0507,0500,0503,0504,0503,0503,0504,0503,0503,0503,0503,0503,0503,0505,0503,0503,0505,0503,0505,0503,0501,0507,0501,0501,0507,0501,0501,0501,0501,0506,0501,0501,0506,0501,0506,0501,0505,0502,0502,0505,0502,0502,0502,0502,0502,0502,0504,0502,0502,0504,0502,0504,0502,0504,0502,0500,0506,0500,0500,0506,0506,0502,0500,0500,0500,0500,0507,0500,0500,0507,0500,0507,0500,0507,0500,0507,0500,0503,0503,0504,0502,0502,0504,0502,0504,0502,0504,0502,0500,0506,0500,0500,0500,0500,0500,0500,0503,0503,0503,0501,0501,0501,0501,0507,0501,0501,0507,0501,0507,0501,0505,0503,0503,0503,0503,0503,0503,0503,0504,0503,0504,0503,0504,0503,0507,0500,0500,0507,0500,0500,0500,0500,0503,0503,0503,0501,0501,0501,0501,0501,0506,0501,0501,0506,0501,0506,0501,0502,0505,0502,0502,0507,0505,0503,0505,0503,0505,0503,0505,0503,0501,0507,0501,0501,0501,0507,0501,0501,0501,0506,0501,0501,0506,0501,0501,0506,0501,0506,0501,0506,0501,0506,0501,0502,0505,0502,0502,0502,0501,0501,0501,0501,0501,0503,0503,0503,0503,0503,0501,0501,0501,0502,0502,0502,0502,0502,0501,0501,0501,0501,0501,0502,0502,0502,0500,0500,0500,0500,0500,0502,0502,0502,0502,0502,0500,0500,0500,0503,0503,0503,0503,0503,0500,0500,0500,0500,0500,0502,0502,0502,0502,0504,0502,0504,0502,0504,0502,0504,0502,0506,0500,0506,0500,0500,0500,0507,0507,0507,0507,0504,0507,0507,0507,0507,0507,0507,0507,",
  "x0": 300,
  "y0": 300,
  "unit": 72,
  "width": 600,
  "height": 600,
  "style": {
    "color0": "black",
    "fill0": "black",
    "line0": 1,
    "color1": "black",
    "fill1": "black",
    "line1": 5,
    "color2": "red",
    "fill2": "red",
    "line2": 1,
    "color3": "#FF7900",
    "fill3": "#FF7900",
    "line3": 1,
    "color4": "yellow",
    "fill4": "yellow",
    "line4": 1,
    "color5": "green",
    "fill5": "green",
    "line5": 1,
    "color6": "blue",
    "fill6": "blue",
    "line6": 1,
    "color7": "purple",
    "fill7": "purple",
    "line7": 1
  }
}</json>-->	<path d = "M230 293 L230 289 L226 289 L226 293 L230 293 Z" stroke = "#000000" stroke-width = "1" fill = "#000000" />	<path d = "M230 284 L230 280 L226 280 L226 284 L230 284 Z" stroke = "#000000" stroke-width = "1" fill = "#000000" />	<path d = "M230 275 L230 271 L226 271 L226 275 L230 275 Z" stroke = "#000000" stroke-width = "1" fill = "#000000" />	<path d = "M239 266 L239 262 L235 262 L235 266 L239 266 Z" stroke = "#000000" stroke-width = "1" fill = "#000000" />	<path d = "M239 257 L239 253 L235 253 L235 257 L239 257 Z" stroke = "#000000" stroke-width = "1" fill = "#000000" />	<path d = "M239 248 L239 244 L235 244 L235 248 L239 248 Z" stroke = "#000000" stroke-width = "1" fill = "#000000" />	<path d = "M248 239 L248 235 L244 235 L244 239 L248 239 Z" stroke = "#000000" stroke-width = "1" fill = "#000000" />	<path d = "M257 239 L257 235 L253 235 L253 239 L257 239 Z" stroke = "#000000" stroke-width = "1" fill = "#000000" />	<path d = "M266 230 L266 226 L262 226 L262 230 L266 230 Z" stroke = "#000000" stroke-width = "1" fill = "#000000" />	<path d = "M275 230 L275 226 L271 226 L271 230 L275 230 Z" stroke = "#000000" stroke-width = "1" fill = "#000000" />	<path d = "M284 221 L284 217 L280 217 L280 221 L284 221 Z" stroke = "#000000" stroke-width = "1" fill = "#000000" />	<path d = "M293 221 L293 217 L289 217 L289 221 L293 221 Z" stroke = "#000000" stroke-width = "1" fill = "#000000" />	<path d = "M302 221 L302 217 L298 217 L298 221 L302 221 Z" stroke = "#000000" stroke-width = "1" fill = "#000000" />	<path d = "M311 221 L311 217 L307 217 L307 221 L311 221 Z" stroke = "#000000" stroke-width = "1" fill = "#000000" />	<path d = "M320 221 L320 217 L316 217 L316 221 L320 221 Z" stroke = "#000000" stroke-width = "1" fill = "#000000" />	<path d = "M329 221 L329 217 L325 217 L325 221 L329 221 Z" stroke = "#000000" stroke-width = "1" fill = "#000000" />	<path d = "M338 230 L338 226 L334 226 L334 230 L338 230 Z" stroke = "#000000" stroke-width = "1" fill = "#000000" />	<path d = "M347 230 L347 226 L343 226 L343 230 L347 230 Z" stroke = "#000000" stroke-width = "1" fill = "#000000" />	<path d = "M356 239 L356 235 L352 235 L352 239 L356 239 Z" stroke = "#000000" stroke-width = "1" fill = "#000000" />	<path d = "M365 248 L365 244 L361 244 L361 248 L365 248 Z" stroke = "#000000" stroke-width = "1" fill = "#000000" />	<path d = "M365 257 L365 253 L361 253 L361 257 L365 257 Z" stroke = "#000000" stroke-width = "1" fill = "#000000" />	<path d = "M374 266 L374 262 L370 262 L370 266 L374 266 Z" stroke = "#000000" stroke-width = "1" fill = "#000000" />	<path d = "M374 275 L374 271 L370 271 L370 275 L374 275 Z" stroke = "#000000" stroke-width = "1" fill = "#000000" />	<path d = "M383 284 L383 280 L379 280 L379 284 L383 284 Z" stroke = "#000000" stroke-width = "1" fill = "#000000" />	<path d = "M383 293 L383 289 L379 289 L379 293 L383 293 Z" stroke = "#000000" stroke-width = "1" fill = "#000000" />	<path d = "M383 302 L383 298 L379 298 L379 302 L383 302 Z" stroke = "#000000" stroke-width = "1" fill = "#000000" />	<path d = "M383 311 L383 307 L379 307 L379 311 L383 311 Z" stroke = "#000000" stroke-width = "1" fill = "#000000" />	<path d = "M374 320 L374 316 L370 316 L370 320 L374 320 Z" stroke = "#000000" stroke-width = "1" fill = "#000000" />	<path d = "M374 329 L374 325 L370 325 L370 329 L374 329 Z" stroke = "#000000" stroke-width = "1" fill = "#000000" />	<path d = "M365 338 L365 334 L361 334 L361 338 L365 338 Z" stroke = "#000000" stroke-width = "1" fill = "#000000" />	<path d = "M356 347 L356 343 L352 343 L352 347 L356 347 Z" stroke = "#000000" stroke-width = "1" fill = "#000000" />	<path d = "M347 356 L347 352 L343 352 L343 356 L347 356 Z" stroke = "#000000" stroke-width = "1" fill = "#000000" />	<path d = "M338 356 L338 352 L334 352 L334 356 L338 356 Z" stroke = "#000000" stroke-width = "1" fill = "#000000" />	<path d = "M329 365 L329 361 L325 361 L325 365 L329 365 Z" stroke = "#000000" stroke-width = "1" fill = "#000000" />	<path d = "M320 365 L320 361 L316 361 L316 365 L320 365 Z" stroke = "#000000" stroke-width = "1" fill = "#000000" />	<path d = "M311 365 L311 361 L307 361 L307 365 L311 365 Z" stroke = "#000000" stroke-width = "1" fill = "#000000" />	<path d = "M302 365 L302 361 L298 361 L298 365 L302 365 Z" stroke = "#000000" stroke-width = "1" fill = "#000000" />	<path d = "M293 365 L293 361 L289 361 L289 365 L293 365 Z" stroke = "#000000" stroke-width = "1" fill = "#000000" />	<path d = "M284 365 L284 361 L280 361 L280 365 L284 365 Z" stroke = "#000000" stroke-width = "1" fill = "#000000" />	<path d = "M275 356 L275 352 L271 352 L271 356 L275 356 Z" stroke = "#000000" stroke-width = "1" fill = "#000000" />	<path d = "M266 356 L266 352 L262 352 L262 356 L266 356 Z" stroke = "#000000" stroke-width = "1" fill = "#000000" />	<path d = "M257 347 L257 343 L253 343 L253 347 L257 347 Z" stroke = "#000000" stroke-width = "1" fill = "#000000" />	<path d = "M248 338 L248 334 L244 334 L244 338 L248 338 Z" stroke = "#000000" stroke-width = "1" fill = "#000000" />	<path d = "M239 329 L239 325 L235 325 L235 329 L239 329 Z" stroke = "#000000" stroke-width = "1" fill = "#000000" />	<path d = "M239 320 L239 316 L235 316 L235 320 L239 320 Z" stroke = "#000000" stroke-width = "1" fill = "#000000" />	<path d = "M230 311 L230 307 L226 307 L226 311 L230 311 Z" stroke = "#000000" stroke-width = "1" fill = "#000000" />	<path d = "M230 302 L230 298 L226 298 L226 302 L230 302 Z" stroke = "#000000" stroke-width = "1" fill = "#000000" />	<path d = "M203 302 L203 298 L199 298 L199 302 L203 302 Z" stroke = "#000000" stroke-width = "1" fill = "#000000" />	<path d = "M203 293 L203 289 L199 289 L199 293 L203 293 Z" stroke = "#000000" stroke-width = "1" fill = "#000000" />	<path d = "M203 284 L203 280 L199 280 L199 284 L203 284 Z" stroke = "#000000" stroke-width = "1" fill = "#000000" />	<path d = "M203 275 L203 271 L199 271 L199 275 L203 275 Z" stroke = "#000000" stroke-width = "1" fill = "#000000" />	<path d = "M203 266 L203 262 L199 262 L199 266 L203 266 Z" stroke = "#000000" stroke-width = "1" fill = "#000000" />	<path d = "M212 257 L212 253 L208 253 L208 257 L212 257 Z" stroke = "#000000" stroke-width = "1" fill = "#000000" />	<path d = "M212 248 L212 244 L208 244 L208 248 L212 248 Z" stroke = "#000000" stroke-width = "1" fill = "#000000" />	<path d = "M221 239 L221 235 L217 235 L217 239 L221 239 Z" stroke = "#000000" stroke-width = "1" fill = "#000000" />	<path d = "M230 230 L230 226 L226 226 L226 230 L230 230 Z" stroke = "#000000" stroke-width = "1" fill = "#000000" />	<path d = "M239 221 L239 217 L235 217 L235 221 L239 221 Z" stroke = "#000000" stroke-width = "1" fill = "#000000" />	<path d = "M248 212 L248 208 L244 208 L244 212 L248 212 Z" stroke = "#000000" stroke-width = "1" fill = "#000000" />	<path d = "M257 212 L257 208 L253 208 L253 212 L257 212 Z" stroke = "#000000" stroke-width = "1" fill = "#000000" />	<path d = "M266 212 L266 208 L262 208 L262 212 L266 212 Z" stroke = "#000000" stroke-width = "1" fill = "#000000" />	<path d = "M257 203 L257 199 L253 199 L253 203 L257 203 Z" stroke = "#000000" stroke-width = "1" fill = "#000000" />	<path d = "M248 203 L248 199 L244 199 L244 203 L248 203 Z" stroke = "#000000" stroke-width = "1" fill = "#000000" />	<path d = "M239 194 L239 190 L235 190 L235 194 L239 194 Z" stroke = "#000000" stroke-width = "1" fill = "#000000" />	<path d = "M230 185 L230 181 L226 181 L226 185 L230 185 Z" stroke = "#000000" stroke-width = "1" fill = "#000000" />	<path d = "M221 176 L221 172 L217 172 L217 176 L221 176 Z" stroke = "#000000" stroke-width = "1" fill = "#000000" />	<path d = "M221 167 L221 163 L217 163 L217 167 L221 167 Z" stroke = "#000000" stroke-width = "1" fill = "#000000" />	<path d = "M212 158 L212 154 L208 154 L208 158 L212 158 Z" stroke = "#000000" stroke-width = "1" fill = "#000000" />	<path d = "M212 149 L212 145 L208 145 L208 149 L212 149 Z" stroke = "#000000" stroke-width = "1" fill = "#000000" />	<path d = "M212 140 L212 136 L208 136 L208 140 L212 140 Z" stroke = "#000000" stroke-width = "1" fill = "#000000" />	<path d = "M212 131 L212 127 L208 127 L208 131 L212 131 Z" stroke = "#000000" stroke-width = "1" fill = "#000000" />	<path d = "M212 122 L212 118 L208 118 L208 122 L212 122 Z" stroke = "#000000" stroke-width = "1" fill = "#000000" />	<path d = "M212 113 L212 109 L208 109 L208 113 L212 113 Z" stroke = "#000000" stroke-width = "1" fill = "#000000" />	<path d = "M221 113 L221 109 L217 109 L217 113 L221 113 Z" stroke = "#000000" stroke-width = "1" fill = "#000000" />	<path d = "M230 113 L230 109 L226 109 L226 113 L230 113 Z" stroke = "#000000" stroke-width = "1" fill = "#000000" />	<path d = "M239 113 L239 109 L235 109 L235 113 L239 113 Z" stroke = "#000000" stroke-width = "1" fill = "#000000" />	<path d = "M239 122 L239 118 L235 118 L235 122 L239 122 Z" stroke = "#000000" stroke-width = "1" fill = "#000000" />	<path d = "M239 131 L239 127 L235 127 L235 131 L239 131 Z" stroke = "#000000" stroke-width = "1" fill = "#000000" />	<path d = "M239 140 L239 136 L235 136 L235 140 L239 140 Z" stroke = "#000000" stroke-width = "1" fill = "#000000" />	<path d = "M239 149 L239 145 L235 145 L235 149 L239 149 Z" stroke = "#000000" stroke-width = "1" fill = "#000000" />	<path d = "M248 158 L248 154 L244 154 L244 158 L248 158 Z" stroke = "#000000" stroke-width = "1" fill = "#000000" />	<path d = "M248 167 L248 163 L244 163 L244 167 L248 167 Z" stroke = "#000000" stroke-width = "1" fill = "#000000" />	<path d = "M257 176 L257 172 L253 172 L253 176 L257 176 Z" stroke = "#000000" stroke-width = "1" fill = "#000000" />	<path d = "M266 185 L266 181 L262 181 L262 185 L266 185 Z" stroke = "#000000" stroke-width = "1" fill = "#000000" />	<path d = "M275 194 L275 190 L271 190 L271 194 L275 194 Z" stroke = "#000000" stroke-width = "1" fill = "#000000" />	<path d = "M284 194 L284 190 L280 190 L280 194 L284 194 Z" stroke = "#000000" stroke-width = "1" fill = "#000000" />	<path d = "M293 194 L293 190 L289 190 L289 194 L293 194 Z" stroke = "#000000" stroke-width = "1" fill = "#000000" />	<path d = "M302 194 L302 190 L298 190 L298 194 L302 194 Z" stroke = "#000000" stroke-width = "1" fill = "#000000" />	<path d = "M311 194 L311 190 L307 190 L307 194 L311 194 Z" stroke = "#000000" stroke-width = "1" fill = "#000000" />	<path d = "M320 194 L320 190 L316 190 L316 194 L320 194 Z" stroke = "#000000" stroke-width = "1" fill = "#000000" />	<path d = "M329 194 L329 190 L325 190 L325 194 L329 194 Z" stroke = "#000000" stroke-width = "1" fill = "#000000" />	<path d = "M338 185 L338 181 L334 181 L334 185 L338 185 Z" stroke = "#000000" stroke-width = "1" fill = "#000000" />	<path d = "M347 176 L347 172 L343 172 L343 176 L347 176 Z" stroke = "#000000" stroke-width = "1" fill = "#000000" />	<path d = "M356 167 L356 163 L352 163 L352 167 L356 167 Z" stroke = "#000000" stroke-width = "1" fill = "#000000" />	<path d = "M365 158 L365 154 L361 154 L361 158 L365 158 Z" stroke = "#000000" stroke-width = "1" fill = "#000000" />	<path d = "M365 149 L365 145 L361 145 L361 149 L365 149 Z" stroke = "#000000" stroke-width = "1" fill = "#000000" />	<path d = "M374 140 L374 136 L370 136 L370 140 L374 140 Z" stroke = "#000000" stroke-width = "1" fill = "#000000" />	<path d = "M374 131 L374 127 L370 127 L370 131 L374 131 Z" stroke = "#000000" stroke-width = "1" fill = "#000000" />	<path d = "M374 122 L374 118 L370 118 L370 122 L374 122 Z" stroke = "#000000" stroke-width = "1" fill = "#000000" />	<path d = "M374 113 L374 109 L370 109 L370 113 L374 113 Z" stroke = "#000000" stroke-width = "1" fill = "#000000" />	<path d = "M383 113 L383 109 L379 109 L379 113 L383 113 Z" stroke = "#000000" stroke-width = "1" fill = "#000000" />	<path d = "M392 113 L392 109 L388 109 L388 113 L392 113 Z" stroke = "#000000" stroke-width = "1" fill = "#000000" />	<path d = "M401 113 L401 109 L397 109 L397 113 L401 113 Z" stroke = "#000000" stroke-width = "1" fill = "#000000" />	<path d = "M401 122 L401 118 L397 118 L397 122 L401 122 Z" stroke = "#000000" stroke-width = "1" fill = "#000000" />	<path d = "M401 131 L401 127 L397 127 L397 131 L401 131 Z" stroke = "#000000" stroke-width = "1" fill = "#000000" />	<path d = "M401 140 L401 136 L397 136 L397 140 L401 140 Z" stroke = "#000000" stroke-width = "1" fill = "#000000" />	<path d = "M401 149 L401 145 L397 145 L397 149 L401 149 Z" stroke = "#000000" stroke-width = "1" fill = "#000000" />	<path d = "M401 158 L401 154 L397 154 L397 158 L401 158 Z" stroke = "#000000" stroke-width = "1" fill = "#000000" />	<path d = "M392 167 L392 163 L388 163 L388 167 L392 167 Z" stroke = "#000000" stroke-width = "1" fill = "#000000" />	<path d = "M392 176 L392 172 L388 172 L388 176 L392 176 Z" stroke = "#000000" stroke-width = "1" fill = "#000000" />	<path d = "M383 185 L383 181 L379 181 L379 185 L383 185 Z" stroke = "#000000" stroke-width = "1" fill = "#000000" />	<path d = "M374 194 L374 190 L370 190 L370 194 L374 194 Z" stroke = "#000000" stroke-width = "1" fill = "#000000" />	<path d = "M365 194 L365 190 L361 190 L361 194 L365 194 Z" stroke = "#000000" stroke-width = "1" fill = "#000000" />	<path d = "M356 203 L356 199 L352 199 L352 203 L356 203 Z" stroke = "#000000" stroke-width = "1" fill = "#000000" />	<path d = "M347 203 L347 199 L343 199 L343 203 L347 203 Z" stroke = "#000000" stroke-width = "1" fill = "#000000" />	<path d = "M365 212 L365 208 L361 208 L361 212 L365 212 Z" stroke = "#000000" stroke-width = "1" fill = "#000000" />	<path d = "M374 221 L374 217 L370 217 L370 221 L374 221 Z" stroke = "#000000" stroke-width = "1" fill = "#000000" />	<path d = "M383 230 L383 226 L379 226 L379 230 L383 230 Z" stroke = "#000000" stroke-width = "1" fill = "#000000" />	<path d = "M392 239 L392 235 L388 235 L388 239 L392 239 Z" stroke = "#000000" stroke-width = "1" fill = "#000000" />	<path d = "M392 248 L392 244 L388 244 L388 248 L392 248 Z" stroke = "#000000" stroke-width = "1" fill = "#000000" />	<path d = "M401 257 L401 253 L397 253 L397 257 L401 257 Z" stroke = "#000000" stroke-width = "1" fill = "#000000" />	<path d = "M401 266 L401 262 L397 262 L397 266 L401 266 Z" stroke = "#000000" stroke-width = "1" fill = "#000000" />	<path d = "M401 275 L401 271 L397 271 L397 275 L401 275 Z" stroke = "#000000" stroke-width = "1" fill = "#000000" />	<path d = "M410 284 L410 280 L406 280 L406 284 L410 284 Z" stroke = "#000000" stroke-width = "1" fill = "#000000" />	<path d = "M410 293 L410 289 L406 289 L406 293 L410 293 Z" stroke = "#000000" stroke-width = "1" fill = "#000000" />	<path d = "M410 302 L410 298 L406 298 L406 302 L410 302 Z" stroke = "#000000" stroke-width = "1" fill = "#000000" />	<path d = "M401 311 L401 307 L397 307 L397 311 L401 311 Z" stroke = "#000000" stroke-width = "1" fill = "#000000" />	<path d = "M401 320 L401 316 L397 316 L397 320 L401 320 Z" stroke = "#000000" stroke-width = "1" fill = "#000000" />	<path d = "M392 329 L392 325 L388 325 L388 329 L392 329 Z" stroke = "#000000" stroke-width = "1" fill = "#000000" />	<path d = "M392 338 L392 334 L388 334 L388 338 L392 338 Z" stroke = "#000000" stroke-width = "1" fill = "#000000" />	<path d = "M383 347 L383 343 L379 343 L379 347 L383 347 Z" stroke = "#000000" stroke-width = "1" fill = "#000000" />	<path d = "M374 356 L374 352 L370 352 L370 356 L374 356 Z" stroke = "#000000" stroke-width = "1" fill = "#000000" />	<path d = "M365 365 L365 361 L361 361 L361 365 L365 365 Z" stroke = "#000000" stroke-width = "1" fill = "#000000" />	<path d = "M356 374 L356 370 L352 370 L352 374 L356 374 Z" stroke = "#000000" stroke-width = "1" fill = "#000000" />	<path d = "M347 374 L347 370 L343 370 L343 374 L347 374 Z" stroke = "#000000" stroke-width = "1" fill = "#000000" />	<path d = "M338 383 L338 379 L334 379 L334 383 L338 383 Z" stroke = "#000000" stroke-width = "1" fill = "#000000" />	<path d = "M329 383 L329 379 L325 379 L325 383 L329 383 Z" stroke = "#000000" stroke-width = "1" fill = "#000000" />	<path d = "M320 383 L320 379 L316 379 L316 383 L320 383 Z" stroke = "#000000" stroke-width = "1" fill = "#000000" />	<path d = "M320 392 L320 388 L316 388 L316 392 L320 392 Z" stroke = "#000000" stroke-width = "1" fill = "#000000" />	<path d = "M320 401 L320 397 L316 397 L316 401 L320 401 Z" stroke = "#000000" stroke-width = "1" fill = "#000000" />	<path d = "M320 410 L320 406 L316 406 L316 410 L320 410 Z" stroke = "#000000" stroke-width = "1" fill = "#000000" />	<path d = "M320 419 L320 415 L316 415 L316 419 L320 419 Z" stroke = "#000000" stroke-width = "1" fill = "#000000" />	<path d = "M320 428 L320 424 L316 424 L316 428 L320 428 Z" stroke = "#000000" stroke-width = "1" fill = "#000000" />	<path d = "M329 428 L329 424 L325 424 L325 428 L329 428 Z" stroke = "#000000" stroke-width = "1" fill = "#000000" />	<path d = "M338 428 L338 424 L334 424 L334 428 L338 428 Z" stroke = "#000000" stroke-width = "1" fill = "#000000" />	<path d = "M347 428 L347 424 L343 424 L343 428 L347 428 Z" stroke = "#000000" stroke-width = "1" fill = "#000000" />	<path d = "M356 428 L356 424 L352 424 L352 428 L356 428 Z" stroke = "#000000" stroke-width = "1" fill = "#000000" />	<path d = "M365 428 L365 424 L361 424 L361 428 L365 428 Z" stroke = "#000000" stroke-width = "1" fill = "#000000" />	<path d = "M365 437 L365 433 L361 433 L361 437 L365 437 Z" stroke = "#000000" stroke-width = "1" fill = "#000000" />	<path d = "M365 446 L365 442 L361 442 L361 446 L365 446 Z" stroke = "#000000" stroke-width = "1" fill = "#000000" />	<path d = "M365 455 L365 451 L361 451 L361 455 L365 455 Z" stroke = "#000000" stroke-width = "1" fill = "#000000" />	<path d = "M356 455 L356 451 L352 451 L352 455 L356 455 Z" stroke = "#000000" stroke-width = "1" fill = "#000000" />	<path d = "M347 455 L347 451 L343 451 L343 455 L347 455 Z" stroke = "#000000" stroke-width = "1" fill = "#000000" />	<path d = "M338 455 L338 451 L334 451 L334 455 L338 455 Z" stroke = "#000000" stroke-width = "1" fill = "#000000" />	<path d = "M329 455 L329 451 L325 451 L325 455 L329 455 Z" stroke = "#000000" stroke-width = "1" fill = "#000000" />	<path d = "M320 455 L320 451 L316 451 L316 455 L320 455 Z" stroke = "#000000" stroke-width = "1" fill = "#000000" />	<path d = "M320 464 L320 460 L316 460 L316 464 L320 464 Z" stroke = "#000000" stroke-width = "1" fill = "#000000" />	<path d = "M320 473 L320 469 L316 469 L316 473 L320 473 Z" stroke = "#000000" stroke-width = "1" fill = "#000000" />	<path d = "M320 482 L320 478 L316 478 L316 482 L320 482 Z" stroke = "#000000" stroke-width = "1" fill = "#000000" />	<path d = "M320 491 L320 487 L316 487 L316 491 L320 491 Z" stroke = "#000000" stroke-width = "1" fill = "#000000" />	<path d = "M320 500 L320 496 L316 496 L316 500 L320 500 Z" stroke = "#000000" stroke-width = "1" fill = "#000000" />	<path d = "M311 500 L311 496 L307 496 L307 500 L311 500 Z" stroke = "#000000" stroke-width = "1" fill = "#000000" />	<path d = "M302 500 L302 496 L298 496 L298 500 L302 500 Z" stroke = "#000000" stroke-width = "1" fill = "#000000" />	<path d = "M293 500 L293 496 L289 496 L289 500 L293 500 Z" stroke = "#000000" stroke-width = "1" fill = "#000000" />	<path d = "M293 491 L293 487 L289 487 L289 491 L293 491 Z" stroke = "#000000" stroke-width = "1" fill = "#000000" />	<path d = "M293 482 L293 478 L289 478 L289 482 L293 482 Z" stroke = "#000000" stroke-width = "1" fill = "#000000" />	<path d = "M293 473 L293 469 L289 469 L289 473 L293 473 Z" stroke = "#000000" stroke-width = "1" fill = "#000000" />	<path d = "M293 464 L293 460 L289 460 L289 464 L293 464 Z" stroke = "#000000" stroke-width = "1" fill = "#000000" />	<path d = "M293 455 L293 451 L289 451 L289 455 L293 455 Z" stroke = "#000000" stroke-width = "1" fill = "#000000" />	<path d = "M284 455 L284 451 L280 451 L280 455 L284 455 Z" stroke = "#000000" stroke-width = "1" fill = "#000000" />	<path d = "M275 455 L275 451 L271 451 L271 455 L275 455 Z" stroke = "#000000" stroke-width = "1" fill = "#000000" />	<path d = "M266 455 L266 451 L262 451 L262 455 L266 455 Z" stroke = "#000000" stroke-width = "1" fill = "#000000" />	<path d = "M257 455 L257 451 L253 451 L253 455 L257 455 Z" stroke = "#000000" stroke-width = "1" fill = "#000000" />	<path d = "M248 455 L248 451 L244 451 L244 455 L248 455 Z" stroke = "#000000" stroke-width = "1" fill = "#000000" />	<path d = "M248 446 L248 442 L244 442 L244 446 L248 446 Z" stroke = "#000000" stroke-width = "1" fill = "#000000" />	<path d = "M248 437 L248 433 L244 433 L244 437 L248 437 Z" stroke = "#000000" stroke-width = "1" fill = "#000000" />	<path d = "M248 428 L248 424 L244 424 L244 428 L248 428 Z" stroke = "#000000" stroke-width = "1" fill = "#000000" />	<path d = "M257 428 L257 424 L253 424 L253 428 L257 428 Z" stroke = "#000000" stroke-width = "1" fill = "#000000" />	<path d = "M266 428 L266 424 L262 424 L262 428 L266 428 Z" stroke = "#000000" stroke-width = "1" fill = "#000000" />	<path d = "M275 428 L275 424 L271 424 L271 428 L275 428 Z" stroke = "#000000" stroke-width = "1" fill = "#000000" />	<path d = "M284 428 L284 424 L280 424 L280 428 L284 428 Z" stroke = "#000000" stroke-width = "1" fill = "#000000" />	<path d = "M293 428 L293 424 L289 424 L289 428 L293 428 Z" stroke = "#000000" stroke-width = "1" fill = "#000000" />	<path d = "M293 419 L293 415 L289 415 L289 419 L293 419 Z" stroke = "#000000" stroke-width = "1" fill = "#000000" />	<path d = "M293 410 L293 406 L289 406 L289 410 L293 410 Z" stroke = "#000000" stroke-width = "1" fill = "#000000" />	<path d = "M293 401 L293 397 L289 397 L289 401 L293 401 Z" stroke = "#000000" stroke-width = "1" fill = "#000000" />	<path d = "M293 392 L293 388 L289 388 L289 392 L293 392 Z" stroke = "#000000" stroke-width = "1" fill = "#000000" />	<path d = "M293 383 L293 379 L289 379 L289 383 L293 383 Z" stroke = "#000000" stroke-width = "1" fill = "#000000" />	<path d = "M284 383 L284 379 L280 379 L280 383 L284 383 Z" stroke = "#000000" stroke-width = "1" fill = "#000000" />	<path d = "M275 383 L275 379 L271 379 L271 383 L275 383 Z" stroke = "#000000" stroke-width = "1" fill = "#000000" />	<path d = "M266 383 L266 379 L262 379 L262 383 L266 383 Z" stroke = "#000000" stroke-width = "1" fill = "#000000" />	<path d = "M257 383 L257 379 L253 379 L253 383 L257 383 Z" stroke = "#000000" stroke-width = "1" fill = "#000000" />	<path d = "M248 374 L248 370 L244 370 L244 374 L248 374 Z" stroke = "#000000" stroke-width = "1" fill = "#000000" />	<path d = "M239 365 L239 361 L235 361 L235 365 L239 365 Z" stroke = "#000000" stroke-width = "1" fill = "#000000" />	<path d = "M230 356 L230 352 L226 352 L226 356 L230 356 Z" stroke = "#000000" stroke-width = "1" fill = "#000000" />	<path d = "M221 347 L221 343 L217 343 L217 347 L221 347 Z" stroke = "#000000" stroke-width = "1" fill = "#000000" />	<path d = "M212 338 L212 334 L208 334 L208 338 L212 338 Z" stroke = "#000000" stroke-width = "1" fill = "#000000" />	<path d = "M203 329 L203 325 L199 325 L199 329 L203 329 Z" stroke = "#000000" stroke-width = "1" fill = "#000000" />	<path d = "M203 320 L203 316 L199 316 L199 320 L203 320 Z" stroke = "#000000" stroke-width = "1" fill = "#000000" />	<path d = "M203 311 L203 307 L199 307 L199 311 L203 311 Z" stroke = "#000000" stroke-width = "1" fill = "#000000" /></svg>