<svg width="600" height="600" viewbox = "0 0 600 600"  xmlns="http://www.w3.org/2000/svg">
<!--<json>{
  "shapes": [],
  "glyph": "0504,0506,0506,0506,0506,0506,0506,0506,0506,0506,01044,01062,01060,0505,0505,0505,0505,0505,0505,0505,0505,0505,0506,0506,0506,0506,0506,0506,0506,0506,0506,0506,0506,0506,0506,0506,0506,0506,0506,0506,0506,0506,0506,0506,0506,0506,0506,0506,0506,0506,0506,0506,01123,01120,01117,01116,01123,01117,01122,0504,0504,0504,0504,0504,0504,0504,0504,0506,0506,0506,0506,0506,0506,0506,0506,0506,0506,0506,0506,0506,0506,0506,0506,0506,0506,0506,0506,0506,",
  "x0": 300,
  "y0": 300,
  "unit": 72,
  "width": 600,
  "height": 600,
  "style": {
    "color0": "black",
    "fill0": "black",
    "line0": 1,
    "color1": "black",
    "fill1": "black",
    "line1": 5,
    "color2": "red",
    "fill2": "red",
    "line2": 1,
    "color3": "#FF7900",
    "fill3": "#FF7900",
    "line3": 1,
    "color4": "yellow",
    "fill4": "yellow",
    "line4": 1,
    "color5": "green",
    "fill5": "green",
    "line5": 1,
    "color6": "blue",
    "fill6": "blue",
    "line6": 1,
    "color7": "purple",
    "fill7": "purple",
    "line7": 1
  }
}</json>-->	<path d = "M230 284 L230 280 L226 280 L226 284 L230 284 Z" stroke = "#000000" stroke-width = "1" fill = "#000000" />	<path d = "M239 284 L239 280 L235 280 L235 284 L239 284 Z" stroke = "#000000" stroke-width = "1" fill = "#000000" />	<path d = "M248 284 L248 280 L244 280 L244 284 L248 284 Z" stroke = "#000000" stroke-width = "1" fill = "#000000" />	<path d = "M257 284 L257 280 L253 280 L253 284 L257 284 Z" stroke = "#000000" stroke-width = "1" fill = "#000000" />	<path d = "M248 275 L248 271 L244 271 L244 275 L248 275 Z" stroke = "#000000" stroke-width = "1" fill = "#000000" />	<path d = "M248 266 L248 262 L244 262 L244 266 L248 266 Z" stroke = "#000000" stroke-width = "1" fill = "#000000" />	<path d = "M248 257 L248 253 L244 253 L244 257 L248 257 Z" stroke = "#000000" stroke-width = "1" fill = "#000000" />	<path d = "M248 248 L248 244 L244 244 L244 248 L248 248 Z" stroke = "#000000" stroke-width = "1" fill = "#000000" />	<path d = "M248 239 L248 235 L244 235 L244 239 L248 239 Z" stroke = "#000000" stroke-width = "1" fill = "#000000" />	<path d = "M239 248 L239 244 L235 244 L235 248 L239 248 Z" stroke = "#000000" stroke-width = "1" fill = "#000000" />	<path d = "M230 257 L230 253 L226 253 L226 257 L230 257 Z" stroke = "#000000" stroke-width = "1" fill = "#000000" />	<path d = "M230 266 L230 262 L226 262 L226 266 L230 266 Z" stroke = "#000000" stroke-width = "1" fill = "#000000" />	<path d = "M239 266 L239 262 L235 262 L235 266 L239 266 Z" stroke = "#000000" stroke-width = "1" fill = "#000000" />	<path d = "M257 248 L257 244 L253 244 L253 248 L257 248 Z" stroke = "#000000" stroke-width = "1" fill = "#000000" />	<path d = "M266 248 L266 244 L262 244 L262 248 L266 248 Z" stroke = "#000000" stroke-width = "1" fill = "#000000" />	<path d = "M257 266 L257 262 L253 262 L253 266 L257 266 Z" stroke = "#000000" stroke-width = "1" fill = "#000000" />	<path d = "M266 266 L266 262 L262 262 L262 266 L266 266 Z" stroke = "#000000" stroke-width = "1" fill = "#000000" />	<path d = "M266 275 L266 271 L262 271 L262 275 L266 275 Z" stroke = "#000000" stroke-width = "1" fill = "#000000" />	<path d = "M248 293 L248 289 L244 289 L244 293 L248 293 Z" stroke = "#000000" stroke-width = "1" fill = "#000000" />	<path d = "M284 293 L284 289 L280 289 L280 293 L284 293 Z" stroke = "#000000" stroke-width = "1" fill = "#000000" />	<path d = "M293 293 L293 289 L289 289 L289 293 L293 293 Z" stroke = "#000000" stroke-width = "1" fill = "#000000" />	<path d = "M302 293 L302 289 L298 289 L298 293 L302 293 Z" stroke = "#000000" stroke-width = "1" fill = "#000000" />	<path d = "M311 293 L311 289 L307 289 L307 293 L311 293 Z" stroke = "#000000" stroke-width = "1" fill = "#000000" />	<path d = "M320 293 L320 289 L316 289 L316 293 L320 293 Z" stroke = "#000000" stroke-width = "1" fill = "#000000" />	<path d = "M311 293 L311 289 L307 289 L307 293 L311 293 Z" stroke = "#000000" stroke-width = "1" fill = "#000000" />	<path d = "M302 293 L302 289 L298 289 L298 293 L302 293 Z" stroke = "#000000" stroke-width = "1" fill = "#000000" />	<path d = "M293 293 L293 289 L289 289 L289 293 L293 293 Z" stroke = "#000000" stroke-width = "1" fill = "#000000" />	<path d = "M293 284 L293 280 L289 280 L289 284 L293 284 Z" stroke = "#000000" stroke-width = "1" fill = "#000000" />	<path d = "M302 275 L302 271 L298 271 L298 275 L302 275 Z" stroke = "#000000" stroke-width = "1" fill = "#000000" />	<path d = "M311 266 L311 262 L307 262 L307 266 L311 266 Z" stroke = "#000000" stroke-width = "1" fill = "#000000" />	<path d = "M320 257 L320 253 L316 253 L316 257 L320 257 Z" stroke = "#000000" stroke-width = "1" fill = "#000000" />	<path d = "M320 248 L320 244 L316 244 L316 248 L320 248 Z" stroke = "#000000" stroke-width = "1" fill = "#000000" />	<path d = "M311 239 L311 235 L307 235 L307 239 L311 239 Z" stroke = "#000000" stroke-width = "1" fill = "#000000" />	<path d = "M302 239 L302 235 L298 235 L298 239 L302 239 Z" stroke = "#000000" stroke-width = "1" fill = "#000000" />	<path d = "M293 239 L293 235 L289 235 L289 239 L293 239 Z" stroke = "#000000" stroke-width = "1" fill = "#000000" />	<path d = "M284 248 L284 244 L280 244 L280 248 L284 248 Z" stroke = "#000000" stroke-width = "1" fill = "#000000" />	<path d = "M338 284 L338 280 L334 280 L334 284 L338 284 Z" stroke = "#000000" stroke-width = "1" fill = "#000000" />	<path d = "M338 275 L338 271 L334 271 L334 275 L338 275 Z" stroke = "#000000" stroke-width = "1" fill = "#000000" />	<path d = "M338 266 L338 262 L334 262 L334 266 L338 266 Z" stroke = "#000000" stroke-width = "1" fill = "#000000" />	<path d = "M338 257 L338 253 L334 253 L334 257 L338 257 Z" stroke = "#000000" stroke-width = "1" fill = "#000000" />	<path d = "M338 248 L338 244 L334 244 L334 248 L338 248 Z" stroke = "#000000" stroke-width = "1" fill = "#000000" />	<path d = "M347 239 L347 235 L343 235 L343 239 L347 239 Z" stroke = "#000000" stroke-width = "1" fill = "#000000" />	<path d = "M356 239 L356 235 L352 235 L352 239 L356 239 Z" stroke = "#000000" stroke-width = "1" fill = "#000000" />	<path d = "M365 239 L365 235 L361 235 L361 239 L365 239 Z" stroke = "#000000" stroke-width = "1" fill = "#000000" />	<path d = "M374 248 L374 244 L370 244 L370 248 L374 248 Z" stroke = "#000000" stroke-width = "1" fill = "#000000" />	<path d = "M374 257 L374 253 L370 253 L370 257 L374 257 Z" stroke = "#000000" stroke-width = "1" fill = "#000000" />	<path d = "M374 266 L374 262 L370 262 L370 266 L374 266 Z" stroke = "#000000" stroke-width = "1" fill = "#000000" />	<path d = "M374 275 L374 271 L370 271 L370 275 L374 275 Z" stroke = "#000000" stroke-width = "1" fill = "#000000" />	<path d = "M374 284 L374 280 L370 280 L370 284 L374 284 Z" stroke = "#000000" stroke-width = "1" fill = "#000000" />	<path d = "M365 293 L365 289 L361 289 L361 293 L365 293 Z" stroke = "#000000" stroke-width = "1" fill = "#000000" />	<path d = "M356 293 L356 289 L352 289 L352 293 L356 293 Z" stroke = "#000000" stroke-width = "1" fill = "#000000" />	<path d = "M347 293 L347 289 L343 289 L343 293 L347 293 Z" stroke = "#000000" stroke-width = "1" fill = "#000000" />	<path d = "M365 284 L365 280 L361 280 L361 284 L365 284 Z" stroke = "#000000" stroke-width = "1" fill = "#000000" />	<path d = "M356 275 L356 271 L352 271 L352 275 L356 275 Z" stroke = "#000000" stroke-width = "1" fill = "#000000" />	<path d = "M356 266 L356 262 L352 262 L352 266 L356 266 Z" stroke = "#000000" stroke-width = "1" fill = "#000000" />	<path d = "M347 257 L347 253 L343 253 L343 257 L347 257 Z" stroke = "#000000" stroke-width = "1" fill = "#000000" />	<path d = "M347 248 L347 244 L343 244 L343 248 L347 248 Z" stroke = "#000000" stroke-width = "1" fill = "#000000" />	<path d = "M122 365 L122 361 L118 361 L118 365 L122 365 Z" stroke = "#000000" stroke-width = "1" fill = "#000000" />	<path d = "M131 374 L131 370 L127 370 L127 374 L131 374 Z" stroke = "#000000" stroke-width = "1" fill = "#000000" />	<path d = "M140 374 L140 370 L136 370 L136 374 L140 374 Z" stroke = "#000000" stroke-width = "1" fill = "#000000" />	<path d = "M149 374 L149 370 L145 370 L145 374 L149 374 Z" stroke = "#000000" stroke-width = "1" fill = "#000000" />	<path d = "M158 365 L158 361 L154 361 L154 365 L158 365 Z" stroke = "#000000" stroke-width = "1" fill = "#000000" />	<path d = "M158 356 L158 352 L154 352 L154 356 L158 356 Z" stroke = "#000000" stroke-width = "1" fill = "#000000" />	<path d = "M149 347 L149 343 L145 343 L145 347 L149 347 Z" stroke = "#000000" stroke-width = "1" fill = "#000000" />	<path d = "M140 347 L140 343 L136 343 L136 347 L140 347 Z" stroke = "#000000" stroke-width = "1" fill = "#000000" />	<path d = "M131 347 L131 343 L127 343 L127 347 L131 347 Z" stroke = "#000000" stroke-width = "1" fill = "#000000" />	<path d = "M122 338 L122 334 L118 334 L118 338 L122 338 Z" stroke = "#000000" stroke-width = "1" fill = "#000000" />	<path d = "M122 329 L122 325 L118 325 L118 329 L122 329 Z" stroke = "#000000" stroke-width = "1" fill = "#000000" />	<path d = "M131 320 L131 316 L127 316 L127 320 L131 320 Z" stroke = "#000000" stroke-width = "1" fill = "#000000" />	<path d = "M140 320 L140 316 L136 316 L136 320 L140 320 Z" stroke = "#000000" stroke-width = "1" fill = "#000000" />	<path d = "M149 320 L149 316 L145 316 L145 320 L149 320 Z" stroke = "#000000" stroke-width = "1" fill = "#000000" />	<path d = "M158 329 L158 325 L154 325 L154 329 L158 329 Z" stroke = "#000000" stroke-width = "1" fill = "#000000" />	<path d = "M176 374 L176 370 L172 370 L172 374 L176 374 Z" stroke = "#000000" stroke-width = "1" fill = "#000000" />	<path d = "M176 365 L176 361 L172 361 L172 365 L176 365 Z" stroke = "#000000" stroke-width = "1" fill = "#000000" />	<path d = "M176 356 L176 352 L172 352 L172 356 L176 356 Z" stroke = "#000000" stroke-width = "1" fill = "#000000" />	<path d = "M176 347 L176 343 L172 343 L172 347 L176 347 Z" stroke = "#000000" stroke-width = "1" fill = "#000000" />	<path d = "M176 338 L176 334 L172 334 L172 338 L176 338 Z" stroke = "#000000" stroke-width = "1" fill = "#000000" />	<path d = "M176 329 L176 325 L172 325 L172 329 L176 329 Z" stroke = "#000000" stroke-width = "1" fill = "#000000" />	<path d = "M176 320 L176 316 L172 316 L172 320 L176 320 Z" stroke = "#000000" stroke-width = "1" fill = "#000000" />	<path d = "M185 320 L185 316 L181 316 L181 320 L185 320 Z" stroke = "#000000" stroke-width = "1" fill = "#000000" />	<path d = "M194 320 L194 316 L190 316 L190 320 L194 320 Z" stroke = "#000000" stroke-width = "1" fill = "#000000" />	<path d = "M203 320 L203 316 L199 316 L199 320 L203 320 Z" stroke = "#000000" stroke-width = "1" fill = "#000000" />	<path d = "M212 329 L212 325 L208 325 L208 329 L212 329 Z" stroke = "#000000" stroke-width = "1" fill = "#000000" />	<path d = "M212 338 L212 334 L208 334 L208 338 L212 338 Z" stroke = "#000000" stroke-width = "1" fill = "#000000" />	<path d = "M203 347 L203 343 L199 343 L199 347 L203 347 Z" stroke = "#000000" stroke-width = "1" fill = "#000000" />	<path d = "M194 347 L194 343 L190 343 L190 347 L194 347 Z" stroke = "#000000" stroke-width = "1" fill = "#000000" />	<path d = "M185 347 L185 343 L181 343 L181 347 L185 347 Z" stroke = "#000000" stroke-width = "1" fill = "#000000" />	<path d = "M230 365 L230 361 L226 361 L226 365 L230 365 Z" stroke = "#000000" stroke-width = "1" fill = "#000000" />	<path d = "M230 356 L230 352 L226 352 L226 356 L230 356 Z" stroke = "#000000" stroke-width = "1" fill = "#000000" />	<path d = "M230 347 L230 343 L226 343 L226 347 L230 347 Z" stroke = "#000000" stroke-width = "1" fill = "#000000" />	<path d = "M230 338 L230 334 L226 334 L226 338 L230 338 Z" stroke = "#000000" stroke-width = "1" fill = "#000000" />	<path d = "M230 329 L230 325 L226 325 L226 329 L230 329 Z" stroke = "#000000" stroke-width = "1" fill = "#000000" />	<path d = "M239 320 L239 316 L235 316 L235 320 L239 320 Z" stroke = "#000000" stroke-width = "1" fill = "#000000" />	<path d = "M248 320 L248 316 L244 316 L244 320 L248 320 Z" stroke = "#000000" stroke-width = "1" fill = "#000000" />	<path d = "M257 320 L257 316 L253 316 L253 320 L257 320 Z" stroke = "#000000" stroke-width = "1" fill = "#000000" />	<path d = "M266 329 L266 325 L262 325 L262 329 L266 329 Z" stroke = "#000000" stroke-width = "1" fill = "#000000" />	<path d = "M266 338 L266 334 L262 334 L262 338 L266 338 Z" stroke = "#000000" stroke-width = "1" fill = "#000000" />	<path d = "M266 347 L266 343 L262 343 L262 347 L266 347 Z" stroke = "#000000" stroke-width = "1" fill = "#000000" />	<path d = "M266 356 L266 352 L262 352 L262 356 L266 356 Z" stroke = "#000000" stroke-width = "1" fill = "#000000" />	<path d = "M266 365 L266 361 L262 361 L262 365 L266 365 Z" stroke = "#000000" stroke-width = "1" fill = "#000000" />	<path d = "M257 374 L257 370 L253 370 L253 374 L257 374 Z" stroke = "#000000" stroke-width = "1" fill = "#000000" />	<path d = "M248 374 L248 370 L244 370 L244 374 L248 374 Z" stroke = "#000000" stroke-width = "1" fill = "#000000" />	<path d = "M239 374 L239 370 L235 370 L235 374 L239 374 Z" stroke = "#000000" stroke-width = "1" fill = "#000000" />	<path d = "M284 374 L284 370 L280 370 L280 374 L284 374 Z" stroke = "#000000" stroke-width = "1" fill = "#000000" />	<path d = "M284 365 L284 361 L280 361 L280 365 L284 365 Z" stroke = "#000000" stroke-width = "1" fill = "#000000" />	<path d = "M284 356 L284 352 L280 352 L280 356 L284 356 Z" stroke = "#000000" stroke-width = "1" fill = "#000000" />	<path d = "M284 347 L284 343 L280 343 L280 347 L284 347 Z" stroke = "#000000" stroke-width = "1" fill = "#000000" />	<path d = "M284 338 L284 334 L280 334 L280 338 L284 338 Z" stroke = "#000000" stroke-width = "1" fill = "#000000" />	<path d = "M284 329 L284 325 L280 325 L280 329 L284 329 Z" stroke = "#000000" stroke-width = "1" fill = "#000000" />	<path d = "M284 320 L284 316 L280 316 L280 320 L284 320 Z" stroke = "#000000" stroke-width = "1" fill = "#000000" />	<path d = "M293 338 L293 334 L289 334 L289 338 L293 338 Z" stroke = "#000000" stroke-width = "1" fill = "#000000" />	<path d = "M302 347 L302 343 L298 343 L298 347 L302 347 Z" stroke = "#000000" stroke-width = "1" fill = "#000000" />	<path d = "M311 356 L311 352 L307 352 L307 356 L311 356 Z" stroke = "#000000" stroke-width = "1" fill = "#000000" />	<path d = "M320 365 L320 361 L316 361 L316 365 L320 365 Z" stroke = "#000000" stroke-width = "1" fill = "#000000" />	<path d = "M320 374 L320 370 L316 370 L316 374 L320 374 Z" stroke = "#000000" stroke-width = "1" fill = "#000000" />	<path d = "M320 356 L320 352 L316 352 L316 356 L320 356 Z" stroke = "#000000" stroke-width = "1" fill = "#000000" />	<path d = "M320 347 L320 343 L316 343 L316 347 L320 347 Z" stroke = "#000000" stroke-width = "1" fill = "#000000" />	<path d = "M320 338 L320 334 L316 334 L316 338 L320 338 Z" stroke = "#000000" stroke-width = "1" fill = "#000000" />	<path d = "M320 329 L320 325 L316 325 L316 329 L320 329 Z" stroke = "#000000" stroke-width = "1" fill = "#000000" />	<path d = "M320 320 L320 316 L316 316 L316 320 L320 320 Z" stroke = "#000000" stroke-width = "1" fill = "#000000" />	<path d = "M338 365 L338 361 L334 361 L334 365 L338 365 Z" stroke = "#000000" stroke-width = "1" fill = "#000000" />	<path d = "M347 374 L347 370 L343 370 L343 374 L347 374 Z" stroke = "#000000" stroke-width = "1" fill = "#000000" />	<path d = "M356 374 L356 370 L352 370 L352 374 L356 374 Z" stroke = "#000000" stroke-width = "1" fill = "#000000" />	<path d = "M365 374 L365 370 L361 370 L361 374 L365 374 Z" stroke = "#000000" stroke-width = "1" fill = "#000000" />	<path d = "M374 365 L374 361 L370 361 L370 365 L374 365 Z" stroke = "#000000" stroke-width = "1" fill = "#000000" />	<path d = "M374 356 L374 352 L370 352 L370 356 L374 356 Z" stroke = "#000000" stroke-width = "1" fill = "#000000" />	<path d = "M365 347 L365 343 L361 343 L361 347 L365 347 Z" stroke = "#000000" stroke-width = "1" fill = "#000000" />	<path d = "M356 347 L356 343 L352 343 L352 347 L356 347 Z" stroke = "#000000" stroke-width = "1" fill = "#000000" />	<path d = "M347 347 L347 343 L343 343 L343 347 L347 347 Z" stroke = "#000000" stroke-width = "1" fill = "#000000" />	<path d = "M338 338 L338 334 L334 334 L334 338 L338 338 Z" stroke = "#000000" stroke-width = "1" fill = "#000000" />	<path d = "M338 329 L338 325 L334 325 L334 329 L338 329 Z" stroke = "#000000" stroke-width = "1" fill = "#000000" />	<path d = "M347 320 L347 316 L343 316 L343 320 L347 320 Z" stroke = "#000000" stroke-width = "1" fill = "#000000" />	<path d = "M356 320 L356 316 L352 316 L352 320 L356 320 Z" stroke = "#000000" stroke-width = "1" fill = "#000000" />	<path d = "M365 320 L365 316 L361 316 L361 320 L365 320 Z" stroke = "#000000" stroke-width = "1" fill = "#000000" />	<path d = "M374 329 L374 325 L370 325 L370 329 L374 329 Z" stroke = "#000000" stroke-width = "1" fill = "#000000" />	<path d = "M392 365 L392 361 L388 361 L388 365 L392 365 Z" stroke = "#000000" stroke-width = "1" fill = "#000000" />	<path d = "M392 356 L392 352 L388 352 L388 356 L392 356 Z" stroke = "#000000" stroke-width = "1" fill = "#000000" />	<path d = "M392 347 L392 343 L388 343 L388 347 L392 347 Z" stroke = "#000000" stroke-width = "1" fill = "#000000" />	<path d = "M392 338 L392 334 L388 334 L388 338 L392 338 Z" stroke = "#000000" stroke-width = "1" fill = "#000000" />	<path d = "M392 329 L392 325 L388 325 L388 329 L392 329 Z" stroke = "#000000" stroke-width = "1" fill = "#000000" />	<path d = "M401 320 L401 316 L397 316 L397 320 L401 320 Z" stroke = "#000000" stroke-width = "1" fill = "#000000" />	<path d = "M410 320 L410 316 L406 316 L406 320 L410 320 Z" stroke = "#000000" stroke-width = "1" fill = "#000000" />	<path d = "M419 320 L419 316 L415 316 L415 320 L419 320 Z" stroke = "#000000" stroke-width = "1" fill = "#000000" />	<path d = "M428 329 L428 325 L424 325 L424 329 L428 329 Z" stroke = "#000000" stroke-width = "1" fill = "#000000" />	<path d = "M428 338 L428 334 L424 334 L424 338 L428 338 Z" stroke = "#000000" stroke-width = "1" fill = "#000000" />	<path d = "M428 347 L428 343 L424 343 L424 347 L428 347 Z" stroke = "#000000" stroke-width = "1" fill = "#000000" />	<path d = "M428 356 L428 352 L424 352 L424 356 L428 356 Z" stroke = "#000000" stroke-width = "1" fill = "#000000" />	<path d = "M428 365 L428 361 L424 361 L424 365 L428 365 Z" stroke = "#000000" stroke-width = "1" fill = "#000000" />	<path d = "M419 374 L419 370 L415 370 L415 374 L419 374 Z" stroke = "#000000" stroke-width = "1" fill = "#000000" />	<path d = "M410 374 L410 370 L406 370 L406 374 L410 374 Z" stroke = "#000000" stroke-width = "1" fill = "#000000" />	<path d = "M401 374 L401 370 L397 370 L397 374 L401 374 Z" stroke = "#000000" stroke-width = "1" fill = "#000000" />	<path d = "M446 374 L446 370 L442 370 L442 374 L446 374 Z" stroke = "#000000" stroke-width = "1" fill = "#000000" />	<path d = "M446 365 L446 361 L442 361 L442 365 L446 365 Z" stroke = "#000000" stroke-width = "1" fill = "#000000" />	<path d = "M446 356 L446 352 L442 352 L442 356 L446 356 Z" stroke = "#000000" stroke-width = "1" fill = "#000000" />	<path d = "M446 347 L446 343 L442 343 L442 347 L446 347 Z" stroke = "#000000" stroke-width = "1" fill = "#000000" />	<path d = "M446 338 L446 334 L442 334 L442 338 L446 338 Z" stroke = "#000000" stroke-width = "1" fill = "#000000" />	<path d = "M446 329 L446 325 L442 325 L442 329 L446 329 Z" stroke = "#000000" stroke-width = "1" fill = "#000000" />	<path d = "M446 320 L446 316 L442 316 L442 320 L446 320 Z" stroke = "#000000" stroke-width = "1" fill = "#000000" />	<path d = "M455 320 L455 316 L451 316 L451 320 L455 320 Z" stroke = "#000000" stroke-width = "1" fill = "#000000" />	<path d = "M464 320 L464 316 L460 316 L460 320 L464 320 Z" stroke = "#000000" stroke-width = "1" fill = "#000000" />	<path d = "M473 320 L473 316 L469 316 L469 320 L473 320 Z" stroke = "#000000" stroke-width = "1" fill = "#000000" />	<path d = "M482 329 L482 325 L478 325 L478 329 L482 329 Z" stroke = "#000000" stroke-width = "1" fill = "#000000" />	<path d = "M482 338 L482 334 L478 334 L478 338 L482 338 Z" stroke = "#000000" stroke-width = "1" fill = "#000000" />	<path d = "M473 347 L473 343 L469 343 L469 347 L473 347 Z" stroke = "#000000" stroke-width = "1" fill = "#000000" />	<path d = "M464 347 L464 343 L460 343 L460 347 L464 347 Z" stroke = "#000000" stroke-width = "1" fill = "#000000" />	<path d = "M455 347 L455 343 L451 343 L451 347 L455 347 Z" stroke = "#000000" stroke-width = "1" fill = "#000000" />	<path d = "M464 356 L464 352 L460 352 L460 356 L464 356 Z" stroke = "#000000" stroke-width = "1" fill = "#000000" />	<path d = "M473 365 L473 361 L469 361 L469 365 L473 365 Z" stroke = "#000000" stroke-width = "1" fill = "#000000" />	<path d = "M482 374 L482 370 L478 370 L478 374 L482 374 Z" stroke = "#000000" stroke-width = "1" fill = "#000000" /></svg>