<svg width="419" height="628.5" viewbox = "0 0 419 628.5"  xmlns="http://www.w3.org/2000/svg">
    <text x="52" y = "29" fill = "#000000" font-size = "20.95px" font-family = "Arial">0</text>
    <text x="98" y = "29" fill = "#000000" font-size = "20.95px" font-family = "Arial">1</text>
    <text x="145" y = "29" fill = "#000000" font-size = "20.95px" font-family = "Arial">2</text>
    <text x="191" y = "29" fill = "#000000" font-size = "20.95px" font-family = "Arial">3</text>
    <text x="237" y = "29" fill = "#000000" font-size = "20.95px" font-family = "Arial">4</text>
    <text x="283" y = "29" fill = "#000000" font-size = "20.95px" font-family = "Arial">5</text>
    <text x="329" y = "29" fill = "#000000" font-size = "20.95px" font-family = "Arial">6</text>
    <text x="375" y = "29" fill = "#000000" font-size = "20.95px" font-family = "Arial">7</text>
    <text x="9" y = "75" fill = "#000000" font-size = "10.475px" font-family = "Arial">04x</text>
    <text x="9" y = "122" fill = "#000000" font-size = "10.475px" font-family = "Arial">05x</text>
    <text x="9" y = "168" fill = "#000000" font-size = "10.475px" font-family = "Arial">06x</text>
    <text x="9" y = "214" fill = "#000000" font-size = "10.475px" font-family = "Arial">07x</text>
    <text x="9" y = "260" fill = "#000000" font-size = "10.475px" font-family = "Arial">010x</text>
    <text x="9" y = "306" fill = "#000000" font-size = "10.475px" font-family = "Arial">011x</text>
    <text x="9" y = "352" fill = "#000000" font-size = "10.475px" font-family = "Arial">012x</text>
    <text x="9" y = "398" fill = "#000000" font-size = "10.475px" font-family = "Arial">013x</text>
    <text x="9" y = "444" fill = "#000000" font-size = "10.475px" font-family = "Arial">014x</text>
    <text x="9" y = "490" fill = "#000000" font-size = "10.475px" font-family = "Arial">015x</text>
    <text x="9" y = "536" fill = "#000000" font-size = "10.475px" font-family = "Arial">016x</text>
    <text x="9" y = "582" fill = "#000000" font-size = "10.475px" font-family = "Arial">017x</text>
	<path d = "M104 92 L104 88 L109 88 L109 92 L104 92 Z" stroke = "#000000" stroke-width = "2" fill = "none" />	<path d = "M104 83 L104 78 L104 74 L104 69 L104 64 L104 60 L104 55 L109 55 L109 60 L109 64 L109 69 L109 74 L109 78 L109 83 L104 83 Z" stroke = "#000000" stroke-width = "2" fill = "none" />	<path d = "M146 60 L146 55 L146 50 L150 50 L150 55 L150 60 L146 60 Z" stroke = "#000000" stroke-width = "2" fill = "none" />	<path d = "M155 60 L155 55 L155 50 L160 50 L160 55 L160 60 L155 60 Z" stroke = "#000000" stroke-width = "2" fill = "none" />	<path d = "M185 78 L185 74 L189 74 L194 74 L194 78 L189 78 L185 78 Z" stroke = "#000000" stroke-width = "2" fill = "none" />	<path d = "M185 69 L185 64 L189 64 L194 64 L194 69 L189 69 L185 69 Z" stroke = "#000000" stroke-width = "2" fill = "none" />	<path d = "M203 69 L203 64 L208 64 L213 64 L213 69 L208 69 L203 69 Z" stroke = "#000000" stroke-width = "2" fill = "none" />	<path d = "M203 74 L208 74 L213 74 L213 78 L208 78 L203 78 L203 74 Z" stroke = "#000000" stroke-width = "2" fill = "none" />	<path d = "M201 60 L201 55 L201 50 L206 50 L206 55 L206 60 L201 60 Z" stroke = "#000000" stroke-width = "2" fill = "none" />	<path d = "M196 60 L196 55 L196 50 L192 50 L192 55 L192 60 L196 60 Z" stroke = "#000000" stroke-width = "2" fill = "none" />	<path d = "M196 83 L196 88 L196 92 L192 92 L192 88 L192 83 L196 83 Z" stroke = "#000000" stroke-width = "2" fill = "none" />	<path d = "M201 83 L206 83 L206 88 L206 92 L201 92 L201 88 L201 83 Z" stroke = "#000000" stroke-width = "2" fill = "none" />	<path d = "M243 92 L243 88 L243 83 L243 78 L243 74 L243 69 L243 64 L243 60 L243 55 L243 50 L247 50 L247 55 L247 60 L247 64 L247 69 L247 74 L247 78 L247 83 L247 88 L247 92 L243 92 Z" stroke = "#000000" stroke-width = "2" fill = "none" />	<path d = "M238 92 L238 88 L233 88 L231 88 L231 92 L233 92 L236 92 L238 92 Z" stroke = "#000000" stroke-width = "2" fill = "none" />	<path d = "M252 92 L252 88 L254 85 L254 83 L254 81 L252 78 L252 76 L252 74 L254 76 L257 78 L259 81 L259 83 L259 85 L259 88 L257 90 L254 92 L252 92 Z" stroke = "#000000" stroke-width = "2" fill = "none" />	<path d = "M238 69 L238 67 L238 64 L236 62 L236 60 L236 57 L238 55 L238 53 L238 50 L236 50 L233 53 L231 55 L231 57 L231 60 L231 62 L233 64 L236 67 L238 69 Z" stroke = "#000000" stroke-width = "2" fill = "none" />	<path d = "M252 55 L252 50 L257 50 L259 50 L259 55 L257 55 L254 55 L252 55 Z" stroke = "#000000" stroke-width = "2" fill = "none" />	<path d = "M277 92 L277 88 L277 83 L282 78 L286 74 L291 69 L296 64 L300 60 L300 55 L300 50 L305 50 L305 55 L305 60 L300 64 L296 69 L291 74 L286 78 L282 83 L282 88 L282 92 L277 92 Z" stroke = "#000000" stroke-width = "2" fill = "none" />	<path d = "M291 92 L296 92 L300 92 L305 92 L305 88 L305 83 L305 78 L300 78 L296 78 L291 78 L291 83 L296 83 L300 83 L300 88 L296 88 L291 88 L291 92 Z" stroke = "#000000" stroke-width = "2" fill = "none" />	<path d = "M291 64 L291 60 L286 60 L282 60 L282 55 L286 55 L291 55 L291 50 L286 50 L282 50 L277 50 L277 55 L277 60 L277 64 L282 64 L286 64 L291 64 Z" stroke = "#000000" stroke-width = "2" fill = "none" />	<path d = "M335 92 L335 88 L330 88 L328 88 L328 83 L328 78 L332 74 L335 74 L335 69 L330 69 L325 74 L323 76 L323 78 L323 81 L323 83 L323 85 L323 88 L328 92 L332 92 L335 92 Z" stroke = "#000000" stroke-width = "2" fill = "none" />	<path d = "M339 92 L339 88 L344 88 L339 83 L339 78 L344 83 L349 78 L349 83 L346 85 L349 88 L351 90 L351 92 L349 92 L346 92 L344 92 L342 92 L339 92 Z" stroke = "#000000" stroke-width = "2" fill = "none" />	<path d = "M339 74 L339 69 L344 69 L346 69 L346 64 L346 60 L346 55 L342 55 L342 50 L346 50 L351 55 L351 60 L351 64 L351 69 L346 74 L342 74 L339 74 Z" stroke = "#000000" stroke-width = "2" fill = "none" />	<path d = "M337 55 L337 50 L332 50 L328 50 L323 55 L323 60 L328 64 L332 64 L335 64 L335 60 L330 60 L330 55 L335 55 L337 55 Z" stroke = "#000000" stroke-width = "2" fill = "none" />	<path d = "M383 50 L388 50 L388 55 L388 60 L383 64 L383 60 L383 55 L383 50 Z" stroke = "#000000" stroke-width = "2" fill = "none" />	<path d = "M51 138 L47 134 L47 129 L47 124 L47 120 L47 115 L47 110 L47 106 L47 101 L51 96 L56 96 L56 101 L51 106 L51 110 L51 115 L51 120 L51 124 L51 129 L56 134 L56 138 L51 138 Z" stroke = "#000000" stroke-width = "2" fill = "none" />	<path d = "M116 138 L121 134 L121 129 L121 124 L121 120 L121 115 L121 110 L121 106 L121 101 L116 96 L111 96 L111 101 L116 106 L116 110 L116 115 L116 120 L116 124 L116 129 L111 134 L111 138 L116 138 Z" stroke = "#000000" stroke-width = "2" fill = "none" />	<path d = "M150 138 L150 136 L150 134 L150 131 L150 129 L150 127 L150 124 L150 122 L150 120 L146 124 L141 129 L139 131 L139 127 L143 122 L148 117 L150 115 L148 113 L146 110 L143 108 L141 106 L139 103 L139 99 L143 103 L148 108 L150 110 L150 106 L150 101 L150 96 L155 96 L155 101 L155 106 L155 110 L160 106 L164 101 L167 99 L167 103 L164 106 L162 108 L160 110 L157 113 L155 115 L157 117 L160 120 L162 122 L164 124 L167 127 L167 131 L164 129 L162 127 L160 124 L157 122 L155 120 L155 124 L155 129 L155 134 L155 138 L150 138 Z" stroke = "#000000" stroke-width = "2" fill = "none" />	<path d = "M196 120 L192 120 L187 120 L187 115 L192 115 L196 115 L196 110 L196 106 L201 106 L201 110 L201 115 L206 115 L210 115 L210 120 L206 120 L201 120 L201 124 L201 129 L196 129 L196 124 L196 120 Z" stroke = "#000000" stroke-width = "2" fill = "none" />	<path d = "M247 138 L247 134 L243 134 L243 138 L243 143 L247 138 Z" stroke = "#000000" stroke-width = "2" fill = "none" />	<path d = "M282 120 L282 115 L286 115 L291 115 L296 115 L300 115 L300 120 L296 120 L291 120 L286 120 L282 120 Z" stroke = "#000000" stroke-width = "2" fill = "none" />	<path d = "M339 138 L339 134 L335 134 L335 138 L339 138 Z" stroke = "#000000" stroke-width = "2" fill = "none" />	<path d = "M369 138 L369 134 L369 129 L374 124 L378 120 L383 115 L388 110 L392 106 L392 101 L392 96 L397 96 L397 101 L397 106 L397 110 L392 115 L388 120 L383 124 L378 129 L374 134 L374 138 L369 138 Z" stroke = "#000000" stroke-width = "2" fill = "none" />	<path d = "M58 184 L58 180 L56 180 L51 175 L51 170 L51 166 L51 161 L51 156 L51 152 L56 147 L58 147 L58 142 L54 142 L51 142 L47 147 L47 152 L47 156 L47 161 L47 166 L47 170 L47 175 L47 180 L51 184 L56 184 L58 184 Z" stroke = "#000000" stroke-width = "2" fill = "none" />	<path d = "M63 184 L63 180 L65 180 L70 175 L70 170 L70 166 L70 161 L70 156 L70 152 L65 147 L63 147 L63 142 L68 142 L70 142 L74 147 L74 152 L74 156 L74 161 L74 166 L74 170 L74 175 L74 180 L70 184 L65 184 L63 184 Z" stroke = "#000000" stroke-width = "2" fill = "none" />	<path d = "M65 170 L61 166 L56 161 L56 156 L61 161 L65 166 L65 170 Z" stroke = "#000000" stroke-width = "2" fill = "none" />	<path d = "M109 184 L104 184 L100 184 L100 180 L104 180 L104 175 L104 170 L104 166 L104 161 L104 156 L104 152 L100 152 L100 147 L104 142 L109 142 L109 147 L109 152 L109 156 L109 161 L109 166 L109 170 L109 175 L109 180 L114 180 L114 184 L109 184 Z" stroke = "#000000" stroke-width = "2" fill = "none" />	<path d = "M139 184 L139 180 L143 175 L148 170 L153 166 L153 170 L148 175 L143 180 L148 180 L153 180 L153 184 L148 184 L143 184 L139 184 Z" stroke = "#000000" stroke-width = "2" fill = "none" />	<path d = "M157 184 L157 180 L162 180 L167 180 L167 184 L162 184 L157 184 Z" stroke = "#000000" stroke-width = "2" fill = "none" />	<path d = "M157 166 L157 161 L162 156 L162 152 L162 147 L157 147 L157 142 L162 142 L167 142 L167 147 L167 152 L167 156 L162 161 L157 166 Z" stroke = "#000000" stroke-width = "2" fill = "none" />	<path d = "M153 142 L148 142 L143 142 L139 142 L139 147 L139 152 L143 152 L143 147 L148 147 L153 147 L153 142 Z" stroke = "#000000" stroke-width = "2" fill = "none" />	<path d = "M189 184 L185 180 L185 175 L189 175 L189 180 L194 180 L196 180 L196 184 L192 184 L189 184 Z" stroke = "#000000" stroke-width = "2" fill = "none" />	<path d = "M201 184 L201 180 L206 180 L208 180 L208 175 L208 170 L208 166 L203 166 L201 166 L201 161 L206 161 L208 161 L208 156 L208 152 L208 147 L203 147 L201 147 L201 142 L206 142 L210 142 L213 142 L213 147 L213 152 L213 156 L213 161 L213 166 L213 170 L213 175 L213 180 L213 184 L208 184 L203 184 L201 184 Z" stroke = "#000000" stroke-width = "2" fill = "none" />	<path d = "M196 147 L196 142 L192 142 L189 142 L185 147 L185 152 L189 152 L189 147 L194 147 L196 147 Z" stroke = "#000000" stroke-width = "2" fill = "none" />	<path d = "M254 184 L254 180 L254 175 L254 170 L254 166 L254 161 L254 156 L254 152 L254 147 L254 142 L259 142 L259 147 L259 152 L259 156 L259 161 L259 166 L259 170 L259 175 L259 180 L259 184 L254 184 Z" stroke = "#000000" stroke-width = "2" fill = "none" />	<path d = "M250 166 L250 161 L245 161 L240 161 L236 161 L236 156 L236 152 L236 147 L236 142 L231 142 L231 147 L231 152 L231 156 L231 161 L231 166 L236 166 L240 166 L245 166 L250 166 Z" stroke = "#000000" stroke-width = "2" fill = "none" />	<path d = "M305 147 L305 142 L300 142 L296 142 L291 142 L286 142 L286 147 L291 147 L296 147 L300 147 L305 147 Z" stroke = "#000000" stroke-width = "2" fill = "none" />	<path d = "M282 147 L282 142 L277 142 L277 147 L277 152 L277 156 L277 161 L277 166 L282 166 L282 161 L282 156 L282 152 L282 147 Z" stroke = "#000000" stroke-width = "2" fill = "none" />	<path d = "M286 166 L286 161 L291 161 L296 161 L300 161 L305 166 L305 170 L305 175 L305 180 L300 184 L296 184 L296 180 L300 180 L300 175 L300 170 L300 166 L296 166 L291 166 L286 166 Z" stroke = "#000000" stroke-width = "2" fill = "none" />	<path d = "M291 184 L286 184 L282 184 L277 180 L282 180 L286 180 L291 180 L291 184 Z" stroke = "#000000" stroke-width = "2" fill = "none" />	<path d = "M328 184 L323 180 L323 175 L323 170 L323 166 L323 161 L323 156 L323 152 L323 147 L328 142 L332 142 L335 142 L335 147 L330 147 L328 147 L328 152 L328 156 L328 161 L332 161 L335 161 L335 166 L330 166 L328 166 L328 170 L328 175 L328 180 L332 180 L335 180 L335 184 L330 184 L328 184 Z" stroke = "#000000" stroke-width = "2" fill = "none" />	<path d = "M339 184 L339 180 L344 180 L346 180 L346 175 L346 170 L346 166 L342 166 L339 166 L339 161 L344 161 L346 161 L351 166 L351 170 L351 175 L351 180 L346 184 L342 184 L339 184 Z" stroke = "#000000" stroke-width = "2" fill = "none" />	<path d = "M339 147 L339 142 L344 142 L346 142 L351 147 L346 147 L342 147 L339 147 Z" stroke = "#000000" stroke-width = "2" fill = "none" />	<path d = "M374 184 L374 180 L374 175 L374 170 L378 166 L383 161 L383 156 L378 161 L374 166 L369 170 L369 175 L369 180 L369 184 L374 184 Z" stroke = "#000000" stroke-width = "2" fill = "none" />	<path d = "M388 156 L388 152 L392 147 L388 147 L388 142 L392 142 L397 142 L397 147 L392 152 L388 156 Z" stroke = "#000000" stroke-width = "2" fill = "none" />	<path d = "M383 147 L383 142 L378 142 L374 142 L369 142 L369 147 L369 152 L374 152 L374 147 L378 147 L383 147 Z" stroke = "#000000" stroke-width = "2" fill = "none" />	<path d = "M58 230 L58 226 L54 226 L51 226 L51 221 L51 216 L56 212 L58 210 L56 207 L51 203 L51 198 L51 193 L56 193 L58 193 L58 189 L54 189 L49 189 L47 189 L47 193 L47 198 L47 203 L47 207 L49 210 L47 212 L47 216 L47 221 L47 226 L47 230 L51 230 L56 230 L58 230 Z" stroke = "#000000" stroke-width = "2" fill = "none" />	<path d = "M63 230 L63 226 L68 226 L70 226 L70 221 L70 216 L68 214 L65 212 L63 210 L65 207 L68 205 L70 203 L70 198 L70 193 L65 193 L63 193 L63 189 L68 189 L72 189 L74 189 L74 193 L74 198 L74 203 L74 207 L72 210 L74 212 L74 216 L74 221 L74 226 L74 230 L70 230 L65 230 L63 230 " stroke = "#000000" stroke-width = "2" fill = "none" />	<path d = "M116 230 L116 226 L116 221 L116 216 L116 212 L116 207 L116 203 L116 198 L116 193 L116 189 L121 189 L121 193 L121 198 L121 203 L121 207 L121 212 L121 216 L121 221 L121 226 L121 230 L116 230 Z" stroke = "#000000" stroke-width = "2" fill = "none" />	<path d = "M111 212 L111 207 L107 207 L102 207 L97 207 L97 203 L97 198 L97 193 L102 193 L107 193 L111 193 L111 189 L107 189 L102 189 L97 189 L93 193 L93 198 L93 203 L93 207 L97 212 L102 212 L107 212 L111 212 Z" stroke = "#000000" stroke-width = "2" fill = "none" />	<path d = "M155 221 L155 216 L150 216 L150 221 L155 221 Z" stroke = "#000000" stroke-width = "2" fill = "none" />	<path d = "M155 203 L155 198 L150 198 L150 203 L155 203 Z" stroke = "#000000" stroke-width = "2" fill = "none" />	<path d = "M196 221 L196 216 L201 216 L201 221 L201 226 L196 230 L192 230 L196 226 L196 221 Z" stroke = "#000000" stroke-width = "2" fill = "none" />	<path d = "M201 203 L201 198 L196 198 L196 203 L201 203 Z" stroke = "#000000" stroke-width = "2" fill = "none" />	<path d = "M254 230 L254 226 L250 221 L245 216 L240 212 L238 210 L240 207 L245 203 L250 198 L254 193 L254 189 L250 189 L245 193 L240 198 L236 203 L231 207 L231 212 L236 216 L240 221 L245 226 L250 230 L254 230 Z" stroke = "#000000" stroke-width = "2" fill = "none" />	<path d = "M277 216 L277 212 L282 212 L286 212 L291 212 L296 212 L300 212 L305 212 L305 216 L300 216 L296 216 L291 216 L286 216 L282 216 L277 216 Z" stroke = "#000000" stroke-width = "2" fill = "none" />	<path d = "M277 207 L277 203 L282 203 L286 203 L291 203 L296 203 L300 203 L305 203 L305 207 L300 207 L296 207 L291 207 L286 207 L282 207 L277 207 Z" stroke = "#000000" stroke-width = "2" fill = "none" />	<path d = "M323 230 L323 226 L328 221 L332 216 L337 212 L339 210 L337 207 L332 203 L328 198 L323 193 L323 189 L328 189 L332 193 L337 198 L342 203 L346 207 L346 212 L342 216 L337 221 L332 226 L328 230 L323 230 Z" stroke = "#000000" stroke-width = "2" fill = "none" />	<path d = "M385 230 L385 226 L381 226 L381 230 L385 230 Z" stroke = "#000000" stroke-width = "2" fill = "none" />	<path d = "M385 221 L381 221 L381 216 L381 212 L381 207 L385 203 L390 203 L392 203 L392 198 L392 193 L388 193 L383 193 L383 189 L388 189 L392 189 L397 193 L397 198 L397 203 L397 207 L392 207 L388 207 L385 207 L385 210 L385 212 L385 214 L385 216 L385 219 L385 221 Z" stroke = "#000000" stroke-width = "2" fill = "none" />	<path d = "M378 193 L378 191 L378 189 L376 189 L374 189 L372 191 L369 193 L369 196 L372 196 L374 196 L374 193 L376 193 L378 193 Z" stroke = "#000000" stroke-width = "2" fill = "none" />	<path d = "M56 277 L56 272 L51 272 L51 267 L51 263 L51 258 L51 253 L56 253 L61 253 L61 249 L56 249 L51 249 L47 249 L47 253 L47 258 L47 263 L47 267 L47 272 L47 277 L51 277 L56 277 Z" stroke = "#000000" stroke-width = "2" fill = "none" />	<path d = "M65 253 L65 249 L70 249 L74 249 L74 253 L74 258 L74 263 L74 267 L74 272 L74 277 L70 277 L65 277 L65 272 L61 272 L61 267 L65 267 L70 267 L70 263 L70 258 L65 258 L65 253 Z" stroke = "#000000" stroke-width = "2" fill = "none" />	<path d = "M61 263 L61 258 L56 258 L56 263 L61 263 Z" stroke = "#000000" stroke-width = "2" fill = "none" />	<path d = "M93 277 L93 272 L93 267 L93 263 L93 258 L93 253 L93 249 L93 244 L97 239 L102 235 L104 235 L104 239 L102 239 L97 244 L97 249 L97 253 L102 253 L104 253 L104 258 L100 258 L97 258 L97 263 L97 267 L97 272 L97 277 L93 277 Z" stroke = "#000000" stroke-width = "2" fill = "none" />	<path d = "M121 277 L116 277 L116 272 L116 267 L116 263 L116 258 L111 258 L109 258 L109 253 L114 253 L116 253 L116 249 L116 244 L111 239 L109 239 L109 235 L111 235 L121 244 L121 249 L121 253 L121 258 L121 263 L121 267 L121 272 L121 277 Z" stroke = "#000000" stroke-width = "2" fill = "none" />	<path d = "M148 277 L148 272 L143 272 L143 267 L143 263 L143 258 L148 258 L148 253 L143 253 L143 249 L143 244 L143 239 L148 239 L148 235 L143 235 L139 235 L139 239 L139 244 L139 249 L139 253 L139 258 L139 263 L139 267 L139 272 L139 277 L143 277 L148 277 Z" stroke = "#000000" stroke-width = "2" fill = "none" />	<path d = "M153 277 L153 272 L157 272 L162 267 L162 263 L162 260 L157 256 L162 251 L162 246 L162 244 L157 239 L153 239 L153 235 L157 235 L167 244 L167 249 L167 253 L164 256 L167 258 L167 263 L167 267 L157 277 L153 277 Z" stroke = "#000000" stroke-width = "2" fill = "none" />	<path d = "M189 277 L185 272 L185 267 L185 263 L185 258 L185 253 L185 249 L185 244 L185 239 L189 235 L194 235 L196 235 L196 239 L194 239 L189 239 L189 244 L189 249 L189 253 L189 258 L189 263 L189 267 L189 272 L194 272 L196 272 L196 277 L194 277 L192 277 L189 277 Z" stroke = "#000000" stroke-width = "2" fill = "none" />	<path d = "M201 277 L201 274 L201 272 L203 272 L206 272 L208 272 L208 270 L210 270 L213 270 L213 272 L208 277 L203 277 L201 277 Z" stroke = "#000000" stroke-width = "2" fill = "none" />	<path d = "M201 239 L201 235 L206 235 L208 235 L213 239 L213 242 L208 242 L208 239 L203 239 L201 239 Z" stroke = "#000000" stroke-width = "2" fill = "none" />	<path d = "M231 277 L231 272 L231 267 L231 263 L231 258 L231 253 L231 249 L231 244 L231 239 L231 235 L236 235 L240 235 L243 235 L243 239 L238 239 L236 239 L236 244 L236 249 L236 253 L236 258 L236 263 L236 267 L236 272 L240 272 L243 272 L243 277 L240 277 L236 277 L231 277 Z" stroke = "#000000" stroke-width = "2" fill = "none" />	<path d = "M247 277 L247 272 L252 272 L254 270 L254 267 L254 263 L254 258 L254 253 L254 249 L254 244 L254 242 L252 239 L250 239 L247 239 L247 237 L247 235 L250 235 L252 235 L254 235 L259 239 L259 244 L259 249 L259 253 L259 258 L259 263 L259 267 L259 272 L254 277 L250 277 L247 277 Z" stroke = "#000000" stroke-width = "2" fill = "none" />	<path d = "M277 277 L277 272 L277 267 L277 263 L277 258 L277 253 L277 249 L277 244 L277 239 L277 235 L282 235 L286 235 L289 235 L289 239 L284 239 L282 239 L282 244 L282 249 L282 253 L286 253 L289 253 L289 258 L284 258 L282 258 L282 263 L282 267 L282 272 L286 272 L289 272 L289 277 L284 277 L282 277 L277 277 Z" stroke = "#000000" stroke-width = "2" fill = "none" />	<path d = "M293 277 L293 272 L298 272 L303 272 L305 272 L305 277 L300 277 L296 277 L293 277 Z" stroke = "#000000" stroke-width = "2" fill = "none" />	<path d = "M293 239 L293 235 L298 235 L303 235 L305 235 L305 239 L300 239 L298 239 L296 239 L293 239 Z" stroke = "#000000" stroke-width = "2" fill = "none" />	<path d = "M323 277 L323 272 L323 267 L323 263 L323 258 L323 253 L323 249 L323 244 L323 239 L323 235 L328 235 L332 235 L335 235 L335 239 L330 239 L328 239 L328 244 L328 249 L328 253 L332 253 L335 253 L335 258 L330 258 L328 258 L328 263 L328 267 L328 272 L328 277 L323 277 Z" stroke = "#000000" stroke-width = "2" fill = "none" />	<path d = "M339 239 L339 235 L344 235 L349 235 L351 235 L351 239 L346 239 L342 239 L339 239 Z" stroke = "#000000" stroke-width = "2" fill = "none" />	<path d = "M374 277 L369 272 L369 267 L369 263 L369 258 L369 253 L369 249 L369 244 L369 239 L374 235 L378 235 L381 235 L381 239 L376 239 L374 239 L374 244 L374 249 L374 253 L374 258 L374 263 L374 267 L374 272 L378 272 L383 272 L388 272 L388 277 L383 277 L378 277 L374 277 " stroke = "#000000" stroke-width = "2" fill = "none" />	<path d = "M392 277 L392 272 L392 267 L388 267 L385 267 L385 263 L390 263 L395 263 L397 263 L397 267 L397 272 L397 277 L392 277 " stroke = "#000000" stroke-width = "2" fill = "none" />	<path d = "M397 242 L392 242 L392 239 L388 239 L385 239 L385 235 L388 235 L392 235 L397 239 L397 242 " stroke = "#000000" stroke-width = "2" fill = "none" />	<path d = "M47 323 L47 318 L47 313 L47 309 L47 304 L47 299 L47 295 L47 290 L47 285 L47 281 L51 281 L51 285 L51 290 L51 295 L51 299 L56 299 L58 299 L58 304 L54 304 L51 304 L51 309 L51 313 L51 318 L51 323 L47 323 Z" stroke = "#000000" stroke-width = "2" fill = "none" />	<path d = "M70 323 L70 318 L70 313 L70 309 L70 304 L65 304 L63 304 L63 299 L68 299 L70 299 L70 295 L70 290 L70 285 L70 281 L74 281 L74 285 L74 290 L74 295 L74 299 L74 304 L74 309 L74 313 L74 318 L74 323 L70 323 Z" stroke = "#000000" stroke-width = "2" fill = "none" />	<path d = "M95 323 L95 318 L100 318 L104 318 L104 313 L104 309 L104 304 L104 299 L104 295 L104 290 L104 285 L100 285 L95 285 L95 281 L100 281 L104 281 L109 281 L114 281 L118 281 L118 285 L114 285 L109 285 L109 290 L109 295 L109 299 L109 304 L109 309 L109 313 L109 318 L114 318 L118 318 L118 323 L114 323 L109 323 L104 323 L100 323 L95 323 Z" stroke = "#000000" stroke-width = "2" fill = "none" />	<path d = "M141 285 L141 281 L146 281 L150 281 L155 281 L160 281 L164 281 L164 285 L160 285 L155 285 L155 290 L155 295 L155 299 L155 304 L155 309 L155 313 L155 318 L150 323 L146 323 L143 323 L139 318 L139 313 L143 313 L143 318 L148 318 L150 318 L150 313 L150 309 L150 304 L150 299 L150 295 L150 290 L150 285 L146 285 L141 285 Z" stroke = "#000000" stroke-width = "2" fill = "none" />	<path d = "M185 323 L185 318 L185 313 L185 309 L185 304 L185 299 L185 295 L185 290 L185 285 L185 281 L189 281 L189 285 L189 290 L189 295 L189 299 L194 299 L199 295 L203 290 L208 285 L208 281 L213 281 L213 285 L208 290 L203 295 L199 299 L199 304 L203 309 L208 313 L213 318 L213 323 L208 323 L208 318 L203 313 L199 309 L194 304 L189 304 L189 309 L189 313 L189 318 L189 323 L185 323 Z" stroke = "#000000" stroke-width = "2" fill = "none" />	<path d = "M231 323 L231 318 L231 313 L231 309 L231 304 L231 299 L231 295 L231 290 L231 285 L231 281 L236 281 L236 285 L236 290 L236 295 L236 299 L236 304 L236 309 L236 313 L236 318 L240 318 L245 318 L250 318 L254 318 L259 318 L259 323 L254 323 L250 323 L245 323 L240 323 L236 323 L231 323 Z" stroke = "#000000" stroke-width = "2" fill = "none" />	<path d = "M277 323 L277 318 L277 313 L277 309 L277 304 L277 299 L277 295 L277 290 L277 285 L277 281 L282 281 L282 285 L286 290 L291 295 L296 290 L300 285 L300 281 L305 281 L305 285 L305 290 L305 295 L305 299 L305 304 L305 309 L305 313 L305 318 L305 323 L300 323 L300 318 L300 313 L300 309 L300 304 L300 299 L300 295 L296 299 L291 304 L286 299 L282 295 L282 299 L282 304 L282 309 L282 313 L282 318 L282 323 L277 323 Z" stroke = "#000000" stroke-width = "2" fill = "none" />	<path d = "M323 323 L323 318 L323 313 L323 309 L323 304 L323 299 L323 295 L323 290 L323 285 L323 281 L328 281 L328 285 L332 290 L337 295 L342 299 L346 304 L346 299 L346 295 L346 290 L346 285 L346 281 L351 281 L351 285 L351 290 L351 295 L351 299 L351 304 L351 309 L351 313 L351 318 L351 323 L346 323 L346 318 L346 313 L342 309 L337 304 L332 299 L328 295 L328 299 L328 304 L328 309 L328 313 L328 318 L328 323 L323 323 Z" stroke = "#000000" stroke-width = "2" fill = "none" />	<path d = "M381 323 L381 318 L378 318 L374 313 L374 309 L374 304 L374 299 L374 295 L374 290 L378 285 L381 285 L381 281 L376 281 L374 281 L369 285 L369 290 L369 295 L369 299 L369 304 L369 309 L369 313 L369 318 L374 323 L378 323 L381 323 Z" stroke = "#000000" stroke-width = "2" fill = "none" />	<path d = "M385 323 L385 318 L388 318 L392 313 L392 309 L392 304 L392 299 L392 295 L392 290 L388 285 L385 285 L385 281 L390 281 L392 281 L397 285 L397 290 L397 295 L397 299 L397 304 L397 309 L397 313 L397 318 L392 323 L388 323 L385 323 Z" stroke = "#000000" stroke-width = "2" fill = "none" />	<path d = "M47 369 L47 364 L47 359 L47 355 L47 350 L47 345 L47 341 L47 336 L47 331 L47 327 L51 327 L51 331 L51 336 L51 341 L51 345 L51 350 L51 355 L51 359 L51 364 L51 369 L47 369 Z" stroke = "#000000" stroke-width = "2" fill = "none" />	<path d = "M56 350 L56 345 L61 345 L65 345 L70 341 L70 336 L65 331 L61 331 L56 331 L56 327 L61 327 L65 327 L70 327 L74 331 L74 336 L74 341 L74 345 L70 350 L65 350 L61 350 L56 350 Z" stroke = "#000000" stroke-width = "2" fill = "none" />	<path d = "M104 369 L104 364 L102 364 L97 359 L97 355 L97 350 L97 345 L97 341 L97 336 L102 331 L104 331 L104 327 L100 327 L97 327 L93 331 L93 336 L93 341 L93 345 L93 350 L93 355 L93 359 L93 364 L97 369 L102 369 L104 369 Z" stroke = "#000000" stroke-width = "2" fill = "none" />	<path d = "M109 369 L109 364 L111 364 L107 359 L111 355 L116 359 L116 355 L116 350 L116 345 L116 341 L116 336 L111 331 L109 331 L109 327 L114 327 L116 327 L121 331 L121 336 L121 341 L121 345 L121 350 L121 355 L121 359 L121 364 L125 369 L121 373 L116 369 L111 369 L109 369 Z" stroke = "#000000" stroke-width = "2" fill = "none" />	<path d = "M139 369 L139 364 L139 359 L139 355 L139 350 L139 345 L139 341 L139 336 L139 331 L139 327 L143 327 L143 331 L143 336 L143 341 L143 345 L143 350 L143 355 L143 359 L143 364 L143 369 L139 369 Z" stroke = "#000000" stroke-width = "2" fill = "none" />	<path d = "M148 350 L148 345 L153 345 L157 345 L162 341 L162 336 L157 331 L153 331 L148 331 L148 327 L153 327 L157 327 L162 327 L167 331 L167 336 L167 341 L167 345 L162 350 L157 350 L153 350 L148 350 Z" stroke = "#000000" stroke-width = "2" fill = "none" />	<path d = "M167 369 L167 364 L162 359 L157 355 L153 355 L153 359 L157 364 L162 369 L167 369 Z" stroke = "#000000" stroke-width = "2" fill = "none" />	<path d = "M185 331 L189 327 L194 327 L196 327 L196 331 L192 331 L189 331 L189 336 L189 341 L189 345 L194 345 L196 345 L196 350 L192 350 L189 350 L185 345 L185 341 L185 336 L185 331 Z" stroke = "#000000" stroke-width = "2" fill = "none" />	<path d = "M201 331 L201 327 L206 327 L208 327 L213 331 L213 336 L208 336 L208 331 L203 331 L201 331 Z" stroke = "#000000" stroke-width = "2" fill = "none" />	<path d = "M201 350 L201 345 L206 345 L208 345 L213 350 L213 355 L213 359 L213 364 L208 369 L203 369 L201 369 L201 364 L206 364 L208 364 L208 359 L208 355 L208 350 L203 350 L201 350 Z" stroke = "#000000" stroke-width = "2" fill = "none" />	<path d = "M196 369 L196 364 L192 364 L189 364 L189 359 L185 359 L185 364 L189 369 L194 369 L196 369 Z" stroke = "#000000" stroke-width = "2" fill = "none" />	<path d = "M245 369 L243 369 L243 364 L243 359 L243 355 L243 350 L243 345 L243 341 L243 336 L243 331 L238 331 L233 331 L231 331 L231 327 L236 327 L240 327 L245 327 L250 327 L254 327 L259 327 L259 331 L254 331 L250 331 L247 331 L247 336 L247 341 L247 345 L247 350 L247 355 L247 359 L247 364 L247 369 L245 369 Z" stroke = "#000000" stroke-width = "2" fill = "none" />	<path d = "M289 369 L289 364 L284 364 L282 364 L282 359 L282 355 L282 350 L282 345 L282 341 L282 336 L282 331 L282 327 L277 327 L277 331 L277 336 L277 341 L277 345 L277 350 L277 355 L277 359 L277 364 L282 369 L286 369 L289 369 Z" stroke = "#000000" stroke-width = "2" fill = "none" />	<path d = "M293 369 L293 364 L298 364 L300 364 L300 359 L300 355 L300 350 L300 345 L300 341 L300 336 L300 331 L300 327 L305 327 L305 331 L305 336 L305 341 L305 345 L305 350 L305 355 L305 359 L305 364 L300 369 L296 369 L293 369 Z" stroke = "#000000" stroke-width = "2" fill = "none" />	<path d = "M335 369 L335 364 L330 359 L328 357 L328 355 L328 350 L328 345 L328 341 L328 336 L328 331 L328 327 L323 327 L323 331 L323 336 L323 341 L323 345 L323 350 L323 355 L323 359 L328 364 L332 369 L335 369 Z" stroke = "#000000" stroke-width = "2" fill = "none" />	<path d = "M339 369 L339 364 L342 362 L344 359 L346 357 L346 355 L346 350 L346 345 L346 341 L346 336 L346 331 L346 327 L351 327 L351 331 L351 336 L351 341 L351 345 L351 350 L351 355 L351 359 L346 364 L342 369 L339 369 Z" stroke = "#000000" stroke-width = "2" fill = "none" />	<path d = "M374 369 L369 364 L369 359 L369 355 L369 350 L369 345 L369 341 L369 336 L369 331 L369 327 L374 327 L374 331 L374 336 L374 341 L374 345 L374 350 L374 355 L374 359 L374 364 L376 364 L376 369 L374 369 Z" stroke = "#000000" stroke-width = "2" fill = "none" />	<path d = "M381 369 L381 364 L381 359 L381 355 L385 355 L385 359 L385 364 L385 369 L381 369 Z" stroke = "#000000" stroke-width = "2" fill = "none" />	<path d = "M390 369 L390 364 L392 364 L392 359 L392 355 L392 350 L392 345 L392 341 L392 336 L392 331 L392 327 L397 327 L397 331 L397 336 L397 341 L397 345 L397 350 L397 355 L397 359 L397 364 L392 369 L390 369 Z" stroke = "#000000" stroke-width = "2" fill = "none" />	<path d = "M47 415 L51 415 L51 410 L51 405 L51 403 L56 399 L58 396 L58 392 L56 389 L54 387 L51 385 L51 382 L51 380 L51 378 L51 375 L51 373 L47 373 L47 378 L47 382 L47 387 L47 389 L49 392 L51 394 L49 396 L47 399 L47 401 L47 403 L47 405 L47 408 L47 410 L47 412 L47 415 Z" stroke = "#000000" stroke-width = "2" fill = "none" />	<path d = "M74 415 L74 410 L74 405 L74 401 L74 399 L72 396 L70 394 L72 392 L74 389 L74 387 L74 385 L74 382 L74 380 L74 378 L74 375 L74 373 L70 373 L70 378 L70 382 L70 385 L68 387 L65 389 L63 392 L63 394 L63 396 L65 399 L68 401 L70 403 L70 405 L70 408 L70 410 L70 412 L70 415 L72 415 L74 415 Z" stroke = "#000000" stroke-width = "2" fill = "none" />	<path d = "M109 415 L104 415 L104 410 L104 405 L104 401 L104 396 L104 392 L102 389 L100 387 L97 385 L95 382 L93 380 L93 378 L93 375 L93 373 L95 373 L97 373 L97 375 L97 378 L100 380 L102 382 L104 385 L107 387 L109 385 L111 382 L114 380 L116 378 L116 375 L116 373 L121 373 L121 378 L121 380 L118 382 L116 385 L114 387 L111 389 L109 392 L109 394 L109 396 L109 399 L109 401 L109 403 L109 405 L109 408 L109 410 L109 412 L109 415 Z" stroke = "#000000" stroke-width = "2" fill = "none" />	<path d = "M139 415 L139 410 L139 405 L143 401 L148 396 L143 396 L143 392 L148 392 L153 392 L157 387 L162 382 L162 378 L157 378 L153 378 L148 378 L143 378 L139 378 L139 373 L143 373 L148 373 L153 373 L157 373 L162 373 L167 373 L167 378 L167 382 L167 387 L162 392 L167 392 L167 396 L162 396 L157 396 L153 401 L148 405 L143 410 L148 410 L153 410 L157 410 L162 410 L167 410 L167 415 L162 415 L157 415 L153 415 L148 415 L143 415 L139 415 Z" stroke = "#000000" stroke-width = "2" fill = "none" />	<path d = "M194 415 L189 415 L185 415 L185 410 L185 405 L185 401 L185 396 L185 392 L185 387 L185 382 L185 378 L185 373 L189 373 L194 373 L199 373 L199 378 L194 378 L189 378 L189 382 L189 387 L189 392 L189 396 L189 401 L189 405 L189 410 L194 410 L199 410 L199 415 L194 415 Z" stroke = "#000000" stroke-width = "2" fill = "none" />	<path d = "M259 415 L259 410 L259 405 L254 401 L250 396 L245 392 L240 387 L236 382 L236 378 L236 373 L231 373 L231 378 L231 382 L231 387 L236 392 L240 396 L245 401 L250 405 L254 410 L254 415 L259 415 Z" stroke = "#000000" stroke-width = "2" fill = "none" />	<path d = "M291 415 L291 410 L296 410 L300 410 L300 405 L300 401 L300 396 L300 392 L300 387 L300 382 L300 378 L296 378 L291 378 L291 373 L296 373 L300 373 L305 373 L305 378 L305 382 L305 387 L305 392 L305 396 L305 401 L305 405 L305 410 L305 415 L300 415 L296 415 L291 415 Z" stroke = "#000000" stroke-width = "2" fill = "none" />	<path d = "M323 387 L328 382 L332 378 L337 373 L342 378 L346 382 L351 387 L351 392 L346 387 L342 382 L337 378 L332 382 L328 387 L323 392 L323 387 Z" stroke = "#000000" stroke-width = "2" fill = "none" />	<path d = "M369 415 L369 410 L374 410 L378 410 L383 410 L388 410 L392 410 L397 410 L397 415 L392 415 L388 415 L383 415 L378 415 L374 415 L369 415 Z" stroke = "#000000" stroke-width = "2" fill = "none" />	<path d = "M47 419 L51 419 L56 424 L61 428 L56 428 L51 424 L47 419 Z" stroke = "#000000" stroke-width = "2" fill = "none" />	<path d = "M97 461 L93 456 L93 452 L97 447 L102 447 L102 452 L97 452 L97 456 L102 456 L102 461 L97 461 Z" stroke = "#000000" stroke-width = "2" fill = "none" />	<path d = "M121 461 L116 461 L116 459 L114 461 L111 461 L109 461 L107 461 L107 456 L111 456 L116 452 L111 452 L107 452 L107 447 L111 447 L116 447 L116 442 L116 438 L111 438 L107 438 L107 433 L111 433 L116 433 L121 433 L121 438 L121 442 L121 447 L121 452 L121 456 L121 461 " stroke = "#000000" stroke-width = "2" fill = "none" />	<path d = "M102 438 L102 433 L97 433 L93 438 L97 438 L102 438 " stroke = "#000000" stroke-width = "2" fill = "none" />	<path d = "M139 461 L139 456 L139 452 L139 447 L139 442 L139 438 L139 433 L139 428 L139 424 L139 419 L143 419 L143 424 L143 428 L143 433 L143 438 L143 442 L143 447 L143 452 L143 456 L143 461 L139 461 Z" stroke = "#000000" stroke-width = "2" fill = "none" />	<path d = "M148 461 L148 456 L153 456 L157 456 L162 456 L162 452 L162 447 L157 447 L153 447 L148 447 L148 442 L153 442 L157 442 L162 442 L167 447 L167 452 L167 456 L162 461 L157 461 L153 461 L148 461 Z" stroke = "#000000" stroke-width = "2" fill = "none" />	<path d = "M189 461 L185 456 L185 452 L185 447 L185 442 L185 438 L189 433 L194 433 L196 433 L196 438 L192 438 L189 438 L189 442 L189 447 L189 452 L189 456 L194 456 L196 456 L196 461 L194 461 L189 461 Z" stroke = "#000000" stroke-width = "2" fill = "none" />	<path d = "M201 461 L201 456 L206 456 L210 456 L213 456 L208 461 L203 461 L201 461 Z" stroke = "#000000" stroke-width = "2" fill = "none" />	<path d = "M201 438 L201 433 L206 433 L208 433 L213 438 L208 438 L206 438 L201 438 Z" stroke = "#000000" stroke-width = "2" fill = "none" />	<path d = "M254 461 L254 456 L254 452 L254 447 L254 442 L254 438 L254 433 L254 428 L254 424 L254 419 L259 419 L259 424 L259 428 L259 433 L259 438 L259 442 L259 447 L259 452 L259 456 L259 461 L254 461 Z" stroke = "#000000" stroke-width = "2" fill = "none" />	<path d = "M250 461 L245 461 L240 461 L236 461 L231 456 L231 452 L231 447 L236 442 L240 442 L245 442 L250 442 L250 447 L245 447 L240 447 L236 447 L236 452 L236 456 L240 456 L245 456 L250 456 L250 461 Z" stroke = "#000000" stroke-width = "2" fill = "none" />	<path d = "M282 461 L277 456 L277 452 L277 447 L277 442 L282 438 L286 438 L289 438 L289 442 L284 442 L282 442 L282 447 L286 447 L289 447 L289 452 L284 452 L282 452 L282 456 L286 456 L289 456 L289 461 L286 461 L282 461 Z" stroke = "#000000" stroke-width = "2" fill = "none" />	<path d = "M293 461 L293 456 L298 456 L303 456 L305 456 L300 461 L296 461 L293 461 Z" stroke = "#000000" stroke-width = "2" fill = "none" />	<path d = "M293 452 L293 447 L298 447 L300 447 L300 442 L296 442 L293 442 L293 438 L298 438 L300 438 L305 442 L305 447 L300 452 L296 452 L293 452 Z" stroke = "#000000" stroke-width = "2" fill = "none" />	<path d = "M335 461 L335 456 L335 452 L335 447 L335 442 L330 442 L330 438 L335 438 L335 433 L335 428 L335 424 L339 419 L344 419 L346 419 L351 424 L351 428 L346 428 L346 424 L342 424 L339 424 L339 428 L339 433 L339 438 L344 438 L344 442 L339 442 L339 447 L339 452 L339 456 L339 461 L335 461 Z" stroke = "#000000" stroke-width = "2" fill = "none" />	<path d = "M397 438 L397 442 L397 447 L397 452 L397 456 L397 461 L397 466 L397 470 L397 475 L392 480 L388 480 L385 480 L385 475 L390 475 L392 475 L392 470 L392 466 L392 461 L392 459 L390 461 L388 461 L385 461 L385 456 L390 456 L392 456 L392 452 L392 447 L392 442 L388 442 L385 442 L385 438 L390 438 L392 440 L392 438 L397 438 Z" stroke = "#000000" stroke-width = "2" fill = "none" />	<path d = "M381 438 L381 442 L376 442 L374 442 L374 447 L374 452 L374 456 L378 456 L381 456 L381 461 L376 461 L374 461 L369 456 L369 452 L369 447 L369 442 L374 438 L378 438 L381 438 Z" stroke = "#000000" stroke-width = "2" fill = "none" />	<path d = "M381 480 L381 475 L376 475 L374 475 L369 470 L369 475 L369 477 L372 480 L374 480 L376 480 L378 480 L381 480 Z" stroke = "#000000" stroke-width = "2" fill = "none" />	<path d = "M47 507 L47 502 L47 498 L47 493 L47 488 L47 484 L47 479 L47 474 L47 470 L47 465 L51 465 L51 470 L51 474 L51 479 L51 484 L51 488 L51 493 L51 498 L51 502 L51 507 L47 507 Z" stroke = "#000000" stroke-width = "2" fill = "none" />	<path d = "M56 488 L56 484 L61 484 L65 484 L70 484 L74 488 L74 493 L74 498 L74 502 L74 507 L70 507 L70 502 L70 498 L70 493 L70 488 L65 488 L61 488 L56 488 Z" stroke = "#000000" stroke-width = "2" fill = "none" />	<path d = "M104 507 L104 502 L104 498 L104 493 L104 488 L109 488 L109 493 L109 498 L109 502 L109 507 L104 507 Z" stroke = "#000000" stroke-width = "2" fill = "none" />	<path d = "M104 484 L104 479 L109 479 L109 484 L104 484 Z" stroke = "#000000" stroke-width = "2" fill = "none" />	<path d = "M150 507 L150 502 L150 498 L150 493 L150 488 L155 488 L155 493 L155 498 L155 502 L155 507 L155 512 L155 516 L150 521 L146 521 L143 521 L139 516 L139 512 L143 512 L143 516 L148 516 L150 516 L150 514 L150 512 L150 509 L150 507 Z" stroke = "#000000" stroke-width = "2" fill = "none" />	<path d = "M155 484 L155 479 L150 479 L150 484 L155 484 Z" stroke = "#000000" stroke-width = "2" fill = "none" />	<path d = "M185 507 L185 502 L185 498 L185 493 L185 488 L185 484 L185 479 L185 474 L185 470 L185 465 L189 465 L189 470 L189 474 L189 479 L189 484 L189 488 L189 493 L189 498 L189 502 L189 507 L185 507 Z" stroke = "#000000" stroke-width = "2" fill = "none" />	<path d = "M203 507 L199 502 L194 498 L199 498 L203 502 L208 507 L203 507 Z" stroke = "#000000" stroke-width = "2" fill = "none" />	<path d = "M194 493 L199 488 L203 484 L208 484 L203 488 L199 493 L194 493 Z" stroke = "#000000" stroke-width = "2" fill = "none" />	<path d = "M247 507 L243 507 L243 502 L243 498 L243 493 L243 488 L243 484 L243 479 L243 474 L243 470 L240 472 L240 470 L240 467 L243 465 L245 465 L247 465 L247 467 L247 470 L247 472 L247 474 L247 477 L247 479 L247 481 L247 484 L247 486 L247 488 L247 491 L247 493 L247 495 L247 498 L247 500 L247 502 L250 500 L250 502 L250 505 L247 507 Z" stroke = "#000000" stroke-width = "2" fill = "none" />	<path d = "M277 507 L277 502 L277 498 L277 493 L277 488 L282 488 L282 491 L284 488 L286 488 L289 491 L291 491 L293 491 L296 488 L298 488 L300 488 L303 488 L305 491 L305 493 L305 495 L305 498 L305 500 L305 502 L305 505 L305 507 L300 507 L300 502 L300 498 L300 493 L296 493 L293 495 L293 500 L293 505 L293 507 L291 507 L289 507 L289 505 L289 502 L289 500 L289 498 L289 495 L286 493 L284 493 L282 495 L282 500 L282 505 L282 507 L277 507 Z" stroke = "#000000" stroke-width = "2" fill = "none" />	<path d = "M328 507 L328 502 L328 498 L328 493 L328 488 L328 484 L332 484 L332 488 L337 484 L342 484 L346 484 L351 488 L351 493 L351 498 L351 502 L351 507 L346 507 L346 502 L346 498 L346 493 L342 488 L337 488 L332 493 L332 498 L332 502 L332 507 L328 507 Z" stroke = "#000000" stroke-width = "2" fill = "none" />	<path d = "M376 507 L372 502 L372 498 L372 493 L372 488 L376 484 L381 484 L381 488 L376 488 L376 493 L376 498 L376 502 L381 502 L381 507 L376 507 Z" stroke = "#000000" stroke-width = "2" fill = "none" />	<path d = "M385 507 L385 502 L390 502 L390 498 L390 493 L390 488 L385 488 L385 484 L390 484 L395 488 L395 493 L395 498 L395 502 L390 507 L385 507 Z" stroke = "#000000" stroke-width = "2" fill = "none" />	<path d = "M47 576 L47 572 L47 567 L47 562 L47 558 L47 553 L47 548 L47 544 L47 539 L47 534 L47 530 L51 530 L51 534 L51 539 L51 544 L51 548 L51 553 L51 558 L51 562 L51 567 L51 572 L51 576 L47 576 Z" stroke = "#000000" stroke-width = "2" fill = "none" />	<path d = "M56 553 L56 548 L61 548 L65 548 L70 548 L70 544 L70 539 L70 534 L65 534 L61 534 L56 534 L56 530 L61 530 L65 530 L70 530 L74 534 L74 539 L74 544 L74 548 L70 553 L65 553 L61 553 L56 553 Z" stroke = "#000000" stroke-width = "2" fill = "none" />	<path d = "M116 553 L116 548 L116 544 L116 539 L116 534 L116 530 L121 530 L121 534 L121 539 L121 544 L121 548 L121 553 L121 558 L121 562 L121 567 L121 572 L125 572 L130 567 L130 572 L125 576 L121 576 L116 572 L116 567 L116 562 L116 558 L116 553 Z" stroke = "#000000" stroke-width = "2" fill = "none" />	<path d = "M111 553 L111 548 L107 548 L102 548 L97 548 L97 544 L97 539 L97 534 L102 534 L107 534 L111 534 L111 530 L107 530 L102 530 L97 530 L93 534 L93 539 L93 544 L93 548 L97 553 L102 553 L107 553 L111 553 Z" stroke = "#000000" stroke-width = "2" fill = "none" />	<path d = "M139 553 L139 548 L139 544 L139 539 L139 534 L139 530 L139 525 L143 525 L143 530 L143 534 L143 539 L143 544 L143 548 L143 553 L139 553 Z" stroke = "#000000" stroke-width = "2" fill = "none" />	<path d = "M148 530 L153 525 L157 525 L162 525 L167 530 L167 534 L162 534 L162 530 L157 530 L153 530 L148 534 L148 530 Z" stroke = "#000000" stroke-width = "2" fill = "none" />	<path d = "M187 553 L187 548 L192 548 L196 548 L196 553 L192 553 L187 553 Z" stroke = "#000000" stroke-width = "2" fill = "none" />	<path d = "M201 553 L201 548 L206 548 L206 544 L201 544 L201 539 L206 539 L210 544 L210 548 L206 553 L201 553 Z" stroke = "#000000" stroke-width = "2" fill = "none" />	<path d = "M196 544 L192 544 L187 539 L187 537 L187 534 L189 532 L192 530 L196 530 L196 534 L192 534 L192 539 L196 539 L196 544 Z" stroke = "#000000" stroke-width = "2" fill = "none" />	<path d = "M201 534 L201 530 L206 530 L210 530 L210 534 L206 534 L201 534 Z" stroke = "#000000" stroke-width = "2" fill = "none" />	<path d = "M243 553 L243 548 L243 544 L238 544 L238 539 L243 539 L243 534 L243 530 L247 530 L247 534 L247 539 L252 539 L252 544 L247 544 L247 548 L247 553 L247 558 L247 562 L252 562 L257 558 L259 558 L259 560 L257 562 L254 565 L252 567 L250 567 L247 567 L245 567 L243 567 L243 565 L243 562 L243 560 L243 558 L243 555 L243 553 Z" stroke = "#000000" stroke-width = "2" fill = "none" />	<path d = "M305 553 L305 548 L305 544 L305 539 L305 534 L305 530 L300 530 L300 534 L300 539 L300 544 L300 548 L300 553 L305 553 Z" stroke = "#000000" stroke-width = "2" fill = "none" />	<path d = "M296 548 L291 553 L286 553 L282 553 L277 548 L277 544 L277 539 L277 534 L277 530 L282 530 L282 534 L282 539 L282 544 L282 548 L286 548 L291 548 L296 544 L296 548 Z" stroke = "#000000" stroke-width = "2" fill = "none" />	<path d = "M339 553 L335 553 L330 548 L325 544 L323 541 L323 539 L323 534 L323 530 L328 530 L328 534 L328 539 L328 541 L330 544 L332 546 L335 548 L337 548 L339 548 L342 546 L344 544 L346 541 L346 539 L346 537 L346 534 L346 532 L346 530 L349 530 L351 530 L351 532 L351 534 L351 537 L351 539 L351 541 L349 544 L346 546 L344 548 L342 551 L339 553 Z" stroke = "#000000" stroke-width = "2" fill = "none" />	<path d = "M374 553 L369 548 L369 544 L369 539 L369 534 L374 534 L374 539 L374 544 L374 548 L378 548 L381 548 L381 544 L385 544 L385 548 L390 548 L392 548 L392 544 L392 539 L392 534 L397 534 L397 539 L397 544 L397 548 L392 553 L388 553 L383 553 L378 553 L374 553 Z" stroke = "#000000" stroke-width = "2" fill = "none" />	<path d = "M47 599 L51 595 L56 590 L58 588 L56 585 L51 581 L47 576 L51 576 L56 581 L61 585 L65 581 L70 576 L74 576 L70 581 L65 585 L63 588 L65 590 L70 595 L74 599 L70 599 L65 595 L61 590 L56 595 L51 599 L47 599 " stroke = "#000000" stroke-width = "2" fill = "none" />	<path d = "M107 599 L102 595 L97 590 L93 585 L93 581 L97 581 L97 585 L102 590 L107 595 L111 595 L116 590 L116 585 L116 581 L121 581 L121 585 L121 590 L121 595 L116 599 L111 604 L107 608 L102 613 L97 618 L93 618 L93 613 L97 613 L102 608 L107 604 L111 599 L107 599 " stroke = "#000000" stroke-width = "2" fill = "none" />	<path d = "M139 599 L139 595 L143 595 L148 590 L148 585 L153 585 L157 581 L153 581 L148 581 L143 581 L139 581 L139 576 L143 576 L148 576 L153 576 L157 576 L162 576 L167 576 L167 581 L162 581 L157 585 L162 585 L162 590 L157 590 L153 590 L148 595 L153 595 L157 595 L162 595 L167 595 L167 599 L162 599 L157 599 L153 599 L148 599 L143 599 L139 599 Z" stroke = "#000000" stroke-width = "2" fill = "none" />	<path d = "M199 599 L194 599 L189 595 L189 590 L189 585 L189 583 L187 581 L185 578 L187 576 L189 574 L189 571 L189 567 L189 562 L194 557 L199 557 L199 562 L194 562 L194 567 L194 571 L194 576 L192 578 L194 581 L194 583 L194 585 L194 588 L194 590 L194 592 L194 595 L196 595 L199 595 L199 597 L199 599 " stroke = "#000000" stroke-width = "2" fill = "none" />	<path d = "M247 599 L243 599 L243 595 L243 590 L243 585 L243 581 L243 576 L243 571 L243 567 L243 562 L243 557 L247 557 L247 562 L247 567 L247 571 L247 576 L247 581 L247 585 L247 590 L247 595 L247 599 Z" stroke = "#000000" stroke-width = "2" fill = "none" />	<path d = "M291 557 L296 557 L300 562 L300 567 L300 571 L300 574 L303 576 L305 578 L303 581 L300 583 L300 585 L300 590 L300 595 L296 599 L291 599 L291 595 L296 595 L296 590 L296 585 L296 581 L298 578 L296 576 L296 574 L296 571 L296 569 L296 567 L296 564 L296 562 L293 562 L291 562 L291 560 L291 557 " stroke = "#000000" stroke-width = "2" fill = "none" />	<path d = "M323 567 L323 562 L328 557 L332 557 L337 562 L342 562 L346 557 L351 557 L346 562 L342 567 L337 567 L332 562 L328 562 L323 567 Z" stroke = "#000000" stroke-width = "2" fill = "none" /></svg>