<svg width="400" height="400" viewbox = "0 0 400 400"  xmlns="http://www.w3.org/2000/svg">
<!--<json>{
  "glyph": "0336,0336,0336,0331,0331,0337,0337,0337,0223,",
  "x0": 200,
  "y0": 126.79499999999999,
  "unit": 73.20500000000004,
  "width": 400,
  "height": 400,
  "style": {
    "color0": "black",
    "fill0": "black",
    "line0": 1,
    "color1": "black",
    "fill1": "black",
    "line1": 5,
    "color2": "red",
    "fill2": "red",
    "line2": 2,
    "color3": "#FF7900",
    "fill3": "#FF7900",
    "line3": 2,
    "color4": "yellow",
    "fill4": "yellow",
    "line4": 2,
    "color5": "green",
    "fill5": "green",
    "line5": 2,
    "color6": "blue",
    "fill6": "blue",
    "line6": 2,
    "color7": "purple",
    "fill7": "purple",
    "line7": 2
  },
  "shapes": [
    "0220:0330,0336,0336,0336,0334,0306,0362,0203,0335,0335,0203,0203,0335,0335,0203,0203,0335,0335,0203,0363,0304,0334,0362,0203,0336,0203,0364,0335,0335,0330,0337,0330,0337,0337,0337,0331,",
    "0221:0350,0335,0304,0220,",
    "0222:0221,0221,0221,0221,0221,0221,0221,0221,",
    "0223:0321,0332,0336,0336,0336,0335,0334,0362,0203,0335,0337,0203,0203,0203,0203,0203,0203,0203,0203,0335,0336,0203,0335,0337,0203,0203,0203,0203,0203,0203,0203,0203,0354,0335,0333,0333,0333,0333,0336,0330,0337,0332,0362,0203,0335,0203,0203,0335,0203,0354,0335,0335,0336,0331,0332,0332,0332,0332,0332,0332,0332,0332,0335,0335,0337,0337,0337,0362,0203,0203,0334,0203,0336,0203,0334,0335,0336,0334,0203,0203,0203,0203,0203,0203,0203,0203,0364,0331,0331,0331,0331,0331,0331,0331,0332,0332,0332,0362,0203,0203,0203,0203,0203,0203,0364,0333,0333,0335,0335,0336,0333,0337,0337,0362,0203,0203,0203,0364,0335,0335,0336,0336,0332,0332,0332,0332,0332,0332,0337,0362,0203,0203,0203,0203,0203,0203,0364,0333,0333,0331,0331,0331,0336,0332,0337,0330,0337,0337,0337,0222,",
    "01220:0333,0200,0336,0330,0332,0336,0220,0337,0331,0333,0337,",
    "01221:0333,0200,0336,0330,0332,0336,0221,0221,0334,0331,0333,0331,0333,0337,0337,",
    "01222:0333,0200,0336,0330,0332,0336,0222,0337,0331,0333,0337,",
    "01223:0333,0200,0336,0330,0332,0336,0336,0330,0223,0337,0331,0333,0337,0320,0336,0336,0336,0336,0336,0331,0337,0337,0337,0337,0337,",
    "0240:0220,0336,0331,0333,0336,0321,0335,0342,0335,0335,0342,0335,0330,0330,0332,0332,0337,0337,",
    "01240:0333,0200,0336,0330,0332,0210,0240,0211,0333,0331,0337,",
    "0241:0220,0336,0321,0343,0332,0350,0335,0336,0342,0334,0334,0342,0335,0304,0337,0333,0337,",
    "01241:0333,0200,0336,0332,0330,0210,0241,0211,0333,0331,0337,",
    "0242:0220,0321,0336,0343,0333,0336,0350,0335,0342,0334,0334,0342,0335,0337,0304,0332,0337,",
    "01242:0333,0200,0336,0330,0332,0210,0242,0211,0333,0331,0337,",
    "0243:0220,0336,0331,0332,0336,0321,0343,0332,0350,0334,0336,0342,0335,0335,0342,0337,0334,0334,0335,0304,0332,0330,0330,0337,0337,0333,",
    "01243:0333,0200,0336,0330,0332,0210,0243,0211,0333,0331,0337,",
    "0244:0220,0336,0331,0333,0336,0321,0343,0333,0350,0336,0335,0342,0334,0334,0342,0335,0337,0304,0333,0330,0330,0337,0337,0332,",
    "01244:0333,0200,0336,0330,0332,0210,0244,0211,0333,0331,0337,",
    "0245:0210,0332,0332,0362,0335,0203,0203,0203,0203,0334,0203,0363,0332,0332,0331,0211,",
    "01245:0333,0200,0336,0330,0332,0336,0245,0337,0333,0331,0337,",
    "0246:0210,0332,0332,0335,0306,0336,0330,0335,0335,0335,0321,0362,0203,0335,0335,0203,0364,0331,0350,0335,0337,0366,0333,0333,0333,0333,0334,0334,0334,0334,0367,0335,0336,0342,0334,0334,0342,0330,0330,0330,0330,0335,0335,0335,0304,0337,0211,",
    "01246:0333,0200,0336,0330,0332,0336,0246,",
    "0247:0330,0332,0336,0332,0336,0221,0333,0333,0333,0222,0333,0333,0333,0223,0333,0333,0333,0225,0333,0331,0331,0331,0332,0332,0332,0332,0332,0332,0332,0332,0332,0332,0332,0332,0333,0333,0226,0331,0331,0331,0333,0333,0333,0333,0333,0333,0333,0333,0333,0333,0333,0333,0333,0330,0333,0330,0330,0333,0330,0331,0332,0332,0332,0332,0332,0332,0332,0332,0332,0332,0332,0332,0227,0333,0333,0333,0230,0333,0331,0331,0331,0331,0332,0332,0332,0330,0332,0332,0332,0332,0332,0332,0333,0333,0231,0333,0333,0333,0232,0331,0333,0330,0333,0333,0233,0333,0333,0333,0234,0330,0330,0332,0330,0332,0332,0337,0337,",
    "01247:0333,0200,0336,0330,0332,0220,0336,0247,0337,0331,0333,0337,"
  ]
}</json>-->	<path d = "M127 145 L127 136 L145 136 L163 136 L182 136 L200 136 L218 136 L237 136 L255 136 L273 136 L273 145 L255 145 L237 145 L218 145 L200 145 L182 145 L163 145 L145 145 L127 145 Z" stroke = "#000000" stroke-width = "5" fill = "none" />	<path d = "M182 136 L182 118 L200 118 L218 118 L218 136 Z" stroke = "#000000" stroke-width = "5" fill = "none" />	<path d = "M145 145 L145 218 L145 292 L218 292 L255 292 L255 273 L255 255 L255 237 L255 218 L255 200 L255 182 L255 163 L255 145 " stroke = "#000000" stroke-width = "5" fill = "none" />	<path d = "M200 273 L200 255 L200 237 L200 218 L200 200 L200 182 L200 163 " stroke = "#000000" stroke-width = "5" fill = "none" />	<path d = "M227 163 L227 200 L227 237 L227 273 " stroke = "#000000" stroke-width = "5" fill = "none" />	<path d = "M173 273 L173 255 L173 237 L173 218 L173 200 L173 182 L173 163 " stroke = "#000000" stroke-width = "5" fill = "none" />	<path d = "M304 96 L291 84 L308 79 L326 74 L321 92 L316 109 L304 96 Z" stroke = "#000000" stroke-width = "5" fill = "#000000" />	<path d = "M304 96 L291 109 L284 116 " stroke = "#000000" stroke-width = "5" fill = "none" />	<path d = "M346 200 L346 182 L362 191 L378 200 L362 209 L346 218 L346 200 Z" stroke = "#000000" stroke-width = "5" fill = "#000000" />	<path d = "M346 200 L328 200 L319 200 " stroke = "#000000" stroke-width = "5" fill = "none" />	<path d = "M304 304 L316 291 L321 308 L326 326 L308 321 L291 316 L304 304 Z" stroke = "#000000" stroke-width = "5" fill = "#000000" />	<path d = "M304 304 L291 291 L284 284 " stroke = "#000000" stroke-width = "5" fill = "none" />	<path d = "M200 346 L218 346 L209 362 L200 378 L191 362 L182 346 L200 346 Z" stroke = "#000000" stroke-width = "5" fill = "#000000" />	<path d = "M200 346 L200 328 L200 319 " stroke = "#000000" stroke-width = "5" fill = "none" />	<path d = "M96 304 L109 316 L92 321 L74 326 L79 308 L84 291 L96 304 Z" stroke = "#000000" stroke-width = "5" fill = "#000000" />	<path d = "M96 304 L109 291 L116 284 " stroke = "#000000" stroke-width = "5" fill = "none" />	<path d = "M54 200 L54 218 L38 209 L22 200 L38 191 L54 182 L54 200 Z" stroke = "#000000" stroke-width = "5" fill = "#000000" />	<path d = "M54 200 L72 200 L81 200 " stroke = "#000000" stroke-width = "5" fill = "none" />	<path d = "M96 96 L84 109 L79 92 L74 74 L92 79 L109 84 L96 96 Z" stroke = "#000000" stroke-width = "5" fill = "#000000" />	<path d = "M96 96 L109 109 L116 116 " stroke = "#000000" stroke-width = "5" fill = "none" />	<path d = "M200 54 L182 54 L191 38 L200 22 L209 38 L218 54 L200 54 Z" stroke = "#000000" stroke-width = "5" fill = "#000000" />	<path d = "M200 54 L200 72 L200 81 " stroke = "#000000" stroke-width = "5" fill = "none" /></svg>