<svg width="600" height="600" viewbox = "0 0 600 600"  xmlns="http://www.w3.org/2000/svg">
<!--<json>{
  "glyph": "0230,0227,",
  "x0": 300,
  "y0": 300,
  "unit": 276.18169715144825,
  "width": 600,
  "height": 600,
  "style": {
    "color0": "#00ff00",
    "fill0": "black",
    "line0": 1,
    "color1": "black",
    "fill1": "black",
    "line1": 5,
    "color2": "red",
    "fill2": "red",
    "line2": 1,
    "color3": "#FF7900",
    "fill3": "#FF7900",
    "line3": 1,
    "color4": "yellow",
    "fill4": "yellow",
    "line4": 1,
    "color5": "green",
    "fill5": "green",
    "line5": 1,
    "color6": "blue",
    "fill6": "blue",
    "line6": 1,
    "color7": "purple",
    "fill7": "purple",
    "line7": 1
  },
  "shapes": [
    "0220:0313,0304,0336,0332,0337,0342,0336,0333,0330,0334,0337,0342,0335,0336,0331,0332,0333,0336,0332,0337,0342,0336,0333,0334,0333,0337,0342,0335,0336,0331,0336,0332,0337,0342,0336,0333,0330,0334,0337,0342,0335,0336,0331,0336,0332,0337,0342,0336,0333,0330,0334,0337,0342,0335,0336,0331,0336,0332,0337,0342,0336,0333,0330,0334,0337,0342,0335,0336,0331,0337,0337,0337,0337,0337,0336,0336,0336,0336,0336,0336,0332,0337,0342,0336,0333,0334,0333,0337,0342,0335,0336,0331,0337,0337,0337,0337,0337,0337,0332,0336,0336,0336,0330,0336,0333,0330,0337,0336,0333,0337,01304,01313,0331,0331,0333,0333,0333,0333,0333,0336,0330,0337,0337,0337,0337,",
    "01220:0333,0200,0336,0330,0332,0336,0331,0333,0337,0220,0336,0331,0333,0337,0337,0320,",
    "0221:0304,0334,0306,0336,0330,0335,0201,0335,0335,0201,0335,0335,0201,0335,0304,0335,0336,0330,0336,0331,0332,0330,0336,0333,0337,01306,0331,0331,0336,0332,0337,0337,0337,0333,0337,",
    "01221:0333,0200,0336,0330,0332,0331,0336,0333,0330,0337,0221,0336,0331,0333,0337,0337,",
    "0222:0350,0335,0310,0336,0201,0334,0334,0334,0336,0201,0335,0335,0335,0336,0201,0334,0334,0334,0336,0201,0335,0335,0335,0336,0201,0334,0334,0334,0336,0201,0335,0335,0335,0336,0201,0334,0334,0334,0336,0201,0335,0335,0335,0336,0201,0334,0334,0330,0335,0337,0337,0337,0337,0337,0337,0337,0337,0337,0331,0304,0313,0336,0330,0333,0336,0331,0336,0331,0332,0336,0332,0337,01304,01350,01310,0331,0331,0332,0332,0332,0332,0330,0332,0336,0332,0337,0337,0337,0337,",
    "01222:0333,0200,0336,0330,0332,0336,0331,0333,0337,0332,0222,0333,0336,0333,0331,0337,0337,",
    "0223:0304,0335,0330,0334,0334,0306,0350,0335,0312,0336,0313,0337,0330,0334,0334,0334,0334,0313,0336,0330,0334,0334,0334,0334,0334,0334,0330,0335,0335,0335,0335,0312,0335,0312,0336,0313,0337,0201,0335,0335,0335,0335,0335,0312,0336,0201,0334,0334,0334,0334,0334,0336,0201,0335,0335,0335,0335,0335,0336,0201,0334,0334,0334,0334,0334,0334,0335,0336,0201,0331,0335,0334,0334,0337,0330,0335,0337,0331,0334,0337,0330,0335,0337,0331,0334,0337,0330,0334,0313,0336,0312,0337,0331,0334,0334,0334,0313,0304,0313,0336,0336,0330,0333,0333,0336,0331,0332,0336,0331,0337,01312,0331,0332,0332,0332,0332,0336,0330,0337,0337,0337,0337,",
    "01223:0333,0200,0336,0336,0330,0332,0337,0223,0336,0331,0333,0337,0337,0320,",
    "0224:0304,0313,0335,0311,0305,0350,0330,0334,0334,0334,0334,0336,0330,0334,0334,0330,0335,0337,0335,0335,0335,0335,0336,0330,0335,0335,0335,0336,0201,0334,0334,0334,0336,0201,0335,0335,0335,0336,0201,0334,0334,0334,0336,0201,0335,0335,0335,0336,0201,0334,0334,0334,0336,0201,0335,0335,0335,0334,0330,0334,0337,0337,0337,0337,0337,0337,0336,0331,0334,0334,0334,0330,0335,0335,0337,0331,0335,0304,0337,0334,0313,0336,0336,0336,0333,0333,0333,0336,0330,0332,0337,0336,0336,0331,0332,0337,0337,01305,01311,0331,0332,0332,0332,0332,0336,0330,0336,0330,0332,0337,0337,0337,0337,0337,",
    "01224:0333,0200,0336,0332,0330,0224,0333,0331,0337,",
    "0225:0313,0304,0335,0305,0311,0334,0336,0330,0335,0337,0350,0335,0330,0335,0335,0335,0335,0330,0335,0335,0335,0336,0335,0201,0335,0335,0335,0335,0336,0201,0334,0334,0334,0334,0201,0335,0335,0335,0335,0336,0201,0334,0334,0334,0334,0201,0335,0335,0335,0335,0336,0201,0334,0334,0334,0334,0201,0335,0335,0335,0335,0336,0201,0334,0334,0334,0334,0201,0335,0335,0335,0335,0336,0201,0334,0334,0334,0334,0201,0335,0335,0335,0335,0336,0201,0334,0334,0334,0334,0201,0335,0335,0335,0335,0336,0201,0334,0334,0334,0337,0330,0337,0337,0337,0337,0337,0337,0337,0331,0304,0334,0313,",
    "01225:0333,0200,0336,0336,0332,0332,0330,0337,0225,0304,0333,0331,0336,0330,0337,0337,",
    "0226:0313,0304,0335,0306,0350,0312,0330,0334,0334,0334,0334,0334,0336,0330,0334,0334,0330,0331,0334,0336,0342,0334,0334,0342,0330,0334,0336,0331,0342,0335,0335,0335,0335,0342,0334,0336,0342,0334,0334,0342,0330,0334,0336,0331,0342,0335,0335,0335,0335,0342,0334,0336,0342,0334,0334,0342,0334,0337,0330,0335,0337,0331,0334,0337,0330,0335,0337,0331,0313,0336,0312,0335,0337,0342,0330,0335,0335,0335,0337,0330,0335,0335,0335,0313,0337,0304,0313,",
    "01226:0333,0200,0336,0330,0332,0332,0337,0226,0336,0331,0336,0333,0330,0333,0333,0331,0333,0337,0337,",
    "0227:0331,0220,0333,0332,0222,0333,0330,0332,0335,0335,0332,0223,0335,0335,0221,0312,0336,0331,0306,0334,0313,0337,0330,0335,0304,0335,0335,0336,0312,0337,0313,0304,0330,0335,0330,0335,0330,0335,0330,0334,0331,0335,0330,0334,0334,0350,0310,0337,0335,0330,0336,0335,0304,0335,0306,0334,0330,0335,0335,0330,0335,0335,0330,0335,0335,0304,0334,0226,0335,0306,0350,0334,0312,0336,0330,0335,0335,0330,0331,0334,0334,0331,0337,0313,0304,0332,0225,0335,0305,0334,0311,0336,0330,0335,0350,0335,0337,0304,0334,0224,0335,0305,0350,0334,0311,0336,0330,0335,0335,0335,0335,0335,0304,0305,0330,0334,0334,0311,0337,0330,0335,0335,0304,0335,0313,",
    "01227:0333,0200,0336,0330,0332,0210,0227,0211,0331,0333,0337,",
    "0230:0331,0200,0335,0201,0334,0334,0350,0335,0310,0337,0201,0335,0304,0335,0336,0201,0335,0312,0336,0201,0335,0306,0350,0335,0313,0337,0201,0334,0313,0336,0312,0337,0304,0335,0335,0306,0334,0201,0335,0335,0342,0335,0350,0335,0312,0336,0201,0334,0334,0201,0335,0335,0335,0337,0313,0304,0335,0332,0335,0305,0334,0311,0336,0201,0335,0350,0335,0337,0342,0334,0336,0201,0335,0335,0201,0335,0335,0335,0337,0313,0304,0335,",
    "01230:0333,0200,0336,0330,0332,0336,0230,0337,0331,0333,0337,",
    "0231:0350,0310,0362,0203,0335,0335,0203,0335,0335,0335,0337,0203,0363,0324,0334,0334,0334,0336,0362,0203,0335,0334,0334,0337,0203,0334,0334,0334,0334,0335,0336,0203,0334,0337,0203,0363,0335,0320,0336,0331,0335,0335,0335,0337,0362,0203,0335,0335,0335,0336,0203,0335,0335,0203,0363,0331,0304,0335,0313,",
    "01231:0333,0200,0336,0330,0332,0336,0331,0332,0336,0330,0337,0231,0331,0333,0336,0331,0337,0337,0337,",
    "0232:0336,0336,0336,0336,0336,0362,0203,0337,0203,0306,0334,0337,0203,0335,0335,0203,0203,0334,0334,0203,0203,0335,0335,0203,0203,0334,0334,0203,0203,0335,0335,0203,0203,0334,0334,0203,0335,0203,0336,0336,0203,0304,0337,0337,0337,0337,0337,0364,",
    "01232:0333,0200,0336,0330,0332,0331,0336,0330,0337,0232,0336,0330,0337,0333,0337,0331,",
    "0233:0336,0336,0362,0203,0336,0203,0334,0364,0337,0330,0335,0335,0337,0342,0336,0330,0332,0331,0337,0342,0336,0330,0334,0336,0362,0203,0337,0203,0335,0364,0335,0337,0337,0335,0335,",
    "01233:0333,0200,0336,0332,0336,0330,0337,0233,0336,0330,0333,0333,0337,0337,0331,",
    "0234:0336,0366,0330,0333,0333,0336,0331,0337,0367,0335,0335,0366,0331,0333,0333,0367,0335,0335,0337,",
    "01234:0333,0200,0336,0330,0332,0336,0331,0337,0234,0336,0330,0336,0330,0337,0337,0333,0337,0331,",
    "0235:0313,0336,0314,0336,0313,0337,0234,0234,0234,0234,0314,0337,0313,",
    "01235:0333,0200,0336,0332,0336,0330,0337,0235,0336,0330,0337,0333,0337,0331,",
    "0236:0336,0336,0336,0336,0347,0337,0337,0337,0337,",
    "01236:0333,0200,0336,0330,0332,0336,0342,0335,0342,0335,0342,0335,0342,0335,0337,0236,0331,0333,0337,",
    "0237:0246,0331,0332,0331,0246,0330,0333,0331,0331,0333,0246,0332,0330,",
    "01237:0333,0200,0336,0330,0332,0336,0237,0313,0337,0304,0313,0331,0333,0337,"
  ]
}</json>-->	<path d = "M300 576 L300 300 L24 300 L24 576 L300 576 Z" stroke = "#00ff00" stroke-width = "1" fill = "none" />    <line x1="300" y1="576" x2="576" y2="576" style="stroke:#00ff00;stroke-width:1" />
    <line x1="576" y1="576" x2="300" y2="300" style="stroke:#00ff00;stroke-width:1" />
    <line x1="300" y1="300" x2="576" y2="300" style="stroke:#00ff00;stroke-width:1" />
    <line x1="576" y1="300" x2="576" y2="459" style="stroke:#00ff00;stroke-width:1" />
    <line x1="576" y1="459" x2="300" y2="300" style="stroke:#00ff00;stroke-width:1" />
    <line x1="300" y1="300" x2="438" y2="61" style="stroke:#00ff00;stroke-width:1" />
    <line x1="438" y1="61" x2="576" y2="300" style="stroke:#00ff00;stroke-width:1" />
    <line x1="438" y1="61" x2="300" y2="141" style="stroke:#00ff00;stroke-width:1" />
    <line x1="300" y1="141" x2="300" y2="300" style="stroke:#00ff00;stroke-width:1" />
    <line x1="24" y1="300" x2="77" y2="138" style="stroke:#00ff00;stroke-width:1" />
    <line x1="77" y1="138" x2="300" y2="300" style="stroke:#00ff00;stroke-width:1" />
    <line x1="77" y1="138" x2="247" y2="138" style="stroke:#00ff00;stroke-width:1" />
    <line x1="247" y1="138" x2="300" y2="300" style="stroke:#00ff00;stroke-width:1" />
    <line x1="162" y1="576" x2="162" y2="300" style="stroke:#00ff00;stroke-width:1" />
    <line x1="300" y1="438" x2="24" y2="438" style="stroke:#00ff00;stroke-width:1" />
    <line x1="231" y1="576" x2="231" y2="438" style="stroke:#00ff00;stroke-width:1" />
    <line x1="300" y1="507" x2="162" y2="507" style="stroke:#00ff00;stroke-width:1" />
    <line x1="265" y1="576" x2="265" y2="507" style="stroke:#00ff00;stroke-width:1" />
    <line x1="300" y1="542" x2="231" y2="542" style="stroke:#00ff00;stroke-width:1" />
    <line x1="283" y1="576" x2="283" y2="542" style="stroke:#00ff00;stroke-width:1" />
    <line x1="300" y1="559" x2="265" y2="559" style="stroke:#00ff00;stroke-width:1" />
    <line x1="291" y1="576" x2="291" y2="559" style="stroke:#00ff00;stroke-width:1" />
    <line x1="300" y1="568" x2="283" y2="568" style="stroke:#00ff00;stroke-width:1" />
    <line x1="296" y1="576" x2="296" y2="568" style="stroke:#00ff00;stroke-width:1" />
    <line x1="300" y1="572" x2="291" y2="572" style="stroke:#00ff00;stroke-width:1" />
	<path d = "M93 524 L93 490 L58 490 L58 524 L93 524 Z" stroke = "#00ff00" stroke-width = "1" fill = "none" /><circle cx="76" cy = "507" r = "17.261356071965515" stroke = "#00ff00" stroke-width = "1" fill = "none" />
    <line x1="76" y1="507" x2="76" y2="490" style="stroke:#00ff00;stroke-width:1" />
    <line x1="76" y1="507" x2="93" y2="507" style="stroke:#00ff00;stroke-width:1" />
    <line x1="76" y1="507" x2="76" y2="524" style="stroke:#00ff00;stroke-width:1" />
    <line x1="76" y1="507" x2="58" y2="507" style="stroke:#00ff00;stroke-width:1" />
<circle cx="69" cy = "501" r = "4.315339017991379" stroke = "#00ff00" stroke-width = "1" fill = "none" />
<circle cx="82" cy = "501" r = "4.315339017991379" stroke = "#00ff00" stroke-width = "1" fill = "none" />
<circle cx="82" cy = "513" r = "4.315339017991379" stroke = "#00ff00" stroke-width = "1" fill = "none" />
<circle cx="69" cy = "513" r = "4.315339017991379" stroke = "#00ff00" stroke-width = "1" fill = "none" />
	<path d = "M127 524 L127 490 L93 490 L93 524 L127 524 Z" stroke = "#00ff00" stroke-width = "1" fill = "none" />	<path d = "M119 516 L119 507 L110 507 L101 507 L101 516 L110 516 L119 516 Z" stroke = "#00ff00" stroke-width = "1" fill = "none" />    <line x1="110" y1="516" x2="110" y2="507" style="stroke:#00ff00;stroke-width:1" />
    <line x1="300" y1="576" x2="438" y2="438" style="stroke:#00ff00;stroke-width:1" />
    <line x1="438" y1="438" x2="300" y2="438" style="stroke:#00ff00;stroke-width:1" />
    <line x1="300" y1="438" x2="369" y2="369" style="stroke:#00ff00;stroke-width:1" />
    <line x1="369" y1="369" x2="300" y2="369" style="stroke:#00ff00;stroke-width:1" />
    <line x1="300" y1="369" x2="335" y2="335" style="stroke:#00ff00;stroke-width:1" />
    <line x1="335" y1="335" x2="300" y2="335" style="stroke:#00ff00;stroke-width:1" />
    <line x1="300" y1="335" x2="317" y2="317" style="stroke:#00ff00;stroke-width:1" />
    <line x1="317" y1="317" x2="300" y2="317" style="stroke:#00ff00;stroke-width:1" />
    <line x1="300" y1="317" x2="309" y2="309" style="stroke:#00ff00;stroke-width:1" />
	<path d = "M421 542 L421 507 L386 507 L386 542 L421 542 Z" stroke = "#00ff00" stroke-width = "1" fill = "none" /><circle cx="404" cy = "524" r = "17.261356071965523" stroke = "#00ff00" stroke-width = "1" fill = "none" />
    <line x1="404" y1="524" x2="404" y2="507" style="stroke:#00ff00;stroke-width:1" />
    <line x1="404" y1="524" x2="421" y2="524" style="stroke:#00ff00;stroke-width:1" />
    <line x1="404" y1="524" x2="404" y2="542" style="stroke:#00ff00;stroke-width:1" />
    <line x1="404" y1="524" x2="386" y2="524" style="stroke:#00ff00;stroke-width:1" />
<circle cx="397" cy = "518" r = "4.315339017991381" stroke = "#00ff00" stroke-width = "1" fill = "none" />
<circle cx="410" cy = "518" r = "4.315339017991381" stroke = "#00ff00" stroke-width = "1" fill = "none" />
<circle cx="410" cy = "531" r = "4.315339017991381" stroke = "#00ff00" stroke-width = "1" fill = "none" />
<circle cx="397" cy = "531" r = "4.315339017991381" stroke = "#00ff00" stroke-width = "1" fill = "none" />
	<path d = "M455 542 L455 507 L421 507 L421 542 L455 542 Z" stroke = "#00ff00" stroke-width = "1" fill = "none" />	<path d = "M450 512 L438 524 L450 537 " stroke = "#00ff00" stroke-width = "1" fill = "none" />    <line x1="438" y1="524" x2="442" y2="524" style="stroke:#00ff00;stroke-width:1" />
    <line x1="447" y1="524" x2="451" y2="524" style="stroke:#00ff00;stroke-width:1" />
	<path d = "M490 542 L490 507 L455 507 L455 542 L490 542 Z" stroke = "#00ff00" stroke-width = "1" fill = "none" />    <line x1="473" y1="542" x2="490" y2="524" style="stroke:#00ff00;stroke-width:1" />
    <line x1="490" y1="524" x2="473" y2="507" style="stroke:#00ff00;stroke-width:1" />
    <line x1="473" y1="507" x2="455" y2="524" style="stroke:#00ff00;stroke-width:1" />
    <line x1="455" y1="524" x2="473" y2="542" style="stroke:#00ff00;stroke-width:1" />
    <line x1="576" y1="459" x2="484" y2="300" style="stroke:#00ff00;stroke-width:1" />
    <line x1="484" y1="300" x2="576" y2="353" style="stroke:#00ff00;stroke-width:1" />
    <line x1="576" y1="353" x2="545" y2="300" style="stroke:#00ff00;stroke-width:1" />
    <line x1="545" y1="300" x2="576" y2="318" style="stroke:#00ff00;stroke-width:1" />
    <line x1="576" y1="318" x2="566" y2="300" style="stroke:#00ff00;stroke-width:1" />
	<path d = "M438 317 L438 352 L473 352 L473 317 L438 317 Z" stroke = "#00ff00" stroke-width = "1" fill = "none" />	<path d = "M438 317 L455 347 L473 317 " stroke = "#00ff00" stroke-width = "1" fill = "none" />    <line x1="455" y1="327" x2="455" y2="347" style="stroke:#00ff00;stroke-width:1" />
    <line x1="455" y1="327" x2="438" y2="317" style="stroke:#00ff00;stroke-width:1" />
    <line x1="455" y1="327" x2="473" y2="317" style="stroke:#00ff00;stroke-width:1" />
    <line x1="438" y1="300" x2="369" y2="180" style="stroke:#00ff00;stroke-width:1" />
    <line x1="369" y1="180" x2="507" y2="180" style="stroke:#00ff00;stroke-width:1" />
    <line x1="507" y1="180" x2="438" y2="300" style="stroke:#00ff00;stroke-width:1" />
	<path d = "M455 231 L455 196 L421 196 L421 231 L455 231 Z" stroke = "#00ff00" stroke-width = "1" fill = "none" />    <line x1="438" y1="214" x2="438" y2="196" style="stroke:#00ff00;stroke-width:1" />
    <line x1="438" y1="214" x2="453" y2="205" style="stroke:#00ff00;stroke-width:1" />
    <line x1="438" y1="214" x2="453" y2="222" style="stroke:#00ff00;stroke-width:1" />
    <line x1="438" y1="214" x2="438" y2="231" style="stroke:#00ff00;stroke-width:1" />
    <line x1="438" y1="214" x2="423" y2="222" style="stroke:#00ff00;stroke-width:1" />
<circle cx="438" cy = "214" r = "17.261356071965523" stroke = "#00ff00" stroke-width = "1" fill = "none" />
<circle cx="434" cy = "206" r = "2.1576695089956903" stroke = "#00ff00" stroke-width = "1" fill = "none" />
<circle cx="442" cy = "206" r = "2.1576695089956903" stroke = "#00ff00" stroke-width = "1" fill = "none" />
<circle cx="447" cy = "214" r = "2.1576695089956903" stroke = "#00ff00" stroke-width = "1" fill = "none" />
<circle cx="442" cy = "221" r = "2.1576695089956903" stroke = "#00ff00" stroke-width = "1" fill = "none" />
<circle cx="434" cy = "221" r = "2.1576695089956903" stroke = "#00ff00" stroke-width = "1" fill = "none" />
    <line x1="438" y1="214" x2="423" y2="205" style="stroke:#00ff00;stroke-width:1" />
<circle cx="429" cy = "214" r = "2.1576695089956903" stroke = "#00ff00" stroke-width = "1" fill = "none" />
    <line x1="300" y1="141" x2="346" y2="220" style="stroke:#00ff00;stroke-width:1" />
    <line x1="300" y1="141" x2="392" y2="141" style="stroke:#00ff00;stroke-width:1" />
    <line x1="346" y1="167" x2="392" y2="141" style="stroke:#00ff00;stroke-width:1" />
    <line x1="346" y1="167" x2="346" y2="220" style="stroke:#00ff00;stroke-width:1" />
    <line x1="346" y1="167" x2="361" y2="194" style="stroke:#00ff00;stroke-width:1" />
    <line x1="346" y1="167" x2="377" y2="167" style="stroke:#00ff00;stroke-width:1" />
    <line x1="361" y1="176" x2="377" y2="167" style="stroke:#00ff00;stroke-width:1" />
    <line x1="361" y1="176" x2="361" y2="194" style="stroke:#00ff00;stroke-width:1" />
    <line x1="361" y1="176" x2="366" y2="185" style="stroke:#00ff00;stroke-width:1" />
    <line x1="361" y1="176" x2="372" y2="176" style="stroke:#00ff00;stroke-width:1" />
    <line x1="300" y1="141" x2="369" y2="180" style="stroke:#00ff00;stroke-width:1" />
    <line x1="24" y1="300" x2="162" y2="200" style="stroke:#00ff00;stroke-width:1" />
    <line x1="162" y1="200" x2="129" y2="300" style="stroke:#00ff00;stroke-width:1" />
    <line x1="129" y1="300" x2="215" y2="238" style="stroke:#00ff00;stroke-width:1" />
    <line x1="215" y1="238" x2="195" y2="300" style="stroke:#00ff00;stroke-width:1" />
    <line x1="195" y1="300" x2="247" y2="262" style="stroke:#00ff00;stroke-width:1" />
    <line x1="247" y1="262" x2="235" y2="300" style="stroke:#00ff00;stroke-width:1" />
    <line x1="235" y1="300" x2="267" y2="276" style="stroke:#00ff00;stroke-width:1" />
    <line x1="267" y1="276" x2="260" y2="300" style="stroke:#00ff00;stroke-width:1" />
    <line x1="260" y1="300" x2="280" y2="285" style="stroke:#00ff00;stroke-width:1" />
    <line x1="280" y1="285" x2="275" y2="300" style="stroke:#00ff00;stroke-width:1" />
    <line x1="275" y1="300" x2="288" y2="291" style="stroke:#00ff00;stroke-width:1" />
    <line x1="288" y1="291" x2="285" y2="300" style="stroke:#00ff00;stroke-width:1" />
    <line x1="285" y1="300" x2="292" y2="294" style="stroke:#00ff00;stroke-width:1" />
    <line x1="292" y1="294" x2="290" y2="300" style="stroke:#00ff00;stroke-width:1" />
    <line x1="247" y1="138" x2="215" y2="238" style="stroke:#00ff00;stroke-width:1" />
    <line x1="215" y1="238" x2="280" y2="238" style="stroke:#00ff00;stroke-width:1" />
    <line x1="280" y1="238" x2="267" y2="276" style="stroke:#00ff00;stroke-width:1" />
    <line x1="267" y1="276" x2="292" y2="276" style="stroke:#00ff00;stroke-width:1" />
    <line x1="292" y1="276" x2="288" y2="291" style="stroke:#00ff00;stroke-width:1" />
    <line x1="288" y1="291" x2="297" y2="291" style="stroke:#00ff00;stroke-width:1" />
	<path d = "M172 197 L193 169 L165 148 L144 176 L172 197 Z" stroke = "#00ff00" stroke-width = "1" fill = "none" />    <line x1="169" y1="173" x2="179" y2="159" style="stroke:#00ff00;stroke-width:1" />
    <line x1="169" y1="173" x2="185" y2="178" style="stroke:#00ff00;stroke-width:1" />
    <line x1="169" y1="173" x2="169" y2="190" style="stroke:#00ff00;stroke-width:1" />
    <line x1="169" y1="173" x2="152" y2="178" style="stroke:#00ff00;stroke-width:1" />
    <line x1="169" y1="173" x2="158" y2="159" style="stroke:#00ff00;stroke-width:1" />
<circle cx="169" cy = "173" r = "17.26135607196552" stroke = "#00ff00" stroke-width = "1" fill = "none" />
<circle cx="177" cy = "170" r = "2.15766950899569" stroke = "#00ff00" stroke-width = "1" fill = "none" />
<circle cx="174" cy = "180" r = "2.15766950899569" stroke = "#00ff00" stroke-width = "1" fill = "none" />
<circle cx="164" cy = "180" r = "2.15766950899569" stroke = "#00ff00" stroke-width = "1" fill = "none" />
<circle cx="160" cy = "170" r = "2.15766950899569" stroke = "#00ff00" stroke-width = "1" fill = "none" />
<circle cx="169" cy = "164" r = "2.15766950899569" stroke = "#00ff00" stroke-width = "1" fill = "none" />
	<path d = "M200 217 L221 189 L193 169 L172 197 L200 217 Z" stroke = "#00ff00" stroke-width = "1" fill = "none" />	<path d = "M200 217 L218 164 L172 197 L200 217 Z" stroke = "#00ff00" stroke-width = "1" fill = "none" />    <line x1="200" y1="217" x2="190" y2="184" style="stroke:#00ff00;stroke-width:1" />
    <line x1="190" y1="184" x2="211" y2="184" style="stroke:#00ff00;stroke-width:1" />
    <line x1="211" y1="184" x2="207" y2="172" style="stroke:#00ff00;stroke-width:1" />
</svg>