<svg width="350" height="450" viewbox = "0 0 350 450"  xmlns="http://www.w3.org/2000/svg">
<!--<json>{
  "glyph": "0335,0333,0333,0333,0330,0330,0333,0337,0333,0333,0331,0333,0337,0222,0220,0220,0220,0220,0220,0305,0350,0350,0335,0331,0334,0304,0336,0333,0333,0333,0333,0333,0337,0220,0220,0220,0220,0220,",
  "x0": 175,
  "y0": 114.5000000000001,
  "unit": 28.96643797366877,
  "width": 350,
  "height": 450,
  "style": {
    "color0": "black",
    "fill0": "black",
    "line0": 1,
    "color1": "black",
    "fill1": "black",
    "line1": 5,
    "color2": "red",
    "fill2": "red",
    "line2": 1,
    "color3": "#FF7900",
    "fill3": "#FF7900",
    "line3": 2,
    "color4": "yellow",
    "fill4": "yellow",
    "line4": 2,
    "color5": "green",
    "fill5": "green",
    "line5": 2,
    "color6": "blue",
    "fill6": "blue",
    "line6": 2,
    "color7": "purple",
    "fill7": "purple",
    "line7": 2
  },
  "shapes": [
    "0220:0305,0350,0350,0334,0224,0330,0335,0335,0335,0335,0335,0224,0335,0334,0330,0334,0334,0334,0334,0334,0334,0336,0334,0330,0335,0335,0337,0350,0335,0304,",
    "0221:0220,0220,0220,0220,0220,0220,0220,0305,0350,0350,0335,0331,0334,0304,0336,0333,0333,0333,0333,0333,0333,0333,0337,0220,0220,0220,0220,0220,0220,0220,0335,0335,0336,0332,0337,0220,0220,0220,0220,0220,0220,0220,",
    "0223:0304,0335,0335,0331,0306,0350,0362,0203,0335,0335,0335,0335,0335,0312,0336,0203,0335,0335,0203,0354,0335,0335,0335,0335,0335,0337,0322,0335,0336,0330,0334,0334,0334,0334,0313,0336,0342,0337,0312,0335,0336,0342,0334,0334,0342,0330,0335,0335,0335,0335,0335,0336,0201,0334,0334,0342,0335,0335,0334,0334,0334,0336,0342,0334,0334,0342,0335,0335,0335,0335,0335,0337,0331,0335,0337,0330,0334,0337,0331,0334,0337,0320,0330,0304,0335,0335,0306,0350,",
    "0224:0305,0311,0362,0203,0334,0334,0203,0334,0350,0334,0336,0203,0354,0334,0334,0334,0337,0322,0336,0334,0201,0335,0335,0335,0335,0336,0201,0334,0334,0334,0334,0201,0335,0335,0335,0336,0335,0201,0334,0334,0334,0334,0201,0335,0335,0335,0335,0336,0201,0334,0334,0334,0334,0201,0335,0335,0335,0335,0336,0201,0334,0334,0334,0334,0201,0335,0335,0335,0335,0336,0201,0334,0334,0334,0337,0330,0337,0337,0337,0337,0337,0331,0320,",
    "0225:0304,0330,0335,0335,0305,0350,0311,0362,0203,0335,0335,0335,0335,0336,0203,0335,0335,0203,0354,0335,0335,0335,0322,0335,0335,0330,0334,0334,0334,0336,0334,0342,0335,0342,0330,0335,0335,0335,0336,0335,0201,0334,0334,0334,0334,0201,0335,0335,0335,0335,0336,0201,0334,0334,0334,0334,0201,0335,0335,0335,0336,0335,0201,0334,0334,0334,0334,0342,0335,0331,0337,0331,0337,0331,0335,0335,0337,0335,0331,0335,0336,0201,0335,0335,0335,0335,0201,0334,0334,0334,0334,0336,0201,0335,0335,0335,0335,0201,0334,0334,0334,0334,0336,0201,0335,0335,0335,0335,0201,0335,0335,0335,0331,0337,0337,0337,0337,0337,0320,0304,0335,0335,0331,0305,0350,",
    "0226:0313,0333,0342,0336,0332,0342,0336,0333,0342,0332,0332,0342,0336,0332,0342,0333,0333,0342,0333,0333,0342,0333,0333,0342,0333,0337,0337,0337,",
    "0227:0313,0336,0333,0337,0316,0336,0342,0313,0336,0332,0342,0332,0342,0332,0342,0332,0342,0333,0333,0333,0333,0333,0342,0333,0342,0333,0342,0333,0342,0333,0337,0316,0337,0313,",
    "0230:0322,0226,0226,0226,0226,0226,0226,0334,0226,0334,0227,0227,0227,0227,0227,0227,0334,0227,0334,0320,0362,0203,0335,0203,0203,0203,0203,0203,0203,0335,0203,0335,0203,0203,0203,0203,0203,0203,0335,0354,0313,",
    "01220:0333,0200,0336,0332,0337,0220,0336,0333,0337,0313,0336,0333,0337,",
    "01221:0333,0200,0336,0336,0330,0330,0221,0335,0335,0336,0332,0337,0305,0350,0350,0333,0304,0313,0337,0331,0337,",
    "01222:0333,0200,",
    "01223:0333,0223,0314,0304,0313,",
    "01224:0333,0224,0313,0304,",
    "01225:0333,0225,0313,0304,",
    "01226:0226,0200,",
    "01227:0227,0200,",
    "01230:0230,0333,0333,0333,0333,0333,0333,",
    "01231:0333,0231,",
    "01232:0333,0232,",
    "01233:0333,0233,",
    "01234:0333,0234,",
    "01235:0333,0200,0336,0330,0332,0235,0331,0333,0337,",
    "01236:0333,0200,0336,0330,0332,0236,0331,0333,0337,",
    "01237:0333,0237,",
    "0240:0220,0336,0331,0333,0336,0321,0335,0342,0335,0335,0342,0335,0330,0330,0332,0332,0337,0337,",
    "01240:0333,0200,0336,0330,0332,0210,0240,0211,0333,0331,0337,",
    "0241:0220,0336,0321,0343,0332,0350,0335,0336,0342,0334,0334,0342,0335,0304,0337,0333,0337,",
    "01241:0333,0200,0336,0332,0330,0210,0241,0211,0333,0331,0337,",
    "0242:0220,0321,0336,0343,0333,0336,0350,0335,0342,0334,0334,0342,0335,0337,0304,0332,0337,",
    "01242:0333,0200,0336,0330,0332,0210,0242,0211,0333,0331,0337,",
    "0243:0220,0336,0331,0332,0336,0321,0343,0332,0350,0334,0336,0342,0335,0335,0342,0337,0334,0334,0335,0304,0332,0330,0330,0337,0337,0333,",
    "01243:0333,0200,0336,0330,0332,0210,0243,0211,0333,0331,0337,",
    "0244:0220,0336,0331,0333,0336,0321,0343,0333,0350,0336,0335,0342,0334,0334,0342,0335,0337,0304,0333,0330,0330,0337,0337,0332,",
    "01244:0333,0200,0336,0330,0332,0210,0244,0211,0333,0331,0337,",
    "0245:0210,0332,0332,0362,0335,0203,0203,0203,0203,0334,0203,0363,0332,0332,0331,0211,",
    "01245:0333,0200,0336,0330,0332,0336,0245,0337,0333,0331,0337,",
    "0246:0210,0332,0332,0335,0306,0336,0330,0335,0335,0335,0321,0362,0203,0335,0335,0203,0364,0331,0350,0335,0337,0366,0333,0333,0333,0333,0334,0334,0334,0334,0367,0335,0336,0342,0334,0334,0342,0330,0330,0330,0330,0335,0335,0335,0304,0337,0211,",
    "01246:0333,0200,0336,0330,0332,0336,0246,",
    "0247:0330,0332,0336,0332,0336,0221,0333,0333,0333,0222,0333,0333,0333,0223,0333,0333,0333,0225,0333,0331,0331,0331,0332,0332,0332,0332,0332,0332,0332,0332,0332,0332,0332,0332,0333,0333,0226,0331,0331,0331,0333,0333,0333,0333,0333,0333,0333,0333,0333,0333,0333,0333,0333,0330,0333,0330,0330,0333,0330,0331,0332,0332,0332,0332,0332,0332,0332,0332,0332,0332,0332,0332,0227,0333,0333,0333,0230,0333,0331,0331,0331,0331,0332,0332,0332,0330,0332,0332,0332,0332,0332,0332,0333,0333,0231,0333,0333,0333,0232,0331,0333,0330,0333,0333,0233,0333,0333,0333,0234,0330,0330,0332,0330,0332,0332,0337,0337,",
    "01247:0333,0200,0336,0330,0332,0220,0336,0247,0337,0331,0333,0337,"
  ]
}</json>-->	<path d = "M175 404 L285 368 L175 333 L175 404 Z" stroke = "#000000" stroke-width = "1" fill = "none" />    <line x1="175" y1="404" x2="217" y2="346" style="stroke:#ff0000;stroke-width:1" />
    <line x1="217" y1="346" x2="217" y2="390" style="stroke:#ff0000;stroke-width:1" />
    <line x1="217" y1="390" x2="243" y2="355" style="stroke:#ff0000;stroke-width:1" />
    <line x1="243" y1="355" x2="243" y2="382" style="stroke:#ff0000;stroke-width:1" />
    <line x1="243" y1="382" x2="259" y2="360" style="stroke:#ff0000;stroke-width:1" />
    <line x1="259" y1="360" x2="259" y2="377" style="stroke:#ff0000;stroke-width:1" />
    <line x1="259" y1="377" x2="269" y2="363" style="stroke:#ff0000;stroke-width:1" />
    <line x1="269" y1="363" x2="269" y2="374" style="stroke:#ff0000;stroke-width:1" />
    <line x1="269" y1="374" x2="275" y2="365" style="stroke:#ff0000;stroke-width:1" />
    <line x1="275" y1="365" x2="275" y2="372" style="stroke:#ff0000;stroke-width:1" />
	<path d = "M285 368 L175 404 L285 440 L285 368 Z" stroke = "#000000" stroke-width = "1" fill = "none" />    <line x1="285" y1="368" x2="243" y2="426" style="stroke:#ff0000;stroke-width:1" />
    <line x1="243" y1="426" x2="243" y2="382" style="stroke:#ff0000;stroke-width:1" />
    <line x1="243" y1="382" x2="217" y2="418" style="stroke:#ff0000;stroke-width:1" />
    <line x1="217" y1="418" x2="217" y2="390" style="stroke:#ff0000;stroke-width:1" />
    <line x1="217" y1="390" x2="201" y2="413" style="stroke:#ff0000;stroke-width:1" />
    <line x1="201" y1="413" x2="201" y2="396" style="stroke:#ff0000;stroke-width:1" />
    <line x1="201" y1="396" x2="191" y2="409" style="stroke:#ff0000;stroke-width:1" />
    <line x1="191" y1="409" x2="191" y2="399" style="stroke:#ff0000;stroke-width:1" />
    <line x1="191" y1="399" x2="185" y2="407" style="stroke:#ff0000;stroke-width:1" />
    <line x1="185" y1="407" x2="185" y2="401" style="stroke:#ff0000;stroke-width:1" />
	<path d = "M175 333 L285 297 L175 261 L175 333 Z" stroke = "#000000" stroke-width = "1" fill = "none" />    <line x1="175" y1="333" x2="217" y2="275" style="stroke:#ff0000;stroke-width:1" />
    <line x1="217" y1="275" x2="217" y2="319" style="stroke:#ff0000;stroke-width:1" />
    <line x1="217" y1="319" x2="243" y2="283" style="stroke:#ff0000;stroke-width:1" />
    <line x1="243" y1="283" x2="243" y2="310" style="stroke:#ff0000;stroke-width:1" />
    <line x1="243" y1="310" x2="259" y2="288" style="stroke:#ff0000;stroke-width:1" />
    <line x1="259" y1="288" x2="259" y2="305" style="stroke:#ff0000;stroke-width:1" />
    <line x1="259" y1="305" x2="269" y2="292" style="stroke:#ff0000;stroke-width:1" />
    <line x1="269" y1="292" x2="269" y2="302" style="stroke:#ff0000;stroke-width:1" />
    <line x1="269" y1="302" x2="275" y2="294" style="stroke:#ff0000;stroke-width:1" />
    <line x1="275" y1="294" x2="275" y2="300" style="stroke:#ff0000;stroke-width:1" />
	<path d = "M285 297 L175 333 L285 368 L285 297 Z" stroke = "#000000" stroke-width = "1" fill = "none" />    <line x1="285" y1="297" x2="243" y2="355" style="stroke:#ff0000;stroke-width:1" />
    <line x1="243" y1="355" x2="243" y2="310" style="stroke:#ff0000;stroke-width:1" />
    <line x1="243" y1="310" x2="217" y2="346" style="stroke:#ff0000;stroke-width:1" />
    <line x1="217" y1="346" x2="217" y2="319" style="stroke:#ff0000;stroke-width:1" />
    <line x1="217" y1="319" x2="201" y2="341" style="stroke:#ff0000;stroke-width:1" />
    <line x1="201" y1="341" x2="201" y2="324" style="stroke:#ff0000;stroke-width:1" />
    <line x1="201" y1="324" x2="191" y2="338" style="stroke:#ff0000;stroke-width:1" />
    <line x1="191" y1="338" x2="191" y2="327" style="stroke:#ff0000;stroke-width:1" />
    <line x1="191" y1="327" x2="185" y2="336" style="stroke:#ff0000;stroke-width:1" />
    <line x1="185" y1="336" x2="185" y2="329" style="stroke:#ff0000;stroke-width:1" />
	<path d = "M175 261 L285 225 L175 189 L175 261 Z" stroke = "#000000" stroke-width = "1" fill = "none" />    <line x1="175" y1="261" x2="217" y2="203" style="stroke:#ff0000;stroke-width:1" />
    <line x1="217" y1="203" x2="217" y2="247" style="stroke:#ff0000;stroke-width:1" />
    <line x1="217" y1="247" x2="243" y2="211" style="stroke:#ff0000;stroke-width:1" />
    <line x1="243" y1="211" x2="243" y2="239" style="stroke:#ff0000;stroke-width:1" />
    <line x1="243" y1="239" x2="259" y2="217" style="stroke:#ff0000;stroke-width:1" />
    <line x1="259" y1="217" x2="259" y2="234" style="stroke:#ff0000;stroke-width:1" />
    <line x1="259" y1="234" x2="269" y2="220" style="stroke:#ff0000;stroke-width:1" />
    <line x1="269" y1="220" x2="269" y2="230" style="stroke:#ff0000;stroke-width:1" />
    <line x1="269" y1="230" x2="275" y2="222" style="stroke:#ff0000;stroke-width:1" />
    <line x1="275" y1="222" x2="275" y2="228" style="stroke:#ff0000;stroke-width:1" />
	<path d = "M285 225 L175 261 L285 297 L285 225 Z" stroke = "#000000" stroke-width = "1" fill = "none" />    <line x1="285" y1="225" x2="243" y2="283" style="stroke:#ff0000;stroke-width:1" />
    <line x1="243" y1="283" x2="243" y2="239" style="stroke:#ff0000;stroke-width:1" />
    <line x1="243" y1="239" x2="217" y2="275" style="stroke:#ff0000;stroke-width:1" />
    <line x1="217" y1="275" x2="217" y2="247" style="stroke:#ff0000;stroke-width:1" />
    <line x1="217" y1="247" x2="201" y2="269" style="stroke:#ff0000;stroke-width:1" />
    <line x1="201" y1="269" x2="201" y2="252" style="stroke:#ff0000;stroke-width:1" />
    <line x1="201" y1="252" x2="191" y2="266" style="stroke:#ff0000;stroke-width:1" />
    <line x1="191" y1="266" x2="191" y2="256" style="stroke:#ff0000;stroke-width:1" />
    <line x1="191" y1="256" x2="185" y2="264" style="stroke:#ff0000;stroke-width:1" />
    <line x1="185" y1="264" x2="185" y2="258" style="stroke:#ff0000;stroke-width:1" />
	<path d = "M175 189 L285 154 L175 118 L175 189 Z" stroke = "#000000" stroke-width = "1" fill = "none" />    <line x1="175" y1="189" x2="217" y2="131" style="stroke:#ff0000;stroke-width:1" />
    <line x1="217" y1="131" x2="217" y2="176" style="stroke:#ff0000;stroke-width:1" />
    <line x1="217" y1="176" x2="243" y2="140" style="stroke:#ff0000;stroke-width:1" />
    <line x1="243" y1="140" x2="243" y2="167" style="stroke:#ff0000;stroke-width:1" />
    <line x1="243" y1="167" x2="259" y2="145" style="stroke:#ff0000;stroke-width:1" />
    <line x1="259" y1="145" x2="259" y2="162" style="stroke:#ff0000;stroke-width:1" />
    <line x1="259" y1="162" x2="269" y2="148" style="stroke:#ff0000;stroke-width:1" />
    <line x1="269" y1="148" x2="269" y2="159" style="stroke:#ff0000;stroke-width:1" />
    <line x1="269" y1="159" x2="275" y2="150" style="stroke:#ff0000;stroke-width:1" />
    <line x1="275" y1="150" x2="275" y2="157" style="stroke:#ff0000;stroke-width:1" />
	<path d = "M285 154 L175 189 L285 225 L285 154 Z" stroke = "#000000" stroke-width = "1" fill = "none" />    <line x1="285" y1="154" x2="243" y2="211" style="stroke:#ff0000;stroke-width:1" />
    <line x1="243" y1="211" x2="243" y2="167" style="stroke:#ff0000;stroke-width:1" />
    <line x1="243" y1="167" x2="217" y2="203" style="stroke:#ff0000;stroke-width:1" />
    <line x1="217" y1="203" x2="217" y2="176" style="stroke:#ff0000;stroke-width:1" />
    <line x1="217" y1="176" x2="201" y2="198" style="stroke:#ff0000;stroke-width:1" />
    <line x1="201" y1="198" x2="201" y2="181" style="stroke:#ff0000;stroke-width:1" />
    <line x1="201" y1="181" x2="191" y2="195" style="stroke:#ff0000;stroke-width:1" />
    <line x1="191" y1="195" x2="191" y2="184" style="stroke:#ff0000;stroke-width:1" />
    <line x1="191" y1="184" x2="185" y2="193" style="stroke:#ff0000;stroke-width:1" />
    <line x1="185" y1="193" x2="185" y2="186" style="stroke:#ff0000;stroke-width:1" />
	<path d = "M175 118 L285 82 L175 46 L175 118 Z" stroke = "#000000" stroke-width = "1" fill = "none" />    <line x1="175" y1="118" x2="217" y2="60" style="stroke:#ff0000;stroke-width:1" />
    <line x1="217" y1="60" x2="217" y2="104" style="stroke:#ff0000;stroke-width:1" />
    <line x1="217" y1="104" x2="243" y2="68" style="stroke:#ff0000;stroke-width:1" />
    <line x1="243" y1="68" x2="243" y2="96" style="stroke:#ff0000;stroke-width:1" />
    <line x1="243" y1="96" x2="259" y2="73" style="stroke:#ff0000;stroke-width:1" />
    <line x1="259" y1="73" x2="259" y2="90" style="stroke:#ff0000;stroke-width:1" />
    <line x1="259" y1="90" x2="269" y2="77" style="stroke:#ff0000;stroke-width:1" />
    <line x1="269" y1="77" x2="269" y2="87" style="stroke:#ff0000;stroke-width:1" />
    <line x1="269" y1="87" x2="275" y2="79" style="stroke:#ff0000;stroke-width:1" />
    <line x1="275" y1="79" x2="275" y2="85" style="stroke:#ff0000;stroke-width:1" />
	<path d = "M285 82 L175 118 L285 154 L285 82 Z" stroke = "#000000" stroke-width = "1" fill = "none" />    <line x1="285" y1="82" x2="243" y2="140" style="stroke:#ff0000;stroke-width:1" />
    <line x1="243" y1="140" x2="243" y2="96" style="stroke:#ff0000;stroke-width:1" />
    <line x1="243" y1="96" x2="217" y2="131" style="stroke:#ff0000;stroke-width:1" />
    <line x1="217" y1="131" x2="217" y2="104" style="stroke:#ff0000;stroke-width:1" />
    <line x1="217" y1="104" x2="201" y2="126" style="stroke:#ff0000;stroke-width:1" />
    <line x1="201" y1="126" x2="201" y2="109" style="stroke:#ff0000;stroke-width:1" />
    <line x1="201" y1="109" x2="191" y2="123" style="stroke:#ff0000;stroke-width:1" />
    <line x1="191" y1="123" x2="191" y2="113" style="stroke:#ff0000;stroke-width:1" />
    <line x1="191" y1="113" x2="185" y2="121" style="stroke:#ff0000;stroke-width:1" />
    <line x1="185" y1="121" x2="185" y2="114" style="stroke:#ff0000;stroke-width:1" />
	<path d = "M65 368 L175 333 L65 297 L65 368 Z" stroke = "#000000" stroke-width = "1" fill = "none" />    <line x1="65" y1="368" x2="107" y2="310" style="stroke:#ff0000;stroke-width:1" />
    <line x1="107" y1="310" x2="107" y2="355" style="stroke:#ff0000;stroke-width:1" />
    <line x1="107" y1="355" x2="133" y2="319" style="stroke:#ff0000;stroke-width:1" />
    <line x1="133" y1="319" x2="133" y2="346" style="stroke:#ff0000;stroke-width:1" />
    <line x1="133" y1="346" x2="149" y2="324" style="stroke:#ff0000;stroke-width:1" />
    <line x1="149" y1="324" x2="149" y2="341" style="stroke:#ff0000;stroke-width:1" />
    <line x1="149" y1="341" x2="159" y2="327" style="stroke:#ff0000;stroke-width:1" />
    <line x1="159" y1="327" x2="159" y2="338" style="stroke:#ff0000;stroke-width:1" />
    <line x1="159" y1="338" x2="165" y2="329" style="stroke:#ff0000;stroke-width:1" />
    <line x1="165" y1="329" x2="165" y2="336" style="stroke:#ff0000;stroke-width:1" />
	<path d = "M175 333 L65 368 L175 404 L175 333 Z" stroke = "#000000" stroke-width = "1" fill = "none" />    <line x1="175" y1="333" x2="133" y2="390" style="stroke:#ff0000;stroke-width:1" />
    <line x1="133" y1="390" x2="133" y2="346" style="stroke:#ff0000;stroke-width:1" />
    <line x1="133" y1="346" x2="107" y2="382" style="stroke:#ff0000;stroke-width:1" />
    <line x1="107" y1="382" x2="107" y2="355" style="stroke:#ff0000;stroke-width:1" />
    <line x1="107" y1="355" x2="91" y2="377" style="stroke:#ff0000;stroke-width:1" />
    <line x1="91" y1="377" x2="91" y2="360" style="stroke:#ff0000;stroke-width:1" />
    <line x1="91" y1="360" x2="81" y2="374" style="stroke:#ff0000;stroke-width:1" />
    <line x1="81" y1="374" x2="81" y2="363" style="stroke:#ff0000;stroke-width:1" />
    <line x1="81" y1="363" x2="75" y2="372" style="stroke:#ff0000;stroke-width:1" />
    <line x1="75" y1="372" x2="75" y2="365" style="stroke:#ff0000;stroke-width:1" />
	<path d = "M65 297 L175 261 L65 225 L65 297 Z" stroke = "#000000" stroke-width = "1" fill = "none" />    <line x1="65" y1="297" x2="107" y2="239" style="stroke:#ff0000;stroke-width:1" />
    <line x1="107" y1="239" x2="107" y2="283" style="stroke:#ff0000;stroke-width:1" />
    <line x1="107" y1="283" x2="133" y2="247" style="stroke:#ff0000;stroke-width:1" />
    <line x1="133" y1="247" x2="133" y2="275" style="stroke:#ff0000;stroke-width:1" />
    <line x1="133" y1="275" x2="149" y2="252" style="stroke:#ff0000;stroke-width:1" />
    <line x1="149" y1="252" x2="149" y2="269" style="stroke:#ff0000;stroke-width:1" />
    <line x1="149" y1="269" x2="159" y2="256" style="stroke:#ff0000;stroke-width:1" />
    <line x1="159" y1="256" x2="159" y2="266" style="stroke:#ff0000;stroke-width:1" />
    <line x1="159" y1="266" x2="165" y2="258" style="stroke:#ff0000;stroke-width:1" />
    <line x1="165" y1="258" x2="165" y2="264" style="stroke:#ff0000;stroke-width:1" />
	<path d = "M175 261 L65 297 L175 333 L175 261 Z" stroke = "#000000" stroke-width = "1" fill = "none" />    <line x1="175" y1="261" x2="133" y2="319" style="stroke:#ff0000;stroke-width:1" />
    <line x1="133" y1="319" x2="133" y2="275" style="stroke:#ff0000;stroke-width:1" />
    <line x1="133" y1="275" x2="107" y2="310" style="stroke:#ff0000;stroke-width:1" />
    <line x1="107" y1="310" x2="107" y2="283" style="stroke:#ff0000;stroke-width:1" />
    <line x1="107" y1="283" x2="91" y2="305" style="stroke:#ff0000;stroke-width:1" />
    <line x1="91" y1="305" x2="91" y2="288" style="stroke:#ff0000;stroke-width:1" />
    <line x1="91" y1="288" x2="81" y2="302" style="stroke:#ff0000;stroke-width:1" />
    <line x1="81" y1="302" x2="81" y2="292" style="stroke:#ff0000;stroke-width:1" />
    <line x1="81" y1="292" x2="75" y2="300" style="stroke:#ff0000;stroke-width:1" />
    <line x1="75" y1="300" x2="75" y2="294" style="stroke:#ff0000;stroke-width:1" />
	<path d = "M65 225 L175 189 L65 154 L65 225 Z" stroke = "#000000" stroke-width = "1" fill = "none" />    <line x1="65" y1="225" x2="107" y2="167" style="stroke:#ff0000;stroke-width:1" />
    <line x1="107" y1="167" x2="107" y2="211" style="stroke:#ff0000;stroke-width:1" />
    <line x1="107" y1="211" x2="133" y2="176" style="stroke:#ff0000;stroke-width:1" />
    <line x1="133" y1="176" x2="133" y2="203" style="stroke:#ff0000;stroke-width:1" />
    <line x1="133" y1="203" x2="149" y2="181" style="stroke:#ff0000;stroke-width:1" />
    <line x1="149" y1="181" x2="149" y2="198" style="stroke:#ff0000;stroke-width:1" />
    <line x1="149" y1="198" x2="159" y2="184" style="stroke:#ff0000;stroke-width:1" />
    <line x1="159" y1="184" x2="159" y2="195" style="stroke:#ff0000;stroke-width:1" />
    <line x1="159" y1="195" x2="165" y2="186" style="stroke:#ff0000;stroke-width:1" />
    <line x1="165" y1="186" x2="165" y2="193" style="stroke:#ff0000;stroke-width:1" />
	<path d = "M175 189 L65 225 L175 261 L175 189 Z" stroke = "#000000" stroke-width = "1" fill = "none" />    <line x1="175" y1="189" x2="133" y2="247" style="stroke:#ff0000;stroke-width:1" />
    <line x1="133" y1="247" x2="133" y2="203" style="stroke:#ff0000;stroke-width:1" />
    <line x1="133" y1="203" x2="107" y2="239" style="stroke:#ff0000;stroke-width:1" />
    <line x1="107" y1="239" x2="107" y2="211" style="stroke:#ff0000;stroke-width:1" />
    <line x1="107" y1="211" x2="91" y2="234" style="stroke:#ff0000;stroke-width:1" />
    <line x1="91" y1="234" x2="91" y2="217" style="stroke:#ff0000;stroke-width:1" />
    <line x1="91" y1="217" x2="81" y2="230" style="stroke:#ff0000;stroke-width:1" />
    <line x1="81" y1="230" x2="81" y2="220" style="stroke:#ff0000;stroke-width:1" />
    <line x1="81" y1="220" x2="75" y2="228" style="stroke:#ff0000;stroke-width:1" />
    <line x1="75" y1="228" x2="75" y2="222" style="stroke:#ff0000;stroke-width:1" />
	<path d = "M65 154 L175 118 L65 82 L65 154 Z" stroke = "#000000" stroke-width = "1" fill = "none" />    <line x1="65" y1="154" x2="107" y2="96" style="stroke:#ff0000;stroke-width:1" />
    <line x1="107" y1="96" x2="107" y2="140" style="stroke:#ff0000;stroke-width:1" />
    <line x1="107" y1="140" x2="133" y2="104" style="stroke:#ff0000;stroke-width:1" />
    <line x1="133" y1="104" x2="133" y2="131" style="stroke:#ff0000;stroke-width:1" />
    <line x1="133" y1="131" x2="149" y2="109" style="stroke:#ff0000;stroke-width:1" />
    <line x1="149" y1="109" x2="149" y2="126" style="stroke:#ff0000;stroke-width:1" />
    <line x1="149" y1="126" x2="159" y2="113" style="stroke:#ff0000;stroke-width:1" />
    <line x1="159" y1="113" x2="159" y2="123" style="stroke:#ff0000;stroke-width:1" />
    <line x1="159" y1="123" x2="165" y2="114" style="stroke:#ff0000;stroke-width:1" />
    <line x1="165" y1="114" x2="165" y2="121" style="stroke:#ff0000;stroke-width:1" />
	<path d = "M175 118 L65 154 L175 189 L175 118 Z" stroke = "#000000" stroke-width = "1" fill = "none" />    <line x1="175" y1="118" x2="133" y2="176" style="stroke:#ff0000;stroke-width:1" />
    <line x1="133" y1="176" x2="133" y2="131" style="stroke:#ff0000;stroke-width:1" />
    <line x1="133" y1="131" x2="107" y2="167" style="stroke:#ff0000;stroke-width:1" />
    <line x1="107" y1="167" x2="107" y2="140" style="stroke:#ff0000;stroke-width:1" />
    <line x1="107" y1="140" x2="91" y2="162" style="stroke:#ff0000;stroke-width:1" />
    <line x1="91" y1="162" x2="91" y2="145" style="stroke:#ff0000;stroke-width:1" />
    <line x1="91" y1="145" x2="81" y2="159" style="stroke:#ff0000;stroke-width:1" />
    <line x1="81" y1="159" x2="81" y2="148" style="stroke:#ff0000;stroke-width:1" />
    <line x1="81" y1="148" x2="75" y2="157" style="stroke:#ff0000;stroke-width:1" />
    <line x1="75" y1="157" x2="75" y2="150" style="stroke:#ff0000;stroke-width:1" />
	<path d = "M65 82 L175 46 L65 10 L65 82 Z" stroke = "#000000" stroke-width = "1" fill = "none" />    <line x1="65" y1="82" x2="107" y2="24" style="stroke:#ff0000;stroke-width:1" />
    <line x1="107" y1="24" x2="107" y2="68" style="stroke:#ff0000;stroke-width:1" />
    <line x1="107" y1="68" x2="133" y2="32" style="stroke:#ff0000;stroke-width:1" />
    <line x1="133" y1="32" x2="133" y2="60" style="stroke:#ff0000;stroke-width:1" />
    <line x1="133" y1="60" x2="149" y2="38" style="stroke:#ff0000;stroke-width:1" />
    <line x1="149" y1="38" x2="149" y2="55" style="stroke:#ff0000;stroke-width:1" />
    <line x1="149" y1="55" x2="159" y2="41" style="stroke:#ff0000;stroke-width:1" />
    <line x1="159" y1="41" x2="159" y2="51" style="stroke:#ff0000;stroke-width:1" />
    <line x1="159" y1="51" x2="165" y2="43" style="stroke:#ff0000;stroke-width:1" />
    <line x1="165" y1="43" x2="165" y2="49" style="stroke:#ff0000;stroke-width:1" />
	<path d = "M175 46 L65 82 L175 118 L175 46 Z" stroke = "#000000" stroke-width = "1" fill = "none" />    <line x1="175" y1="46" x2="133" y2="104" style="stroke:#ff0000;stroke-width:1" />
    <line x1="133" y1="104" x2="133" y2="60" style="stroke:#ff0000;stroke-width:1" />
    <line x1="133" y1="60" x2="107" y2="96" style="stroke:#ff0000;stroke-width:1" />
    <line x1="107" y1="96" x2="107" y2="68" style="stroke:#ff0000;stroke-width:1" />
    <line x1="107" y1="68" x2="91" y2="90" style="stroke:#ff0000;stroke-width:1" />
    <line x1="91" y1="90" x2="91" y2="73" style="stroke:#ff0000;stroke-width:1" />
    <line x1="91" y1="73" x2="81" y2="87" style="stroke:#ff0000;stroke-width:1" />
    <line x1="81" y1="87" x2="81" y2="77" style="stroke:#ff0000;stroke-width:1" />
    <line x1="81" y1="77" x2="75" y2="85" style="stroke:#ff0000;stroke-width:1" />
    <line x1="75" y1="85" x2="75" y2="79" style="stroke:#ff0000;stroke-width:1" />
</svg>