<svg width="400" height="400" viewbox = "0 0 400 400"  xmlns="http://www.w3.org/2000/svg">
<!--<json>{
  "glyph": "01305,01350,01362,01203,01334,01203,01334,01334,01334,01334,0331,0332,0332,0332,0332,0332,0332,0332,0332,0332,0332,0331,01203,01334,01203,01363,01334,01334,01334,01334,0336,0333,0330,0336,0341,0300,0330,0330,0333,0333,0333,0333,0333,0333,0337,0211,0211,0305,0350,0321,0362,0203,0334,0203,0334,0334,0334,0334,0203,0334,0203,0354,0334,0334,0334,0334,",
  "x0": 29.508557851239658,
  "y0": 280.5255000000001,
  "unit": 34.150672768253536,
  "width": 400,
  "height": 400,
  "style": {
    "color0": "black",
    "fill0": "black",
    "line0": 1,
    "color1": "black",
    "fill1": "black",
    "line1": 5,
    "color2": "red",
    "fill2": "red",
    "line2": 2,
    "color3": "#FF7900",
    "fill3": "#FF7900",
    "line3": 2,
    "color4": "yellow",
    "fill4": "yellow",
    "line4": 2,
    "color5": "green",
    "fill5": "green",
    "line5": 2,
    "color6": "blue",
    "fill6": "blue",
    "line6": 2,
    "color7": "purple",
    "fill7": "purple",
    "line7": 2
  },
  "shapes": [
    "0220:0304,0313,0320,0200,0322,0336,0332,0337,0342,0336,0330,0333,0334,0337,0342,0336,0335,0331,0336,0332,0337,0342,0336,0333,0330,0334,0337,0342,0335,0336,0331,0336,0332,0337,0342,0336,0333,0330,0334,0337,0342,0335,0336,0331,0336,0332,0337,0342,0336,0333,0330,0334,0337,0342,0335,0336,0331,0337,0337,0337,0337,",
    "0221:0304,0320,0362,0203,0334,0350,0334,0310,0337,0203,0334,0334,0334,0336,0203,0354,0334,0334,0334,0336,0322,0201,0335,0335,0335,0336,0201,0334,0334,0334,0336,0201,0335,0335,0335,0336,0201,0334,0334,0334,0336,0201,0335,0335,0335,0336,0201,0334,0334,0334,0336,0201,0335,0335,0335,0336,0201,0334,0334,0330,0337,0337,0337,0337,0337,0337,0337,0337,0331,0313,0304,0320,",
    "0222:0306,0320,0362,0203,0334,0334,0203,0334,0334,0203,0354,0334,0334,0313,0336,0322,0330,0334,0201,0334,0334,0201,0334,0334,0201,0334,0331,0337,0320,",
    "0223:0304,0335,0335,0331,0306,0350,0362,0203,0335,0335,0335,0335,0335,0312,0336,0203,0335,0335,0203,0354,0335,0335,0335,0335,0335,0337,0322,0335,0336,0330,0334,0334,0334,0334,0313,0336,0342,0337,0312,0335,0336,0342,0334,0334,0342,0330,0335,0335,0335,0335,0335,0336,0201,0334,0334,0342,0335,0335,0334,0334,0334,0336,0342,0334,0334,0342,0335,0335,0335,0335,0335,0337,0331,0335,0337,0330,0334,0337,0331,0334,0337,0320,0330,0304,0335,0335,0306,0350,",
    "0224:0305,0311,0362,0203,0334,0334,0203,0334,0350,0334,0336,0203,0354,0334,0334,0334,0337,0322,0336,0334,0201,0335,0335,0335,0335,0336,0201,0334,0334,0334,0334,0201,0335,0335,0335,0336,0335,0201,0334,0334,0334,0334,0201,0335,0335,0335,0335,0336,0201,0334,0334,0334,0334,0201,0335,0335,0335,0335,0336,0201,0334,0334,0334,0334,0201,0335,0335,0335,0335,0336,0201,0334,0334,0334,0337,0330,0337,0337,0337,0337,0337,0331,0320,",
    "0225:0304,0330,0335,0335,0305,0350,0311,0362,0203,0335,0335,0335,0335,0336,0203,0335,0335,0203,0354,0335,0335,0335,0322,0335,0335,0330,0334,0334,0334,0336,0334,0342,0335,0342,0330,0335,0335,0335,0336,0335,0201,0334,0334,0334,0334,0201,0335,0335,0335,0335,0336,0201,0334,0334,0334,0334,0201,0335,0335,0335,0336,0335,0201,0334,0334,0334,0334,0342,0335,0331,0337,0331,0337,0331,0335,0335,0337,0335,0331,0335,0336,0201,0335,0335,0335,0335,0201,0334,0334,0334,0334,0336,0201,0335,0335,0335,0335,0201,0334,0334,0334,0334,0336,0201,0335,0335,0335,0335,0201,0335,0335,0335,0331,0337,0337,0337,0337,0337,0320,0304,0335,0335,0331,0305,0350,",
    "0226:0313,0333,0342,0336,0332,0342,0336,0333,0342,0332,0332,0342,0336,0332,0342,0333,0333,0342,0333,0333,0342,0333,0333,0342,0333,0337,0337,0337,",
    "0227:0313,0336,0333,0337,0316,0336,0342,0313,0336,0332,0342,0332,0342,0332,0342,0332,0342,0333,0333,0333,0333,0333,0342,0333,0342,0333,0342,0333,0342,0333,0337,0316,0337,0313,",
    "0230:0322,0226,0226,0226,0226,0226,0226,0334,0226,0334,0227,0227,0227,0227,0227,0227,0334,0227,0334,0320,0362,0203,0335,0203,0203,0203,0203,0203,0203,0335,0203,0335,0203,0203,0203,0203,0203,0203,0335,0354,0313,",
    "0231:0222,0334,0223,0334,0336,0330,0335,0335,0362,0203,0334,0334,0334,0337,0203,0334,0334,0334,0334,0334,0336,0313,0337,0203,0354,0334,0334,0334,0334,0313,0336,0334,0334,0337,0312,0336,0322,0335,0201,0335,0335,0335,0335,0335,0336,0201,0334,0334,0334,0334,0334,0336,0201,0335,0335,0335,0335,0336,0335,0201,0334,0334,0334,0334,0334,0336,0201,0331,0334,0337,0330,0335,0337,0331,0334,0337,0330,0335,0337,0331,0334,0337,0335,0335,0313,0336,0335,0335,0335,0335,0330,0334,0334,0334,0312,0337,0306,",
    "0232:0231,0330,0220,0332,0221,0335,0331,0335,0335,0331,0224,0330,0335,0331,0225,0335,0335,0336,0330,0334,0334,0334,0337,0304,0335,0333,0331,0331,0332,0332,0330,0314,0336,0331,0313,0230,0333,0333,0333,0333,0333,0333,0330,0314,0337,0313,",
    "0233:0313,0304,0336,0332,0336,0336,0330,0334,0362,0203,0334,0203,0335,0203,0203,0203,0335,0203,0203,0203,0335,0203,0334,0203,0203,0334,0203,0335,0203,0203,0203,0335,0203,0203,0203,0335,0203,0334,0203,0203,0334,0203,0335,0203,0203,0203,0335,0203,0203,0203,0335,0203,0334,0203,0203,0334,0203,0335,0203,0203,0203,0335,0203,0203,0203,0335,0203,0334,0203,0354,0335,0331,0333,0333,0333,0333,0337,0337,0337,",
    "0234:0322,0336,0336,0330,0332,0362,0203,0203,0203,0334,0203,0203,0203,0334,0203,0203,0203,0334,0203,0203,0203,0354,0335,0335,0335,0331,0342,0332,0332,0332,0342,0335,0337,0337,0201,0334,0201,0334,0336,0336,0342,0335,0336,0332,0334,0335,0335,0335,0337,0337,0337,0342,0335,0335,0336,0336,0331,0331,0331,0336,0333,0334,0337,0342,0336,0332,0337,0337,0337,0342,0335,0336,0336,0336,0331,0337,0332,0332,0342,0333,0333,0337,0337,0321,0200,0336,0332,0333,0337,0320,",
    "0235:0312,0336,0330,0306,0335,0335,0350,0335,0337,0362,0203,0335,0335,0335,0335,0203,0335,0335,0335,0335,0203,0354,0334,0336,0331,0337,0304,0313,",
    "0236:0313,0336,0316,0336,0332,0336,0347,0337,0333,0333,0336,0347,0337,0332,0337,0313,0337,",
    "0237:0200,0336,0330,0332,0336,0330,0325,0235,0331,0331,0335,0335,0235,0331,0322,0335,0330,0235,0331,0335,0335,0330,0235,0334,0326,0330,0235,0331,0331,0335,0335,0235,0333,0333,0325,0336,0341,0335,0335,0330,0330,0330,0330,0322,0341,0320,0337,0350,0335,0304,0236,0350,0335,0304,0330,0236,0330,0350,0335,0304,0236,0350,0335,0304,0330,0236,0330,0350,0335,0304,0236,0350,0335,0304,0330,0236,0330,0350,0335,0304,0236,0350,0335,0330,0304,0236,0333,0331,0333,0336,0331,0333,0337,0314,0337,0200,0336,0313,0336,0331,0333,0337,0337,0337,0336,0336,0330,0332,0327,0336,0330,0332,0336,0336,0332,0332,0332,0332,0331,0331,0331,0332,0332,0332,0333,0333,070,040,0147,0162,0145,0145,0156,0365,0332,0332,0332,0332,0332,0332,0332,0332,061,061,040,0147,0162,0145,0171,0365,061,060,040,0160,0165,0162,0160,0154,0145,0330,0330,0330,0330,0330,0330,0332,0332,0365,061,062,040,0167,0150,0151,0164,0145,0330,0330,0330,0330,0330,0330,0330,0365,071,040,0142,0154,0165,0145,0333,0333,0333,0333,0333,0333,0333,0333,0333,0365,065,040,0162,0145,0144,0333,0333,0333,0333,0333,0333,0333,0333,0333,0365,067,040,0171,0145,0154,0154,0157,0167,0331,0331,0331,0331,0331,0332,0365,066,040,0157,0162,0141,0156,0147,0145,0331,0331,0331,0331,0331,0331,0331,0331,0365,0331,0331,0331,0331,0331,0331,0333,0333,0333,0333,0333,0331,0331,0333,0333,0331,0333,0333,0333,0337,0337,0337,0337,0337,0320,",
    "01220:0333,0220,",
    "01221:0333,0221,",
    "01222:0333,0222,0304,",
    "01223:0333,0223,0314,0304,0313,",
    "01224:0333,0224,0313,0304,",
    "01225:0333,0225,0313,0304,",
    "01226:0226,0200,",
    "01227:0227,0200,",
    "01230:0230,0333,0333,0333,0333,0333,0333,",
    "01231:0333,0231,",
    "01232:0333,0232,",
    "01233:0333,0233,",
    "01234:0333,0234,",
    "01235:0333,0200,0336,0330,0332,0235,0331,0333,0337,",
    "01236:0333,0200,0336,0330,0332,0236,0331,0333,0337,",
    "01237:0333,0237,",
    "0240:0220,0336,0331,0333,0336,0321,0335,0342,0335,0335,0342,0335,0330,0330,0332,0332,0337,0337,",
    "01240:0333,0200,0336,0330,0332,0210,0240,0211,0333,0331,0337,",
    "0241:0220,0336,0321,0343,0332,0350,0335,0336,0342,0334,0334,0342,0335,0304,0337,0333,0337,",
    "01241:0333,0200,0336,0332,0330,0210,0241,0211,0333,0331,0337,",
    "0242:0220,0321,0336,0343,0333,0336,0350,0335,0342,0334,0334,0342,0335,0337,0304,0332,0337,",
    "01242:0333,0200,0336,0330,0332,0210,0242,0211,0333,0331,0337,",
    "0243:0220,0336,0331,0332,0336,0321,0343,0332,0350,0334,0336,0342,0335,0335,0342,0337,0334,0334,0335,0304,0332,0330,0330,0337,0337,0333,",
    "01243:0333,0200,0336,0330,0332,0210,0243,0211,0333,0331,0337,",
    "0244:0220,0336,0331,0333,0336,0321,0343,0333,0350,0336,0335,0342,0334,0334,0342,0335,0337,0304,0333,0330,0330,0337,0337,0332,",
    "01244:0333,0200,0336,0330,0332,0210,0244,0211,0333,0331,0337,",
    "0245:0210,0332,0332,0362,0335,0203,0203,0203,0203,0334,0203,0363,0332,0332,0331,0211,",
    "01245:0333,0200,0336,0330,0332,0336,0245,0337,0333,0331,0337,",
    "0246:0210,0332,0332,0335,0306,0336,0330,0335,0335,0335,0321,0362,0203,0335,0335,0203,0364,0331,0350,0335,0337,0366,0333,0333,0333,0333,0334,0334,0334,0334,0367,0335,0336,0342,0334,0334,0342,0330,0330,0330,0330,0335,0335,0335,0304,0337,0211,",
    "01246:0333,0200,0336,0330,0332,0336,0246,",
    "0247:0330,0332,0336,0332,0336,0221,0333,0333,0333,0222,0333,0333,0333,0223,0333,0333,0333,0225,0333,0331,0331,0331,0332,0332,0332,0332,0332,0332,0332,0332,0332,0332,0332,0332,0333,0333,0226,0331,0331,0331,0333,0333,0333,0333,0333,0333,0333,0333,0333,0333,0333,0333,0333,0330,0333,0330,0330,0333,0330,0331,0332,0332,0332,0332,0332,0332,0332,0332,0332,0332,0332,0332,0227,0333,0333,0333,0230,0333,0331,0331,0331,0331,0332,0332,0332,0330,0332,0332,0332,0332,0332,0332,0333,0333,0231,0333,0333,0333,0232,0331,0333,0330,0333,0333,0233,0333,0333,0333,0234,0330,0330,0332,0330,0332,0332,0337,0337,",
    "01247:0333,0200,0336,0330,0332,0220,0336,0247,0337,0331,0333,0337,"
  ]
}</json>-->	<path d = "M64 281 L64 246 L30 246 L30 281 L64 281 Z" stroke = "#000000" stroke-width = "1" fill = "none" />    <line x1="47" y1="263" x2="47" y2="246" style="stroke:#000000;stroke-width:1" />
    <line x1="47" y1="263" x2="63" y2="258" style="stroke:#000000;stroke-width:1" />
    <line x1="47" y1="263" x2="57" y2="277" style="stroke:#000000;stroke-width:1" />
    <line x1="47" y1="263" x2="37" y2="277" style="stroke:#000000;stroke-width:1" />
    <line x1="47" y1="263" x2="30" y2="258" style="stroke:#000000;stroke-width:1" />
<circle cx="47" cy = "263" r = "17.075336384126768" stroke = "#000000" stroke-width = "1" fill = "none" />
<circle cx="52" cy = "257" r = "2.134417048015846" stroke = "#000000" stroke-width = "1" fill = "none" />
<circle cx="55" cy = "266" r = "2.134417048015846" stroke = "#000000" stroke-width = "1" fill = "none" />
<circle cx="47" cy = "272" r = "2.134417048015846" stroke = "#000000" stroke-width = "1" fill = "none" />
<circle cx="38" cy = "266" r = "2.134417048015846" stroke = "#000000" stroke-width = "1" fill = "none" />
<circle cx="42" cy = "257" r = "2.134417048015846" stroke = "#000000" stroke-width = "1" fill = "none" />
	<path d = "M98 281 L98 246 L64 246 L64 281 L98 281 Z" stroke = "#000000" stroke-width = "1" fill = "none" />	<path d = "M93 251 L81 263 L93 276 " stroke = "#000000" stroke-width = "1" fill = "none" />    <line x1="81" y1="263" x2="85" y2="263" style="stroke:#000000;stroke-width:1" />
    <line x1="89" y1="263" x2="94" y2="263" style="stroke:#000000;stroke-width:1" />
	<path d = "M132 281 L132 246 L98 246 L98 281 L132 281 Z" stroke = "#000000" stroke-width = "1" fill = "none" /><circle cx="106" cy = "272" r = "1" stroke = "#000000" stroke-width = "1" fill = "#000000" />
	<path d = "M106 272 L106 255 L123 255 " stroke = "#000000" stroke-width = "1" fill = "none" />	<path d = "M117 249 L123 255 L117 261 " stroke = "#000000" stroke-width = "1" fill = "none" />    <line x1="132" y1="281" x2="138" y2="274" style="stroke:#000000;stroke-width:1" />
    <line x1="140" y1="281" x2="147" y2="274" style="stroke:#000000;stroke-width:1" />
    <line x1="149" y1="281" x2="155" y2="274" style="stroke:#000000;stroke-width:1" />
    <line x1="158" y1="281" x2="164" y2="274" style="stroke:#000000;stroke-width:1" />
	<path d = "M166 281 L166 246 L132 246 L132 281 L166 281 Z" stroke = "#000000" stroke-width = "1" fill = "none" />    <line x1="140" y1="263" x2="158" y2="263" style="stroke:#000000;stroke-width:1" />
    <line x1="158" y1="263" x2="155" y2="266" style="stroke:#000000;stroke-width:1" />
    <line x1="158" y1="263" x2="155" y2="260" style="stroke:#000000;stroke-width:1" />
	<path d = "M200 281 L200 246 L166 246 L166 281 L200 281 Z" stroke = "#000000" stroke-width = "1" fill = "none" />  <path d="M177.14954223425192 257.41312054174466           A8.537668192063384 8.537668192063384 0 0 1 189.22362838250933 257.41312054174466" fill = "none" stroke = "#000000" stroke-width = "1" />
  <path d="M177.1495422342519 269.48720669000204           A8.537668192063384 8.537668192063384 0 0 1 177.14954223425192 257.41312054174466" fill = "none" stroke = "#000000" stroke-width = "1" />
  <path d="M189.22362838250933 269.48720669000204           A8.537668192063384 8.537668192063384 0 0 1 177.1495422342519 269.48720669000204" fill = "none" stroke = "#000000" stroke-width = "1" />
	<path d = "M186 277 L189 269 L181 266 " stroke = "#000000" stroke-width = "1" fill = "none" />    <line x1="200" y1="281" x2="206" y2="274" style="stroke:#000000;stroke-width:1" />
    <line x1="209" y1="281" x2="215" y2="274" style="stroke:#000000;stroke-width:1" />
    <line x1="217" y1="281" x2="223" y2="274" style="stroke:#000000;stroke-width:1" />
    <line x1="226" y1="281" x2="232" y2="274" style="stroke:#000000;stroke-width:1" />
	<path d = "M234 281 L234 246 L200 246 L200 281 L234 281 Z" stroke = "#000000" stroke-width = "1" fill = "none" />    <line x1="209" y1="263" x2="226" y2="263" style="stroke:#000000;stroke-width:1" />
    <line x1="226" y1="263" x2="223" y2="266" style="stroke:#000000;stroke-width:1" />
    <line x1="226" y1="263" x2="223" y2="260" style="stroke:#000000;stroke-width:1" />
	<path d = "M269 281 L269 246 L234 246 L234 281 L269 281 Z" stroke = "#000000" stroke-width = "1" fill = "none" />  <path d="M245.45088777075895 257.4131205417447           A8.537668192063384 8.537668192063384 0 0 1 257.52497391901636 257.4131205417448" fill = "none" stroke = "#000000" stroke-width = "1" />
  <path d="M245.45088777075892 269.48720669000215           A8.537668192063384 8.537668192063384 0 0 1 245.45088777075895 257.4131205417447" fill = "none" stroke = "#000000" stroke-width = "1" />
  <path d="M257.52497391901636 269.48720669000215           A8.537668192063384 8.537668192063384 0 0 1 245.45088777075892 269.48720669000215" fill = "none" stroke = "#000000" stroke-width = "1" />
	<path d = "M254 277 L258 269 L250 266 " stroke = "#000000" stroke-width = "1" fill = "none" />	<path d = "M303 281 L303 246 L269 246 L269 281 L303 281 Z" stroke = "#000000" stroke-width = "1" fill = "none" />  <path d="M279.6015605390123 257.41312054174483           A8.537668192063384 8.537668192063384 0 0 1 291.67564668726976 257.41312054174483" fill = "none" stroke = "#000000" stroke-width = "1" />
  <path d="M279.6015605390124 269.48720669000227           A8.537668192063384 8.537668192063384 0 0 1 279.6015605390123 257.41312054174483" fill = "none" stroke = "#000000" stroke-width = "1" />
  <path d="M291.6756466872698 269.4872066900022           A8.537668192063384 8.537668192063384 0 0 1 279.6015605390124 269.48720669000227" fill = "none" stroke = "#000000" stroke-width = "1" />
	<path d = "M288 277 L292 269 L284 266 " stroke = "#000000" stroke-width = "1" fill = "none" />	<path d = "M337 281 L337 246 L303 246 L303 281 L337 281 Z" stroke = "#000000" stroke-width = "1" fill = "none" />  <path d="M313.75223330726584 257.4131205417447           A8.537668192063384 8.537668192063384 0 0 1 325.8263194555233 257.41312054174455" fill = "none" stroke = "#000000" stroke-width = "1" />
  <path d="M313.752233307266 269.48720669000215           A8.537668192063384 8.537668192063384 0 0 1 313.75223330726584 257.4131205417447" fill = "none" stroke = "#000000" stroke-width = "1" />
  <path d="M325.82631945552345 269.4872066900019           A8.537668192063384 8.537668192063384 0 0 1 313.752233307266 269.48720669000215" fill = "none" stroke = "#000000" stroke-width = "1" />
	<path d = "M323 277 L326 269 L318 266 " stroke = "#000000" stroke-width = "1" fill = "none" />	<path d = "M371 281 L371 246 L337 246 L337 281 L371 281 Z" stroke = "#000000" stroke-width = "1" fill = "none" />  <path d="M347.90290607551935 257.4131205417442           A8.537668192063384 8.537668192063384 0 0 1 359.97699222377673 257.41312054174387" fill = "none" stroke = "#000000" stroke-width = "1" />
  <path d="M347.90290607551964 269.48720669000164           A8.537668192063384 8.537668192063384 0 0 1 347.90290607551935 257.4131205417442" fill = "none" stroke = "#000000" stroke-width = "1" />
  <path d="M359.976992223777 269.4872066900014           A8.537668192063384 8.537668192063384 0 0 1 347.90290607551964 269.48720669000164" fill = "none" stroke = "#000000" stroke-width = "1" />
	<path d = "M357 277 L360 269 L352 266 " stroke = "#000000" stroke-width = "1" fill = "none" />    <line x1="30" y1="349" x2="36" y2="343" style="stroke:#000000;stroke-width:1" />
    <line x1="38" y1="349" x2="44" y2="343" style="stroke:#000000;stroke-width:1" />
    <line x1="47" y1="349" x2="53" y2="343" style="stroke:#000000;stroke-width:1" />
    <line x1="55" y1="349" x2="61" y2="343" style="stroke:#000000;stroke-width:1" />
	<path d = "M64 349 L64 315 L30 315 L30 349 L64 349 Z" stroke = "#000000" stroke-width = "1" fill = "none" />    <line x1="38" y1="332" x2="55" y2="332" style="stroke:#000000;stroke-width:1" />
    <line x1="55" y1="332" x2="52" y2="335" style="stroke:#000000;stroke-width:1" />
    <line x1="55" y1="332" x2="52" y2="329" style="stroke:#000000;stroke-width:1" />
	<path d = "M98 349 L98 315 L64 315 L64 349 L98 349 Z" stroke = "#000000" stroke-width = "1" fill = "none" />  <path d="M74.69752392949277 325.7144660782596           A8.537668192063384 8.537668192063384 0 0 1 86.77161007775017 325.71446607825897" fill = "none" stroke = "#000000" stroke-width = "1" />
  <path d="M74.69752392949331 337.78855222651697           A8.537668192063384 8.537668192063384 0 0 1 74.69752392949277 325.7144660782596" fill = "none" stroke = "#000000" stroke-width = "1" />
  <path d="M86.77161007775071 337.78855222651646           A8.537668192063384 8.537668192063384 0 0 1 74.69752392949331 337.78855222651697" fill = "none" stroke = "#000000" stroke-width = "1" />
	<path d = "M84 346 L87 338 L79 335 " stroke = "#000000" stroke-width = "1" fill = "none" />    <line x1="98" y1="349" x2="104" y2="343" style="stroke:#000000;stroke-width:1" />
    <line x1="106" y1="349" x2="112" y2="343" style="stroke:#000000;stroke-width:1" />
    <line x1="115" y1="349" x2="121" y2="343" style="stroke:#000000;stroke-width:1" />
    <line x1="123" y1="349" x2="129" y2="343" style="stroke:#000000;stroke-width:1" />
	<path d = "M132 349 L132 315 L98 315 L98 349 L132 349 Z" stroke = "#000000" stroke-width = "1" fill = "none" />    <line x1="106" y1="332" x2="123" y2="332" style="stroke:#000000;stroke-width:1" />
    <line x1="123" y1="332" x2="120" y2="335" style="stroke:#000000;stroke-width:1" />
    <line x1="123" y1="332" x2="120" y2="329" style="stroke:#000000;stroke-width:1" />
    <line x1="132" y1="349" x2="138" y2="343" style="stroke:#000000;stroke-width:1" />
    <line x1="140" y1="349" x2="147" y2="343" style="stroke:#000000;stroke-width:1" />
    <line x1="149" y1="349" x2="155" y2="343" style="stroke:#000000;stroke-width:1" />
    <line x1="158" y1="349" x2="164" y2="343" style="stroke:#000000;stroke-width:1" />
	<path d = "M166 349 L166 315 L132 315 L132 349 L166 349 Z" stroke = "#000000" stroke-width = "1" fill = "none" />	<path d = "M140 323 L158 323 L158 340 " stroke = "#000000" stroke-width = "1" fill = "none" />	<path d = "M152 334 L158 340 L164 334 " stroke = "#000000" stroke-width = "1" fill = "none" /><circle cx="158" cy = "340" r = "1" stroke = "#000000" stroke-width = "1" fill = "#000000" />
	<path d = "M200 349 L200 315 L166 315 L166 349 L200 349 Z" stroke = "#000000" stroke-width = "1" fill = "none" />  <path d="M177.14954223425323 325.714466078254           A8.537668192063384 8.537668192063384 0 0 1 189.2236283825106 325.71446607825317" fill = "none" stroke = "#000000" stroke-width = "1" />
  <path d="M177.14954223425403 337.7885522265114           A8.537668192063384 8.537668192063384 0 0 1 177.14954223425323 325.714466078254" fill = "none" stroke = "#000000" stroke-width = "1" />
  <path d="M189.2236283825114 337.78855222651066           A8.537668192063384 8.537668192063384 0 0 1 177.14954223425403 337.7885522265114" fill = "none" stroke = "#000000" stroke-width = "1" />
	<path d = "M186 346 L189 338 L181 335 " stroke = "#000000" stroke-width = "1" fill = "none" />	<path d = "M234 349 L234 315 L200 315 L200 349 L234 349 Z" stroke = "#000000" stroke-width = "1" fill = "none" />  <path d="M211.30021500250658 325.71446607825175           A8.537668192063384 8.537668192063384 0 0 1 223.37430115076398 325.7144660782508" fill = "none" stroke = "#000000" stroke-width = "1" />
  <path d="M211.30021500250746 337.7885522265091           A8.537668192063384 8.537668192063384 0 0 1 211.30021500250658 325.71446607825175" fill = "none" stroke = "#000000" stroke-width = "1" />
  <path d="M223.37430115076484 337.78855222650833           A8.537668192063384 8.537668192063384 0 0 1 211.30021500250746 337.7885522265091" fill = "none" stroke = "#000000" stroke-width = "1" />
	<path d = "M220 346 L223 338 L215 335 " stroke = "#000000" stroke-width = "1" fill = "none" />	<path d = "M269 349 L269 315 L234 315 L234 349 L269 349 Z" stroke = "#000000" stroke-width = "1" fill = "none" />  <path d="M245.45088777075992 325.71446607824925           A8.537668192063384 8.537668192063384 0 0 1 257.5249739190173 325.7144660782482" fill = "none" stroke = "#000000" stroke-width = "1" />
  <path d="M245.4508877707609 337.7885522265067           A8.537668192063384 8.537668192063384 0 0 1 245.45088777075992 325.71446607824925" fill = "none" stroke = "#000000" stroke-width = "1" />
  <path d="M257.52497391901824 337.7885522265058           A8.537668192063384 8.537668192063384 0 0 1 245.4508877707609 337.7885522265067" fill = "none" stroke = "#000000" stroke-width = "1" />
	<path d = "M254 346 L258 338 L250 335 " stroke = "#000000" stroke-width = "1" fill = "none" />	<path d = "M303 349 L303 315 L269 315 L269 349 L303 349 Z" stroke = "#000000" stroke-width = "1" fill = "none" />  <path d="M279.6015605390131 325.71446607824646           A8.537668192063384 8.537668192063384 0 0 1 291.6756466872705 325.7144660782454" fill = "none" stroke = "#000000" stroke-width = "1" />
  <path d="M279.6015605390142 337.78855222650384           A8.537668192063384 8.537668192063384 0 0 1 279.6015605390131 325.71446607824646" fill = "none" stroke = "#000000" stroke-width = "1" />
  <path d="M291.6756466872716 337.7885522265029           A8.537668192063384 8.537668192063384 0 0 1 279.6015605390142 337.78855222650384" fill = "none" stroke = "#000000" stroke-width = "1" />
	<path d = "M288 346 L292 338 L284 335 " stroke = "#000000" stroke-width = "1" fill = "none" /><circle cx="320" cy = "332" r = "8.537668192063384" stroke = "#000000" stroke-width = "1" fill = "none" />
	<path d = "M234 212 L234 123 L182 50 L182 140 L234 212 Z" stroke = "#000000" stroke-width = "5" fill = "none" /></svg>