<svg width="600" height="800" viewbox="0 0 600 800" xmlns="http://www.w3.org/2000/svg">
<!--<json>{
  "glyph": "0331,0222,0336,0336,0336,0333,0337,0337,0223,0330,0336,0336,0331,0337,0225,0330,0225,0336,0330,0337,0337,0223,0330,0336,0336,0337,0225,0330,0336,0330,0337,0225,0336,0330,0337,0337,0223,0330,0336,0336,0331,0337,0225,0322,0336,0330,0337,0220,0336,0331,0337,0220,0331,0336,0332,0337,0220,0320,0331,0336,0336,0330,0332,0335,0337,0337,0362,0203,0335,0203,0203,0203,0203,0203,0203,0203,0203,0203,0203,0335,0203,0335,0203,0203,0203,0203,0203,0203,0203,0203,0203,0203,0354,0331,0331,0331,0331,0331,0331,0331,0331,0331,0331,0336,0336,0330,0333,0337,0337,0225,0336,0330,0336,0331,0334,0330,0335,0335,0337,0201,0334,0330,0330,0362,0203,0203,0334,0203,0364,0335,0325,0335,0335,0331,0331,0333,0335,0335,0331,0333,0333,0333,0331,0331,0337,0331,0331,0331,0331,0331,0333,0336,0332,0337,0337,0337,0362,0203,0203,0203,0336,0336,0203,0203,0334,0203,0203,0203,0203,0203,0203,0364,0335,0336,0331,0333,0333,0333,0333,0333,0333,0333,0333,0333,0333,0333,0336,0341,0337,0337,0331,0331,0331,0331,0331,0331,0331,0331,0331,0331,0331,0336,0336,0341,0337,0337,0320,0330,0336,0331,0332,0336,0330,0333,0337,0337,0337,0224,0330,0336,0330,0337,0224,0330,0330,0224,0331,0331,0331,0331,0336,0330,0333,0336,0333,0336,0333,0336,0331,0332,0337,0145,0156,061,0365,0330,0330,0163,0164,0145,0160,061,0365,0330,0330,0144,0151,0162,061,0365,0337,0330,0330,0330,0330,0336,0145,0156,062,0365,0330,0330,0163,0164,0145,0160,062,0365,0330,0330,0144,0151,0162,062,0365,0337,0337,0337,0330,0336,0330,0336,0336,0145,0156,063,0365,0330,0330,0163,0164,0145,0160,063,0365,0330,0330,0144,0151,0162,063,0365,0337,0337,0337,0331,0331,0331,0332,0332,0336,0331,0333,0331,0336,0333,0330,0333,0336,0336,0330,0332,0337,0337,0337,0330,0335,0335,0337,0224,0335,0335,0336,0336,0330,0334,0330,0337,0342,0335,0332,0336,0336,0336,0331,0332,0332,0332,0332,0332,0332,0332,0332,0337,0103,0124,0122,0114,061,0365,0331,0103,0124,0122,0114,062,0331,0365,0331,0331,0103,0124,0122,0114,063,0365,0331,0331,0103,0124,0122,0114,064,0365,0337,0337,0337,0330,0333,0330,0330,0330,0330,0336,0336,0331,0331,0336,0330,0333,0333,0333,0336,0331,0332,0332,0337,0337,0334,0330,0322,0342,0335,0336,0331,0332,0330,0332,0332,0331,0332,0330,0336,0331,0337,0332,063,056,063,0126,0365,0320,0331,0333,0333,0333,0333,0333,0336,0331,0334,0337,0337,0342,0332,0342,0335,0330,0332,0336,0331,0332,0336,0330,0332,0332,0332,0337,0107,0117,0365,0331,0331,0117,0106,0106,0365,",
  "shapes": [
    "0220:0336,0336,0336,0341,0337,0337,0337,0330,",
    "0221:0336,0336,0220,0220,0220,0220,0220,0220,0220,0220,0337,0337,0331,0331,0336,0336,0333,0337,0336,0220,0220,0220,0220,0220,0220,0220,0220,0331,0331,0331,0331,0331,0331,0331,0331,0332,0337,0337,",
    "0222:0336,0221,0330,0330,0221,0330,0330,0336,0336,0220,0220,0220,0220,0335,0330,0335,0330,0220,0220,0220,0220,0335,0335,0337,0337,0331,0331,0331,0331,0336,0336,0330,0332,0337,0337,0337,",
    "0223:0336,0336,0336,0332,0337,0362,0203,0203,0336,0203,0335,0337,0203,0335,0203,0203,0203,0335,0203,0336,0335,0203,0354,0333,0337,0337,0337,",
    "0224:0336,0336,0333,0335,0337,0342,0336,0332,0337,0342,0336,0332,0337,0342,0334,0331,0336,0332,0337,0337,",
    "0225:0336,0336,0336,0347,0337,0337,0337,",
    "0226:",
    "0227:",
    "0230:",
    "0231:",
    "0232:",
    "0233:",
    "0234:",
    "0235:",
    "0236:",
    "0237:",
    "0240:",
    "0241:",
    "0242:",
    "0243:",
    "0244:",
    "0245:",
    "0246:",
    "0247:",
    "01220:0333,0200,0336,0330,0332,0336,0331,0220,0220,0331,0331,0333,0331,0333,0337,0337,",
    "01221:0333,0200,0336,0330,0332,0336,0331,0221,0333,0331,0333,0337,0337,",
    "01222:0333,0200,0336,0330,0332,0336,0331,0337,0222,0336,0331,0337,0333,0337,",
    "01223:0333,0200,0336,0330,0332,0336,0331,0337,0223,0336,0336,0220,0220,0220,0331,0331,0331,0337,0337,0336,0331,0337,0333,0337,",
    "01224:0333,0200,0336,0330,0332,0336,0331,0337,0223,0224,0336,0331,0337,0333,0337,",
    "01225:0333,0200,0336,0330,0332,0336,0331,0225,0331,0337,0333,0337,",
    "01226:0333,0200,",
    "01227:0333,0200,",
    "01230:0333,0200,",
    "01231:0333,0200,",
    "01232:0333,0200,",
    "01233:0333,0200,",
    "01234:0333,0200,",
    "01235:0333,0200,",
    "01236:0333,0200,",
    "01237:0333,0200,",
    "01240:0333,0200,",
    "01241:0333,0200,",
    "01242:0333,0200,",
    "01243:0333,0200,",
    "01244:0333,0200,",
    "01245:0333,0200,",
    "01246:0333,0200,",
    "01247:0333,0200,"
  ],
  "x0rel": 0.5,
  "y0rel": 0.5,
  "unitrel": 0.35,
  "theta0": -1.570796,
  "width": 600,
  "height": 800,
  "scale": 1,
  "backgroundimage": "",
  "style": {
    "color0": "black",
    "fill0": "black",
    "line0": 1,
    "color1": "black",
    "fill1": "black",
    "line1": 5,
    "color2": "red",
    "fill2": "red",
    "line2": 1,
    "color3": "#FF7900",
    "fill3": "#FF7900",
    "line3": 1,
    "color4": "yellow",
    "fill4": "yellow",
    "line4": 1,
    "color5": "green",
    "fill5": "green",
    "line5": 1,
    "color6": "blue",
    "fill6": "blue",
    "line6": 1,
    "color7": "purple",
    "fill7": "purple",
    "line7": 1
  },
  "controlbuttons": [
    196,
    198,
    200,
    203,
    128,
    216,
    217,
    218,
    219,
    220,
    221,
    222,
    223,
    27,
    8,
    225,
    192,
    16,
    17,
    144,
    145,
    146,
    147,
    148,
    149,
    150,
    151,
    152,
    153,
    154,
    155,
    156,
    157,
    158,
    159,
    160,
    161,
    162,
    136,
    137
  ]
}</json>--><circle cx="300" cy="610" r="3.28125" stroke="#000000" stroke-width="1" fill="none"/>
<circle cx="300" cy="584" r="3.28125" stroke="#000000" stroke-width="1" fill="none"/>
<circle cx="300" cy="557" r="3.28125" stroke="#000000" stroke-width="1" fill="none"/>
<circle cx="300" cy="531" r="3.28125" stroke="#000000" stroke-width="1" fill="none"/>
<circle cx="300" cy="505" r="3.28125" stroke="#000000" stroke-width="1" fill="none"/>
<circle cx="300" cy="479" r="3.28125" stroke="#000000" stroke-width="1" fill="none"/>
<circle cx="300" cy="452" r="3.28125" stroke="#000000" stroke-width="1" fill="none"/>
<circle cx="300" cy="426" r="3.28125" stroke="#000000" stroke-width="1" fill="none"/>
<circle cx="326" cy="610" r="3.28125" stroke="#000000" stroke-width="1" fill="none"/>
<circle cx="326" cy="584" r="3.28125" stroke="#000000" stroke-width="1" fill="none"/>
<circle cx="326" cy="558" r="3.28125" stroke="#000000" stroke-width="1" fill="none"/>
<circle cx="326" cy="531" r="3.28125" stroke="#000000" stroke-width="1" fill="none"/>
<circle cx="326" cy="505" r="3.28125" stroke="#000000" stroke-width="1" fill="none"/>
<circle cx="326" cy="479" r="3.28125" stroke="#000000" stroke-width="1" fill="none"/>
<circle cx="326" cy="453" r="3.28125" stroke="#000000" stroke-width="1" fill="none"/>
<circle cx="326" cy="426" r="3.28125" stroke="#000000" stroke-width="1" fill="none"/>
<circle cx="300" cy="400" r="3.28125" stroke="#000000" stroke-width="1" fill="none"/>
<circle cx="300" cy="374" r="3.28125" stroke="#000000" stroke-width="1" fill="none"/>
<circle cx="300" cy="348" r="3.28125" stroke="#000000" stroke-width="1" fill="none"/>
<circle cx="300" cy="321" r="3.28125" stroke="#000000" stroke-width="1" fill="none"/>
<circle cx="300" cy="295" r="3.28125" stroke="#000000" stroke-width="1" fill="none"/>
<circle cx="300" cy="269" r="3.28125" stroke="#000000" stroke-width="1" fill="none"/>
<circle cx="300" cy="243" r="3.28125" stroke="#000000" stroke-width="1" fill="none"/>
<circle cx="300" cy="216" r="3.28125" stroke="#000000" stroke-width="1" fill="none"/>
<circle cx="326" cy="400" r="3.28125" stroke="#000000" stroke-width="1" fill="none"/>
<circle cx="326" cy="374" r="3.28125" stroke="#000000" stroke-width="1" fill="none"/>
<circle cx="326" cy="348" r="3.28125" stroke="#000000" stroke-width="1" fill="none"/>
<circle cx="326" cy="321" r="3.28125" stroke="#000000" stroke-width="1" fill="none"/>
<circle cx="326" cy="295" r="3.28125" stroke="#000000" stroke-width="1" fill="none"/>
<circle cx="326" cy="269" r="3.28125" stroke="#000000" stroke-width="1" fill="none"/>
<circle cx="326" cy="243" r="3.28125" stroke="#000000" stroke-width="1" fill="none"/>
<circle cx="326" cy="216" r="3.28125" stroke="#000000" stroke-width="1" fill="none"/>
<circle cx="300" cy="190" r="3.28125" stroke="#000000" stroke-width="1" fill="none"/>
<circle cx="300" cy="164" r="3.28125" stroke="#000000" stroke-width="1" fill="none"/>
<circle cx="300" cy="138" r="3.28125" stroke="#000000" stroke-width="1" fill="none"/>
<circle cx="300" cy="111" r="3.28125" stroke="#000000" stroke-width="1" fill="none"/>
<circle cx="326" cy="111" r="3.28125" stroke="#000000" stroke-width="1" fill="none"/>
<circle cx="326" cy="138" r="3.28125" stroke="#000000" stroke-width="1" fill="none"/>
<circle cx="326" cy="164" r="3.28125" stroke="#000000" stroke-width="1" fill="none"/>
<circle cx="326" cy="190" r="3.28125" stroke="#000000" stroke-width="1" fill="none"/>
	<path d="M313 610 L313 584 L313 558 L313 544 L339 544 L339 571 L339 597 L339 623 L313 623 L313 610 Z" stroke="#000000" stroke-width="1" fill="none"/>    <circle cx="326" cy="531" r="6.5625" stroke="#000000" stroke-width="1" fill="#000000"/>
    <circle cx="326" cy="479" r="6.5625" stroke="#000000" stroke-width="1" fill="#000000"/>
	<path d="M313 453 L313 426 L313 400 L313 387 L339 387 L339 413 L339 439 L339 466 L313 466 L313 453 Z" stroke="#000000" stroke-width="1" fill="none"/>    <circle cx="326" cy="348" r="6.5625" stroke="#000000" stroke-width="1" fill="#000000"/>
    <circle cx="326" cy="269" r="6.5625" stroke="#000000" stroke-width="1" fill="#000000"/>
	<path d="M313 243 L313 216 L313 190 L313 177 L339 177 L339 203 L339 229 L339 256 L313 256 L313 243 Z" stroke="#000000" stroke-width="1" fill="none"/>    <circle cx="326" cy="164" r="6.5625" stroke="#000000" stroke-width="1" fill="#000000"/>
<circle cx="326" cy="138" r="6.5625" stroke="#ff0000" stroke-width="1" fill="none"/>
<circle cx="326" cy="111" r="6.5625" stroke="#ff0000" stroke-width="1" fill="none"/>
<circle cx="300" cy="111" r="6.5625" stroke="#ff0000" stroke-width="1" fill="none"/>
	<path d="M287 98 L339 98 L339 151 L339 203 L339 256 L339 308 L339 361 L339 413 L339 466 L339 518 L339 571 L339 623 L287 623 L287 571 L287 518 L287 466 L287 413 L287 361 L287 308 L287 256 L287 203 L287 151 L287 98 Z" stroke="#000000" stroke-width="1" fill="none"/>    <circle cx="300" cy="610" r="6.5625" stroke="#000000" stroke-width="1" fill="#000000"/>
    <line x1="287" y1="597" x2="313" y2="597" style="stroke:#000000;stroke-width:1"/>
	<path d="M313 544 L313 518 L313 492 L287 492 " stroke="#000000" stroke-width="1" fill="none"/>	<path d="M366 781 L366 571 L366 361 L366 151 L366 98 L366 46 L313 46 L261 46 L208 46 L156 46 L103 46 L51 46 " stroke="#008000" stroke-width="1" fill="none"/><circle cx="339" cy="72" r="13.125" stroke="#008000" stroke-width="1" fill="none"/>
<circle cx="339" cy="649" r="13.125" stroke="#008000" stroke-width="1" fill="none"/>
    <line x1="352" y1="610" x2="405" y2="610" style="stroke:#000000;stroke-width:1"/>
    <line x1="352" y1="584" x2="405" y2="584" style="stroke:#000000;stroke-width:1"/>
    <line x1="352" y1="558" x2="405" y2="558" style="stroke:#000000;stroke-width:1"/>
    <line x1="352" y1="453" x2="405" y2="453" style="stroke:#000000;stroke-width:1"/>
    <line x1="352" y1="426" x2="405" y2="426" style="stroke:#000000;stroke-width:1"/>
    <line x1="352" y1="400" x2="405" y2="400" style="stroke:#000000;stroke-width:1"/>
    <line x1="353" y1="243" x2="405" y2="243" style="stroke:#000000;stroke-width:1"/>
    <line x1="353" y1="216" x2="405" y2="216" style="stroke:#000000;stroke-width:1"/>
    <line x1="353" y1="190" x2="405" y2="190" style="stroke:#000000;stroke-width:1"/>
    <text x="412" y="617" fill="#000000" font-size="13.125px" font-family="Arial">en1</text>
    <text x="412" y="590" fill="#000000" font-size="13.125px" font-family="Arial">step1</text>
    <text x="412" y="564" fill="#000000" font-size="13.125px" font-family="Arial">dir1</text>
    <text x="412" y="459" fill="#000000" font-size="13.125px" font-family="Arial">en2</text>
    <text x="412" y="433" fill="#000000" font-size="13.125px" font-family="Arial">step2</text>
    <text x="412" y="407" fill="#000000" font-size="13.125px" font-family="Arial">dir2</text>
    <text x="412" y="249" fill="#000000" font-size="13.125px" font-family="Arial">en3</text>
    <text x="412" y="223" fill="#000000" font-size="13.125px" font-family="Arial">step3</text>
    <text x="412" y="197" fill="#000000" font-size="13.125px" font-family="Arial">dir3</text>
    <line x1="274" y1="531" x2="221" y2="531" style="stroke:#000000;stroke-width:1"/>
    <line x1="274" y1="557" x2="221" y2="557" style="stroke:#000000;stroke-width:1"/>
    <line x1="274" y1="584" x2="221" y2="584" style="stroke:#000000;stroke-width:1"/>
    <line x1="274" y1="505" x2="221" y2="505" style="stroke:#000000;stroke-width:1"/>
    <text x="169" y="512" fill="#000000" font-size="13.125px" font-family="Arial">CTRL1</text>
    <text x="169" y="538" fill="#000000" font-size="13.125px" font-family="Arial">CTRL2</text>
    <text x="169" y="564" fill="#000000" font-size="13.125px" font-family="Arial">CTRL3</text>
    <text x="169" y="590" fill="#000000" font-size="13.125px" font-family="Arial">CTRL4</text>
    <line x1="274" y1="111" x2="248" y2="111" style="stroke:#ff0000;stroke-width:1"/>
    <text x="208" y="118" fill="#ff0000" font-size="13.125px" font-family="Arial">3.3V</text>
    <line x1="274" y1="137" x2="248" y2="137" style="stroke:#000000;stroke-width:1"/>
    <line x1="274" y1="164" x2="248" y2="164" style="stroke:#000000;stroke-width:1"/>
    <text x="215" y="144" fill="#000000" font-size="13.125px" font-family="Arial">GO</text>
    <text x="215" y="170" fill="#000000" font-size="13.125px" font-family="Arial">OFF</text>
</svg>