solid exported
	facet normal -0.19445651692050006 0.9775985475706443 0.08054652577804902
		outer loop
			vertex 0 0.20000000298023224 0
			vertex -0.07653668522834778 0.18477590382099152 0
			vertex -0.05411960929632187 0.18477590382099152 0.05411960929632187
		endloop
	endfacet
	facet normal -0.08054652577804902 0.9775985475706443 0.19445651692050006
		outer loop
			vertex 0 0.20000000298023224 0
			vertex -0.05411960929632187 0.18477590382099152 0.05411960929632187
			vertex -4.68652038700443e-18 0.18477590382099152 0.07653668522834778
		endloop
	endfacet
	facet normal 0.08054652577804902 0.9775985475706445 0.1944565169205001
		outer loop
			vertex 0 0.20000000298023224 0
			vertex -4.68652038700443e-18 0.18477590382099152 0.07653668522834778
			vertex 0.05411960929632187 0.18477590382099152 0.05411960929632187
		endloop
	endfacet
	facet normal 0.19445651692050006 0.9775985475706443 0.08054652577804902
		outer loop
			vertex 0 0.20000000298023224 0
			vertex 0.05411960929632187 0.18477590382099152 0.05411960929632187
			vertex 0.07653668522834778 0.18477590382099152 9.37304077400886e-18
		endloop
	endfacet
	facet normal 0.1944565169205001 0.9775985475706445 -0.08054652577804902
		outer loop
			vertex 0 0.20000000298023224 0
			vertex 0.07653668522834778 0.18477590382099152 9.37304077400886e-18
			vertex 0.05411960929632187 0.18477590382099152 -0.05411960929632187
		endloop
	endfacet
	facet normal 0.08054652577804905 0.9775985475706443 -0.19445651692050006
		outer loop
			vertex 0 0.20000000298023224 0
			vertex 0.05411960929632187 0.18477590382099152 -0.05411960929632187
			vertex 1.4059560747422985e-17 0.18477590382099152 -0.07653668522834778
		endloop
	endfacet
	facet normal -0.08054652577804901 0.9775985475706443 -0.19445651692050012
		outer loop
			vertex 0 0.20000000298023224 0
			vertex 1.4059560747422985e-17 0.18477590382099152 -0.07653668522834778
			vertex -0.05411960929632187 0.18477590382099152 -0.05411960929632187
		endloop
	endfacet
	facet normal -0.1944565169205001 0.9775985475706443 -0.08054652577804906
		outer loop
			vertex 0 0.20000000298023224 0
			vertex -0.05411960929632187 0.18477590382099152 -0.05411960929632187
			vertex -0.07653668522834778 0.18477590382099152 0
		endloop
	endfacet
	facet normal -0.541419005843396 0.8102910127192149 0.22426309285751359
		outer loop
			vertex -0.05411960929632187 0.18477590382099152 0.05411960929632187
			vertex -0.07653668522834778 0.18477590382099152 0
			vertex -0.10000000149011612 0.1414213627576828 0.10000000149011612
		endloop
	endfacet
	facet normal -0.5414189761702473 0.8102910287014855 0.22426310674885816
		outer loop
			vertex -0.07653668522834778 0.18477590382099152 0
			vertex -0.1414213627576828 0.1414213627576828 0
			vertex -0.10000000149011612 0.1414213627576828 0.10000000149011612
		endloop
	endfacet
	facet normal -0.2242630818833072 0.8102910334593022 0.5414189793493177
		outer loop
			vertex -4.68652038700443e-18 0.18477590382099152 0.07653668522834778
			vertex -0.05411960929632187 0.18477590382099152 0.05411960929632187
			vertex -8.65956027255431e-18 0.1414213627576828 0.1414213627576828
		endloop
	endfacet
	facet normal -0.22426311268805624 0.8102910174770317 0.5414189905087382
		outer loop
			vertex -0.05411960929632187 0.18477590382099152 0.05411960929632187
			vertex -0.10000000149011612 0.1414213627576828 0.10000000149011612
			vertex -8.65956027255431e-18 0.1414213627576828 0.1414213627576828
		endloop
	endfacet
	facet normal 0.22426309285751359 0.8102910127192149 0.5414190058433961
		outer loop
			vertex 0.05411960929632187 0.18477590382099152 0.05411960929632187
			vertex -4.68652038700443e-18 0.18477590382099152 0.07653668522834778
			vertex 0.10000000149011612 0.1414213627576828 0.10000000149011612
		endloop
	endfacet
	facet normal 0.22426310674885813 0.8102910287014855 0.5414189761702473
		outer loop
			vertex -4.68652038700443e-18 0.18477590382099152 0.07653668522834778
			vertex -8.65956027255431e-18 0.1414213627576828 0.1414213627576828
			vertex 0.10000000149011612 0.1414213627576828 0.10000000149011612
		endloop
	endfacet
	facet normal 0.5414189793493177 0.8102910334593022 0.2242630818833072
		outer loop
			vertex 0.07653668522834778 0.18477590382099152 9.37304077400886e-18
			vertex 0.05411960929632187 0.18477590382099152 0.05411960929632187
			vertex 0.1414213627576828 0.1414213627576828 1.731912054510862e-17
		endloop
	endfacet
	facet normal 0.5414189905087381 0.8102910174770316 0.2242631126880562
		outer loop
			vertex 0.05411960929632187 0.18477590382099152 0.05411960929632187
			vertex 0.10000000149011612 0.1414213627576828 0.10000000149011612
			vertex 0.1414213627576828 0.1414213627576828 1.731912054510862e-17
		endloop
	endfacet
	facet normal 0.541419005843396 0.8102910127192151 -0.22426309285751359
		outer loop
			vertex 0.05411960929632187 0.18477590382099152 -0.05411960929632187
			vertex 0.07653668522834778 0.18477590382099152 9.37304077400886e-18
			vertex 0.10000000149011612 0.1414213627576828 -0.10000000149011612
		endloop
	endfacet
	facet normal 0.5414189761702473 0.8102910287014855 -0.22426310674885813
		outer loop
			vertex 0.07653668522834778 0.18477590382099152 9.37304077400886e-18
			vertex 0.1414213627576828 0.1414213627576828 1.731912054510862e-17
			vertex 0.10000000149011612 0.1414213627576828 -0.10000000149011612
		endloop
	endfacet
	facet normal 0.2242630818833072 0.8102910334593024 -0.5414189793493177
		outer loop
			vertex 1.4059560747422985e-17 0.18477590382099152 -0.07653668522834778
			vertex 0.05411960929632187 0.18477590382099152 -0.05411960929632187
			vertex 2.5978682472024153e-17 0.1414213627576828 -0.1414213627576828
		endloop
	endfacet
	facet normal 0.22426311268805624 0.8102910174770317 -0.5414189905087382
		outer loop
			vertex 0.05411960929632187 0.18477590382099152 -0.05411960929632187
			vertex 0.10000000149011612 0.1414213627576828 -0.10000000149011612
			vertex 2.5978682472024153e-17 0.1414213627576828 -0.1414213627576828
		endloop
	endfacet
	facet normal -0.22426309285751359 0.8102910127192151 -0.541419005843396
		outer loop
			vertex -0.05411960929632187 0.18477590382099152 -0.05411960929632187
			vertex 1.4059560747422985e-17 0.18477590382099152 -0.07653668522834778
			vertex -0.10000000149011612 0.1414213627576828 -0.10000000149011612
		endloop
	endfacet
	facet normal -0.22426310674885813 0.8102910287014855 -0.5414189761702473
		outer loop
			vertex 1.4059560747422985e-17 0.18477590382099152 -0.07653668522834778
			vertex 2.5978682472024153e-17 0.1414213627576828 -0.1414213627576828
			vertex -0.10000000149011612 0.1414213627576828 -0.10000000149011612
		endloop
	endfacet
	facet normal -0.5414189793493177 0.8102910334593024 -0.22426308188330726
		outer loop
			vertex -0.07653668522834778 0.18477590382099152 0
			vertex -0.05411960929632187 0.18477590382099152 -0.05411960929632187
			vertex -0.1414213627576828 0.1414213627576828 0
		endloop
	endfacet
	facet normal -0.5414189905087381 0.8102910174770316 -0.2242631126880562
		outer loop
			vertex -0.05411960929632187 0.18477590382099152 -0.05411960929632187
			vertex -0.10000000149011612 0.1414213627576828 -0.10000000149011612
			vertex -0.1414213627576828 0.1414213627576828 0
		endloop
	endfacet
	facet normal -0.7861509762671628 0.5252893105452038 0.32563443113579277
		outer loop
			vertex -0.10000000149011612 0.1414213627576828 0.10000000149011612
			vertex -0.1414213627576828 0.1414213627576828 0
			vertex -0.13065630197525024 0.07653668522834778 0.13065630197525024
		endloop
	endfacet
	facet normal -0.7861510823272656 0.5252891850362152 0.3256343775458267
		outer loop
			vertex -0.1414213627576828 0.1414213627576828 0
			vertex -0.18477590382099152 0.07653668522834778 0
			vertex -0.13065630197525024 0.07653668522834778 0.13065630197525024
		endloop
	endfacet
	facet normal -0.32563446472636565 0.5252891683549441 0.7861510573619708
		outer loop
			vertex -8.65956027255431e-18 0.1414213627576828 0.1414213627576828
			vertex -0.10000000149011612 0.1414213627576828 0.10000000149011612
			vertex -1.1314260790922793e-17 0.07653668522834778 0.18477590382099152
		endloop
	endfacet
	facet normal -0.32563435183672135 0.5252892938639303 0.7861510202599828
		outer loop
			vertex -0.10000000149011612 0.1414213627576828 0.10000000149011612
			vertex -0.13065630197525024 0.07653668522834778 0.13065630197525024
			vertex -1.1314260790922793e-17 0.07653668522834778 0.18477590382099152
		endloop
	endfacet
	facet normal 0.3256344311357927 0.5252893105452037 0.7861509762671628
		outer loop
			vertex 0.10000000149011612 0.1414213627576828 0.10000000149011612
			vertex -8.65956027255431e-18 0.1414213627576828 0.1414213627576828
			vertex 0.13065630197525024 0.07653668522834778 0.13065630197525024
		endloop
	endfacet
	facet normal 0.32563437754582664 0.5252891850362151 0.7861510823272654
		outer loop
			vertex -8.65956027255431e-18 0.1414213627576828 0.1414213627576828
			vertex -1.1314260790922793e-17 0.07653668522834778 0.18477590382099152
			vertex 0.13065630197525024 0.07653668522834778 0.13065630197525024
		endloop
	endfacet
	facet normal 0.7861510573619708 0.5252891683549441 0.32563446472636565
		outer loop
			vertex 0.1414213627576828 0.1414213627576828 1.731912054510862e-17
			vertex 0.10000000149011612 0.1414213627576828 0.10000000149011612
			vertex 0.18477590382099152 0.07653668522834778 2.2628521581845586e-17
		endloop
	endfacet
	facet normal 0.7861510202599828 0.5252892938639303 0.3256343518367214
		outer loop
			vertex 0.10000000149011612 0.1414213627576828 0.10000000149011612
			vertex 0.13065630197525024 0.07653668522834778 0.13065630197525024
			vertex 0.18477590382099152 0.07653668522834778 2.2628521581845586e-17
		endloop
	endfacet
	facet normal 0.7861509762671628 0.5252893105452038 -0.3256344311357927
		outer loop
			vertex 0.10000000149011612 0.1414213627576828 -0.10000000149011612
			vertex 0.1414213627576828 0.1414213627576828 1.731912054510862e-17
			vertex 0.13065630197525024 0.07653668522834778 -0.13065630197525024
		endloop
	endfacet
	facet normal 0.7861510823272656 0.5252891850362152 -0.32563437754582664
		outer loop
			vertex 0.1414213627576828 0.1414213627576828 1.731912054510862e-17
			vertex 0.18477590382099152 0.07653668522834778 2.2628521581845586e-17
			vertex 0.13065630197525024 0.07653668522834778 -0.13065630197525024
		endloop
	endfacet
	facet normal 0.32563446472636565 0.5252891683549441 -0.7861510573619707
		outer loop
			vertex 2.5978682472024153e-17 0.1414213627576828 -0.1414213627576828
			vertex 0.10000000149011612 0.1414213627576828 -0.10000000149011612
			vertex 3.3942784027129604e-17 0.07653668522834778 -0.18477590382099152
		endloop
	endfacet
	facet normal 0.3256343518367214 0.5252892938639303 -0.7861510202599828
		outer loop
			vertex 0.10000000149011612 0.1414213627576828 -0.10000000149011612
			vertex 0.13065630197525024 0.07653668522834778 -0.13065630197525024
			vertex 3.3942784027129604e-17 0.07653668522834778 -0.18477590382099152
		endloop
	endfacet
	facet normal -0.3256344311357927 0.5252893105452038 -0.7861509762671629
		outer loop
			vertex -0.10000000149011612 0.1414213627576828 -0.10000000149011612
			vertex 2.5978682472024153e-17 0.1414213627576828 -0.1414213627576828
			vertex -0.13065630197525024 0.07653668522834778 -0.13065630197525024
		endloop
	endfacet
	facet normal -0.32563437754582664 0.5252891850362152 -0.7861510823272656
		outer loop
			vertex 2.5978682472024153e-17 0.1414213627576828 -0.1414213627576828
			vertex 3.3942784027129604e-17 0.07653668522834778 -0.18477590382099152
			vertex -0.13065630197525024 0.07653668522834778 -0.13065630197525024
		endloop
	endfacet
	facet normal -0.7861510573619707 0.5252891683549442 -0.32563446472636565
		outer loop
			vertex -0.1414213627576828 0.1414213627576828 0
			vertex -0.10000000149011612 0.1414213627576828 -0.10000000149011612
			vertex -0.18477590382099152 0.07653668522834778 0
		endloop
	endfacet
	facet normal -0.7861510202599828 0.5252892938639303 -0.3256343518367215
		outer loop
			vertex -0.10000000149011612 0.1414213627576828 -0.10000000149011612
			vertex -0.13065630197525024 0.07653668522834778 -0.13065630197525024
			vertex -0.18477590382099152 0.07653668522834778 0
		endloop
	endfacet
	facet normal -0.9086633584013637 0.18074438983596644 0.3763806140618554
		outer loop
			vertex -0.13065630197525024 0.07653668522834778 0.13065630197525024
			vertex -0.18477590382099152 0.07653668522834778 0
			vertex -0.1414213627576828 1.2246467698671066e-17 0.1414213627576828
		endloop
	endfacet
	facet normal -0.9086633374107063 0.18074444574957238 0.37638063788712256
		outer loop
			vertex -0.18477590382099152 0.07653668522834778 0
			vertex -0.20000000298023224 1.2246467698671066e-17 0
			vertex -0.1414213627576828 1.2246467698671066e-17 0.1414213627576828
		endloop
	endfacet
	facet normal -0.3763806099740854 0.18074444796185785 0.9086633485326119
		outer loop
			vertex -1.1314260790922793e-17 0.07653668522834778 0.18477590382099152
			vertex -0.13065630197525024 0.07653668522834778 0.13065630197525024
			vertex -1.2246467698671066e-17 1.2246467698671066e-17 0.20000000298023224
		endloop
	endfacet
	facet normal -0.3763806416637297 0.18074439204825185 0.9086633465282435
		outer loop
			vertex -0.13065630197525024 0.07653668522834778 0.13065630197525024
			vertex -0.1414213627576828 1.2246467698671066e-17 0.1414213627576828
			vertex -1.2246467698671066e-17 1.2246467698671066e-17 0.20000000298023224
		endloop
	endfacet
	facet normal 0.3763806140618554 0.18074438983596644 0.9086633584013637
		outer loop
			vertex 0.13065630197525024 0.07653668522834778 0.13065630197525024
			vertex -1.1314260790922793e-17 0.07653668522834778 0.18477590382099152
			vertex 0.1414213627576828 1.2246467698671066e-17 0.1414213627576828
		endloop
	endfacet
	facet normal 0.37638063788712245 0.18074444574957235 0.908663337410706
		outer loop
			vertex -1.1314260790922793e-17 0.07653668522834778 0.18477590382099152
			vertex -1.2246467698671066e-17 1.2246467698671066e-17 0.20000000298023224
			vertex 0.1414213627576828 1.2246467698671066e-17 0.1414213627576828
		endloop
	endfacet
	facet normal 0.9086633485326119 0.18074444796185787 0.37638060997408546
		outer loop
			vertex 0.18477590382099152 0.07653668522834778 2.2628521581845586e-17
			vertex 0.13065630197525024 0.07653668522834778 0.13065630197525024
			vertex 0.20000000298023224 1.2246467698671066e-17 2.4492935397342132e-17
		endloop
	endfacet
	facet normal 0.9086633465282435 0.1807443920482519 0.3763806416637298
		outer loop
			vertex 0.13065630197525024 0.07653668522834778 0.13065630197525024
			vertex 0.1414213627576828 1.2246467698671066e-17 0.1414213627576828
			vertex 0.20000000298023224 1.2246467698671066e-17 2.4492935397342132e-17
		endloop
	endfacet
	facet normal 0.9086633584013637 0.18074438983596647 -0.37638061406185536
		outer loop
			vertex 0.13065630197525024 0.07653668522834778 -0.13065630197525024
			vertex 0.18477590382099152 0.07653668522834778 2.2628521581845586e-17
			vertex 0.1414213627576828 1.2246467698671066e-17 -0.1414213627576828
		endloop
	endfacet
	facet normal 0.9086633374107063 0.18074444574957238 -0.3763806378871225
		outer loop
			vertex 0.18477590382099152 0.07653668522834778 2.2628521581845586e-17
			vertex 0.20000000298023224 1.2246467698671066e-17 2.4492935397342132e-17
			vertex 0.1414213627576828 1.2246467698671066e-17 -0.1414213627576828
		endloop
	endfacet
	facet normal 0.37638060997408546 0.18074444796185787 -0.9086633485326119
		outer loop
			vertex 3.3942784027129604e-17 0.07653668522834778 -0.18477590382099152
			vertex 0.13065630197525024 0.07653668522834778 -0.13065630197525024
			vertex 3.6739405577555036e-17 1.2246467698671066e-17 -0.20000000298023224
		endloop
	endfacet
	facet normal 0.3763806416637298 0.1807443920482519 -0.9086633465282435
		outer loop
			vertex 0.13065630197525024 0.07653668522834778 -0.13065630197525024
			vertex 0.1414213627576828 1.2246467698671066e-17 -0.1414213627576828
			vertex 3.6739405577555036e-17 1.2246467698671066e-17 -0.20000000298023224
		endloop
	endfacet
	facet normal -0.37638061406185536 0.18074438983596647 -0.9086633584013637
		outer loop
			vertex -0.13065630197525024 0.07653668522834778 -0.13065630197525024
			vertex 3.3942784027129604e-17 0.07653668522834778 -0.18477590382099152
			vertex -0.1414213627576828 1.2246467698671066e-17 -0.1414213627576828
		endloop
	endfacet
	facet normal -0.3763806378871224 0.18074444574957235 -0.908663337410706
		outer loop
			vertex 3.3942784027129604e-17 0.07653668522834778 -0.18477590382099152
			vertex 3.6739405577555036e-17 1.2246467698671066e-17 -0.20000000298023224
			vertex -0.1414213627576828 1.2246467698671066e-17 -0.1414213627576828
		endloop
	endfacet
	facet normal -0.9086633485326118 0.1807444479618578 -0.37638060997408546
		outer loop
			vertex -0.18477590382099152 0.07653668522834778 0
			vertex -0.13065630197525024 0.07653668522834778 -0.13065630197525024
			vertex -0.20000000298023224 1.2246467698671066e-17 0
		endloop
	endfacet
	facet normal -0.9086633465282435 0.18074439204825188 -0.3763806416637299
		outer loop
			vertex -0.13065630197525024 0.07653668522834778 -0.13065630197525024
			vertex -0.1414213627576828 1.2246467698671066e-17 -0.1414213627576828
			vertex -0.20000000298023224 1.2246467698671066e-17 0
		endloop
	endfacet
	facet normal -0.9086633465282437 -0.18074439204825182 0.3763806416637298
		outer loop
			vertex -0.1414213627576828 1.2246467698671066e-17 0.1414213627576828
			vertex -0.20000000298023224 1.2246467698671066e-17 0
			vertex -0.13065630197525024 -0.07653668522834778 0.13065630197525024
		endloop
	endfacet
	facet normal -0.9086633485326118 -0.18074444796185776 0.3763806099740854
		outer loop
			vertex -0.20000000298023224 1.2246467698671066e-17 0
			vertex -0.18477590382099152 -0.07653668522834778 0
			vertex -0.13065630197525024 -0.07653668522834778 0.13065630197525024
		endloop
	endfacet
	facet normal -0.37638063788712245 -0.1807444457495723 0.908663337410706
		outer loop
			vertex -1.2246467698671066e-17 1.2246467698671066e-17 0.20000000298023224
			vertex -0.1414213627576828 1.2246467698671066e-17 0.1414213627576828
			vertex -1.1314260790922793e-17 -0.07653668522834778 0.18477590382099152
		endloop
	endfacet
	facet normal -0.3763806140618554 -0.18074438983596633 0.9086633584013636
		outer loop
			vertex -0.1414213627576828 1.2246467698671066e-17 0.1414213627576828
			vertex -0.13065630197525024 -0.07653668522834778 0.13065630197525024
			vertex -1.1314260790922793e-17 -0.07653668522834778 0.18477590382099152
		endloop
	endfacet
	facet normal 0.3763806416637298 -0.18074439204825182 0.9086633465282437
		outer loop
			vertex 0.1414213627576828 1.2246467698671066e-17 0.1414213627576828
			vertex -1.2246467698671066e-17 1.2246467698671066e-17 0.20000000298023224
			vertex 0.13065630197525024 -0.07653668522834778 0.13065630197525024
		endloop
	endfacet
	facet normal 0.3763806099740854 -0.18074444796185776 0.9086633485326118
		outer loop
			vertex -1.2246467698671066e-17 1.2246467698671066e-17 0.20000000298023224
			vertex -1.1314260790922793e-17 -0.07653668522834778 0.18477590382099152
			vertex 0.13065630197525024 -0.07653668522834778 0.13065630197525024
		endloop
	endfacet
	facet normal 0.908663337410706 -0.18074444574957224 0.3763806378871225
		outer loop
			vertex 0.20000000298023224 1.2246467698671066e-17 2.4492935397342132e-17
			vertex 0.1414213627576828 1.2246467698671066e-17 0.1414213627576828
			vertex 0.18477590382099152 -0.07653668522834778 2.2628521581845586e-17
		endloop
	endfacet
	facet normal 0.9086633584013637 -0.18074438983596638 0.3763806140618555
		outer loop
			vertex 0.1414213627576828 1.2246467698671066e-17 0.1414213627576828
			vertex 0.13065630197525024 -0.07653668522834778 0.13065630197525024
			vertex 0.18477590382099152 -0.07653668522834778 2.2628521581845586e-17
		endloop
	endfacet
	facet normal 0.9086633465282437 -0.1807443920482518 -0.37638064166372975
		outer loop
			vertex 0.1414213627576828 1.2246467698671066e-17 -0.1414213627576828
			vertex 0.20000000298023224 1.2246467698671066e-17 2.4492935397342132e-17
			vertex 0.13065630197525024 -0.07653668522834778 -0.13065630197525024
		endloop
	endfacet
	facet normal 0.9086633485326118 -0.18074444796185776 -0.37638060997408535
		outer loop
			vertex 0.20000000298023224 1.2246467698671066e-17 2.4492935397342132e-17
			vertex 0.18477590382099152 -0.07653668522834778 2.2628521581845586e-17
			vertex 0.13065630197525024 -0.07653668522834778 -0.13065630197525024
		endloop
	endfacet
	facet normal 0.3763806378871225 -0.18074444574957224 -0.908663337410706
		outer loop
			vertex 3.6739405577555036e-17 1.2246467698671066e-17 -0.20000000298023224
			vertex 0.1414213627576828 1.2246467698671066e-17 -0.1414213627576828
			vertex 3.3942784027129604e-17 -0.07653668522834778 -0.18477590382099152
		endloop
	endfacet
	facet normal 0.3763806140618555 -0.18074438983596638 -0.9086633584013637
		outer loop
			vertex 0.1414213627576828 1.2246467698671066e-17 -0.1414213627576828
			vertex 0.13065630197525024 -0.07653668522834778 -0.13065630197525024
			vertex 3.3942784027129604e-17 -0.07653668522834778 -0.18477590382099152
		endloop
	endfacet
	facet normal -0.37638064166372975 -0.1807443920482518 -0.9086633465282437
		outer loop
			vertex -0.1414213627576828 1.2246467698671066e-17 -0.1414213627576828
			vertex 3.6739405577555036e-17 1.2246467698671066e-17 -0.20000000298023224
			vertex -0.13065630197525024 -0.07653668522834778 -0.13065630197525024
		endloop
	endfacet
	facet normal -0.37638060997408535 -0.18074444796185776 -0.9086633485326118
		outer loop
			vertex 3.6739405577555036e-17 1.2246467698671066e-17 -0.20000000298023224
			vertex 3.3942784027129604e-17 -0.07653668522834778 -0.18477590382099152
			vertex -0.13065630197525024 -0.07653668522834778 -0.13065630197525024
		endloop
	endfacet
	facet normal -0.908663337410706 -0.18074444574957227 -0.37638063788712256
		outer loop
			vertex -0.20000000298023224 1.2246467698671066e-17 0
			vertex -0.1414213627576828 1.2246467698671066e-17 -0.1414213627576828
			vertex -0.18477590382099152 -0.07653668522834778 0
		endloop
	endfacet
	facet normal -0.9086633584013635 -0.18074438983596633 -0.3763806140618555
		outer loop
			vertex -0.1414213627576828 1.2246467698671066e-17 -0.1414213627576828
			vertex -0.13065630197525024 -0.07653668522834778 -0.13065630197525024
			vertex -0.18477590382099152 -0.07653668522834778 0
		endloop
	endfacet
	facet normal -0.7861510202599828 -0.5252892938639303 0.32563435183672135
		outer loop
			vertex -0.13065630197525024 -0.07653668522834778 0.13065630197525024
			vertex -0.18477590382099152 -0.07653668522834778 0
			vertex -0.10000000149011612 -0.1414213627576828 0.10000000149011612
		endloop
	endfacet
	facet normal -0.7861510573619708 -0.5252891683549441 0.32563446472636565
		outer loop
			vertex -0.18477590382099152 -0.07653668522834778 0
			vertex -0.1414213627576828 -0.1414213627576828 0
			vertex -0.10000000149011612 -0.1414213627576828 0.10000000149011612
		endloop
	endfacet
	facet normal -0.32563437754582664 -0.5252891850362151 0.7861510823272654
		outer loop
			vertex -1.1314260790922793e-17 -0.07653668522834778 0.18477590382099152
			vertex -0.13065630197525024 -0.07653668522834778 0.13065630197525024
			vertex -8.65956027255431e-18 -0.1414213627576828 0.1414213627576828
		endloop
	endfacet
	facet normal -0.32563443113579277 -0.5252893105452038 0.7861509762671627
		outer loop
			vertex -0.13065630197525024 -0.07653668522834778 0.13065630197525024
			vertex -0.10000000149011612 -0.1414213627576828 0.10000000149011612
			vertex -8.65956027255431e-18 -0.1414213627576828 0.1414213627576828
		endloop
	endfacet
	facet normal 0.32563435183672135 -0.5252892938639302 0.7861510202599828
		outer loop
			vertex 0.13065630197525024 -0.07653668522834778 0.13065630197525024
			vertex -1.1314260790922793e-17 -0.07653668522834778 0.18477590382099152
			vertex 0.10000000149011612 -0.1414213627576828 0.10000000149011612
		endloop
	endfacet
	facet normal 0.32563446472636554 -0.5252891683549441 0.7861510573619707
		outer loop
			vertex -1.1314260790922793e-17 -0.07653668522834778 0.18477590382099152
			vertex -8.65956027255431e-18 -0.1414213627576828 0.1414213627576828
			vertex 0.10000000149011612 -0.1414213627576828 0.10000000149011612
		endloop
	endfacet
	facet normal 0.7861510823272655 -0.5252891850362151 0.32563437754582675
		outer loop
			vertex 0.18477590382099152 -0.07653668522834778 2.2628521581845586e-17
			vertex 0.13065630197525024 -0.07653668522834778 0.13065630197525024
			vertex 0.1414213627576828 -0.1414213627576828 1.731912054510862e-17
		endloop
	endfacet
	facet normal 0.7861509762671627 -0.5252893105452038 0.32563443113579277
		outer loop
			vertex 0.13065630197525024 -0.07653668522834778 0.13065630197525024
			vertex 0.10000000149011612 -0.1414213627576828 0.10000000149011612
			vertex 0.1414213627576828 -0.1414213627576828 1.731912054510862e-17
		endloop
	endfacet
	facet normal 0.786151020259983 -0.5252892938639302 -0.32563435183672135
		outer loop
			vertex 0.13065630197525024 -0.07653668522834778 -0.13065630197525024
			vertex 0.18477590382099152 -0.07653668522834778 2.2628521581845586e-17
			vertex 0.10000000149011612 -0.1414213627576828 -0.10000000149011612
		endloop
	endfacet
	facet normal 0.7861510573619707 -0.5252891683549441 -0.32563446472636554
		outer loop
			vertex 0.18477590382099152 -0.07653668522834778 2.2628521581845586e-17
			vertex 0.1414213627576828 -0.1414213627576828 1.731912054510862e-17
			vertex 0.10000000149011612 -0.1414213627576828 -0.10000000149011612
		endloop
	endfacet
	facet normal 0.32563437754582675 -0.5252891850362151 -0.7861510823272655
		outer loop
			vertex 3.3942784027129604e-17 -0.07653668522834778 -0.18477590382099152
			vertex 0.13065630197525024 -0.07653668522834778 -0.13065630197525024
			vertex 2.5978682472024153e-17 -0.1414213627576828 -0.1414213627576828
		endloop
	endfacet
	facet normal 0.3256344311357928 -0.5252893105452038 -0.7861509762671628
		outer loop
			vertex 0.13065630197525024 -0.07653668522834778 -0.13065630197525024
			vertex 0.10000000149011612 -0.1414213627576828 -0.10000000149011612
			vertex 2.5978682472024153e-17 -0.1414213627576828 -0.1414213627576828
		endloop
	endfacet
	facet normal -0.32563435183672135 -0.5252892938639302 -0.786151020259983
		outer loop
			vertex -0.13065630197525024 -0.07653668522834778 -0.13065630197525024
			vertex 3.3942784027129604e-17 -0.07653668522834778 -0.18477590382099152
			vertex -0.10000000149011612 -0.1414213627576828 -0.10000000149011612
		endloop
	endfacet
	facet normal -0.32563446472636554 -0.5252891683549441 -0.7861510573619708
		outer loop
			vertex 3.3942784027129604e-17 -0.07653668522834778 -0.18477590382099152
			vertex 2.5978682472024153e-17 -0.1414213627576828 -0.1414213627576828
			vertex -0.10000000149011612 -0.1414213627576828 -0.10000000149011612
		endloop
	endfacet
	facet normal -0.7861510823272653 -0.5252891850362152 -0.32563437754582675
		outer loop
			vertex -0.18477590382099152 -0.07653668522834778 0
			vertex -0.13065630197525024 -0.07653668522834778 -0.13065630197525024
			vertex -0.1414213627576828 -0.1414213627576828 0
		endloop
	endfacet
	facet normal -0.7861509762671628 -0.5252893105452038 -0.3256344311357928
		outer loop
			vertex -0.13065630197525024 -0.07653668522834778 -0.13065630197525024
			vertex -0.10000000149011612 -0.1414213627576828 -0.10000000149011612
			vertex -0.1414213627576828 -0.1414213627576828 0
		endloop
	endfacet
	facet normal -0.5414189905087382 -0.8102910174770317 0.2242631126880562
		outer loop
			vertex -0.10000000149011612 -0.1414213627576828 0.10000000149011612
			vertex -0.1414213627576828 -0.1414213627576828 0
			vertex -0.05411960929632187 -0.18477590382099152 0.05411960929632187
		endloop
	endfacet
	facet normal -0.5414189793493177 -0.8102910334593022 0.22426308188330715
		outer loop
			vertex -0.1414213627576828 -0.1414213627576828 0
			vertex -0.07653668522834778 -0.18477590382099152 0
			vertex -0.05411960929632187 -0.18477590382099152 0.05411960929632187
		endloop
	endfacet
	facet normal -0.22426310674885816 -0.8102910287014855 0.5414189761702471
		outer loop
			vertex -8.65956027255431e-18 -0.1414213627576828 0.1414213627576828
			vertex -0.10000000149011612 -0.1414213627576828 0.10000000149011612
			vertex -4.68652038700443e-18 -0.18477590382099152 0.07653668522834778
		endloop
	endfacet
	facet normal -0.22426309285751364 -0.810291012719215 0.541419005843396
		outer loop
			vertex -0.10000000149011612 -0.1414213627576828 0.10000000149011612
			vertex -0.05411960929632187 -0.18477590382099152 0.05411960929632187
			vertex -4.68652038700443e-18 -0.18477590382099152 0.07653668522834778
		endloop
	endfacet
	facet normal 0.22426311268805613 -0.8102910174770316 0.5414189905087381
		outer loop
			vertex 0.10000000149011612 -0.1414213627576828 0.10000000149011612
			vertex -8.65956027255431e-18 -0.1414213627576828 0.1414213627576828
			vertex 0.05411960929632187 -0.18477590382099152 0.05411960929632187
		endloop
	endfacet
	facet normal 0.22426308188330715 -0.8102910334593023 0.5414189793493178
		outer loop
			vertex -8.65956027255431e-18 -0.1414213627576828 0.1414213627576828
			vertex -4.68652038700443e-18 -0.18477590382099152 0.07653668522834778
			vertex 0.05411960929632187 -0.18477590382099152 0.05411960929632187
		endloop
	endfacet
	facet normal 0.5414189761702473 -0.8102910287014854 0.22426310674885822
		outer loop
			vertex 0.1414213627576828 -0.1414213627576828 1.731912054510862e-17
			vertex 0.10000000149011612 -0.1414213627576828 0.10000000149011612
			vertex 0.07653668522834778 -0.18477590382099152 9.37304077400886e-18
		endloop
	endfacet
	facet normal 0.541419005843396 -0.810291012719215 0.22426309285751364
		outer loop
			vertex 0.10000000149011612 -0.1414213627576828 0.10000000149011612
			vertex 0.05411960929632187 -0.18477590382099152 0.05411960929632187
			vertex 0.07653668522834778 -0.18477590382099152 9.37304077400886e-18
		endloop
	endfacet
	facet normal 0.5414189905087381 -0.8102910174770316 -0.22426311268805613
		outer loop
			vertex 0.10000000149011612 -0.1414213627576828 -0.10000000149011612
			vertex 0.1414213627576828 -0.1414213627576828 1.731912054510862e-17
			vertex 0.05411960929632187 -0.18477590382099152 -0.05411960929632187
		endloop
	endfacet
	facet normal 0.5414189793493178 -0.8102910334593023 -0.22426308188330715
		outer loop
			vertex 0.1414213627576828 -0.1414213627576828 1.731912054510862e-17
			vertex 0.07653668522834778 -0.18477590382099152 9.37304077400886e-18
			vertex 0.05411960929632187 -0.18477590382099152 -0.05411960929632187
		endloop
	endfacet
	facet normal 0.22426310674885822 -0.8102910287014854 -0.5414189761702473
		outer loop
			vertex 2.5978682472024153e-17 -0.1414213627576828 -0.1414213627576828
			vertex 0.10000000149011612 -0.1414213627576828 -0.10000000149011612
			vertex 1.4059560747422985e-17 -0.18477590382099152 -0.07653668522834778
		endloop
	endfacet
	facet normal 0.22426309285751364 -0.810291012719215 -0.541419005843396
		outer loop
			vertex 0.10000000149011612 -0.1414213627576828 -0.10000000149011612
			vertex 0.05411960929632187 -0.18477590382099152 -0.05411960929632187
			vertex 1.4059560747422985e-17 -0.18477590382099152 -0.07653668522834778
		endloop
	endfacet
	facet normal -0.22426311268805615 -0.8102910174770315 -0.5414189905087382
		outer loop
			vertex -0.10000000149011612 -0.1414213627576828 -0.10000000149011612
			vertex 2.5978682472024153e-17 -0.1414213627576828 -0.1414213627576828
			vertex -0.05411960929632187 -0.18477590382099152 -0.05411960929632187
		endloop
	endfacet
	facet normal -0.22426308188330715 -0.8102910334593023 -0.5414189793493178
		outer loop
			vertex 2.5978682472024153e-17 -0.1414213627576828 -0.1414213627576828
			vertex 1.4059560747422985e-17 -0.18477590382099152 -0.07653668522834778
			vertex -0.05411960929632187 -0.18477590382099152 -0.05411960929632187
		endloop
	endfacet
	facet normal -0.5414189761702473 -0.8102910287014854 -0.22426310674885822
		outer loop
			vertex -0.1414213627576828 -0.1414213627576828 0
			vertex -0.10000000149011612 -0.1414213627576828 -0.10000000149011612
			vertex -0.07653668522834778 -0.18477590382099152 0
		endloop
	endfacet
	facet normal -0.541419005843396 -0.810291012719215 -0.22426309285751367
		outer loop
			vertex -0.10000000149011612 -0.1414213627576828 -0.10000000149011612
			vertex -0.05411960929632187 -0.18477590382099152 -0.05411960929632187
			vertex -0.07653668522834778 -0.18477590382099152 0
		endloop
	endfacet
	facet normal -0.19445651692050012 -0.9775985475706443 0.08054652577804905
		outer loop
			vertex -0.05411960929632187 -0.18477590382099152 0.05411960929632187
			vertex -0.07653668522834778 -0.18477590382099152 0
			vertex -2.4492935397342132e-17 -0.20000000298023224 0
		endloop
	endfacet
	facet normal -0.08054652577804906 -0.9775985475706443 0.19445651692050014
		outer loop
			vertex -4.68652038700443e-18 -0.18477590382099152 0.07653668522834778
			vertex -0.05411960929632187 -0.18477590382099152 0.05411960929632187
			vertex -2.4492935397342132e-17 -0.20000000298023224 0
		endloop
	endfacet
	facet normal 0.08054652577804905 -0.9775985475706443 0.19445651692050014
		outer loop
			vertex 0.05411960929632187 -0.18477590382099152 0.05411960929632187
			vertex -4.68652038700443e-18 -0.18477590382099152 0.07653668522834778
			vertex -2.4492935397342132e-17 -0.20000000298023224 0
		endloop
	endfacet
	facet normal 0.19445651692050014 -0.9775985475706443 0.08054652577804906
		outer loop
			vertex 0.07653668522834778 -0.18477590382099152 9.37304077400886e-18
			vertex 0.05411960929632187 -0.18477590382099152 0.05411960929632187
			vertex -2.4492935397342132e-17 -0.20000000298023224 0
		endloop
	endfacet
	facet normal 0.19445651692050014 -0.9775985475706443 -0.08054652577804905
		outer loop
			vertex 0.05411960929632187 -0.18477590382099152 -0.05411960929632187
			vertex 0.07653668522834778 -0.18477590382099152 9.37304077400886e-18
			vertex -2.4492935397342132e-17 -0.20000000298023224 0
		endloop
	endfacet
	facet normal 0.08054652577804906 -0.9775985475706443 -0.19445651692050012
		outer loop
			vertex 1.4059560747422985e-17 -0.18477590382099152 -0.07653668522834778
			vertex 0.05411960929632187 -0.18477590382099152 -0.05411960929632187
			vertex -2.4492935397342132e-17 -0.20000000298023224 0
		endloop
	endfacet
	facet normal -0.08054652577804905 -0.9775985475706443 -0.19445651692050017
		outer loop
			vertex -0.05411960929632187 -0.18477590382099152 -0.05411960929632187
			vertex 1.4059560747422985e-17 -0.18477590382099152 -0.07653668522834778
			vertex -2.4492935397342132e-17 -0.20000000298023224 0
		endloop
	endfacet
	facet normal -0.19445651692050014 -0.9775985475706445 -0.08054652577804909
		outer loop
			vertex -0.07653668522834778 -0.18477590382099152 0
			vertex -0.05411960929632187 -0.18477590382099152 -0.05411960929632187
			vertex -2.4492935397342132e-17 -0.20000000298023224 0
		endloop
	endfacet
	facet normal -0.19445651692050006 0.9775985475706443 0.08054652577804902
		outer loop
			vertex 0 0.20000000298023224 0.2
			vertex -0.07653668522834778 0.18477590382099152 0.2
			vertex -0.05411960929632187 0.18477590382099152 0.2541196092963219
		endloop
	endfacet
	facet normal -0.08054652577804902 0.9775985475706443 0.19445651692050006
		outer loop
			vertex 0 0.20000000298023224 0.2
			vertex -0.05411960929632187 0.18477590382099152 0.2541196092963219
			vertex -4.68652038700443e-18 0.18477590382099152 0.2765366852283478
		endloop
	endfacet
	facet normal 0.08054652577804902 0.9775985475706445 0.1944565169205001
		outer loop
			vertex 0 0.20000000298023224 0.2
			vertex -4.68652038700443e-18 0.18477590382099152 0.2765366852283478
			vertex 0.05411960929632187 0.18477590382099152 0.2541196092963219
		endloop
	endfacet
	facet normal 0.19445651692050006 0.9775985475706443 0.08054652577804902
		outer loop
			vertex 0 0.20000000298023224 0.2
			vertex 0.05411960929632187 0.18477590382099152 0.2541196092963219
			vertex 0.07653668522834778 0.18477590382099152 0.2
		endloop
	endfacet
	facet normal 0.1944565169205001 0.9775985475706445 -0.08054652577804902
		outer loop
			vertex 0 0.20000000298023224 0.2
			vertex 0.07653668522834778 0.18477590382099152 0.2
			vertex 0.05411960929632187 0.18477590382099152 0.14588039070367814
		endloop
	endfacet
	facet normal 0.08054652577804905 0.9775985475706443 -0.19445651692050006
		outer loop
			vertex 0 0.20000000298023224 0.2
			vertex 0.05411960929632187 0.18477590382099152 0.14588039070367814
			vertex 1.4059560747422985e-17 0.18477590382099152 0.12346331477165223
		endloop
	endfacet
	facet normal -0.08054652577804901 0.9775985475706443 -0.19445651692050012
		outer loop
			vertex 0 0.20000000298023224 0.2
			vertex 1.4059560747422985e-17 0.18477590382099152 0.12346331477165223
			vertex -0.05411960929632187 0.18477590382099152 0.14588039070367814
		endloop
	endfacet
	facet normal -0.1944565169205001 0.9775985475706443 -0.08054652577804906
		outer loop
			vertex 0 0.20000000298023224 0.2
			vertex -0.05411960929632187 0.18477590382099152 0.14588039070367814
			vertex -0.07653668522834778 0.18477590382099152 0.2
		endloop
	endfacet
	facet normal -0.541419005843396 0.8102910127192149 0.22426309285751359
		outer loop
			vertex -0.05411960929632187 0.18477590382099152 0.2541196092963219
			vertex -0.07653668522834778 0.18477590382099152 0.2
			vertex -0.10000000149011612 0.1414213627576828 0.30000000149011613
		endloop
	endfacet
	facet normal -0.5414189761702473 0.8102910287014855 0.22426310674885816
		outer loop
			vertex -0.07653668522834778 0.18477590382099152 0.2
			vertex -0.1414213627576828 0.1414213627576828 0.2
			vertex -0.10000000149011612 0.1414213627576828 0.30000000149011613
		endloop
	endfacet
	facet normal -0.2242630818833072 0.8102910334593022 0.5414189793493177
		outer loop
			vertex -4.68652038700443e-18 0.18477590382099152 0.2765366852283478
			vertex -0.05411960929632187 0.18477590382099152 0.2541196092963219
			vertex -8.65956027255431e-18 0.1414213627576828 0.3414213627576828
		endloop
	endfacet
	facet normal -0.22426311268805624 0.8102910174770317 0.5414189905087382
		outer loop
			vertex -0.05411960929632187 0.18477590382099152 0.2541196092963219
			vertex -0.10000000149011612 0.1414213627576828 0.30000000149011613
			vertex -8.65956027255431e-18 0.1414213627576828 0.3414213627576828
		endloop
	endfacet
	facet normal 0.22426309285751359 0.8102910127192149 0.5414190058433961
		outer loop
			vertex 0.05411960929632187 0.18477590382099152 0.2541196092963219
			vertex -4.68652038700443e-18 0.18477590382099152 0.2765366852283478
			vertex 0.10000000149011612 0.1414213627576828 0.30000000149011613
		endloop
	endfacet
	facet normal 0.22426310674885813 0.8102910287014855 0.5414189761702473
		outer loop
			vertex -4.68652038700443e-18 0.18477590382099152 0.2765366852283478
			vertex -8.65956027255431e-18 0.1414213627576828 0.3414213627576828
			vertex 0.10000000149011612 0.1414213627576828 0.30000000149011613
		endloop
	endfacet
	facet normal 0.5414189793493177 0.8102910334593022 0.2242630818833072
		outer loop
			vertex 0.07653668522834778 0.18477590382099152 0.2
			vertex 0.05411960929632187 0.18477590382099152 0.2541196092963219
			vertex 0.1414213627576828 0.1414213627576828 0.20000000000000004
		endloop
	endfacet
	facet normal 0.5414189905087381 0.8102910174770316 0.2242631126880562
		outer loop
			vertex 0.05411960929632187 0.18477590382099152 0.2541196092963219
			vertex 0.10000000149011612 0.1414213627576828 0.30000000149011613
			vertex 0.1414213627576828 0.1414213627576828 0.20000000000000004
		endloop
	endfacet
	facet normal 0.541419005843396 0.8102910127192151 -0.22426309285751359
		outer loop
			vertex 0.05411960929632187 0.18477590382099152 0.14588039070367814
			vertex 0.07653668522834778 0.18477590382099152 0.2
			vertex 0.10000000149011612 0.1414213627576828 0.09999999850988389
		endloop
	endfacet
	facet normal 0.5414189761702473 0.8102910287014855 -0.22426310674885813
		outer loop
			vertex 0.07653668522834778 0.18477590382099152 0.2
			vertex 0.1414213627576828 0.1414213627576828 0.20000000000000004
			vertex 0.10000000149011612 0.1414213627576828 0.09999999850988389
		endloop
	endfacet
	facet normal 0.2242630818833072 0.8102910334593024 -0.5414189793493177
		outer loop
			vertex 1.4059560747422985e-17 0.18477590382099152 0.12346331477165223
			vertex 0.05411960929632187 0.18477590382099152 0.14588039070367814
			vertex 2.5978682472024153e-17 0.1414213627576828 0.05857863724231721
		endloop
	endfacet
	facet normal 0.22426311268805624 0.8102910174770317 -0.5414189905087382
		outer loop
			vertex 0.05411960929632187 0.18477590382099152 0.14588039070367814
			vertex 0.10000000149011612 0.1414213627576828 0.09999999850988389
			vertex 2.5978682472024153e-17 0.1414213627576828 0.05857863724231721
		endloop
	endfacet
	facet normal -0.22426309285751359 0.8102910127192151 -0.541419005843396
		outer loop
			vertex -0.05411960929632187 0.18477590382099152 0.14588039070367814
			vertex 1.4059560747422985e-17 0.18477590382099152 0.12346331477165223
			vertex -0.10000000149011612 0.1414213627576828 0.09999999850988389
		endloop
	endfacet
	facet normal -0.22426310674885813 0.8102910287014855 -0.5414189761702473
		outer loop
			vertex 1.4059560747422985e-17 0.18477590382099152 0.12346331477165223
			vertex 2.5978682472024153e-17 0.1414213627576828 0.05857863724231721
			vertex -0.10000000149011612 0.1414213627576828 0.09999999850988389
		endloop
	endfacet
	facet normal -0.5414189793493177 0.8102910334593024 -0.22426308188330726
		outer loop
			vertex -0.07653668522834778 0.18477590382099152 0.2
			vertex -0.05411960929632187 0.18477590382099152 0.14588039070367814
			vertex -0.1414213627576828 0.1414213627576828 0.2
		endloop
	endfacet
	facet normal -0.5414189905087381 0.8102910174770316 -0.2242631126880562
		outer loop
			vertex -0.05411960929632187 0.18477590382099152 0.14588039070367814
			vertex -0.10000000149011612 0.1414213627576828 0.09999999850988389
			vertex -0.1414213627576828 0.1414213627576828 0.2
		endloop
	endfacet
	facet normal -0.7861509762671628 0.5252893105452038 0.32563443113579277
		outer loop
			vertex -0.10000000149011612 0.1414213627576828 0.30000000149011613
			vertex -0.1414213627576828 0.1414213627576828 0.2
			vertex -0.13065630197525024 0.07653668522834778 0.33065630197525026
		endloop
	endfacet
	facet normal -0.7861510823272656 0.5252891850362152 0.3256343775458267
		outer loop
			vertex -0.1414213627576828 0.1414213627576828 0.2
			vertex -0.18477590382099152 0.07653668522834778 0.2
			vertex -0.13065630197525024 0.07653668522834778 0.33065630197525026
		endloop
	endfacet
	facet normal -0.32563446472636565 0.5252891683549441 0.7861510573619708
		outer loop
			vertex -8.65956027255431e-18 0.1414213627576828 0.3414213627576828
			vertex -0.10000000149011612 0.1414213627576828 0.30000000149011613
			vertex -1.1314260790922793e-17 0.07653668522834778 0.3847759038209915
		endloop
	endfacet
	facet normal -0.32563435183672135 0.5252892938639303 0.7861510202599828
		outer loop
			vertex -0.10000000149011612 0.1414213627576828 0.30000000149011613
			vertex -0.13065630197525024 0.07653668522834778 0.33065630197525026
			vertex -1.1314260790922793e-17 0.07653668522834778 0.3847759038209915
		endloop
	endfacet
	facet normal 0.3256344311357927 0.5252893105452037 0.7861509762671628
		outer loop
			vertex 0.10000000149011612 0.1414213627576828 0.30000000149011613
			vertex -8.65956027255431e-18 0.1414213627576828 0.3414213627576828
			vertex 0.13065630197525024 0.07653668522834778 0.33065630197525026
		endloop
	endfacet
	facet normal 0.32563437754582664 0.5252891850362151 0.7861510823272654
		outer loop
			vertex -8.65956027255431e-18 0.1414213627576828 0.3414213627576828
			vertex -1.1314260790922793e-17 0.07653668522834778 0.3847759038209915
			vertex 0.13065630197525024 0.07653668522834778 0.33065630197525026
		endloop
	endfacet
	facet normal 0.7861510573619708 0.5252891683549441 0.32563446472636565
		outer loop
			vertex 0.1414213627576828 0.1414213627576828 0.20000000000000004
			vertex 0.10000000149011612 0.1414213627576828 0.30000000149011613
			vertex 0.18477590382099152 0.07653668522834778 0.20000000000000004
		endloop
	endfacet
	facet normal 0.7861510202599828 0.5252892938639303 0.3256343518367214
		outer loop
			vertex 0.10000000149011612 0.1414213627576828 0.30000000149011613
			vertex 0.13065630197525024 0.07653668522834778 0.33065630197525026
			vertex 0.18477590382099152 0.07653668522834778 0.20000000000000004
		endloop
	endfacet
	facet normal 0.7861509762671628 0.5252893105452038 -0.3256344311357927
		outer loop
			vertex 0.10000000149011612 0.1414213627576828 0.09999999850988389
			vertex 0.1414213627576828 0.1414213627576828 0.20000000000000004
			vertex 0.13065630197525024 0.07653668522834778 0.06934369802474977
		endloop
	endfacet
	facet normal 0.7861510823272656 0.5252891850362152 -0.32563437754582664
		outer loop
			vertex 0.1414213627576828 0.1414213627576828 0.20000000000000004
			vertex 0.18477590382099152 0.07653668522834778 0.20000000000000004
			vertex 0.13065630197525024 0.07653668522834778 0.06934369802474977
		endloop
	endfacet
	facet normal 0.32563446472636565 0.5252891683549441 -0.7861510573619707
		outer loop
			vertex 2.5978682472024153e-17 0.1414213627576828 0.05857863724231721
			vertex 0.10000000149011612 0.1414213627576828 0.09999999850988389
			vertex 3.3942784027129604e-17 0.07653668522834778 0.015224096179008495
		endloop
	endfacet
	facet normal 0.3256343518367214 0.5252892938639303 -0.7861510202599828
		outer loop
			vertex 0.10000000149011612 0.1414213627576828 0.09999999850988389
			vertex 0.13065630197525024 0.07653668522834778 0.06934369802474977
			vertex 3.3942784027129604e-17 0.07653668522834778 0.015224096179008495
		endloop
	endfacet
	facet normal -0.3256344311357927 0.5252893105452038 -0.7861509762671629
		outer loop
			vertex -0.10000000149011612 0.1414213627576828 0.09999999850988389
			vertex 2.5978682472024153e-17 0.1414213627576828 0.05857863724231721
			vertex -0.13065630197525024 0.07653668522834778 0.06934369802474977
		endloop
	endfacet
	facet normal -0.32563437754582664 0.5252891850362152 -0.7861510823272656
		outer loop
			vertex 2.5978682472024153e-17 0.1414213627576828 0.05857863724231721
			vertex 3.3942784027129604e-17 0.07653668522834778 0.015224096179008495
			vertex -0.13065630197525024 0.07653668522834778 0.06934369802474977
		endloop
	endfacet
	facet normal -0.7861510573619707 0.5252891683549442 -0.32563446472636565
		outer loop
			vertex -0.1414213627576828 0.1414213627576828 0.2
			vertex -0.10000000149011612 0.1414213627576828 0.09999999850988389
			vertex -0.18477590382099152 0.07653668522834778 0.2
		endloop
	endfacet
	facet normal -0.7861510202599828 0.5252892938639303 -0.3256343518367215
		outer loop
			vertex -0.10000000149011612 0.1414213627576828 0.09999999850988389
			vertex -0.13065630197525024 0.07653668522834778 0.06934369802474977
			vertex -0.18477590382099152 0.07653668522834778 0.2
		endloop
	endfacet
	facet normal -0.9086633584013637 0.18074438983596644 0.3763806140618554
		outer loop
			vertex -0.13065630197525024 0.07653668522834778 0.33065630197525026
			vertex -0.18477590382099152 0.07653668522834778 0.2
			vertex -0.1414213627576828 1.2246467698671066e-17 0.3414213627576828
		endloop
	endfacet
	facet normal -0.9086633374107063 0.18074444574957238 0.37638063788712256
		outer loop
			vertex -0.18477590382099152 0.07653668522834778 0.2
			vertex -0.20000000298023224 1.2246467698671066e-17 0.2
			vertex -0.1414213627576828 1.2246467698671066e-17 0.3414213627576828
		endloop
	endfacet
	facet normal -0.3763806099740854 0.18074444796185785 0.9086633485326119
		outer loop
			vertex -1.1314260790922793e-17 0.07653668522834778 0.3847759038209915
			vertex -0.13065630197525024 0.07653668522834778 0.33065630197525026
			vertex -1.2246467698671066e-17 1.2246467698671066e-17 0.40000000298023225
		endloop
	endfacet
	facet normal -0.3763806416637297 0.18074439204825185 0.9086633465282435
		outer loop
			vertex -0.13065630197525024 0.07653668522834778 0.33065630197525026
			vertex -0.1414213627576828 1.2246467698671066e-17 0.3414213627576828
			vertex -1.2246467698671066e-17 1.2246467698671066e-17 0.40000000298023225
		endloop
	endfacet
	facet normal 0.3763806140618554 0.18074438983596644 0.9086633584013637
		outer loop
			vertex 0.13065630197525024 0.07653668522834778 0.33065630197525026
			vertex -1.1314260790922793e-17 0.07653668522834778 0.3847759038209915
			vertex 0.1414213627576828 1.2246467698671066e-17 0.3414213627576828
		endloop
	endfacet
	facet normal 0.37638063788712245 0.18074444574957235 0.908663337410706
		outer loop
			vertex -1.1314260790922793e-17 0.07653668522834778 0.3847759038209915
			vertex -1.2246467698671066e-17 1.2246467698671066e-17 0.40000000298023225
			vertex 0.1414213627576828 1.2246467698671066e-17 0.3414213627576828
		endloop
	endfacet
	facet normal 0.9086633485326119 0.18074444796185787 0.37638060997408546
		outer loop
			vertex 0.18477590382099152 0.07653668522834778 0.20000000000000004
			vertex 0.13065630197525024 0.07653668522834778 0.33065630197525026
			vertex 0.20000000298023224 1.2246467698671066e-17 0.20000000000000004
		endloop
	endfacet
	facet normal 0.9086633465282435 0.1807443920482519 0.3763806416637298
		outer loop
			vertex 0.13065630197525024 0.07653668522834778 0.33065630197525026
			vertex 0.1414213627576828 1.2246467698671066e-17 0.3414213627576828
			vertex 0.20000000298023224 1.2246467698671066e-17 0.20000000000000004
		endloop
	endfacet
	facet normal 0.9086633584013637 0.18074438983596647 -0.37638061406185536
		outer loop
			vertex 0.13065630197525024 0.07653668522834778 0.06934369802474977
			vertex 0.18477590382099152 0.07653668522834778 0.20000000000000004
			vertex 0.1414213627576828 1.2246467698671066e-17 0.05857863724231721
		endloop
	endfacet
	facet normal 0.9086633374107063 0.18074444574957238 -0.3763806378871225
		outer loop
			vertex 0.18477590382099152 0.07653668522834778 0.20000000000000004
			vertex 0.20000000298023224 1.2246467698671066e-17 0.20000000000000004
			vertex 0.1414213627576828 1.2246467698671066e-17 0.05857863724231721
		endloop
	endfacet
	facet normal 0.37638060997408546 0.18074444796185787 -0.9086633485326119
		outer loop
			vertex 3.3942784027129604e-17 0.07653668522834778 0.015224096179008495
			vertex 0.13065630197525024 0.07653668522834778 0.06934369802474977
			vertex 3.6739405577555036e-17 1.2246467698671066e-17 -2.980232227667301e-9
		endloop
	endfacet
	facet normal 0.3763806416637298 0.1807443920482519 -0.9086633465282435
		outer loop
			vertex 0.13065630197525024 0.07653668522834778 0.06934369802474977
			vertex 0.1414213627576828 1.2246467698671066e-17 0.05857863724231721
			vertex 3.6739405577555036e-17 1.2246467698671066e-17 -2.980232227667301e-9
		endloop
	endfacet
	facet normal -0.37638061406185536 0.18074438983596647 -0.9086633584013637
		outer loop
			vertex -0.13065630197525024 0.07653668522834778 0.06934369802474977
			vertex 3.3942784027129604e-17 0.07653668522834778 0.015224096179008495
			vertex -0.1414213627576828 1.2246467698671066e-17 0.05857863724231721
		endloop
	endfacet
	facet normal -0.3763806378871224 0.18074444574957235 -0.908663337410706
		outer loop
			vertex 3.3942784027129604e-17 0.07653668522834778 0.015224096179008495
			vertex 3.6739405577555036e-17 1.2246467698671066e-17 -2.980232227667301e-9
			vertex -0.1414213627576828 1.2246467698671066e-17 0.05857863724231721
		endloop
	endfacet
	facet normal -0.9086633485326118 0.1807444479618578 -0.37638060997408546
		outer loop
			vertex -0.18477590382099152 0.07653668522834778 0.2
			vertex -0.13065630197525024 0.07653668522834778 0.06934369802474977
			vertex -0.20000000298023224 1.2246467698671066e-17 0.2
		endloop
	endfacet
	facet normal -0.9086633465282435 0.18074439204825188 -0.3763806416637299
		outer loop
			vertex -0.13065630197525024 0.07653668522834778 0.06934369802474977
			vertex -0.1414213627576828 1.2246467698671066e-17 0.05857863724231721
			vertex -0.20000000298023224 1.2246467698671066e-17 0.2
		endloop
	endfacet
	facet normal -0.9086633465282437 -0.18074439204825182 0.3763806416637298
		outer loop
			vertex -0.1414213627576828 1.2246467698671066e-17 0.3414213627576828
			vertex -0.20000000298023224 1.2246467698671066e-17 0.2
			vertex -0.13065630197525024 -0.07653668522834778 0.33065630197525026
		endloop
	endfacet
	facet normal -0.9086633485326118 -0.18074444796185776 0.3763806099740854
		outer loop
			vertex -0.20000000298023224 1.2246467698671066e-17 0.2
			vertex -0.18477590382099152 -0.07653668522834778 0.2
			vertex -0.13065630197525024 -0.07653668522834778 0.33065630197525026
		endloop
	endfacet
	facet normal -0.37638063788712245 -0.1807444457495723 0.908663337410706
		outer loop
			vertex -1.2246467698671066e-17 1.2246467698671066e-17 0.40000000298023225
			vertex -0.1414213627576828 1.2246467698671066e-17 0.3414213627576828
			vertex -1.1314260790922793e-17 -0.07653668522834778 0.3847759038209915
		endloop
	endfacet
	facet normal -0.3763806140618554 -0.18074438983596633 0.9086633584013636
		outer loop
			vertex -0.1414213627576828 1.2246467698671066e-17 0.3414213627576828
			vertex -0.13065630197525024 -0.07653668522834778 0.33065630197525026
			vertex -1.1314260790922793e-17 -0.07653668522834778 0.3847759038209915
		endloop
	endfacet
	facet normal 0.3763806416637298 -0.18074439204825182 0.9086633465282437
		outer loop
			vertex 0.1414213627576828 1.2246467698671066e-17 0.3414213627576828
			vertex -1.2246467698671066e-17 1.2246467698671066e-17 0.40000000298023225
			vertex 0.13065630197525024 -0.07653668522834778 0.33065630197525026
		endloop
	endfacet
	facet normal 0.3763806099740854 -0.18074444796185776 0.9086633485326118
		outer loop
			vertex -1.2246467698671066e-17 1.2246467698671066e-17 0.40000000298023225
			vertex -1.1314260790922793e-17 -0.07653668522834778 0.3847759038209915
			vertex 0.13065630197525024 -0.07653668522834778 0.33065630197525026
		endloop
	endfacet
	facet normal 0.908663337410706 -0.18074444574957224 0.3763806378871225
		outer loop
			vertex 0.20000000298023224 1.2246467698671066e-17 0.20000000000000004
			vertex 0.1414213627576828 1.2246467698671066e-17 0.3414213627576828
			vertex 0.18477590382099152 -0.07653668522834778 0.20000000000000004
		endloop
	endfacet
	facet normal 0.9086633584013637 -0.18074438983596638 0.3763806140618555
		outer loop
			vertex 0.1414213627576828 1.2246467698671066e-17 0.3414213627576828
			vertex 0.13065630197525024 -0.07653668522834778 0.33065630197525026
			vertex 0.18477590382099152 -0.07653668522834778 0.20000000000000004
		endloop
	endfacet
	facet normal 0.9086633465282437 -0.1807443920482518 -0.37638064166372975
		outer loop
			vertex 0.1414213627576828 1.2246467698671066e-17 0.05857863724231721
			vertex 0.20000000298023224 1.2246467698671066e-17 0.20000000000000004
			vertex 0.13065630197525024 -0.07653668522834778 0.06934369802474977
		endloop
	endfacet
	facet normal 0.9086633485326118 -0.18074444796185776 -0.37638060997408535
		outer loop
			vertex 0.20000000298023224 1.2246467698671066e-17 0.20000000000000004
			vertex 0.18477590382099152 -0.07653668522834778 0.20000000000000004
			vertex 0.13065630197525024 -0.07653668522834778 0.06934369802474977
		endloop
	endfacet
	facet normal 0.3763806378871225 -0.18074444574957224 -0.908663337410706
		outer loop
			vertex 3.6739405577555036e-17 1.2246467698671066e-17 -2.980232227667301e-9
			vertex 0.1414213627576828 1.2246467698671066e-17 0.05857863724231721
			vertex 3.3942784027129604e-17 -0.07653668522834778 0.015224096179008495
		endloop
	endfacet
	facet normal 0.3763806140618555 -0.18074438983596638 -0.9086633584013637
		outer loop
			vertex 0.1414213627576828 1.2246467698671066e-17 0.05857863724231721
			vertex 0.13065630197525024 -0.07653668522834778 0.06934369802474977
			vertex 3.3942784027129604e-17 -0.07653668522834778 0.015224096179008495
		endloop
	endfacet
	facet normal -0.37638064166372975 -0.1807443920482518 -0.9086633465282437
		outer loop
			vertex -0.1414213627576828 1.2246467698671066e-17 0.05857863724231721
			vertex 3.6739405577555036e-17 1.2246467698671066e-17 -2.980232227667301e-9
			vertex -0.13065630197525024 -0.07653668522834778 0.06934369802474977
		endloop
	endfacet
	facet normal -0.37638060997408535 -0.18074444796185776 -0.9086633485326118
		outer loop
			vertex 3.6739405577555036e-17 1.2246467698671066e-17 -2.980232227667301e-9
			vertex 3.3942784027129604e-17 -0.07653668522834778 0.015224096179008495
			vertex -0.13065630197525024 -0.07653668522834778 0.06934369802474977
		endloop
	endfacet
	facet normal -0.908663337410706 -0.18074444574957227 -0.37638063788712256
		outer loop
			vertex -0.20000000298023224 1.2246467698671066e-17 0.2
			vertex -0.1414213627576828 1.2246467698671066e-17 0.05857863724231721
			vertex -0.18477590382099152 -0.07653668522834778 0.2
		endloop
	endfacet
	facet normal -0.9086633584013635 -0.18074438983596633 -0.3763806140618555
		outer loop
			vertex -0.1414213627576828 1.2246467698671066e-17 0.05857863724231721
			vertex -0.13065630197525024 -0.07653668522834778 0.06934369802474977
			vertex -0.18477590382099152 -0.07653668522834778 0.2
		endloop
	endfacet
	facet normal -0.7861510202599828 -0.5252892938639303 0.32563435183672135
		outer loop
			vertex -0.13065630197525024 -0.07653668522834778 0.33065630197525026
			vertex -0.18477590382099152 -0.07653668522834778 0.2
			vertex -0.10000000149011612 -0.1414213627576828 0.30000000149011613
		endloop
	endfacet
	facet normal -0.7861510573619708 -0.5252891683549441 0.32563446472636565
		outer loop
			vertex -0.18477590382099152 -0.07653668522834778 0.2
			vertex -0.1414213627576828 -0.1414213627576828 0.2
			vertex -0.10000000149011612 -0.1414213627576828 0.30000000149011613
		endloop
	endfacet
	facet normal -0.32563437754582664 -0.5252891850362151 0.7861510823272654
		outer loop
			vertex -1.1314260790922793e-17 -0.07653668522834778 0.3847759038209915
			vertex -0.13065630197525024 -0.07653668522834778 0.33065630197525026
			vertex -8.65956027255431e-18 -0.1414213627576828 0.3414213627576828
		endloop
	endfacet
	facet normal -0.32563443113579277 -0.5252893105452038 0.7861509762671627
		outer loop
			vertex -0.13065630197525024 -0.07653668522834778 0.33065630197525026
			vertex -0.10000000149011612 -0.1414213627576828 0.30000000149011613
			vertex -8.65956027255431e-18 -0.1414213627576828 0.3414213627576828
		endloop
	endfacet
	facet normal 0.32563435183672135 -0.5252892938639302 0.7861510202599828
		outer loop
			vertex 0.13065630197525024 -0.07653668522834778 0.33065630197525026
			vertex -1.1314260790922793e-17 -0.07653668522834778 0.3847759038209915
			vertex 0.10000000149011612 -0.1414213627576828 0.30000000149011613
		endloop
	endfacet
	facet normal 0.32563446472636554 -0.5252891683549441 0.7861510573619707
		outer loop
			vertex -1.1314260790922793e-17 -0.07653668522834778 0.3847759038209915
			vertex -8.65956027255431e-18 -0.1414213627576828 0.3414213627576828
			vertex 0.10000000149011612 -0.1414213627576828 0.30000000149011613
		endloop
	endfacet
	facet normal 0.7861510823272655 -0.5252891850362151 0.32563437754582675
		outer loop
			vertex 0.18477590382099152 -0.07653668522834778 0.20000000000000004
			vertex 0.13065630197525024 -0.07653668522834778 0.33065630197525026
			vertex 0.1414213627576828 -0.1414213627576828 0.20000000000000004
		endloop
	endfacet
	facet normal 0.7861509762671627 -0.5252893105452038 0.32563443113579277
		outer loop
			vertex 0.13065630197525024 -0.07653668522834778 0.33065630197525026
			vertex 0.10000000149011612 -0.1414213627576828 0.30000000149011613
			vertex 0.1414213627576828 -0.1414213627576828 0.20000000000000004
		endloop
	endfacet
	facet normal 0.786151020259983 -0.5252892938639302 -0.32563435183672135
		outer loop
			vertex 0.13065630197525024 -0.07653668522834778 0.06934369802474977
			vertex 0.18477590382099152 -0.07653668522834778 0.20000000000000004
			vertex 0.10000000149011612 -0.1414213627576828 0.09999999850988389
		endloop
	endfacet
	facet normal 0.7861510573619707 -0.5252891683549441 -0.32563446472636554
		outer loop
			vertex 0.18477590382099152 -0.07653668522834778 0.20000000000000004
			vertex 0.1414213627576828 -0.1414213627576828 0.20000000000000004
			vertex 0.10000000149011612 -0.1414213627576828 0.09999999850988389
		endloop
	endfacet
	facet normal 0.32563437754582675 -0.5252891850362151 -0.7861510823272655
		outer loop
			vertex 3.3942784027129604e-17 -0.07653668522834778 0.015224096179008495
			vertex 0.13065630197525024 -0.07653668522834778 0.06934369802474977
			vertex 2.5978682472024153e-17 -0.1414213627576828 0.05857863724231721
		endloop
	endfacet
	facet normal 0.3256344311357928 -0.5252893105452038 -0.7861509762671628
		outer loop
			vertex 0.13065630197525024 -0.07653668522834778 0.06934369802474977
			vertex 0.10000000149011612 -0.1414213627576828 0.09999999850988389
			vertex 2.5978682472024153e-17 -0.1414213627576828 0.05857863724231721
		endloop
	endfacet
	facet normal -0.32563435183672135 -0.5252892938639302 -0.786151020259983
		outer loop
			vertex -0.13065630197525024 -0.07653668522834778 0.06934369802474977
			vertex 3.3942784027129604e-17 -0.07653668522834778 0.015224096179008495
			vertex -0.10000000149011612 -0.1414213627576828 0.09999999850988389
		endloop
	endfacet
	facet normal -0.32563446472636554 -0.5252891683549441 -0.7861510573619708
		outer loop
			vertex 3.3942784027129604e-17 -0.07653668522834778 0.015224096179008495
			vertex 2.5978682472024153e-17 -0.1414213627576828 0.05857863724231721
			vertex -0.10000000149011612 -0.1414213627576828 0.09999999850988389
		endloop
	endfacet
	facet normal -0.7861510823272653 -0.5252891850362152 -0.32563437754582675
		outer loop
			vertex -0.18477590382099152 -0.07653668522834778 0.2
			vertex -0.13065630197525024 -0.07653668522834778 0.06934369802474977
			vertex -0.1414213627576828 -0.1414213627576828 0.2
		endloop
	endfacet
	facet normal -0.7861509762671628 -0.5252893105452038 -0.3256344311357928
		outer loop
			vertex -0.13065630197525024 -0.07653668522834778 0.06934369802474977
			vertex -0.10000000149011612 -0.1414213627576828 0.09999999850988389
			vertex -0.1414213627576828 -0.1414213627576828 0.2
		endloop
	endfacet
	facet normal -0.5414189905087382 -0.8102910174770317 0.2242631126880562
		outer loop
			vertex -0.10000000149011612 -0.1414213627576828 0.30000000149011613
			vertex -0.1414213627576828 -0.1414213627576828 0.2
			vertex -0.05411960929632187 -0.18477590382099152 0.2541196092963219
		endloop
	endfacet
	facet normal -0.5414189793493177 -0.8102910334593022 0.22426308188330715
		outer loop
			vertex -0.1414213627576828 -0.1414213627576828 0.2
			vertex -0.07653668522834778 -0.18477590382099152 0.2
			vertex -0.05411960929632187 -0.18477590382099152 0.2541196092963219
		endloop
	endfacet
	facet normal -0.22426310674885816 -0.8102910287014855 0.5414189761702471
		outer loop
			vertex -8.65956027255431e-18 -0.1414213627576828 0.3414213627576828
			vertex -0.10000000149011612 -0.1414213627576828 0.30000000149011613
			vertex -4.68652038700443e-18 -0.18477590382099152 0.2765366852283478
		endloop
	endfacet
	facet normal -0.22426309285751364 -0.810291012719215 0.541419005843396
		outer loop
			vertex -0.10000000149011612 -0.1414213627576828 0.30000000149011613
			vertex -0.05411960929632187 -0.18477590382099152 0.2541196092963219
			vertex -4.68652038700443e-18 -0.18477590382099152 0.2765366852283478
		endloop
	endfacet
	facet normal 0.22426311268805613 -0.8102910174770316 0.5414189905087381
		outer loop
			vertex 0.10000000149011612 -0.1414213627576828 0.30000000149011613
			vertex -8.65956027255431e-18 -0.1414213627576828 0.3414213627576828
			vertex 0.05411960929632187 -0.18477590382099152 0.2541196092963219
		endloop
	endfacet
	facet normal 0.22426308188330715 -0.8102910334593023 0.5414189793493178
		outer loop
			vertex -8.65956027255431e-18 -0.1414213627576828 0.3414213627576828
			vertex -4.68652038700443e-18 -0.18477590382099152 0.2765366852283478
			vertex 0.05411960929632187 -0.18477590382099152 0.2541196092963219
		endloop
	endfacet
	facet normal 0.5414189761702473 -0.8102910287014854 0.22426310674885822
		outer loop
			vertex 0.1414213627576828 -0.1414213627576828 0.20000000000000004
			vertex 0.10000000149011612 -0.1414213627576828 0.30000000149011613
			vertex 0.07653668522834778 -0.18477590382099152 0.2
		endloop
	endfacet
	facet normal 0.541419005843396 -0.810291012719215 0.22426309285751364
		outer loop
			vertex 0.10000000149011612 -0.1414213627576828 0.30000000149011613
			vertex 0.05411960929632187 -0.18477590382099152 0.2541196092963219
			vertex 0.07653668522834778 -0.18477590382099152 0.2
		endloop
	endfacet
	facet normal 0.5414189905087381 -0.8102910174770316 -0.22426311268805613
		outer loop
			vertex 0.10000000149011612 -0.1414213627576828 0.09999999850988389
			vertex 0.1414213627576828 -0.1414213627576828 0.20000000000000004
			vertex 0.05411960929632187 -0.18477590382099152 0.14588039070367814
		endloop
	endfacet
	facet normal 0.5414189793493178 -0.8102910334593023 -0.22426308188330715
		outer loop
			vertex 0.1414213627576828 -0.1414213627576828 0.20000000000000004
			vertex 0.07653668522834778 -0.18477590382099152 0.2
			vertex 0.05411960929632187 -0.18477590382099152 0.14588039070367814
		endloop
	endfacet
	facet normal 0.22426310674885822 -0.8102910287014854 -0.5414189761702473
		outer loop
			vertex 2.5978682472024153e-17 -0.1414213627576828 0.05857863724231721
			vertex 0.10000000149011612 -0.1414213627576828 0.09999999850988389
			vertex 1.4059560747422985e-17 -0.18477590382099152 0.12346331477165223
		endloop
	endfacet
	facet normal 0.22426309285751364 -0.810291012719215 -0.541419005843396
		outer loop
			vertex 0.10000000149011612 -0.1414213627576828 0.09999999850988389
			vertex 0.05411960929632187 -0.18477590382099152 0.14588039070367814
			vertex 1.4059560747422985e-17 -0.18477590382099152 0.12346331477165223
		endloop
	endfacet
	facet normal -0.22426311268805615 -0.8102910174770315 -0.5414189905087382
		outer loop
			vertex -0.10000000149011612 -0.1414213627576828 0.09999999850988389
			vertex 2.5978682472024153e-17 -0.1414213627576828 0.05857863724231721
			vertex -0.05411960929632187 -0.18477590382099152 0.14588039070367814
		endloop
	endfacet
	facet normal -0.22426308188330715 -0.8102910334593023 -0.5414189793493178
		outer loop
			vertex 2.5978682472024153e-17 -0.1414213627576828 0.05857863724231721
			vertex 1.4059560747422985e-17 -0.18477590382099152 0.12346331477165223
			vertex -0.05411960929632187 -0.18477590382099152 0.14588039070367814
		endloop
	endfacet
	facet normal -0.5414189761702473 -0.8102910287014854 -0.22426310674885822
		outer loop
			vertex -0.1414213627576828 -0.1414213627576828 0.2
			vertex -0.10000000149011612 -0.1414213627576828 0.09999999850988389
			vertex -0.07653668522834778 -0.18477590382099152 0.2
		endloop
	endfacet
	facet normal -0.541419005843396 -0.810291012719215 -0.22426309285751367
		outer loop
			vertex -0.10000000149011612 -0.1414213627576828 0.09999999850988389
			vertex -0.05411960929632187 -0.18477590382099152 0.14588039070367814
			vertex -0.07653668522834778 -0.18477590382099152 0.2
		endloop
	endfacet
	facet normal -0.19445651692050012 -0.9775985475706443 0.08054652577804905
		outer loop
			vertex -0.05411960929632187 -0.18477590382099152 0.2541196092963219
			vertex -0.07653668522834778 -0.18477590382099152 0.2
			vertex -2.4492935397342132e-17 -0.20000000298023224 0.2
		endloop
	endfacet
	facet normal -0.08054652577804906 -0.9775985475706443 0.19445651692050014
		outer loop
			vertex -4.68652038700443e-18 -0.18477590382099152 0.2765366852283478
			vertex -0.05411960929632187 -0.18477590382099152 0.2541196092963219
			vertex -2.4492935397342132e-17 -0.20000000298023224 0.2
		endloop
	endfacet
	facet normal 0.08054652577804905 -0.9775985475706443 0.19445651692050014
		outer loop
			vertex 0.05411960929632187 -0.18477590382099152 0.2541196092963219
			vertex -4.68652038700443e-18 -0.18477590382099152 0.2765366852283478
			vertex -2.4492935397342132e-17 -0.20000000298023224 0.2
		endloop
	endfacet
	facet normal 0.19445651692050014 -0.9775985475706443 0.08054652577804906
		outer loop
			vertex 0.07653668522834778 -0.18477590382099152 0.2
			vertex 0.05411960929632187 -0.18477590382099152 0.2541196092963219
			vertex -2.4492935397342132e-17 -0.20000000298023224 0.2
		endloop
	endfacet
	facet normal 0.19445651692050014 -0.9775985475706443 -0.08054652577804905
		outer loop
			vertex 0.05411960929632187 -0.18477590382099152 0.14588039070367814
			vertex 0.07653668522834778 -0.18477590382099152 0.2
			vertex -2.4492935397342132e-17 -0.20000000298023224 0.2
		endloop
	endfacet
	facet normal 0.08054652577804906 -0.9775985475706443 -0.19445651692050012
		outer loop
			vertex 1.4059560747422985e-17 -0.18477590382099152 0.12346331477165223
			vertex 0.05411960929632187 -0.18477590382099152 0.14588039070367814
			vertex -2.4492935397342132e-17 -0.20000000298023224 0.2
		endloop
	endfacet
	facet normal -0.08054652577804905 -0.9775985475706443 -0.19445651692050017
		outer loop
			vertex -0.05411960929632187 -0.18477590382099152 0.14588039070367814
			vertex 1.4059560747422985e-17 -0.18477590382099152 0.12346331477165223
			vertex -2.4492935397342132e-17 -0.20000000298023224 0.2
		endloop
	endfacet
	facet normal -0.19445651692050014 -0.9775985475706445 -0.08054652577804909
		outer loop
			vertex -0.07653668522834778 -0.18477590382099152 0.2
			vertex -0.05411960929632187 -0.18477590382099152 0.14588039070367814
			vertex -2.4492935397342132e-17 -0.20000000298023224 0.2
		endloop
	endfacet
endsolid exported
